<svg width="180" height="180" xmlns="http://www.w3.org/2000/svg" xmlns:svg="http://www.w3.org/2000/svg">
 <g>
  <title>Layer 1</title>
  <path fill="black" id="svg_1" d="m151.85055,76.90897l-49.58775,0l0,-52.93679c0,-6.91367 -5.47994,-12.51828 -12.2628,-12.51828c-6.78286,0 -12.2628,5.6046 -12.2628,12.51828l0,52.93679l-49.58775,0c-6.47631,0 -11.72634,5.85003 -11.72634,13.09103c0,7.24096 5.25002,13.09103 11.72634,13.09103l49.58775,0l0,52.93679c0,6.91367 5.47994,12.51828 12.2628,12.51828c6.78286,0 12.2628,-5.6046 12.2628,-12.51828l0,-52.93679l49.58775,0c6.47631,0 11.72634,-5.85003 11.72634,-13.09103c0,-7.24096 -5.25002,-13.09103 -11.72634,-13.09103z"/>
 </g>
</svg>