<?xml version="1.0" encoding="UTF-8" standalone="no"?>
<!-- Created with Inkscape (http://www.inkscape.org/) -->

<svg
   xmlns:dc="http://purl.org/dc/elements/1.1/"
   xmlns:cc="http://creativecommons.org/ns#"
   xmlns:rdf="http://www.w3.org/1999/02/22-rdf-syntax-ns#"
   xmlns:svg="http://www.w3.org/2000/svg"
   xmlns="http://www.w3.org/2000/svg"
   xmlns:sodipodi="http://sodipodi.sourceforge.net/DTD/sodipodi-0.dtd"
   xmlns:inkscape="http://www.inkscape.org/namespaces/inkscape"
   width="312.24252"
   height="159.66228"
   id="svg2"
   version="1.1"
   inkscape:version="0.91 r13725"
   sodipodi:docname="asymptote_logo_text.svg">
  <defs
     id="defs4" />
  <sodipodi:namedview
     id="base"
     pagecolor="#282828"
     bordercolor="#666666"
     borderopacity="1.0"
     inkscape:pageopacity="0"
     inkscape:pageshadow="2"
     inkscape:zoom="1.88"
     inkscape:cx="136.48361"
     inkscape:cy="177.11421"
     inkscape:document-units="px"
     inkscape:current-layer="text4399"
     showgrid="true"
     inkscape:snap-midpoints="true"
     inkscape:snap-smooth-nodes="true"
     inkscape:object-nodes="true"
     inkscape:snap-intersection-paths="true"
     inkscape:object-paths="true"
     inkscape:snap-nodes="true"
     inkscape:snap-bbox="true"
     inkscape:window-width="1280"
     inkscape:window-height="701"
     inkscape:window-x="0"
     inkscape:window-y="1"
     inkscape:window-maximized="1"
     fit-margin-top="0"
     fit-margin-left="0"
     fit-margin-right="0"
     fit-margin-bottom="0"
     units="px">
    <inkscape:grid
       type="xygrid"
       id="grid3384"
       spacingx="0.5"
       spacingy="0.50000001"
       originx="-290"
       originy="-850.00003" />
  </sodipodi:namedview>
  <metadata
     id="metadata7">
    <rdf:RDF>
      <cc:Work
         rdf:about="">
        <dc:format>image/svg+xml</dc:format>
        <dc:type
           rdf:resource="http://purl.org/dc/dcmitype/StillImage" />
        <dc:title></dc:title>
      </cc:Work>
    </rdf:RDF>
  </metadata>
  <g
     inkscape:label="Layer 1"
     inkscape:groupmode="layer"
     id="layer1"
     transform="translate(-290,-42.69993)">
    <path
       style="fill:none;fill-rule:evenodd;stroke:#ffffff;stroke-width:2;stroke-linecap:butt;stroke-linejoin:miter;stroke-opacity:1"
       d="M 350,54.862208 350,202.3622"
       id="path3388"
       inkscape:connector-curvature="0"
       sodipodi:nodetypes="cc" />
    <path
       style="fill:none;fill-rule:evenodd;stroke:#ffffff;stroke-width:3.53137207;stroke-linecap:butt;stroke-linejoin:miter;stroke-opacity:1"
       d="m 325,152.3622 265.00001,0"
       id="path3390"
       inkscape:connector-curvature="0"
       sodipodi:nodetypes="cc" />
    <path
       style="fill:none;fill-rule:evenodd;stroke:#e74710;stroke-width:3.90803385;stroke-linecap:butt;stroke-linejoin:miter;stroke-opacity:1"
       d="m 355,57.362205 c 0,140.000005 52.5,140.000005 52.5,140.000005"
       id="path3392"
       inkscape:connector-curvature="0"
       sodipodi:nodetypes="cc" />
    <path
       style="fill:none;fill-rule:evenodd;stroke:#e74710;stroke-width:4;stroke-linecap:butt;stroke-linejoin:miter;stroke-opacity:1"
       d="M 345,57.362205 C 345,197.3622 290,197.3622 290,197.3622"
       id="path3392-7"
       inkscape:connector-curvature="0"
       sodipodi:nodetypes="cc" />
    <path
       style="fill:none;fill-rule:evenodd;stroke:#ffffff;stroke-width:2;stroke-linecap:butt;stroke-linejoin:miter;stroke-opacity:1"
       d="m 347.5,53.362208 2.5,-7.5 2.5,7.5"
       id="path4228"
       inkscape:connector-curvature="0" />
    <path
       style="fill:none;fill-rule:evenodd;stroke:#ffffff;stroke-width:2;stroke-linecap:butt;stroke-linejoin:miter;stroke-opacity:1"
       d="m 592,149.86221 10,2.5 -10,2.5"
       id="path4230"
       inkscape:connector-curvature="0" />
    <g
       style="font-style:normal;font-weight:normal;font-size:40px;line-height:125%;font-family:sans-serif;letter-spacing:0px;word-spacing:0px;fill:#ffffff;fill-opacity:1;stroke:none;stroke-width:1px;stroke-linecap:butt;stroke-linejoin:miter;stroke-opacity:1"
       id="text4395">
      <path
         d="m 391.74554,134.7648 q 0,5.54688 -2.51953,8.14453 -2.51953,2.59766 -7.7539,2.59766 -1.73828,0 -3.39844,-0.25391 -1.64063,-0.23437 -3.24219,-0.68359 l 0,-3.75 0.19531,0 q 0.89844,0.35156 2.85157,0.85937 1.95312,0.52735 3.90625,0.52735 1.875,0 3.10547,-0.44922 1.23046,-0.44922 1.91406,-1.25 0.68359,-0.76172 0.97656,-1.83594 0.29297,-1.07422 0.29297,-2.40234 l 0,-1.99219 q -1.66016,1.32812 -3.18359,1.99219 -1.50391,0.64453 -3.84766,0.64453 -3.90625,0 -6.21094,-2.8125 -2.28515,-2.83203 -2.28515,-7.96875 0,-2.8125 0.78125,-4.84375 0.80078,-2.05078 2.16796,-3.53516 1.26954,-1.38672 3.08594,-2.14844 1.81641,-0.78125 3.61328,-0.78125 1.89453,0 3.16407,0.39063 1.28906,0.37109 2.71484,1.15234 l 0.23437,-0.9375 3.4375,0 0,19.33594 z m -3.67187,-3.51562 0,-11.89454 q -1.46484,-0.66406 -2.73438,-0.9375 -1.25,-0.29296 -2.5,-0.29296 -3.02734,0 -4.76562,2.03125 -1.73828,2.03125 -1.73828,5.89843 0,3.67188 1.28906,5.56641 1.28906,1.89453 4.27734,1.89453 1.60157,0 3.20313,-0.60547 1.62109,-0.625 2.96875,-1.66015 z"
         id="path4579"
         inkscape:connector-curvature="0" />
      <path
         d="m 417.23383,126.71793 -16.07422,0 q 0,2.01171 0.60547,3.51562 0.60546,1.48438 1.66015,2.44141 1.01563,0.9375 2.40235,1.40625 1.40625,0.46875 3.08593,0.46875 2.22657,0 4.47266,-0.87891 2.26562,-0.89844 3.22266,-1.75781 l 0.19531,0 0,4.0039 q -1.85547,0.78125 -3.78906,1.3086 -1.9336,0.52734 -4.0625,0.52734 -5.42969,0 -8.47657,-2.92969 -3.04687,-2.94921 -3.04687,-8.35937 0,-5.35156 2.91015,-8.49609 2.92969,-3.14454 7.69532,-3.14454 4.41406,0 6.79687,2.57813 2.40235,2.57812 2.40235,7.32422 l 0,1.99219 z m -3.57422,-2.8125 q -0.0195,-2.89063 -1.46485,-4.47266 -1.42578,-1.58203 -4.35547,-1.58203 -2.94921,0 -4.70703,1.73828 -1.73828,1.73828 -1.97265,4.31641 l 12.5,0 z"
         id="path4581"
         inkscape:connector-curvature="0" />
      <path
         d="m 441.06195,126.71793 -16.07422,0 q 0,2.01171 0.60547,3.51562 0.60547,1.48438 1.66016,2.44141 1.01562,0.9375 2.40234,1.40625 1.40625,0.46875 3.08594,0.46875 2.22656,0 4.47265,-0.87891 2.26563,-0.89844 3.22266,-1.75781 l 0.19531,0 0,4.0039 q -1.85547,0.78125 -3.78906,1.3086 -1.93359,0.52734 -4.0625,0.52734 -5.42969,0 -8.47656,-2.92969 -3.04688,-2.94921 -3.04688,-8.35937 0,-5.35156 2.91016,-8.49609 2.92969,-3.14454 7.69531,-3.14454 4.41406,0 6.79688,2.57813 2.40234,2.57812 2.40234,7.32422 l 0,1.99219 z m -3.57422,-2.8125 q -0.0195,-2.89063 -1.46484,-4.47266 -1.42578,-1.58203 -4.35547,-1.58203 -2.94922,0 -4.70703,1.73828 -1.73828,1.73828 -1.97266,4.31641 l 12.5,0 z"
         id="path4583"
         inkscape:connector-curvature="0" />
      <path
         d="m 466.43304,137.24527 -4.84375,0 -8.75,-9.55078 -2.38281,2.26562 0,7.28516 -3.67187,0 0,-30.39063 3.67187,0 0,19.49219 10.60547,-10.91797 4.62891,0 -10.13672,10.07813 10.8789,11.73828 z"
         id="path4585"
         inkscape:connector-curvature="0" />
      <path
         d="m 492.83929,137.24527 -3.86718,0 0,-14.23828 -14.51172,0 0,14.23828 -3.86719,0 0,-29.08203 3.86719,0 0,11.40625 14.51172,0 0,-11.40625 3.86718,0 0,29.08203 z"
         style="fill:#e74710;fill-opacity:1"
         id="path4587"
         inkscape:connector-curvature="0" />
      <path
         d="m 522.35101,111.50308 q 1.77735,1.95313 2.71485,4.78516 0.95703,2.83203 0.95703,6.42578 0,3.59375 -0.97656,6.44531 -0.95704,2.83203 -2.69532,4.72656 -1.79687,1.97266 -4.25781,2.96875 -2.44141,0.9961 -5.58594,0.9961 -3.0664,0 -5.58593,-1.01563 -2.5,-1.01562 -4.25782,-2.94922 -1.75781,-1.93359 -2.71484,-4.74609 -0.9375,-2.8125 -0.9375,-6.42578 0,-3.55469 0.9375,-6.36719 0.9375,-2.83203 2.73437,-4.84375 1.71875,-1.91406 4.25782,-2.92969 2.55859,-1.01562 5.5664,-1.01562 3.125,0 5.60547,1.03516 2.5,1.01562 4.23828,2.91015 z m -0.35156,11.21094 q 0,-5.66406 -2.53906,-8.73047 -2.53906,-3.08594 -6.9336,-3.08594 -4.43359,0 -6.97265,3.08594 -2.51953,3.06641 -2.51953,8.73047 0,5.72266 2.57812,8.76953 2.57813,3.02734 6.91406,3.02734 4.33594,0 6.89454,-3.02734 2.57812,-3.04687 2.57812,-8.76953 z"
         style="fill:#e74710;fill-opacity:1"
         id="path4589"
         inkscape:connector-curvature="0" />
      <path
         d="m 558.13226,137.24527 -3.86718,0 0,-25.05859 -8.08594,17.05078 -2.30469,0 -8.02734,-17.05078 0,25.05859 -3.61328,0 0,-29.08203 5.27343,0 7.75391,16.1914 7.5,-16.1914 5.37109,0 0,29.08203 z"
         style="fill:#e74710;fill-opacity:1"
         id="path4591"
         inkscape:connector-curvature="0" />
      <path
         d="m 585.14398,137.24527 -19.16015,0 0,-29.08203 19.16015,0 0,3.4375 -15.29297,0 0,7.96875 15.29297,0 0,3.4375 -15.29297,0 0,10.80078 15.29297,0 0,3.4375 z"
         style="fill:#e74710;fill-opacity:1"
         id="path4593"
         inkscape:connector-curvature="0" />
    </g>
    <g
       style="font-style:normal;font-weight:normal;font-size:40px;line-height:125%;font-family:sans-serif;letter-spacing:0px;word-spacing:0px;fill:#e74710;fill-opacity:1;stroke:none;stroke-width:1px;stroke-linecap:butt;stroke-linejoin:miter;stroke-opacity:1"
       id="text4399">
      <path
         d="m 413.6058,179.78934 q 0,2.98828 -2.48046,4.90234 -2.46094,1.91406 -6.73829,1.91406 -2.42187,0 -4.45312,-0.5664 -2.01172,-0.58594 -3.37891,-1.26953 l 0,-4.1211 0.19532,0 q 1.73828,1.3086 3.86718,2.08985 2.12891,0.76171 4.08203,0.76171 2.42188,0 3.78907,-0.78125 1.36718,-0.78125 1.36718,-2.46093 0,-1.28907 -0.74218,-1.95313 -0.74219,-0.66406 -2.85157,-1.13281 -0.78125,-0.17578 -2.05078,-0.41016 -1.25,-0.23437 -2.28515,-0.50781 -2.8711,-0.76172 -4.08203,-2.22656 -1.19141,-1.48438 -1.19141,-3.63281 0,-1.34766 0.54687,-2.53907 0.56641,-1.1914 1.69922,-2.1289 1.09375,-0.91797 2.77344,-1.44532 1.69922,-0.54687 3.78906,-0.54687 1.95313,0 3.94532,0.48828 2.01171,0.46875 3.33984,1.15234 l 0,3.92579 -0.19531,0 q -1.40625,-1.03516 -3.41797,-1.73829 -2.01172,-0.72265 -3.94531,-0.72265 -2.01172,0 -3.39844,0.78125 -1.38672,0.76172 -1.38672,2.28515 0,1.34766 0.83984,2.03125 0.82032,0.6836 2.65625,1.11329 1.01563,0.23437 2.26563,0.46875 1.26953,0.23437 2.10937,0.42968 2.5586,0.58594 3.94532,2.01172 1.38671,1.44531 1.38671,3.82813 z"
         id="path4596"
         inkscape:connector-curvature="0" />
      <path
         d="m 437.6683,164.26199 -12.73437,29.86328 -3.92578,0 4.0625,-9.10156 -8.69141,-20.76172 3.98438,0 6.69922,16.17188 6.75781,-16.17188 3.84765,0 z"
         id="path4598"
         inkscape:connector-curvature="0" />
      <path
         d="m 474.30893,186.0784 -3.67188,0 0,-12.42188 q 0,-1.40625 -0.13671,-2.71484 -0.11719,-1.30859 -0.52735,-2.08984 -0.44922,-0.83985 -1.28906,-1.26953 -0.83984,-0.42969 -2.42188,-0.42969 -1.54296,0 -3.08593,0.78125 -1.54297,0.76172 -3.08594,1.95312 0.0586,0.44922 0.0977,1.05469 0.0391,0.58594 0.0391,1.17188 l 0,13.96484 -3.67188,0 0,-12.42188 q 0,-1.44531 -0.13672,-2.73437 -0.11718,-1.30859 -0.52734,-2.08984 -0.44922,-0.83985 -1.28906,-1.25 -0.83985,-0.42969 -2.42188,-0.42969 -1.5039,0 -3.02734,0.74219 -1.50391,0.74218 -3.00781,1.89453 l 0,16.28906 -3.67188,0 0,-21.81641 3.67188,0 0,2.42188 q 1.71875,-1.42578 3.41797,-2.22656 1.71875,-0.80079 3.65234,-0.80079 2.22656,0 3.76953,0.9375 1.5625,0.9375 2.32422,2.59766 2.22656,-1.875 4.0625,-2.69531 1.83594,-0.83985 3.92578,-0.83985 3.59375,0 5.29297,2.1875 1.71875,2.16797 1.71875,6.07422 l 0,14.16016 z"
         id="path4600"
         inkscape:connector-curvature="0" />
      <path
         d="m 500.50034,174.90652 q 0,2.65625 -0.76172,4.86329 -0.76172,2.1875 -2.14844,3.71093 -1.28906,1.44532 -3.04688,2.2461 -1.73828,0.78125 -3.6914,0.78125 -1.69922,0 -3.08594,-0.3711 -1.36719,-0.37109 -2.79297,-1.15234 l 0,9.14062 -3.67187,0 0,-29.86328 3.67187,0 0,2.28516 q 1.46485,-1.23047 3.28125,-2.05078 1.83594,-0.83985 3.90625,-0.83985 3.94531,0 6.13281,2.98829 2.20704,2.96875 2.20704,8.26171 z m -3.78907,0.0977 q 0,-3.94531 -1.34765,-5.89844 -1.34766,-1.95312 -4.14063,-1.95312 -1.58203,0 -3.18359,0.68359 -1.60156,0.6836 -3.06641,1.79688 l 0,12.36328 q 1.5625,0.70312 2.67578,0.95703 1.13282,0.25391 2.5586,0.25391 3.0664,0 4.78515,-2.07032 1.71875,-2.07031 1.71875,-6.13281 z"
         id="path4602"
         inkscape:connector-curvature="0" />
      <path
         d="m 517.55112,185.88309 q -1.03516,0.27343 -2.26563,0.44922 -1.21094,0.17578 -2.16797,0.17578 -3.33984,0 -5.07812,-1.79688 -1.73828,-1.79687 -1.73828,-5.76172 l 0,-11.60156 -2.48047,0 0,-3.08594 2.48047,0 0,-6.26953 3.67187,0 0,6.26953 7.57813,0 0,3.08594 -7.57813,0 0,9.94141 q 0,1.71875 0.0781,2.69531 0.0781,0.95703 0.54687,1.79687 0.42969,0.78125 1.17188,1.15235 0.76172,0.35156 2.30468,0.35156 0.89844,0 1.875,-0.25391 0.97657,-0.27343 1.40625,-0.44921 l 0.19532,0 0,3.30078 z"
         id="path4604"
         inkscape:connector-curvature="0" />
      <path
         d="m 540.59799,175.17996 q 0,5.33203 -2.73437,8.41797 -2.73438,3.08594 -7.32422,3.08594 -4.62891,0 -7.36328,-3.08594 -2.71485,-3.08594 -2.71485,-8.41797 0,-5.33203 2.71485,-8.41797 2.73437,-3.10547 7.36328,-3.10547 4.58984,0 7.32422,3.10547 2.73437,3.08594 2.73437,8.41797 z m -3.78906,0 q 0,-4.23828 -1.66016,-6.28906 -1.66015,-2.07031 -4.60937,-2.07031 -2.98828,0 -4.64844,2.07031 -1.64062,2.05078 -1.64062,6.28906 0,4.10156 1.66015,6.23047 1.66016,2.10938 4.62891,2.10938 2.92969,0 4.58984,-2.08985 1.67969,-2.10937 1.67969,-6.25 z"
         id="path4606"
         inkscape:connector-curvature="0" />
      <path
         d="m 557.62924,185.88309 q -1.03515,0.27343 -2.26562,0.44922 -1.21094,0.17578 -2.16797,0.17578 -3.33985,0 -5.07813,-1.79688 -1.73828,-1.79687 -1.73828,-5.76172 l 0,-11.60156 -2.48047,0 0,-3.08594 2.48047,0 0,-6.26953 3.67188,0 0,6.26953 7.57812,0 0,3.08594 -7.57812,0 0,9.94141 q 0,1.71875 0.0781,2.69531 0.0781,0.95703 0.54688,1.79687 0.42968,0.78125 1.17187,1.15235 0.76172,0.35156 2.30469,0.35156 0.89844,0 1.875,-0.25391 0.97656,-0.27343 1.40625,-0.44921 l 0.19531,0 0,3.30078 z"
         id="path4608"
         inkscape:connector-curvature="0" />
      <path
         d="m 580.34409,175.55106 -16.07422,0 q 0,2.01171 0.60547,3.51562 0.60546,1.48438 1.66015,2.44141 1.01563,0.9375 2.40235,1.40625 1.40625,0.46875 3.08593,0.46875 2.22657,0 4.47266,-0.87891 2.26562,-0.89844 3.22266,-1.75781 l 0.19531,0 0,4.0039 q -1.85547,0.78125 -3.78906,1.3086 -1.9336,0.52734 -4.0625,0.52734 -5.42969,0 -8.47657,-2.92969 -3.04687,-2.94921 -3.04687,-8.35937 0,-5.35156 2.91015,-8.49609 2.92969,-3.14454 7.69532,-3.14454 4.41406,0 6.79687,2.57813 2.40235,2.57812 2.40235,7.32422 l 0,1.99219 z m -3.57422,-2.8125 q -0.0195,-2.89063 -1.46485,-4.47266 -1.42578,-1.58203 -4.35547,-1.58203 -2.94921,0 -4.70703,1.73828 -1.73828,1.73828 -1.97265,4.31641 l 12.5,0 z"
         id="path4610"
         inkscape:connector-curvature="0" />
    </g>
    <path
       style="fill:none;fill-rule:evenodd;stroke:#e74710;stroke-width:4;stroke-linecap:butt;stroke-linejoin:miter;stroke-opacity:1"
       d="m 407.5,197.36221 c 12.5,0 16,-4.5 16,-4.5"
       id="path4405"
       inkscape:connector-curvature="0"
       sodipodi:nodetypes="cc" />
  </g>
</svg>
