<svg xmlns="http://www.w3.org/2000/svg" xmlns:xlink="http://www.w3.org/1999/xlink" version="1.1" id="Layer_1" x="0px" y="0px" width="50px" height="50px" viewBox="0 0 50 50" enable-background="new 0 0 50 50" xml:space="preserve">
<g>
	<path fill="#000000" d="M27.346,33.396c-0.969,1.151-2.069,2.073-3.314,2.763c-1.195,0.691-2.438,1.012-3.677,1.012   c-1.337,0-2.672-0.367-3.96-1.152c-1.287-0.826-2.297-2.023-3.13-3.68c-0.781-1.654-1.196-3.449-1.196-5.428   c0-2.395,0.645-4.832,1.889-7.271c1.242-2.391,2.76-4.231,4.6-5.428c1.841-1.244,3.635-1.841,5.382-1.841   c1.338,0,2.579,0.321,3.776,1.058c1.242,0.644,2.254,1.701,3.129,3.129l0.781-3.544h4.096l-3.314,15.325   c-0.459,2.16-0.689,3.313-0.689,3.541c0,0.414,0.184,0.781,0.461,1.059c0.324,0.322,0.691,0.458,1.152,0.458   c0.826,0,1.838-0.458,3.172-1.38c1.75-1.243,3.131-2.852,4.141-4.92c1.014-2.025,1.521-4.143,1.521-6.353   c0-2.53-0.689-4.876-1.982-7.085c-1.287-2.21-3.219-4.004-5.84-5.293c-2.576-1.333-5.385-2.023-8.513-2.023   c-3.589,0-6.811,0.873-9.755,2.53c-2.991,1.655-5.245,4.05-6.854,7.134c-1.658,3.127-2.441,6.486-2.441,10.031   c0,3.725,0.783,6.945,2.441,9.66c1.609,2.67,3.955,4.693,6.993,5.982c3.081,1.244,6.488,1.889,10.215,1.889   c4,0,7.313-0.645,10.029-1.98c2.715-1.334,4.693-2.99,6.074-4.924h4.094c-0.781,1.609-2.07,3.268-4.004,4.924   c-1.885,1.656-4.094,2.945-6.717,3.91c-2.623,0.967-5.752,1.473-9.387,1.473c-3.405,0-6.531-0.461-9.385-1.287   c-2.853-0.875-5.294-2.211-7.273-3.955c-2.02-1.706-3.544-3.73-4.553-5.984c-1.287-2.9-1.932-5.982-1.932-9.342   c0-3.727,0.781-7.27,2.301-10.627c1.839-4.097,4.508-7.271,7.915-9.479c3.405-2.163,7.544-3.268,12.421-3.268   c3.771,0,7.178,0.781,10.168,2.3c3.035,1.564,5.385,3.866,7.133,6.903c1.473,2.668,2.209,5.518,2.209,8.603   c0,4.417-1.564,8.329-4.646,11.78c-2.807,3.037-5.799,4.6-9.109,4.6c-1.063,0-1.889-0.184-2.533-0.504   c-0.643-0.277-1.15-0.736-1.426-1.334C27.621,35.01,27.438,34.316,27.346,33.396L27.346,33.396z M16.302,27.23   c0,2.07,0.509,3.682,1.474,4.833c1.013,1.149,2.163,1.75,3.403,1.75c0.875,0,1.75-0.276,2.717-0.784   c0.919-0.508,1.84-1.242,2.715-2.257c0.871-1.011,1.563-2.298,2.115-3.819c0.551-1.561,0.83-3.078,0.83-4.646   c0-2.071-0.557-3.681-1.566-4.83c-1.012-1.151-2.302-1.702-3.776-1.702c-0.962,0-1.883,0.23-2.713,0.735   c-0.874,0.507-1.701,1.287-2.529,2.393c-0.781,1.104-1.429,2.439-1.931,4.003C16.579,24.471,16.302,25.896,16.302,27.23z"/>
</g>
</svg>