<svg width="100" height="100" xmlns="http://www.w3.org/2000/svg">
 <g>
  <title>Layer 1</title>
  <path fill-rule="evenodd" clip-rule="evenodd" d="m50.00213,95.867c-13.80742,0 -25.00213,-9.15459 -25.00213,-20.44582c0,-5.17535 2.37519,-9.88811 6.25053,-13.49168l0,-42.72413c0,-8.46712 8.39447,-15.33436 18.7516,-15.33436c10.35088,0 18.74535,6.86724 18.74535,15.33436l0,42.72413c3.88158,3.60357 6.25053,8.31633 6.25053,13.49168c0,11.29122 -11.18846,20.44582 -24.99587,20.44582l-0.00001,0zm6.25053,-29.2503l0,-10.96664l0,-26.22433l0,-10.22036c0,-2.82152 -2.80024,-5.11146 -6.25053,-5.11146c-3.45342,0 -6.25053,2.28994 -6.25053,5.11146l0,10.22036l0,26.22433l0,10.96664c-3.7222,1.77112 -6.25053,5.03221 -6.25053,8.80447c0,5.64561 5.59735,10.22292 12.50106,10.22292s12.50106,-4.57731 12.50106,-10.22292c0,-3.77226 -2.5346,-7.03336 -6.25053,-8.80447zm-6.25053,16.47167c-5.17544,0 -9.3758,-3.43491 -9.3758,-7.6672c0,-3.33522 2.61897,-6.13885 6.25053,-7.19693l0,-26.18344l6.25053,0l0,26.18344c3.63155,1.05807 6.25053,3.86427 6.25053,7.19693c0,4.23228 -4.20036,7.6672 -9.37579,7.6672z" id="svg_1" fill="black"/>
  <path id="svg_2" fill-rule="evenodd" clip-rule="evenodd" d="m82.75131,63.49599c-5.7988,0 -10.50032,-4.82587 -10.50032,-10.77808c0,-2.72821 0.99753,-5.21255 2.62508,-7.11219l0,-22.52217c0,-4.46347 3.52548,-8.08356 7.87524,-8.08356c4.34713,0 7.87262,3.62009 7.87262,8.08356l0,22.52217c1.63017,1.89964 2.62508,4.38398 2.62508,7.11219c0,5.95221 -4.6989,10.77808 -10.49769,10.77808l-0.00001,0zm2.62508,-15.41939l0,-5.78111l0,-13.82424l0,-5.3877c0,-1.48737 -1.17603,-2.69452 -2.62508,-2.69452c-1.45036,0 -2.62508,1.20715 -2.62508,2.69452l0,5.3877l0,13.82424l0,5.78111c-1.56324,0.93365 -2.62508,2.65274 -2.62508,4.64131c0,2.9761 2.35076,5.38904 5.25016,5.38904s5.25015,-2.41294 5.25015,-5.38904c0,-1.98856 -1.06447,-3.70766 -2.62508,-4.64131zm-2.62508,8.68309c-2.17357,0 -3.93762,-1.81073 -3.93762,-4.04179c0,-1.75817 1.09991,-3.23612 2.62508,-3.79389l0,-13.80269l2.62508,0l0,13.80269c1.52517,0.55777 2.62508,2.03706 2.62508,3.79389c0,2.23106 -1.76405,4.04179 -3.93761,4.04179z" fill="black"/>
  <path id="svg_4" fill-rule="evenodd" clip-rule="evenodd" d="m18.00131,63.49599c-5.79881,0 -10.50032,-4.82587 -10.50032,-10.77808c0,-2.72821 0.99753,-5.21255 2.62509,-7.11219l0,-22.52216c0,-4.46347 3.52547,-8.08356 7.87523,-8.08356c4.34713,0 7.87262,3.62009 7.87262,8.08356l0,22.52216c1.63017,1.89964 2.62508,4.38398 2.62508,7.11219c0,5.9522 -4.6989,10.77808 -10.49769,10.77808l-0.00001,0zm2.62508,-15.41939l0,-5.78111l0,-13.82424l0,-5.38769c0,-1.48738 -1.17603,-2.69453 -2.62508,-2.69453c-1.45036,0 -2.62507,1.20715 -2.62507,2.69453l0,5.38769l0,13.82424l0,5.78111c-1.56324,0.93365 -2.62509,2.65274 -2.62509,4.6413c0,2.9761 2.35076,5.38905 5.25016,5.38905s5.25014,-2.41295 5.25014,-5.38905c0,-1.98856 -1.06446,-3.70766 -2.62507,-4.6413zm-2.62508,8.68309c-2.17357,0 -3.93762,-1.81073 -3.93762,-4.04179c0,-1.75817 1.09991,-3.23611 2.62508,-3.79388l0,-13.80269l2.62508,0l0,13.80269c1.52517,0.55776 2.62508,2.03706 2.62508,3.79388c0,2.23106 -1.76405,4.04179 -3.93761,4.04179z" fill="black"/>
 </g>
</svg>