<svg xmlns="http://www.w3.org/2000/svg" xmlns:xlink="http://www.w3.org/1999/xlink" version="1.1" x="0px" y="0px" width="100px" height="100px" viewBox="0 0 100 100" enable-background="new 0 0 100 100" xml:space="preserve">
<g id="Your_Icon">
	<path fill-rule="evenodd" clip-rule="evenodd" fill="#000000" d="M78.333,50.684v0.149H78.3L78.333,50.684z M78.333,50.833h8.334   v15.834h-8.334V50.833z M67.5,50.684l0.033,0.149H67.5V50.684z M67.533,50.833h8.3v15.834H67.5V50.833H67.533z M56.666,50.684   l0.101,0.149H65v15.834h-8.334V50.833V50.684z M45.833,50.684L46,50.833h8.166v15.834h-8.333V50.833V50.684z M35,50.684   l0.233,0.149h8.1v15.834H35V50.833V50.684z M24.167,50.684l0.3,0.149H32.5v15.834h-8.333V50.833V50.684z M13.333,50.684   l0.367,0.149h7.966v15.834h-8.333V50.833V50.684z M13.333,45.833v-2.5c0-2.083-2.083-4.167-4.167-4.167   C7.083,39.167,5,41.25,5,43.333V85c0,2.083,2.083,4.167,4.167,4.167c2.083,0,4.167-2.084,4.167-4.167v-6.667h73.333V85   c0,2.083,2.083,4.167,4.166,4.167C92.917,89.167,95,87.083,95,85V43.333c0-2.083-2.083-4.167-4.167-4.167   c-2.083,0-4.166,2.083-4.166,4.167v2.5H13.333z M34.792,17.091c-0.292-0.5-0.683-0.5-0.958,0l-1.983,3.967L27.417,21.8   c-0.608,0.091-0.692,0.558-0.3,0.95l3.192,3.017l-0.725,4.392c-0.108,0.625,0.275,0.941,0.867,0.625l3.858-2.1l3.858,2.1   c0.6,0.316,0.983,0,0.867-0.625l-0.717-4.392L41.5,22.75c0.4-0.392,0.317-0.858-0.292-0.95l-4.434-0.742L34.792,17.091z    M33.333,15.692l-0.092,0.142H35V12.5h14.167v13.333h1.667V12.5h15.833v8.333h1.666V12.5h10V10H21.667v2.5h11.667V15.692z    M50.625,27.091c-0.292-0.5-0.683-0.5-0.958,0l-1.983,3.967L43.25,31.8c-0.608,0.091-0.692,0.558-0.3,0.95l3.191,3.017   l-0.725,4.392c-0.108,0.625,0.275,0.941,0.867,0.625l3.858-2.1l3.858,2.1c0.6,0.316,0.984,0,0.867-0.625l-0.717-4.392l3.183-3.017   c0.399-0.392,0.317-0.858-0.291-0.95l-4.434-0.742L50.625,27.091z M68.125,22.091c-0.291-0.5-0.684-0.5-0.959,0l-1.982,3.967   L60.75,26.8c-0.608,0.091-0.691,0.558-0.3,0.95l3.191,3.017l-0.725,4.392c-0.108,0.625,0.274,0.941,0.866,0.625l3.858-2.1   l3.858,2.1c0.6,0.316,0.983,0,0.866-0.625l-0.716-4.392l3.183-3.017c0.399-0.392,0.316-0.858-0.291-0.95l-4.434-0.742   L68.125,22.091z"/>
</g>
</svg>