<svg width="100" height="100" xmlns="http://www.w3.org/2000/svg">
 <g>
  <title>Layer 1</title>
  <g id="Your_Icon">
   <path id="svg_55" d="m50.098,82.022c-0.077,0 -0.137,0.004 -0.215,0.004c-0.077,0 -0.138,-0.004 -0.215,-0.004c-6.013,0 -8.459,0.797 -8.459,0.797c-1.305,1.753 -2.081,3.924 -2.081,6.28c0,1.123 0.176,2.197 0.506,3.215c0.635,1.986 1.845,3.716 3.435,4.99699c1.807,1.453 4.104,2.326 6.599,2.326c0.072,0 0.143,-0.014 0.215,-0.02c0.072,0.006 0.142,0.02 0.215,0.02c2.495,0 4.792,-0.873 6.599,-2.326c1.591,-1.281 2.8,-3.01099 3.435,-4.99699c0.328,-1.01801 0.507,-2.092 0.507,-3.215c0,-2.356 -0.775,-4.527 -2.081,-6.28c0,0 -2.447,-0.797 -8.46,-0.797z"/>
   <path id="svg_56" d="m90.189,78.027c-3.859,-3.076 -6.047,-6.904 -6.396,-11.915c-0.822,-11.847 1.655,-47.141 -26.325,-52.298c0.678,-1.198 1.064,-2.586 1.064,-4.058c0,-4.583 -3.713,-8.297 -8.295,-8.297c-0.122,0 -0.235,0.029 -0.354,0.034c-0.12,-0.005 -0.231,-0.034 -0.354,-0.034c-4.583,0 -8.297,3.714 -8.297,8.297c0,1.472 0.39,2.86 1.066,4.058c-27.98,5.157 -25.502,40.452 -26.326,52.298c-0.35,5.011 -2.536,8.839 -6.396,11.915c-2.897,2.307 -5.243,4.224 -4.949,7.763c0.06,0.73 0.235,1.528 0.537,2.41c1.018,2.972 4.006,4.645 6.672,5.90701c7.072,3.354 17.869,5.461 25.834,4.98199c-1.565,-1.70399 -2.771,-3.735 -3.488,-5.987c-0.078,-0.238 -0.114,-0.499 -0.181,-0.742c-12.69,-1.022 -20.233,-6.011 -21.222,-6.796c1.052,-0.833 7.35,-8.626 36.89,-8.626c0.075,0 0.14,0.006 0.215,0.006s0.14,-0.006 0.215,-0.006c29.542,0 35.838,7.793 36.889,8.626c-0.988,0.786 -8.531,5.77399 -21.223,6.796c-0.068,0.243 -0.101,0.504 -0.177,0.742c-0.721,2.252 -1.926,4.283 -3.49,5.987c7.965,0.479 18.763,-1.628 25.833,-4.98199c2.664,-1.263 5.653,-2.936 6.671,-5.90701c0.302,-0.882 0.47701,-1.68 0.536,-2.41c0.297,-3.539 -2.05,-5.456 -4.949,-7.763zm-40.303,-9.49l-0.002,0l-0.002,0c-7.959,0 -21.338,0.39799 -25.298,2.28799c3.5,-8.329 -3.863,-46.697 20.388,-48.909c1.438,-0.13 3.153,-0.379 4.908,-0.409l0.002,0l0.002,0l0.002,0l0.002,0c1.755,0.029 3.471,0.278 4.907,0.409c24.253,2.212 16.89,40.58 20.39,48.909c-3.96,-1.889 -17.337,-2.28799 -25.299,-2.28799z"/>
  </g>
 </g>
</svg>