<svg xmlns="http://www.w3.org/2000/svg" xmlns:xlink="http://www.w3.org/1999/xlink" version="1.1" id="Your_Icon" x="0px" y="0px" width="100px" height="100px" viewBox="0 0 100 100" enable-background="new 0 0 100 100" xml:space="preserve">
<g>
	<path fill="#000000" d="M20.626,79.976c0-0.008,0.001-0.01,0.002-0.024C20.628,79.936,20.627,79.956,20.626,79.976z"/>
	<path fill="#000000" d="M20.622,80h0.003c0,0,0-0.014,0.001-0.024C20.625,79.995,20.622,80,20.622,80z"/>
	<path fill="#000000" d="M63.075,71.237c-6.075,0-7.548-3.678-7.682-6.66c3.577-2.163,7.359-5.952,9.27-10.902   c0.303,0.33,0.666,0.398,1.101,0.145c1.699-0.994,2.355-9.084,1.371-11.289c-0.464-1.038-0.949-0.972-1.336-0.599   c-0.077-1.291-0.196-2.548-0.37-3.747c0.787-0.199,1.646-0.446,2.571-0.746c4.988-1.615,6.413-6.462,6.413-6.462l-9.362,1.562   c0.19-2.044,0.057-4.564-1.023-7.062c-2.466-5.699-8.968-7.009-15.468-7.009c-6.501,0-9.64,2.244-13.451,6.519   C31.297,29.262,32.787,38,32.787,38h0.029c-0.312,1-0.507,2.854-0.618,4.664c-0.415-0.549-1.011-1.161-1.556,0.095   c-0.961,2.215-0.219,10.141,1.491,11.116c0.447,0.255,0.816,0.044,1.118-0.308c1.896,5.213,5.794,8.973,9.551,11.095   c-0.104,2.951-1.625,6.709-7.877,6.709C27.372,71.371,20.811,75,20.631,81h0.004c0.048,0,0.287,1,1.032,1h54.582   c1.057,0,1.12-1,1.12-1h0.009C77.378,75,70.734,71.237,63.075,71.237z"/>
</g>
</svg>