<svg width="100" height="100" xmlns="http://www.w3.org/2000/svg" xmlns:svg="http://www.w3.org/2000/svg">
 <g>
  <title>Layer 1</title>
  <g id="svg_8">
   <path fill="black" d="m47.72159,54.21646l0,-37.19845c-16.05595,0.3456 -29.60762,10.32877 -34.89316,25.70337l34.89316,11.49508z" id="svg_1"/>
   <path d="m25.6233,85.97449l8.48792,-11.84506l13.07706,-18.24881l-22.33473,-7.35744l-12.55843,-4.13763c0,0 0,0 0,0c-4.63574,15.58896 0.5402,31.74052 13.32818,41.58894l0,-0.00001z" id="svg_2"/>
   <path d="m44.19128,63.04032l-17.17173,23.9631c6.48416,4.56811 13.92188,6.97858 21.56412,6.97858s15.08082,-2.41047 21.56498,-6.97858l-21.56411,-30.09475l-4.39325,6.13164l-0.00001,0.00001z" id="svg_3"/>
   <path d="m84.87393,44.38554l-7.36179,2.42536l-27.53138,9.06972l6.72234,9.3812l14.84178,20.71354c12.7897,-9.84843 17.96649,-26.00085 13.32904,-41.58981l0,-0.00001z" id="svg_4"/>
   <line stroke-width="0" stroke-linecap="round" stroke-linejoin="round" x1="49.11783" y1="56.16497" x2="49.44747" y2="56.62432" fill="#000000" id="svg_5" stroke="#FFFFFF"/>
   <path d="m57.44747,6.01801l0,37.19845l34.89315,-11.49421c0,0 0,0 0,0c-5.28553,-15.37547 -18.83807,-25.35864 -34.89315,-25.70425l0,0.00001z" id="svg_6" fill="black"/>
  </g>
 </g>
</svg>