<svg width="100" height="100" xmlns="http://www.w3.org/2000/svg" xmlns:svg="http://www.w3.org/2000/svg">
	<g>
		<title>Layer 1</title>
		<rect id="svg_10" stroke="#000000" height="12.9375" width="12.9375" y="61.6581" x="43.69466"  stroke-width="3" fill="black"/>
		<rect id="svg_12" stroke="#000000" fill-opacity="0" height="12.9375" width="12.9375" y="39.91799" x="43.69466"  stroke-width="3" fill="#000000"/>
		<rect id="svg_15" stroke="#000000" height="12.9375" width="12.9375" y="39.91799" x="66.12837"   stroke-width="3" fill="black"/>
		<path fill="black" id="svg_2" d="m90.477,12.533l0,-8.962c0,-1.972 -1.599,-3.571 -3.573,-3.571c-1.973,0 -3.571,1.599 -3.571,3.571l0,8.961l-66.724,0l0,-8.961c0,-1.972 -1.598,-3.571 -3.571,-3.571s-3.571,1.599 -3.571,3.571l0,8.961l-9.467,0l0,19.048l0,57.143c0,5.26 4.265,9.524 9.523,9.524l80.953,0c5.259,0 9.523,-4.265 9.523,-9.524l0,-57.143l0,-19.047l-9.522,0zm0,76.19l-80.95401,0l0,-57.143l80.95301,0l0,57.143l0.001,0z"/>
		<rect id="svg_13" stroke="#000000" fill-opacity="0" height="12.9375" width="12.9375" y="39.91799" x="21.04562" stroke-width="3" fill="#000000"/>
		<rect id="svg_14" stroke="#000000" fill-opacity="0" height="12.9375" width="12.9375" y="61.6581" x="66.12837"  stroke-width="3" fill="#000000"/>
		<rect id="svg_16" stroke="#000000" height="12.9375" width="12.9375" y="61.6581" x="21.04562"   stroke-width="3" fill="black"/>
	</g>
</svg>