<svg xmlns="http://www.w3.org/2000/svg" xmlns:xlink="http://www.w3.org/1999/xlink" version="1.1" x="0px" y="0px" width="100px" height="100px" viewBox="0 0 100 100" enable-background="new 0 0 100 100" xml:space="preserve">
<g id="Your_Icon">
	<g>
		<path d="M90.477,12.533V3.571C90.477,1.599,88.878,0,86.904,0c-1.973,0-3.571,1.599-3.571,3.571v8.961H16.609V3.571    C16.609,1.599,15.011,0,13.038,0S9.467,1.599,9.467,3.571v8.961H0V31.58v57.143c0,5.26,4.265,9.524,9.523,9.524h80.953    c5.259,0,9.523-4.265,9.523-9.524V31.58V12.533H90.477z M90.477,88.723H9.523V31.58h80.953V88.723z"/>
		<path d="M19.209,51.649c0.21,0,0.449-0.031,0.723-0.094c0.27-0.062,0.762-0.199,1.474-0.408l4.581-1.318v30.117    c0,1.465,0.772,2.196,2.321,2.196h8.281V40.857c0-0.628-0.21-1.15-0.627-1.569c-0.42-0.417-0.941-0.626-1.568-0.626    c-0.628,0-1.465,0.104-2.51,0.313c-1.048,0.209-2.219,0.501-3.514,0.878c-1.297,0.376-2.646,0.806-4.047,1.287    c-1.402,0.481-2.752,0.994-4.047,1.537l-2.572,1.066v6.525c0,0.502,0.145,0.858,0.439,1.067    C18.435,51.545,18.791,51.649,19.209,51.649z"/>
		<path d="M50.518,82.143h24.471v-6.588c0-1.464-0.774-2.196-2.322-2.196H59.803c0.211-0.961,0.566-1.84,1.067-2.636    c0.502-0.794,1.107-1.546,1.82-2.258c0.711-0.711,1.483-1.39,2.32-2.04c0.838-0.647,1.674-1.307,2.511-1.977    c0.962-0.752,1.902-1.568,2.823-2.446c0.92-0.879,1.736-1.852,2.447-2.918c0.711-1.065,1.286-2.268,1.726-3.607    c0.439-1.338,0.659-2.887,0.659-4.643c0-3.807-1.172-6.786-3.515-8.942c-2.343-2.153-6.044-3.23-11.104-3.23    c-2.552,0-4.874,0.24-6.965,0.721c-2.093,0.481-3.683,0.973-4.77,1.475v4.87c0,1.479,0.794,2.22,2.385,2.22    c0.46,0,1.307,0,2.541,0c1.233,0,2.646,0,4.235,0c2.134,0,3.754,0.22,4.863,0.656c1.105,0.438,1.662,1.532,1.662,3.282    c0,0.708-0.094,1.344-0.282,1.906c-0.188,0.563-0.523,1.147-1.005,1.751c-0.48,0.604-1.139,1.271-1.976,2s-1.903,1.616-3.2,2.657    c-1.13,0.918-2.28,1.896-3.451,2.938c-1.171,1.041-2.227,2.229-3.168,3.562c-0.941,1.334-1.716,2.845-2.321,4.533    c-0.608,1.688-0.909,3.615-0.909,5.781v2.939C48.197,81.414,48.97,82.143,50.518,82.143z"/>
	</g>
</g>
</svg>