<svg width="100" height="100" xmlns="http://www.w3.org/2000/svg" xmlns:svg="http://www.w3.org/2000/svg">
    <g>
        <title>Layer 1</title>
        <path d="m75,40c-0.164,0 -0.329,0.003 -0.497,0.008c-2.322,-11.566 -12.453,-20.008 -24.503,-20.008c-9.983,0 -18.97,5.958 -22.915,15.004c-12.217,0.222 -22.085,10.228 -22.085,22.496c0,12.406 10.094,22.5 22.5,22.5l47.5,0c11.028,0 20,-8.972 20,-20s-8.972,-20 -20,-20zm0,35l-47.5,0c-9.649,0 -17.5,-7.851 -17.5,-17.5s7.851,-17.5 17.5,-17.5c0.273,0 0.541,0.021 0.81,0.039l0.298,0.02c1.105,0.055 2.146,-0.612 2.516,-1.669c2.804,-8.009 10.39,-13.39 18.876,-13.39c10.311,0 18.865,7.725 19.897,17.968c0.068,0.681 0.413,1.304 0.954,1.724s1.231,0.604 1.905,0.497c0.856,-0.129 1.569,-0.189 2.244,-0.189c8.271,0 15,6.729 15,15s-6.729,15 -15,15z" id="svg_1"/>
        <path d="m61.768,45.732c-0.977,-0.977 -2.559,-0.977 -3.535,0l-8.233,8.233l-8.232,-8.232c-0.977,-0.977 -2.559,-0.977 -3.535,0s-0.977,2.559 0,3.535l8.232,8.232l-8.232,8.232c-0.977,0.977 -0.977,2.559 0,3.535c0.488,0.489 1.127,0.733 1.767,0.733s1.279,-0.244 1.768,-0.732l8.232,-8.233l8.232,8.232c0.489,0.489 1.128,0.733 1.768,0.733s1.279,-0.244 1.768,-0.732c0.977,-0.977 0.977,-2.559 0,-3.535l-8.233,-8.233l8.232,-8.232c0.977,-0.977 0.977,-2.559 0.001,-3.536z" id="svg_2"/>
    </g>
</svg>