<svg width="100" height="100" xmlns="http://www.w3.org/2000/svg">
 <g>
  <title>Layer 1</title>
  <g id="Captions"/>
  <g id="Your_Icon">
   <path d="m65.551,61.735l-14.844,-14.845c-0.648,-0.65 -1.547,-1.053 -2.538,-1.053s-1.89,0.403 -2.538,1.053l-14.842,14.845c-1.401,1.401 -1.401,3.671 0,5.072s3.671,1.401 5.072,0l8.721,-8.723v25.733c0,1.979 1.606,3.587 3.587,3.587s3.587,-1.607 3.587,-3.587v-25.732l8.722,8.723c0.701,0.7 1.619,1.051 2.536,1.051c0.918,0 1.836,-0.351 2.537,-1.051c1.39999,-1.402 1.39999,-3.671 0,-5.073z" id="svg_1"/>
   <path d="m79.812,40.19c-2.231,0 -4.45599,0.387 -6.55499,1.116c-0.998,-1.067 -2.081,-2.047 -3.25401,-2.92c0.024,-0.464 0.049,-0.93 0.049,-1.394c0,-13.452 -10.943,-24.397 -24.396,-24.397c-11.46,0 -21.197,7.897 -23.746,18.789c-12.156,1.378 -21.633,11.719 -21.633,24.238c0,13.452 10.943,24.396 24.397,24.396h11.916c1.886,0 3.415,-1.527 3.415,-3.415c0,-1.889 -1.529,-3.416 -3.415,-3.416h-11.916c-9.684,0 -17.564,-7.878 -17.564,-17.564s7.88,-17.567 17.564,-17.567c2.867,0 5.6,0.669 8.122,1.984c1.672,0.876 3.736,0.228 4.61,-1.445c0.874,-1.671 0.228,-3.736 -1.447,-4.608c-2.196,-1.149 -4.575,-1.949 -7.023,-2.384c2.284,-7.134 8.95,-12.175 16.72,-12.175c9.687,0 17.565,7.878 17.565,17.564c0,0.865 -0.063,1.736 -0.189,2.583c-0.007,0.061 0,0.121 -0.007,0.182c-0.014,0.159 -0.031,0.32 -0.021,0.48c0.003,0.133 0.031,0.261 0.052,0.391c0.018,0.087 0.021,0.175 0.042,0.261c0.032,0.131 0.085,0.257 0.134,0.382c0.028,0.083 0.049,0.165 0.087,0.242c0.053,0.116 0.123,0.221 0.189,0.33c0.049,0.081 0.091,0.165 0.144,0.242c0.084,0.114 0.183,0.215 0.28,0.317c0.053,0.06 0.102,0.123 0.158,0.175c0.17101,0.157 0.354,0.301 0.55701,0.422c1.905,1.172 3.55199,2.676 4.897,4.474c0.007,0.012 0.021,0.021 0.031,0.035c0.158,0.203 0.329,0.391 0.525,0.548c0.024,0.024 0.06001,0.039 0.08801,0.062c0.16399,0.128 0.336,0.242 0.521,0.336c0.081,0.042 0.165,0.072 0.249,0.107c0.141,0.06 0.28,0.112 0.428,0.152c0.095,0.026 0.188,0.044 0.28699,0.062c0.144,0.026 0.287,0.042 0.431,0.049c0.06001,0.003 0.119,0.021 0.179,0.021c0.053,0 0.105,-0.01 0.161,-0.012c0.06,-0.003 0.123,-0.009 0.183,-0.014c0.161,-0.017 0.318,-0.045 0.476,-0.084c0.04601,-0.012 0.08801,-0.019 0.134,-0.033c0.213,-0.063 0.427,-0.144 0.634,-0.25c1.846,-0.946 3.847,-1.426 5.94099,-1.426c7.21301,0 13.08,5.867 13.08,13.083c0,7.213 -5.867,13.08 -13.08,13.08h-20.063c-1.888,0 -3.415,1.527 -3.415,3.416c0,1.88799 1.527,3.41499 3.415,3.41499h20.062c10.979,0 19.911,-8.933 19.911,-19.911c0.001,-10.986 -8.932,-19.919 -19.91,-19.919l0,0z" id="svg_2"/>
  </g>
 </g>
</svg>