<svg width="100" height="100" xmlns="http://www.w3.org/2000/svg" xmlns:svg="http://www.w3.org/2000/svg">
    <g>
        <title>Layer 1</title>
        <g id="svg_1">
            <path d="m30.788,71.51l14.844,14.844c0.648,0.65 1.546,1.053 2.538,1.053c0.991,0 1.89,-0.402 2.538,-1.053l14.843,-14.844c1.4,-1.402 1.4,-3.672 0,-5.074c-1.402,-1.4 -3.672,-1.4 -5.073,0l-8.721,8.723l0,-25.734c0,-1.979 -1.606,-3.588 -3.587,-3.588c-1.981,0 -3.587,1.609 -3.587,3.588l0,25.733l-8.723,-8.722c-0.699,-0.7 -1.617,-1.051 -2.535,-1.051s-1.836,0.351 -2.537,1.051c-1.4,1.402 -1.4,3.671 0,5.074z" id="svg_2"/>
            <path d="m79.812,40.19c-2.231,0 -4.456,0.387 -6.555,1.116c-0.998,-1.067 -2.081,-2.048 -3.254,-2.92c0.024,-0.464 0.049,-0.93 0.049,-1.395c0,-13.452 -10.943,-24.396 -24.396,-24.396c-11.46,0 -21.197,7.897 -23.745,18.788c-12.157,1.379 -21.634,11.72 -21.634,24.24c0,13.451 10.943,24.395 24.397,24.395l0.326,0c1.886,0 3.415,-1.527 3.415,-3.415c0,-1.889 -1.529,-3.416 -3.415,-3.416l-0.326,0c-9.684,0 -17.564,-7.879 -17.564,-17.563c0,-9.688 7.88,-17.568 17.564,-17.568c2.867,0 5.6,0.669 8.122,1.984c1.673,0.876 3.736,0.228 4.61,-1.445c0.874,-1.671 0.227,-3.736 -1.447,-4.608c-2.197,-1.149 -4.575,-1.95 -7.023,-2.384c2.284,-7.134 8.95,-12.175 16.72,-12.175c9.688,0 17.566,7.878 17.566,17.564c0,0.866 -0.063,1.736 -0.189,2.584c-0.008,0.061 0,0.121 -0.008,0.182c-0.014,0.159 -0.031,0.321 -0.021,0.48c0.003,0.133 0.031,0.261 0.053,0.391c0.017,0.087 0.021,0.175 0.041,0.261c0.032,0.131 0.085,0.258 0.134,0.382c0.027,0.083 0.049,0.165 0.088,0.242c0.053,0.116 0.122,0.221 0.188,0.33c0.049,0.081 0.091,0.164 0.144,0.242c0.085,0.113 0.183,0.215 0.28,0.317c0.053,0.06 0.102,0.123 0.157,0.175c0.172,0.158 0.354,0.301 0.558,0.422c1.906,1.172 3.553,2.677 4.897,4.474c0.007,0.012 0.021,0.021 0.031,0.035c0.158,0.203 0.329,0.39 0.525,0.548c0.024,0.025 0.06,0.039 0.088,0.062c0.164,0.127 0.336,0.242 0.521,0.336c0.081,0.042 0.165,0.072 0.249,0.107c0.14,0.06 0.28,0.112 0.428,0.152c0.095,0.026 0.189,0.044 0.287,0.062c0.144,0.026 0.287,0.042 0.431,0.049c0.06,0.003 0.119,0.021 0.179,0.021c0.053,0 0.104,-0.011 0.161,-0.012c0.06,-0.004 0.122,-0.009 0.183,-0.015c0.161,-0.017 0.318,-0.045 0.477,-0.083c0.045,-0.012 0.087,-0.02 0.133,-0.034c0.214,-0.063 0.428,-0.144 0.634,-0.25c1.846,-0.946 3.847,-1.425 5.941,-1.425c7.213,0 13.08,5.866 13.08,13.082c0,7.213 -5.867,13.081 -13.08,13.081l-8.812,0c-1.889,0 -3.416,1.527 -3.416,3.416c0,1.888 1.527,3.415 3.416,3.415l8.812,0c10.979,0 19.911,-8.934 19.911,-19.912c0,-10.986 -8.933,-19.919 -19.911,-19.919z" id="svg_3"/>
        </g>
    </g>
</svg>