<svg width="100" height="100" xmlns="http://www.w3.org/2000/svg" xmlns:svg="http://www.w3.org/2000/svg">
    <g>
        <title>Layer 1</title>
        <g id="svg_1">
            <path d="m50,15.99998c-7.158,0 -14.3549,2.72997 -19.8125,8.1875c-4.0587,4.05867 -6.5192,9.0935 -7.5625,14.34375c-10.5909,2.05454 -18.625,11.30389 -18.625,22.46879c0,12.6669 10.333,23 23,23l49,0c11.0281,0 20,-8.9719 20,-20c0,-10.4082 -8.0182,-18.88114 -18.1875,-19.81254c0.047,-7.23903 -2.5243,-14.49301 -8.0313,-20c-5.4529,-5.45308 -12.6232,-8.1875 -19.7812,-8.1875zm0,6c5.6382,0 11.2214,2.09633 15.5312,6.40625c4.9804,4.98032 7.088,11.74679 6.3126,18.21875a3.0003,3.0003 0 0 0 2.9687,3.37504l1.1875,0c7.8079,0 14,6.1921 14,14c0,7.8079 -6.1921,14 -14,14l-49,0c-9.4242,0 -17,-7.5758 -17,-17c0,-8.8999 6.7685,-16.15049 15.4375,-16.93754a3.0003,3.0003 0 0 0 2.6875,-2.625c0.552,-4.75509 2.6561,-9.37488 6.3125,-13.03125c4.3056,-4.30547 9.9243,-6.40625 15.5625,-6.40625z" fill="#000000" id="svg_2"/>
        </g>
    </g>
</svg>