<svg xmlns="http://www.w3.org/2000/svg" xmlns:xlink="http://www.w3.org/1999/xlink" version="1.1" id="Layer_1" x="0px" y="0px" width="100px" height="100px" viewBox="0 0 100 100" enable-background="new 0 0 100 100" xml:space="preserve">
<g>
	<path fill="#000000" d="M-1005.19,31.464c-0.295,0-0.59,0.007-0.887,0.021c-0.606-6.927-6.438-12.38-13.519-12.38   c-1.324,0-2.621,0.188-3.871,0.561c-4.387-5.478-11.053-8.709-18.103-8.709c-12.783,0-23.184,10.399-23.184,23.183   c0,1.81,0.21,3.603,0.626,5.355c-5.819,2.346-9.742,8.042-9.742,14.438c0,3.747,1.35,7.367,3.803,10.195   c2.398,2.766,5.693,4.601,9.287,5.175c0.794,0.228,1.611,0.343,2.433,0.343h5.529v-3.684h-5.529c-0.504,0-1.007-0.075-1.494-0.223   c-0.084-0.024-0.171-0.045-0.259-0.059c-5.751-0.87-10.088-5.921-10.088-11.748c0-5.36,3.611-10.078,8.781-11.473   c0.486-0.13,0.898-0.455,1.138-0.898c0.24-0.441,0.289-0.964,0.135-1.443c-0.622-1.934-0.937-3.944-0.937-5.979   c0-10.752,8.748-19.501,19.5-19.501c6.325,0,12.284,3.095,15.94,8.276c0.498,0.706,1.42,0.971,2.216,0.636   c1.21-0.506,2.495-0.764,3.817-0.764c5.452,0,9.888,4.437,9.888,9.888c0,0.21-0.009,0.436-0.028,0.712   c-0.041,0.56,0.177,1.107,0.591,1.487c0.414,0.38,0.978,0.55,1.533,0.462c0.803-0.127,1.619-0.191,2.422-0.191   c8.482,0,15.383,6.9,15.383,15.382c0,8.482-6.9,15.382-15.383,15.382c-0.057,0-0.113-0.002-0.17-0.004l-0.161-0.005   c-0.092,0-0.185,0.003-0.277,0.016c-0.235,0.03-0.454,0.045-0.668,0.045h-1.559v3.684h1.559c0.321,0,0.654-0.021,0.99-0.059   c0.095,0.003,0.19,0.007,0.287,0.007c10.512,0,19.065-8.553,19.065-19.066S-994.678,31.464-1005.19,31.464z"/>
</g>
<g>
	<path fill="#000000" d="M-885.69,31.464c-0.295,0-0.59,0.007-0.887,0.021c-0.606-6.927-6.438-12.38-13.519-12.38   c-1.324,0-2.621,0.188-3.871,0.561c-4.387-5.478-11.053-8.709-18.103-8.709c-12.783,0-23.184,10.399-23.184,23.183   c0,1.81,0.21,3.603,0.626,5.355c-5.819,2.346-9.742,8.042-9.742,14.438c0,3.747,1.35,7.367,3.803,10.195   c2.398,2.766,5.693,4.601,9.287,5.175c0.794,0.228,1.611,0.343,2.433,0.343h5.529v-3.684h-5.529c-0.504,0-1.007-0.075-1.494-0.223   c-0.084-0.024-0.171-0.045-0.259-0.059c-5.751-0.87-10.088-5.921-10.088-11.748c0-5.36,3.611-10.078,8.781-11.473   c0.486-0.13,0.898-0.455,1.138-0.898c0.24-0.441,0.289-0.964,0.135-1.443c-0.622-1.934-0.937-3.944-0.937-5.979   c0-10.752,8.748-19.501,19.5-19.501c6.325,0,12.284,3.095,15.94,8.276c0.498,0.706,1.42,0.971,2.216,0.636   c1.21-0.506,2.495-0.764,3.817-0.764c5.452,0,9.888,4.437,9.888,9.888c0,0.21-0.009,0.436-0.028,0.712   c-0.041,0.56,0.177,1.107,0.591,1.487c0.414,0.38,0.978,0.55,1.533,0.462c0.803-0.127,1.619-0.191,2.422-0.191   c8.482,0,15.383,6.9,15.383,15.382c0,8.482-6.9,15.382-15.383,15.382c-0.057,0-0.113-0.002-0.17-0.004l-0.161-0.005   c-0.092,0-0.185,0.003-0.277,0.016c-0.235,0.03-0.454,0.045-0.668,0.045h-1.559v3.684h1.559c0.321,0,0.654-0.021,0.99-0.059   c0.095,0.003,0.19,0.007,0.287,0.007c10.512,0,19.065-8.553,19.065-19.066S-875.178,31.464-885.69,31.464z"/>
</g>
<g>
	<path fill="#000000" d="M-765.19,31.464c-0.295,0-0.59,0.007-0.887,0.021c-0.606-6.927-6.438-12.38-13.519-12.38   c-1.324,0-2.621,0.188-3.871,0.561c-4.387-5.478-11.053-8.709-18.103-8.709c-12.783,0-23.184,10.399-23.184,23.183   c0,1.81,0.21,3.603,0.626,5.355c-5.819,2.346-9.742,8.042-9.742,14.438c0,3.747,1.35,7.367,3.803,10.195   c2.398,2.766,5.693,4.601,9.287,5.175c0.794,0.228,1.611,0.343,2.433,0.343h5.529v-3.684h-5.529c-0.504,0-1.007-0.075-1.494-0.223   c-0.084-0.024-0.171-0.045-0.259-0.059c-5.751-0.87-10.088-5.921-10.088-11.748c0-5.36,3.611-10.078,8.781-11.473   c0.486-0.13,0.898-0.455,1.138-0.898c0.24-0.441,0.289-0.964,0.135-1.443c-0.622-1.934-0.937-3.944-0.937-5.979   c0-10.752,8.748-19.501,19.5-19.501c6.325,0,12.284,3.095,15.94,8.276c0.498,0.706,1.42,0.971,2.216,0.636   c1.21-0.506,2.495-0.764,3.817-0.764c5.452,0,9.888,4.437,9.888,9.888c0,0.21-0.009,0.436-0.028,0.712   c-0.041,0.56,0.177,1.107,0.591,1.487c0.414,0.38,0.978,0.55,1.533,0.462c0.803-0.127,1.619-0.191,2.422-0.191   c8.482,0,15.383,6.9,15.383,15.382c0,8.482-6.9,15.382-15.383,15.382c-0.057,0-0.113-0.002-0.17-0.004l-0.161-0.005   c-0.092,0-0.185,0.003-0.277,0.016c-0.235,0.03-0.454,0.045-0.668,0.045h-1.559v3.684h1.559c0.321,0,0.654-0.021,0.99-0.059   c0.095,0.003,0.19,0.007,0.287,0.007c10.512,0,19.065-8.553,19.065-19.066S-754.678,31.464-765.19,31.464z"/>
</g>
<g>
	<path fill="#000000" d="M-645.69,31.464c-0.295,0-0.59,0.007-0.887,0.021c-0.606-6.927-6.438-12.38-13.519-12.38   c-1.324,0-2.621,0.188-3.871,0.561c-4.387-5.478-11.053-8.709-18.103-8.709c-12.783,0-23.184,10.399-23.184,23.183   c0,1.81,0.21,3.603,0.626,5.355c-5.819,2.346-9.742,8.042-9.742,14.438c0,3.747,1.35,7.367,3.803,10.195   c2.398,2.766,5.693,4.601,9.287,5.175c0.794,0.228,1.611,0.343,2.433,0.343h5.529v-3.684h-5.529c-0.504,0-1.007-0.075-1.494-0.223   c-0.084-0.024-0.171-0.045-0.259-0.059c-5.751-0.87-10.088-5.921-10.088-11.748c0-5.36,3.611-10.078,8.781-11.473   c0.486-0.13,0.898-0.455,1.138-0.898c0.24-0.441,0.289-0.964,0.135-1.443c-0.622-1.934-0.937-3.944-0.937-5.979   c0-10.752,8.748-19.501,19.5-19.501c6.325,0,12.284,3.095,15.94,8.276c0.498,0.706,1.42,0.971,2.216,0.636   c1.21-0.506,2.495-0.764,3.817-0.764c5.452,0,9.888,4.437,9.888,9.888c0,0.21-0.009,0.436-0.028,0.712   c-0.041,0.56,0.177,1.107,0.591,1.487c0.414,0.38,0.978,0.55,1.533,0.462c0.803-0.127,1.619-0.191,2.422-0.191   c8.482,0,15.383,6.9,15.383,15.382c0,8.482-6.9,15.382-15.383,15.382c-0.057,0-0.113-0.002-0.17-0.004l-0.161-0.005   c-0.092,0-0.185,0.003-0.277,0.016c-0.235,0.03-0.454,0.045-0.668,0.045h-1.559v3.684h1.559c0.321,0,0.654-0.021,0.99-0.059   c0.095,0.003,0.19,0.007,0.287,0.007c10.512,0,19.065-8.553,19.065-19.066S-635.178,31.464-645.69,31.464z"/>
</g>
<g>
	<path fill="#000000" d="M-525.19,31.464c-0.295,0-0.59,0.007-0.887,0.021c-0.606-6.927-6.438-12.38-13.519-12.38   c-1.324,0-2.621,0.188-3.871,0.561c-4.387-5.478-11.053-8.709-18.103-8.709c-12.783,0-23.184,10.399-23.184,23.183   c0,1.81,0.21,3.603,0.626,5.355c-5.819,2.346-9.742,8.042-9.742,14.438c0,3.747,1.35,7.367,3.803,10.195   c2.398,2.766,5.693,4.601,9.287,5.175c0.794,0.228,1.611,0.343,2.433,0.343h5.529v-3.684h-5.529c-0.504,0-1.007-0.075-1.494-0.223   c-0.084-0.024-0.171-0.045-0.259-0.059c-5.751-0.87-10.088-5.921-10.088-11.748c0-5.36,3.611-10.078,8.781-11.473   c0.486-0.13,0.898-0.455,1.138-0.898c0.24-0.441,0.289-0.964,0.135-1.443c-0.622-1.934-0.937-3.944-0.937-5.979   c0-10.752,8.748-19.501,19.5-19.501c6.325,0,12.284,3.095,15.94,8.276c0.498,0.706,1.42,0.971,2.216,0.636   c1.21-0.506,2.495-0.764,3.817-0.764c5.452,0,9.888,4.437,9.888,9.888c0,0.21-0.009,0.436-0.028,0.712   c-0.041,0.56,0.177,1.107,0.591,1.487c0.414,0.38,0.978,0.55,1.533,0.462c0.803-0.127,1.619-0.191,2.422-0.191   c8.482,0,15.383,6.9,15.383,15.382c0,8.482-6.9,15.382-15.383,15.382c-0.057,0-0.113-0.002-0.17-0.004l-0.161-0.005   c-0.092,0-0.185,0.003-0.277,0.016c-0.235,0.03-0.454,0.045-0.668,0.045h-1.559v3.684h1.559c0.321,0,0.654-0.021,0.99-0.059   c0.095,0.003,0.19,0.007,0.287,0.007c10.512,0,19.065-8.553,19.065-19.066S-514.678,31.464-525.19,31.464z"/>
</g>
<g>
	<path fill="#000000" d="M-405.689,31.464c-0.295,0-0.591,0.007-0.887,0.021c-0.606-6.927-6.438-12.38-13.52-12.38   c-1.323,0-2.62,0.188-3.871,0.561c-4.387-5.478-11.053-8.709-18.102-8.709c-12.783,0-23.184,10.399-23.184,23.183   c0,1.81,0.209,3.603,0.625,5.355c-5.818,2.346-9.742,8.042-9.742,14.438c0,3.747,1.351,7.367,3.803,10.195   c2.398,2.766,5.693,4.601,9.287,5.175c0.795,0.228,1.611,0.343,2.434,0.343h5.528v-3.684h-5.528c-0.505,0-1.008-0.075-1.494-0.223   c-0.085-0.024-0.172-0.045-0.26-0.059c-5.75-0.87-10.088-5.921-10.088-11.748c0-5.36,3.611-10.078,8.781-11.473   c0.486-0.13,0.898-0.455,1.139-0.898c0.24-0.441,0.289-0.964,0.135-1.443c-0.621-1.934-0.937-3.944-0.937-5.979   c0-10.752,8.747-19.501,19.501-19.501c6.324,0,12.283,3.095,15.939,8.276c0.498,0.706,1.42,0.971,2.217,0.636   c1.209-0.506,2.494-0.764,3.816-0.764c5.453,0,9.889,4.437,9.889,9.888c0,0.21-0.01,0.436-0.029,0.712   c-0.04,0.56,0.178,1.107,0.592,1.487c0.413,0.38,0.978,0.55,1.532,0.462c0.803-0.127,1.618-0.191,2.423-0.191   c8.482,0,15.383,6.9,15.383,15.382c0,8.482-6.9,15.382-15.383,15.382c-0.058,0-0.113-0.002-0.17-0.004l-0.162-0.005   c-0.092,0-0.185,0.003-0.277,0.016c-0.234,0.03-0.453,0.045-0.668,0.045h-1.559v3.684h1.559c0.321,0,0.654-0.021,0.99-0.059   c0.095,0.003,0.189,0.007,0.287,0.007c10.512,0,19.064-8.553,19.064-19.066S-395.178,31.464-405.689,31.464z"/>
</g>
<g>
	<path fill="#000000" d="M-285.189,31.464c-0.295,0-0.591,0.007-0.887,0.021c-0.606-6.927-6.438-12.38-13.52-12.38   c-1.323,0-2.62,0.188-3.871,0.561c-4.387-5.478-11.053-8.709-18.102-8.709c-12.783,0-23.184,10.399-23.184,23.183   c0,1.81,0.209,3.603,0.625,5.355c-5.818,2.346-9.742,8.042-9.742,14.438c0,3.747,1.351,7.367,3.803,10.195   c2.398,2.766,5.693,4.601,9.287,5.175c0.795,0.228,1.611,0.343,2.434,0.343h5.528v-3.684h-5.528c-0.505,0-1.008-0.075-1.494-0.223   c-0.085-0.024-0.172-0.045-0.26-0.059c-5.75-0.87-10.088-5.921-10.088-11.748c0-5.36,3.611-10.078,8.781-11.473   c0.486-0.13,0.898-0.455,1.139-0.898c0.24-0.441,0.289-0.964,0.135-1.443c-0.621-1.934-0.937-3.944-0.937-5.979   c0-10.752,8.747-19.501,19.501-19.501c6.324,0,12.283,3.095,15.939,8.276c0.498,0.706,1.42,0.971,2.217,0.636   c1.209-0.506,2.494-0.764,3.816-0.764c5.453,0,9.889,4.437,9.889,9.888c0,0.21-0.01,0.436-0.029,0.712   c-0.04,0.56,0.178,1.107,0.592,1.487c0.413,0.38,0.978,0.55,1.532,0.462c0.803-0.127,1.618-0.191,2.423-0.191   c8.482,0,15.383,6.9,15.383,15.382c0,8.482-6.9,15.382-15.383,15.382c-0.058,0-0.113-0.002-0.17-0.004l-0.162-0.005   c-0.092,0-0.185,0.003-0.277,0.016c-0.234,0.03-0.453,0.045-0.668,0.045h-1.559v3.684h1.559c0.321,0,0.654-0.021,0.99-0.059   c0.095,0.003,0.189,0.007,0.287,0.007c10.512,0,19.064-8.553,19.064-19.066S-274.678,31.464-285.189,31.464z"/>
</g>
<g>
	<path fill="#000000" d="M-165.689,31.464c-0.295,0-0.591,0.007-0.887,0.021c-0.606-6.927-6.438-12.38-13.52-12.38   c-1.323,0-2.62,0.188-3.871,0.561c-4.387-5.478-11.053-8.709-18.102-8.709c-12.783,0-23.184,10.399-23.184,23.183   c0,1.81,0.209,3.603,0.625,5.355c-5.818,2.346-9.742,8.042-9.742,14.438c0,3.747,1.351,7.367,3.803,10.195   c2.398,2.766,5.693,4.601,9.287,5.175c0.795,0.228,1.611,0.343,2.434,0.343h5.528v-3.684h-5.528c-0.505,0-1.008-0.075-1.494-0.223   c-0.085-0.024-0.172-0.045-0.26-0.059c-5.75-0.87-10.088-5.921-10.088-11.748c0-5.36,3.611-10.078,8.781-11.473   c0.486-0.13,0.898-0.455,1.139-0.898c0.24-0.441,0.289-0.964,0.135-1.443c-0.621-1.934-0.937-3.944-0.937-5.979   c0-10.752,8.747-19.501,19.501-19.501c6.324,0,12.283,3.095,15.939,8.276c0.498,0.706,1.42,0.971,2.217,0.636   c1.209-0.506,2.494-0.764,3.816-0.764c5.453,0,9.889,4.437,9.889,9.888c0,0.21-0.01,0.436-0.029,0.712   c-0.04,0.56,0.178,1.107,0.592,1.487c0.413,0.38,0.978,0.55,1.532,0.462c0.803-0.127,1.618-0.191,2.423-0.191   c8.482,0,15.383,6.9,15.383,15.382c0,8.482-6.9,15.382-15.383,15.382c-0.058,0-0.113-0.002-0.17-0.004l-0.162-0.005   c-0.092,0-0.185,0.003-0.277,0.016c-0.234,0.03-0.453,0.045-0.668,0.045h-1.559v3.684h1.559c0.321,0,0.654-0.021,0.99-0.059   c0.095,0.003,0.189,0.007,0.287,0.007c10.512,0,19.064-8.553,19.064-19.066S-155.178,31.464-165.689,31.464z"/>
</g>
<g>
	<path fill="#000000" d="M-45.189,31.464c-0.295,0-0.591,0.007-0.887,0.021c-0.606-6.927-6.438-12.38-13.52-12.38   c-1.323,0-2.62,0.188-3.871,0.561c-4.387-5.478-11.053-8.709-18.102-8.709c-12.783,0-23.184,10.399-23.184,23.183   c0,1.81,0.209,3.603,0.625,5.355c-5.818,2.346-9.742,8.042-9.742,14.438c0,3.747,1.351,7.367,3.803,10.195   c2.398,2.766,5.693,4.601,9.287,5.175c0.795,0.228,1.611,0.343,2.434,0.343h5.528v-3.684h-5.528c-0.505,0-1.008-0.075-1.494-0.223   c-0.085-0.024-0.172-0.045-0.26-0.059c-5.75-0.87-10.088-5.921-10.088-11.748c0-5.36,3.611-10.078,8.781-11.473   c0.486-0.13,0.898-0.455,1.139-0.898c0.24-0.441,0.289-0.964,0.135-1.443c-0.621-1.934-0.937-3.944-0.937-5.979   c0-10.752,8.747-19.501,19.501-19.501c6.324,0,12.283,3.095,15.939,8.276c0.498,0.706,1.42,0.971,2.217,0.636   c1.209-0.506,2.494-0.764,3.816-0.764c5.453,0,9.889,4.437,9.889,9.888c0,0.21-0.01,0.436-0.029,0.712   c-0.04,0.56,0.178,1.107,0.592,1.487c0.413,0.38,0.978,0.55,1.532,0.462c0.803-0.127,1.618-0.191,2.423-0.191   c8.482,0,15.383,6.9,15.383,15.382c0,8.482-6.9,15.382-15.383,15.382c-0.058,0-0.113-0.002-0.17-0.004l-0.162-0.005   c-0.092,0-0.185,0.003-0.277,0.016c-0.234,0.03-0.453,0.045-0.668,0.045h-1.559v3.684h1.559c0.321,0,0.654-0.021,0.99-0.059   c0.095,0.003,0.189,0.007,0.287,0.007c10.512,0,19.064-8.553,19.064-19.066S-34.678,31.464-45.189,31.464z"/>
</g>
<g>
	<path fill="#000000" d="M74.311,31.464c-0.295,0-0.591,0.007-0.887,0.021c-0.606-6.927-6.438-12.38-13.52-12.38   c-1.323,0-2.62,0.188-3.871,0.561c-4.387-5.478-11.053-8.709-18.102-8.709c-12.783,0-23.184,10.399-23.184,23.183   c0,1.81,0.209,3.603,0.625,5.355c-5.818,2.346-9.742,8.042-9.742,14.438c0,3.747,1.351,7.367,3.803,10.195   c2.398,2.766,5.693,4.601,9.287,5.175c0.795,0.228,1.611,0.343,2.434,0.343h5.528v-3.684h-5.528c-0.505,0-1.008-0.075-1.494-0.223   c-0.085-0.024-0.172-0.045-0.26-0.059c-5.75-0.87-10.088-5.921-10.088-11.748c0-5.36,3.611-10.078,8.781-11.473   c0.486-0.13,0.898-0.455,1.139-0.898c0.24-0.441,0.289-0.964,0.135-1.443c-0.621-1.934-0.937-3.944-0.937-5.979   c0-10.752,8.747-19.501,19.501-19.501c6.324,0,12.283,3.095,15.939,8.276c0.498,0.706,1.42,0.971,2.217,0.636   c1.209-0.506,2.494-0.764,3.816-0.764c5.453,0,9.889,4.437,9.889,9.888c0,0.21-0.01,0.436-0.029,0.712   c-0.04,0.56,0.178,1.107,0.592,1.487c0.413,0.38,0.978,0.55,1.532,0.462c0.803-0.127,1.618-0.191,2.423-0.191   c8.482,0,15.383,6.9,15.383,15.382c0,8.482-6.9,15.382-15.383,15.382c-0.058,0-0.113-0.002-0.17-0.004l-0.162-0.005   c-0.092,0-0.185,0.003-0.277,0.016c-0.234,0.03-0.453,0.045-0.668,0.045h-1.559v3.684h1.559c0.321,0,0.654-0.021,0.99-0.059   c0.095,0.003,0.189,0.007,0.287,0.007c10.512,0,19.064-8.553,19.064-19.066S84.822,31.464,74.311,31.464z"/>
</g>
<g>
	<path fill="#000000" d="M-1005.19,160.964c-0.295,0-0.59,0.007-0.887,0.021c-0.606-6.927-6.438-12.38-13.519-12.38   c-1.324,0-2.621,0.188-3.871,0.561c-4.387-5.478-11.053-8.709-18.103-8.709c-12.783,0-23.184,10.399-23.184,23.183   c0,1.81,0.21,3.603,0.626,5.355c-5.819,2.346-9.742,8.042-9.742,14.438c0,3.747,1.35,7.367,3.803,10.195   c2.398,2.766,5.693,4.601,9.287,5.175c0.794,0.228,1.611,0.343,2.433,0.343h5.529v-3.684h-5.529c-0.504,0-1.007-0.075-1.494-0.223   c-0.084-0.024-0.171-0.045-0.259-0.059c-5.751-0.87-10.088-5.921-10.088-11.748c0-5.36,3.611-10.078,8.781-11.473   c0.486-0.13,0.898-0.455,1.138-0.898c0.24-0.441,0.289-0.964,0.135-1.443c-0.622-1.934-0.937-3.944-0.937-5.979   c0-10.752,8.748-19.501,19.5-19.501c6.325,0,12.284,3.095,15.94,8.276c0.498,0.706,1.42,0.971,2.216,0.636   c1.21-0.506,2.495-0.764,3.817-0.764c5.452,0,9.888,4.437,9.888,9.888c0,0.21-0.009,0.436-0.028,0.712   c-0.041,0.56,0.177,1.107,0.591,1.487c0.414,0.38,0.978,0.55,1.533,0.462c0.803-0.127,1.619-0.191,2.422-0.191   c8.482,0,15.383,6.9,15.383,15.382c0,8.482-6.9,15.382-15.383,15.382c-0.057,0-0.113-0.002-0.17-0.004l-0.161-0.005   c-0.092,0-0.185,0.003-0.277,0.016c-0.235,0.03-0.454,0.045-0.668,0.045h-1.559v3.684h1.559c0.321,0,0.654-0.021,0.99-0.059   c0.095,0.003,0.19,0.007,0.287,0.007c10.512,0,19.065-8.553,19.065-19.066S-994.678,160.964-1005.19,160.964z"/>
</g>
<g>
	<path fill="#000000" d="M-885.69,160.964c-0.295,0-0.59,0.007-0.887,0.021c-0.606-6.927-6.438-12.38-13.519-12.38   c-1.324,0-2.621,0.188-3.871,0.561c-4.387-5.478-11.053-8.709-18.103-8.709c-12.783,0-23.184,10.399-23.184,23.183   c0,1.81,0.21,3.603,0.626,5.355c-5.819,2.346-9.742,8.042-9.742,14.438c0,3.747,1.35,7.367,3.803,10.195   c2.398,2.766,5.693,4.601,9.287,5.175c0.794,0.228,1.611,0.343,2.433,0.343h5.529v-3.684h-5.529c-0.504,0-1.007-0.075-1.494-0.223   c-0.084-0.024-0.171-0.045-0.259-0.059c-5.751-0.87-10.088-5.921-10.088-11.748c0-5.36,3.611-10.078,8.781-11.473   c0.486-0.13,0.898-0.455,1.138-0.898c0.24-0.441,0.289-0.964,0.135-1.443c-0.622-1.934-0.937-3.944-0.937-5.979   c0-10.752,8.748-19.501,19.5-19.501c6.325,0,12.284,3.095,15.94,8.276c0.498,0.706,1.42,0.971,2.216,0.636   c1.21-0.506,2.495-0.764,3.817-0.764c5.452,0,9.888,4.437,9.888,9.888c0,0.21-0.009,0.436-0.028,0.712   c-0.041,0.56,0.177,1.107,0.591,1.487c0.414,0.38,0.978,0.55,1.533,0.462c0.803-0.127,1.619-0.191,2.422-0.191   c8.482,0,15.383,6.9,15.383,15.382c0,8.482-6.9,15.382-15.383,15.382c-0.057,0-0.113-0.002-0.17-0.004l-0.161-0.005   c-0.092,0-0.185,0.003-0.277,0.016c-0.235,0.03-0.454,0.045-0.668,0.045h-1.559v3.684h1.559c0.321,0,0.654-0.021,0.99-0.059   c0.095,0.003,0.19,0.007,0.287,0.007c10.512,0,19.065-8.553,19.065-19.066S-875.178,160.964-885.69,160.964z"/>
</g>
<g>
	<path fill="#000000" d="M-765.19,160.964c-0.295,0-0.59,0.007-0.887,0.021c-0.606-6.927-6.438-12.38-13.519-12.38   c-1.324,0-2.621,0.188-3.871,0.561c-4.387-5.478-11.053-8.709-18.103-8.709c-12.783,0-23.184,10.399-23.184,23.183   c0,1.81,0.21,3.603,0.626,5.355c-5.819,2.346-9.742,8.042-9.742,14.438c0,3.747,1.35,7.367,3.803,10.195   c2.398,2.766,5.693,4.601,9.287,5.175c0.794,0.228,1.611,0.343,2.433,0.343h5.529v-3.684h-5.529c-0.504,0-1.007-0.075-1.494-0.223   c-0.084-0.024-0.171-0.045-0.259-0.059c-5.751-0.87-10.088-5.921-10.088-11.748c0-5.36,3.611-10.078,8.781-11.473   c0.486-0.13,0.898-0.455,1.138-0.898c0.24-0.441,0.289-0.964,0.135-1.443c-0.622-1.934-0.937-3.944-0.937-5.979   c0-10.752,8.748-19.501,19.5-19.501c6.325,0,12.284,3.095,15.94,8.276c0.498,0.706,1.42,0.971,2.216,0.636   c1.21-0.506,2.495-0.764,3.817-0.764c5.452,0,9.888,4.437,9.888,9.888c0,0.21-0.009,0.436-0.028,0.712   c-0.041,0.56,0.177,1.107,0.591,1.487c0.414,0.38,0.978,0.55,1.533,0.462c0.803-0.127,1.619-0.191,2.422-0.191   c8.482,0,15.383,6.9,15.383,15.382c0,8.482-6.9,15.382-15.383,15.382c-0.057,0-0.113-0.002-0.17-0.004l-0.161-0.005   c-0.092,0-0.185,0.003-0.277,0.016c-0.235,0.03-0.454,0.045-0.668,0.045h-1.559v3.684h1.559c0.321,0,0.654-0.021,0.99-0.059   c0.095,0.003,0.19,0.007,0.287,0.007c10.512,0,19.065-8.553,19.065-19.066S-754.678,160.964-765.19,160.964z"/>
</g>
<g>
	<path fill="#000000" d="M-645.69,160.964c-0.295,0-0.59,0.007-0.887,0.021c-0.606-6.927-6.438-12.38-13.519-12.38   c-1.324,0-2.621,0.188-3.871,0.561c-4.387-5.478-11.053-8.709-18.103-8.709c-12.783,0-23.184,10.399-23.184,23.183   c0,1.81,0.21,3.603,0.626,5.355c-5.819,2.346-9.742,8.042-9.742,14.438c0,3.747,1.35,7.367,3.803,10.195   c2.398,2.766,5.693,4.601,9.287,5.175c0.794,0.228,1.611,0.343,2.433,0.343h5.529v-3.684h-5.529c-0.504,0-1.007-0.075-1.494-0.223   c-0.084-0.024-0.171-0.045-0.259-0.059c-5.751-0.87-10.088-5.921-10.088-11.748c0-5.36,3.611-10.078,8.781-11.473   c0.486-0.13,0.898-0.455,1.138-0.898c0.24-0.441,0.289-0.964,0.135-1.443c-0.622-1.934-0.937-3.944-0.937-5.979   c0-10.752,8.748-19.501,19.5-19.501c6.325,0,12.284,3.095,15.94,8.276c0.498,0.706,1.42,0.971,2.216,0.636   c1.21-0.506,2.495-0.764,3.817-0.764c5.452,0,9.888,4.437,9.888,9.888c0,0.21-0.009,0.436-0.028,0.712   c-0.041,0.56,0.177,1.107,0.591,1.487c0.414,0.38,0.978,0.55,1.533,0.462c0.803-0.127,1.619-0.191,2.422-0.191   c8.482,0,15.383,6.9,15.383,15.382c0,8.482-6.9,15.382-15.383,15.382c-0.057,0-0.113-0.002-0.17-0.004l-0.161-0.005   c-0.092,0-0.185,0.003-0.277,0.016c-0.235,0.03-0.454,0.045-0.668,0.045h-1.559v3.684h1.559c0.321,0,0.654-0.021,0.99-0.059   c0.095,0.003,0.19,0.007,0.287,0.007c10.512,0,19.065-8.553,19.065-19.066S-635.178,160.964-645.69,160.964z"/>
</g>
<g>
	<path fill="#000000" d="M-525.19,160.964c-0.295,0-0.59,0.007-0.887,0.021c-0.606-6.927-6.438-12.38-13.519-12.38   c-1.324,0-2.621,0.188-3.871,0.561c-4.387-5.478-11.053-8.709-18.103-8.709c-12.783,0-23.184,10.399-23.184,23.183   c0,1.81,0.21,3.603,0.626,5.355c-5.819,2.346-9.742,8.042-9.742,14.438c0,3.747,1.35,7.367,3.803,10.195   c2.398,2.766,5.693,4.601,9.287,5.175c0.794,0.228,1.611,0.343,2.433,0.343h5.529v-3.684h-5.529c-0.504,0-1.007-0.075-1.494-0.223   c-0.084-0.024-0.171-0.045-0.259-0.059c-5.751-0.87-10.088-5.921-10.088-11.748c0-5.36,3.611-10.078,8.781-11.473   c0.486-0.13,0.898-0.455,1.138-0.898c0.24-0.441,0.289-0.964,0.135-1.443c-0.622-1.934-0.937-3.944-0.937-5.979   c0-10.752,8.748-19.501,19.5-19.501c6.325,0,12.284,3.095,15.94,8.276c0.498,0.706,1.42,0.971,2.216,0.636   c1.21-0.506,2.495-0.764,3.817-0.764c5.452,0,9.888,4.437,9.888,9.888c0,0.21-0.009,0.436-0.028,0.712   c-0.041,0.56,0.177,1.107,0.591,1.487c0.414,0.38,0.978,0.55,1.533,0.462c0.803-0.127,1.619-0.191,2.422-0.191   c8.482,0,15.383,6.9,15.383,15.382c0,8.482-6.9,15.382-15.383,15.382c-0.057,0-0.113-0.002-0.17-0.004l-0.161-0.005   c-0.092,0-0.185,0.003-0.277,0.016c-0.235,0.03-0.454,0.045-0.668,0.045h-1.559v3.684h1.559c0.321,0,0.654-0.021,0.99-0.059   c0.095,0.003,0.19,0.007,0.287,0.007c10.512,0,19.065-8.553,19.065-19.066S-514.678,160.964-525.19,160.964z"/>
</g>
<g>
	<path fill="#000000" d="M-405.689,160.964c-0.295,0-0.591,0.007-0.887,0.021c-0.606-6.927-6.438-12.38-13.52-12.38   c-1.323,0-2.62,0.188-3.871,0.561c-4.387-5.478-11.053-8.709-18.102-8.709c-12.783,0-23.184,10.399-23.184,23.183   c0,1.81,0.209,3.603,0.625,5.355c-5.818,2.346-9.742,8.042-9.742,14.438c0,3.747,1.351,7.367,3.803,10.195   c2.398,2.766,5.693,4.601,9.287,5.175c0.795,0.228,1.611,0.343,2.434,0.343h5.528v-3.684h-5.528c-0.505,0-1.008-0.075-1.494-0.223   c-0.085-0.024-0.172-0.045-0.26-0.059c-5.75-0.87-10.088-5.921-10.088-11.748c0-5.36,3.611-10.078,8.781-11.473   c0.486-0.13,0.898-0.455,1.139-0.898c0.24-0.441,0.289-0.964,0.135-1.443c-0.621-1.934-0.937-3.944-0.937-5.979   c0-10.752,8.747-19.501,19.501-19.501c6.324,0,12.283,3.095,15.939,8.276c0.498,0.706,1.42,0.971,2.217,0.636   c1.209-0.506,2.494-0.764,3.816-0.764c5.453,0,9.889,4.437,9.889,9.888c0,0.21-0.01,0.436-0.029,0.712   c-0.04,0.56,0.178,1.107,0.592,1.487c0.413,0.38,0.978,0.55,1.532,0.462c0.803-0.127,1.618-0.191,2.423-0.191   c8.482,0,15.383,6.9,15.383,15.382c0,8.482-6.9,15.382-15.383,15.382c-0.058,0-0.113-0.002-0.17-0.004l-0.162-0.005   c-0.092,0-0.185,0.003-0.277,0.016c-0.234,0.03-0.453,0.045-0.668,0.045h-1.559v3.684h1.559c0.321,0,0.654-0.021,0.99-0.059   c0.095,0.003,0.189,0.007,0.287,0.007c10.512,0,19.064-8.553,19.064-19.066S-395.178,160.964-405.689,160.964z"/>
</g>
<g>
	<path fill="#000000" d="M-285.189,160.964c-0.295,0-0.591,0.007-0.887,0.021c-0.606-6.927-6.438-12.38-13.52-12.38   c-1.323,0-2.62,0.188-3.871,0.561c-4.387-5.478-11.053-8.709-18.102-8.709c-12.783,0-23.184,10.399-23.184,23.183   c0,1.81,0.209,3.603,0.625,5.355c-5.818,2.346-9.742,8.042-9.742,14.438c0,3.747,1.351,7.367,3.803,10.195   c2.398,2.766,5.693,4.601,9.287,5.175c0.795,0.228,1.611,0.343,2.434,0.343h5.528v-3.684h-5.528c-0.505,0-1.008-0.075-1.494-0.223   c-0.085-0.024-0.172-0.045-0.26-0.059c-5.75-0.87-10.088-5.921-10.088-11.748c0-5.36,3.611-10.078,8.781-11.473   c0.486-0.13,0.898-0.455,1.139-0.898c0.24-0.441,0.289-0.964,0.135-1.443c-0.621-1.934-0.937-3.944-0.937-5.979   c0-10.752,8.747-19.501,19.501-19.501c6.324,0,12.283,3.095,15.939,8.276c0.498,0.706,1.42,0.971,2.217,0.636   c1.209-0.506,2.494-0.764,3.816-0.764c5.453,0,9.889,4.437,9.889,9.888c0,0.21-0.01,0.436-0.029,0.712   c-0.04,0.56,0.178,1.107,0.592,1.487c0.413,0.38,0.978,0.55,1.532,0.462c0.803-0.127,1.618-0.191,2.423-0.191   c8.482,0,15.383,6.9,15.383,15.382c0,8.482-6.9,15.382-15.383,15.382c-0.058,0-0.113-0.002-0.17-0.004l-0.162-0.005   c-0.092,0-0.185,0.003-0.277,0.016c-0.234,0.03-0.453,0.045-0.668,0.045h-1.559v3.684h1.559c0.321,0,0.654-0.021,0.99-0.059   c0.095,0.003,0.189,0.007,0.287,0.007c10.512,0,19.064-8.553,19.064-19.066S-274.678,160.964-285.189,160.964z"/>
</g>
<g>
	<path fill="#000000" d="M-165.689,160.964c-0.295,0-0.591,0.007-0.887,0.021c-0.606-6.927-6.438-12.38-13.52-12.38   c-1.323,0-2.62,0.188-3.871,0.561c-4.387-5.478-11.053-8.709-18.102-8.709c-12.783,0-23.184,10.399-23.184,23.183   c0,1.81,0.209,3.603,0.625,5.355c-5.818,2.346-9.742,8.042-9.742,14.438c0,3.747,1.351,7.367,3.803,10.195   c2.398,2.766,5.693,4.601,9.287,5.175c0.795,0.228,1.611,0.343,2.434,0.343h5.528v-3.684h-5.528c-0.505,0-1.008-0.075-1.494-0.223   c-0.085-0.024-0.172-0.045-0.26-0.059c-5.75-0.87-10.088-5.921-10.088-11.748c0-5.36,3.611-10.078,8.781-11.473   c0.486-0.13,0.898-0.455,1.139-0.898c0.24-0.441,0.289-0.964,0.135-1.443c-0.621-1.934-0.937-3.944-0.937-5.979   c0-10.752,8.747-19.501,19.501-19.501c6.324,0,12.283,3.095,15.939,8.276c0.498,0.706,1.42,0.971,2.217,0.636   c1.209-0.506,2.494-0.764,3.816-0.764c5.453,0,9.889,4.437,9.889,9.888c0,0.21-0.01,0.436-0.029,0.712   c-0.04,0.56,0.178,1.107,0.592,1.487c0.413,0.38,0.978,0.55,1.532,0.462c0.803-0.127,1.618-0.191,2.423-0.191   c8.482,0,15.383,6.9,15.383,15.382c0,8.482-6.9,15.382-15.383,15.382c-0.058,0-0.113-0.002-0.17-0.004l-0.162-0.005   c-0.092,0-0.185,0.003-0.277,0.016c-0.234,0.03-0.453,0.045-0.668,0.045h-1.559v3.684h1.559c0.321,0,0.654-0.021,0.99-0.059   c0.095,0.003,0.189,0.007,0.287,0.007c10.512,0,19.064-8.553,19.064-19.066S-155.178,160.964-165.689,160.964z"/>
</g>
<g>
	<path fill="#000000" d="M-45.189,160.964c-0.295,0-0.591,0.007-0.887,0.021c-0.606-6.927-6.438-12.38-13.52-12.38   c-1.323,0-2.62,0.188-3.871,0.561c-4.387-5.478-11.053-8.709-18.102-8.709c-12.783,0-23.184,10.399-23.184,23.183   c0,1.81,0.209,3.603,0.625,5.355c-5.818,2.346-9.742,8.042-9.742,14.438c0,3.747,1.351,7.367,3.803,10.195   c2.398,2.766,5.693,4.601,9.287,5.175c0.795,0.228,1.611,0.343,2.434,0.343h5.528v-3.684h-5.528c-0.505,0-1.008-0.075-1.494-0.223   c-0.085-0.024-0.172-0.045-0.26-0.059c-5.75-0.87-10.088-5.921-10.088-11.748c0-5.36,3.611-10.078,8.781-11.473   c0.486-0.13,0.898-0.455,1.139-0.898c0.24-0.441,0.289-0.964,0.135-1.443c-0.621-1.934-0.937-3.944-0.937-5.979   c0-10.752,8.747-19.501,19.501-19.501c6.324,0,12.283,3.095,15.939,8.276c0.498,0.706,1.42,0.971,2.217,0.636   c1.209-0.506,2.494-0.764,3.816-0.764c5.453,0,9.889,4.437,9.889,9.888c0,0.21-0.01,0.436-0.029,0.712   c-0.04,0.56,0.178,1.107,0.592,1.487c0.413,0.38,0.978,0.55,1.532,0.462c0.803-0.127,1.618-0.191,2.423-0.191   c8.482,0,15.383,6.9,15.383,15.382c0,8.482-6.9,15.382-15.383,15.382c-0.058,0-0.113-0.002-0.17-0.004l-0.162-0.005   c-0.092,0-0.185,0.003-0.277,0.016c-0.234,0.03-0.453,0.045-0.668,0.045h-1.559v3.684h1.559c0.321,0,0.654-0.021,0.99-0.059   c0.095,0.003,0.189,0.007,0.287,0.007c10.512,0,19.064-8.553,19.064-19.066S-34.678,160.964-45.189,160.964z"/>
</g>
<g>
	<path fill="#000000" d="M74.311,160.964c-0.295,0-0.591,0.007-0.887,0.021c-0.606-6.927-6.438-12.38-13.52-12.38   c-1.323,0-2.62,0.188-3.871,0.561c-4.387-5.478-11.053-8.709-18.102-8.709c-12.783,0-23.184,10.399-23.184,23.183   c0,1.81,0.209,3.603,0.625,5.355c-5.818,2.346-9.742,8.042-9.742,14.438c0,3.747,1.351,7.367,3.803,10.195   c2.398,2.766,5.693,4.601,9.287,5.175c0.795,0.228,1.611,0.343,2.434,0.343h5.528v-3.684h-5.528c-0.505,0-1.008-0.075-1.494-0.223   c-0.085-0.024-0.172-0.045-0.26-0.059c-5.75-0.87-10.088-5.921-10.088-11.748c0-5.36,3.611-10.078,8.781-11.473   c0.486-0.13,0.898-0.455,1.139-0.898c0.24-0.441,0.289-0.964,0.135-1.443c-0.621-1.934-0.937-3.944-0.937-5.979   c0-10.752,8.747-19.501,19.501-19.501c6.324,0,12.283,3.095,15.939,8.276c0.498,0.706,1.42,0.971,2.217,0.636   c1.209-0.506,2.494-0.764,3.816-0.764c5.453,0,9.889,4.437,9.889,9.888c0,0.21-0.01,0.436-0.029,0.712   c-0.04,0.56,0.178,1.107,0.592,1.487c0.413,0.38,0.978,0.55,1.532,0.462c0.803-0.127,1.618-0.191,2.423-0.191   c8.482,0,15.383,6.9,15.383,15.382c0,8.482-6.9,15.382-15.383,15.382c-0.058,0-0.113-0.002-0.17-0.004l-0.162-0.005   c-0.092,0-0.185,0.003-0.277,0.016c-0.234,0.03-0.453,0.045-0.668,0.045h-1.559v3.684h1.559c0.321,0,0.654-0.021,0.99-0.059   c0.095,0.003,0.189,0.007,0.287,0.007c10.512,0,19.064-8.553,19.064-19.066S84.822,160.964,74.311,160.964z"/>
</g>
<g>
	<path d="M-417.23,175.927c0,0-2.367,2.444-7.33,2.444v4.887c0,0,9.774-0.151,9.774-4.887   C-414.787,175.927-417.23,175.927-417.23,175.927z"/>
	<path d="M-417.23,184.599c0,0-2.367,2.442-7.33,2.442v4.887c0,0,9.774-0.151,9.774-4.887   C-414.787,184.599-417.23,184.599-417.23,184.599z"/>
	<path d="M-417.23,193.271c0,0-2.367,2.442-7.33,2.442v4.889c0,0,9.774-0.153,9.774-4.889   C-414.787,193.271-417.23,193.271-417.23,193.271z"/>
	<ellipse cx="-424.561" cy="169.698" rx="9.773" ry="4.887"/>
	<path d="M-429.449,189.486c0,0-2.366,2.442-7.33,2.442c-4.963,0-7.33-2.442-7.33-2.442s-2.444,0-2.444,2.442   c0,4.735,9.776,4.888,9.776,4.888s9.773-0.152,9.773-4.888C-427.004,189.486-429.449,189.486-429.449,189.486z"/>
	<path d="M-429.449,198.158c0,0-2.366,2.443-7.33,2.443c-4.963,0-7.33-2.443-7.33-2.443s-2.444,0-2.444,2.443   c-0.001,4.732,9.774,4.885,9.774,4.885s9.775-0.153,9.775-4.885C-427.004,198.158-429.449,198.158-429.449,198.158z"/>
	<ellipse cx="-436.779" cy="183.258" rx="9.775" ry="4.887"/>
</g>
<path fill="#000000" d="M-550.722,168.92c-10.223,0-18.5,8.286-18.5,18.504c0,10.227,8.277,18.511,18.5,18.511  c10.227,0,18.511-8.284,18.511-18.511C-532.21,177.206-540.496,168.92-550.722,168.92z M-540.774,197.037  c-0.2,0.189-0.401,0.377-0.613,0.566c-1.144,0.982-2.397,1.769-3.722,2.318l0.09,0.206c-1.501,0.677-3.14,1.093-4.866,1.187  c-0.279,0.024-0.558,0.032-0.837,0.032c-7.683,0-13.913-6.234-13.913-13.921c0-2.704,0.762-5.212,2.094-7.35  c0.743-1.282,1.709-2.461,2.889-3.483c2.484-1.887,5.569-3.081,8.93-3.081c0,0,0.008,12.946-0.133,13.088  c2.209,1.21,12.97,6.336,12.97,6.336C-538.573,194.435-539.541,195.827-540.774,197.037z"/>
<g>
	<path fill="#000000" d="M-1043.446,47.197l13.293,16.871c0.121,0.12,0.278,0.186,0.447,0.186c0.17,0,0.328-0.066,0.447-0.186   l12.783-16.871c0.117-0.118,0.176-0.271,0.181-0.424h-27.335C-1043.623,46.932-1043.56,47.083-1043.446,47.197z"/>
	<path fill="#000000" d="M-1014.192,47.896c-0.029,0.659-0.292,1.31-0.794,1.812l-12.783,16.873   c-0.516,0.516-1.204,0.801-1.936,0.801c-0.731,0-1.419-0.285-1.936-0.801l-13.293-16.873c-0.503-0.502-0.784-1.167-0.799-1.876   c-0.683,0.15-1.195,0.76-1.195,1.489v23.257c0,0.843,0.683,1.526,1.525,1.526h30.671c0.842,0,1.525-0.683,1.525-1.526V49.32   C-1013.208,48.668-1013.617,48.113-1014.192,47.896z"/>
</g>
<g>
	<path d="M-781.506,71.365h-2.652l-2.268-2.268l-0.008-0.006c-0.15-0.149-0.357-0.243-0.589-0.243h-1.331h-3.01   c-0.228,0-0.432,0.092-0.582,0.237l-0.02,0.02l-2.26,2.26h-2.654c-0.463,0-0.838,0.333-0.838,0.741v2.985   c0,0.408,0.375,0.741,0.838,0.741h15.373c0.463,0,0.838-0.333,0.838-0.741v-2.985C-780.668,71.698-781.043,71.365-781.506,71.365z"/>
	<g>
		<path fill="none" d="M-777.484,62.808c-0.566,0-1.024,0.458-1.024,1.025C-778.509,63.268-778.051,62.809-777.484,62.808    c0.566,0.001,1.023,0.459,1.023,1.025C-776.461,63.267-776.918,62.808-777.484,62.808z"/>
		<path fill="none" d="M-778.509,63.833c0,0.568,0.458,1.025,1.024,1.025C-778.051,64.858-778.509,64.4-778.509,63.833z"/>
		<path fill="none" d="M-777.484,64.858c0.566,0,1.023-0.458,1.023-1.025C-776.461,64.4-776.918,64.858-777.484,64.858z"/>
		<path d="M-775.77,40.326h-26.844c-1.854,0-3.357,1.502-3.357,3.355v20.134c0,1.853,1.503,3.356,3.357,3.356h26.844    c1.854,0,3.356-1.503,3.356-3.356V43.681C-772.413,41.829-773.916,40.326-775.77,40.326z M-777.719,60.948h-22.947V46.119h22.947    V60.948z"/>
	</g>
</g>
<g>
	<path d="M-192.506,177.17c0,0-0.007,16.145-0.007,24.587c0,2.211,1.792,4.004,4.003,4.004s4.004-1.793,4.004-4.004   c0-7.078,0.008-24.565,0.008-24.565s1.354,1.337,7.527,7.51c1.563,1.563,4.098,1.563,5.662,0c1.563-1.563,1.563-4.098,0-5.662   c-5.006-5.004-14.365-14.364-14.365-14.364c-1.562-1.563-4.098-1.563-5.662,0c0,0-8.076,8.077-14.248,14.249   c-1.564,1.564-1.564,4.099,0,5.663c1.562,1.563,4.098,1.563,5.661,0C-194.918,179.583-192.506,177.17-192.506,177.17z"/>
</g>
<g>
	<path d="M-66.374,191.094c0,0,0.007-16.144,0.007-24.586c0-2.211-1.792-4.003-4.004-4.003c-2.211,0-4.004,1.792-4.004,4.003   c0,7.079-0.007,24.565-0.007,24.565s-1.354-1.337-7.526-7.509c-1.563-1.563-4.1-1.563-5.662,0c-1.564,1.563-1.564,4.098,0,5.661   c5.004,5.005,14.363,14.366,14.363,14.366c1.564,1.562,4.099,1.562,5.664,0c0,0,8.076-8.078,14.247-14.25   c1.564-1.563,1.564-4.099,0-5.663c-1.562-1.563-4.099-1.563-5.661,0C-63.961,188.683-66.374,191.094-66.374,191.094z"/>
</g>
<g>
	<g>
		<path d="M-290.918,170.306c-2.963-2.963-6.412,1.124-6.412,1.124l-19.894,22.682l-8.354-9.382c0,0-3.307-3.653-6.457-0.504    c-2.151,3.358,3.964,8.946,5.074,10.425c1.113,1.485,9.737,10.612,9.737,10.612l26.593-29.114    C-290.631,176.15-287.951,173.272-290.918,170.306z"/>
	</g>
</g>
<g>
	<path d="M-664.78,53.386l1.382-1.61c-0.155-0.307-0.326-0.605-0.517-0.89l-2.084,0.393c-0.235-0.275-0.488-0.531-0.765-0.765   l0.394-2.084c-0.285-0.188-0.583-0.361-0.89-0.515l-1.61,1.381c-0.336-0.12-0.686-0.213-1.045-0.28l-0.703-2   c-0.17-0.011-0.343-0.016-0.515-0.016c-0.174,0-0.345,0.005-0.517,0.016l-0.701,2c-0.36,0.066-0.709,0.16-1.047,0.28l-1.609-1.381   c-0.307,0.154-0.605,0.328-0.891,0.514l0.394,2.085c-0.274,0.234-0.529,0.49-0.765,0.764l-2.084-0.392   c-0.189,0.285-0.361,0.583-0.516,0.89l1.383,1.61c-0.121,0.336-0.215,0.686-0.281,1.044l-2,0.704   c-0.011,0.171-0.016,0.344-0.016,0.516c0,0.172,0.005,0.344,0.016,0.514l2,0.705c0.066,0.358,0.159,0.708,0.279,1.044l-1.383,1.609   c0.156,0.308,0.328,0.605,0.518,0.89l2.084-0.392c0.235,0.275,0.49,0.53,0.765,0.763l-0.394,2.086   c0.285,0.188,0.582,0.361,0.891,0.515l1.609-1.381c0.338,0.12,0.686,0.214,1.047,0.28l0.701,2c0.172,0.01,0.343,0.016,0.517,0.016   c0.172,0,0.345-0.005,0.515-0.016l0.703-2c0.359-0.066,0.709-0.16,1.045-0.28l1.61,1.381c0.307-0.155,0.604-0.326,0.89-0.515   l-0.394-2.086c0.275-0.233,0.529-0.488,0.765-0.763l2.084,0.394c0.19-0.287,0.361-0.584,0.517-0.892l-1.382-1.609   c0.12-0.337,0.215-0.686,0.281-1.044l1.998-0.704c0.011-0.171,0.016-0.341,0.016-0.515c0-0.172-0.005-0.344-0.016-0.516   l-1.998-0.704C-664.565,54.072-664.66,53.723-664.78,53.386z M-671.133,60.146c-2.483,0-4.496-2.012-4.496-4.496   c0-2.483,2.013-4.497,4.496-4.497c2.482,0,4.497,2.014,4.497,4.497C-666.636,58.133-668.65,60.146-671.133,60.146z"/>
	<path d="M-651.489,56.737c0.023-0.385,0.037-0.772,0.037-1.164c0-0.392-0.014-0.778-0.037-1.166l-4.519-1.59   c-0.149-0.812-0.362-1.6-0.632-2.361l3.122-3.639c-0.35-0.695-0.74-1.367-1.167-2.012l-4.709,0.888   c-0.53-0.62-1.107-1.198-1.729-1.727l0.889-4.711c-0.646-0.426-1.316-0.816-2.012-1.165l-3.639,3.121   c-0.762-0.27-1.549-0.482-2.361-0.632l-1.59-4.52c-0.385-0.023-0.774-0.036-1.165-0.036c-0.392,0-0.779,0.013-1.163,0.035   l-1.59,4.521c-0.812,0.148-1.601,0.361-2.361,0.632l-3.639-3.121c-0.694,0.348-1.367,0.738-2.011,1.163l0.887,4.712   c-0.62,0.529-1.198,1.107-1.727,1.726l-4.712-0.887c-0.426,0.645-0.815,1.316-1.166,2.011l3.122,3.639   c-0.271,0.76-0.482,1.55-0.63,2.361l-4.521,1.59c-0.023,0.385-0.035,0.774-0.035,1.165c0,0.39,0.012,0.779,0.035,1.164l4.52,1.592   c0.148,0.811,0.361,1.6,0.632,2.361l-3.122,3.637c0.351,0.695,0.738,1.367,1.166,2.013l4.712-0.888   c0.528,0.622,1.106,1.198,1.726,1.728l-0.888,4.711c0.646,0.426,1.316,0.816,2.013,1.164l3.637-3.122   c0.762,0.272,1.549,0.485,2.363,0.633l1.59,4.52c0.384,0.023,0.771,0.035,1.163,0.035c0.391,0,0.78-0.012,1.165-0.035l1.59-4.52   c0.811-0.147,1.6-0.361,2.361-0.633l3.639,3.122c0.695-0.348,1.366-0.738,2.01-1.164l-0.887-4.711   c0.62-0.529,1.198-1.107,1.729-1.728l4.709,0.889c0.428-0.646,0.817-1.317,1.167-2.013l-3.122-3.638   c0.27-0.761,0.482-1.55,0.632-2.361L-651.489,56.737z M-659.425,55.572c0,6.391-5.184,11.573-11.575,11.573   c-6.391,0-11.571-5.182-11.571-11.573S-677.391,43.999-671,44C-664.608,44-659.425,49.181-659.425,55.572z"/>
</g>
<g>
	<path d="M-1028.001,170.118v5.581c4.175,2.085,7.055,6.383,7.055,11.359c0,7.008-5.702,12.711-12.715,12.711   c-7.009,0-12.712-5.703-12.712-12.711c0-4.987,2.895-9.293,7.086-11.372v-5.578c-7.105,2.365-12.25,9.059-12.25,16.95   c0,9.857,8.019,17.877,17.876,17.877c9.86,0,17.88-8.02,17.88-17.877C-1015.781,179.178-1020.913,172.492-1028.001,170.118z"/>
	<path d="M-1033.845,184.262c1.624,0,2.94-1.316,2.94-2.94v-16.36c0-1.625-1.316-2.942-2.94-2.942s-2.941,1.317-2.941,2.942v16.36   C-1036.786,182.946-1035.469,184.262-1033.845,184.262z"/>
</g>
<g>
	<path d="M-82.863,73.111h0.072c0.609,0.993,5.133,1.766,10.63,1.766c5.495,0,10.02-0.773,10.628-1.766h0.051l3.352-23.391h-28.315   L-82.863,73.111z M-66.307,71.229l1.752-18.049c0.037-0.469,0.335-0.827,0.666-0.8l1.356,0.11c0.331,0.025,0.567,0.427,0.53,0.895   l-1.752,18.049c-0.038,0.468-0.336,0.827-0.669,0.799l-1.354-0.11C-66.109,72.099-66.346,71.696-66.307,71.229z M-73.357,52.84   c0-0.491,0.297-0.89,0.662-0.89h1.496c0.367,0,0.662,0.399,0.662,0.89v19.152c0,0.492-0.295,0.891-0.662,0.891h-1.496   c-0.365,0-0.662-0.399-0.662-0.891V52.84z M-81.851,52.354l1.392-0.118c0.341-0.028,0.646,0.329,0.687,0.796l1.829,18.043   c0.039,0.467-0.204,0.87-0.544,0.899l-1.392,0.117c-0.342,0.028-0.648-0.328-0.688-0.795l-1.828-18.043   C-82.436,52.786-82.191,52.382-81.851,52.354z"/>
	<path d="M-56.932,43.75h-0.641l-1.94-2.75h-6.61l-2.658-4.307l-0.154,0.094v-0.094h-6.482v0.125L-78,41h-7.064l-1.727,2.75h-0.088   c-1.139,0-2.059,0.921-2.059,2.058c0,1.137,0.92,2.059,2.059,2.059h29.947c1.137,0,2.058-0.921,2.058-2.059   C-54.874,44.672-55.795,43.75-56.932,43.75z M-73.869,38.621h3.617L-68.783,41h-6.557L-73.869,38.621z"/>
</g>
<path d="M-903,32.002h-19.411c-2.14,0-3.874,1.733-3.874,3.873v36.25c0,2.14,1.734,3.875,3.874,3.875H-903  c2.14,0,3.875-1.735,3.875-3.875v-36.25C-899.125,33.736-900.86,32.002-903,32.002z M-916.688,35.615h8.083  c0.623,0,1.126,0.504,1.126,1.126s-0.503,1.126-1.126,1.126h-8.083c-0.623,0-1.127-0.504-1.127-1.126  S-917.311,35.615-916.688,35.615z M-912.705,73.91c-1.337,0-2.421-1.083-2.421-2.421c0-1.338,1.084-2.421,2.421-2.421  c1.337,0,2.421,1.083,2.421,2.421C-910.284,72.826-911.368,73.91-912.705,73.91z M-901.062,67.343h-23.284V40.658h23.284V67.343z"/>
<path d="M-192.836,41.829c-9.412,0-17.043,7.629-17.043,17.042s7.631,17.042,17.043,17.042s17.04-7.629,17.04-17.042  S-183.424,41.829-192.836,41.829z M-195.742,47.513h4.82v5.944l-1.232,8.191h-2.246l-1.342-8.191V47.513z M-190.641,69.214h-5.211  v-5.226h5.211V69.214z"/>
<g>
	<path d="M67.566,74.479H31.973l-0.002-2.12c-0.021-3.703-0.039-16.282,5.14-17.476l0.276-0.064   c2.398-0.551,6.771-1.238,7.264-2.331c0.158-0.347,0.465-1.843,0.1-2.517c-3.412-6.28-5.03-9.26-2.773-13.051   c1.562-2.621,4.4-4.124,7.793-4.124c3.367,0,6.188,1.48,7.742,4.062c2.252,3.746,0.656,6.74-2.717,13.102   c-0.359,0.681-0.051,2.181,0.108,2.531c0.499,1.093,4.792,1.761,7.349,2.352l0.177,0.041c5.178,1.195,5.16,13.771,5.138,17.475   V74.479z"/>
</g>
<path fill="#000000" d="M-538.368,69.429V50.493l0,0V35.471l-23.983,6.808v7.071V57.3v12.465c-1.029-0.422-2.297-0.673-3.67-0.673  c-3.437,0-6.224,1.565-6.224,3.496c0,1.932,2.787,3.496,6.224,3.496c3.391,0,6.147-1.524,6.22-3.419h0.019V56.434l18.846-5.075  v15.629c-1.019-0.41-2.265-0.651-3.612-0.651c-3.438,0-6.224,1.564-6.224,3.496c0,1.93,2.787,3.495,6.224,3.495  c3.437,0,6.223-1.565,6.223-3.495C-538.325,69.696-538.34,69.562-538.368,69.429z"/>
<path d="M-914.126,169.293c-9.411,0-17.041,7.629-17.041,17.042c0,9.411,7.63,17.041,17.041,17.041  c9.413,0,17.042-7.63,17.042-17.041C-897.084,176.923-904.713,169.293-914.126,169.293z M-918.312,195.215v-17.759l12.315,8.712  L-918.312,195.215z"/>
<g>
	<path d="M-303.168,40.504c-1.439-0.465-2.939-0.699-4.459-0.699v5.524c0.943,0,1.873,0.146,2.762,0.433L-303.168,40.504z"/>
	<path d="M-300.533,49.908l4.554-3.127c-0.929-1.352-2.057-2.535-3.354-3.516l-3.33,4.408   C-301.842,48.295-301.125,49.047-300.533,49.908z"/>
	<path d="M-298.297,55.057h5.524c0-1.495-0.211-2.973-0.627-4.394l-5.302,1.55C-298.434,53.131-298.297,54.088-298.297,55.057z"/>
	<path d="M-308.633,42.657l-5.099-6.003v2.711c-8.19,0-14.854,6.844-14.854,15.254h5.524c0-5.365,4.185-9.729,9.33-9.729v3.034   L-308.633,42.657z"/>
	<path d="M-307.627,68.756v-3.035l-5.1,5.268l5.1,6.002v-2.711c8.191,0,14.854-6.843,14.854-15.253h-5.524   C-298.297,64.393-302.482,68.756-307.627,68.756z"/>
	<path d="M-318.19,73.141c1.438,0.465,2.938,0.701,4.458,0.701v-5.525c-0.942,0-1.871-0.145-2.762-0.433L-318.19,73.141z"/>
	<path d="M-320.824,63.738l-4.555,3.125c0.928,1.352,2.057,2.535,3.354,3.516l3.33-4.407   C-319.518,65.351-320.234,64.599-320.824,63.738z"/>
	<path d="M-323.062,58.588h-5.523c0,1.494,0.211,2.974,0.627,4.395l5.301-1.552C-322.926,60.514-323.062,59.559-323.062,58.588z"/>
</g>
<g>
	<path d="M29.161,207.789h22.483v-22.484H29.161V207.789z M32.492,188.637h15.822v15.822H32.492V188.637z"/>
	<polygon points="39.07,182.975 42.402,182.975 42.402,178.979 58.225,178.979 58.225,194.799 54.561,194.799 54.561,198.131    61.554,198.131 61.554,175.646 39.07,175.646  "/>
	<polygon points="48.697,166.327 48.697,173.654 52.029,173.654 52.029,169.656 67.852,169.656 67.852,185.48 64.188,185.48    64.188,188.811 71.182,188.811 71.182,166.327  "/>
</g>
<path d="M-664.649,188.904l9.859-9.859c1.533-1.533,1.533-4.018,0-5.552c-1.533-1.533-4.019-1.533-5.552,0l-9.859,9.859  l-9.858-9.859c-1.533-1.533-4.019-1.533-5.552,0c-1.533,1.534-1.533,4.02,0,5.552l9.859,9.858l-9.859,9.859  c-1.533,1.532-1.533,4.019,0,5.553c1.533,1.531,4.019,1.531,5.552,0l9.858-9.859l9.859,9.859c1.533,1.531,4.019,1.531,5.552,0  c1.533-1.534,1.533-4.02,0-5.553L-664.649,188.904z"/>
<path fill="#000000" d="M-779.944,186.955l-11.178,13.616c-0.183,0.222-4.555,4.953-9.564,0.84c-4.89-4.014-1.018-8.604-0.566-9.162  l18.413-22.427c0.337-0.406,3.39-3.888,6.528-1.312c3.138,2.576,0.275,5.82-0.057,6.23L-793,195c-0.584,0.736-1.62,1.38-2.598,0.294  c-0.614-0.681-0.506-1.373-0.206-1.824l9.774-11.905l-2.642-2.169l-9.396,11.445c-1.194,1.455-2.383,4.89,0.301,7.094  c2.626,2.156,5.784,0.731,6.979-0.724l16.636-20.264c1.747-2.127,4.301-7.554,0.008-11.078s-9.159-0.39-10.906,1.737l-18.419,22.435  c-2.158,2.628-5.112,9.311,0.613,14.01c5.724,4.699,12.216,1.315,14.374-1.313l11.178-13.616L-779.944,186.955z"/>
<path fill="#000000" d="M-446.165,73.41c1.71,3.297,5.769,4.583,9.063,2.873c2.695-1.397,4.089-4.482,3.561-7.318l5.47-2.838  c2.013,2.066,5.352,2.698,8.045,1.301c3.298-1.709,4.583-5.766,2.874-9.062c-1.333-2.572-4.115-4.17-6.83-3.826l-2.578-4.974  c1.844-2.021,2.059-5.372,0.726-7.943c-1.71-3.296-5.768-4.583-9.063-2.873c-3.297,1.71-4.583,5.769-2.874,9.063  c1.397,2.695,4.396,4.346,7.232,3.816l2.579,4.975c-1.51,1.471-2.436,3.466-2.174,5.543l-5.471,2.838  c-2.021-1.843-5.114-1.971-7.686-0.638C-446.588,66.056-447.875,70.113-446.165,73.41z"/>
</svg>