<svg xmlns="http://www.w3.org/2000/svg" xmlns:xlink="http://www.w3.org/1999/xlink" version="1.1" id="Your_Icon" x="0px" y="0px" viewBox="0 0 100 100" enable-background="new 0 0 100 100" xml:space="preserve" height="100px" width="100px">
<g>
	<g>
		<g>
			<g>
			</g>
		</g>
		<g>
		</g>
	</g>
</g>
<g>
	<path fill="#000000" d="M72.07,65H85c2.762,0,5-2.238,5-5s-2.238-5-5-5H60c-2.762,0-5,2.238-5,5v25c0,2.762,2.238,5,5,5   s5-2.238,5-5V72.07l18.965,18.965C84.94,92.012,86.221,92.5,87.5,92.5s2.56-0.488,3.535-1.465c1.953-1.952,1.953-5.118,0-7.07   L72.07,65z"/>
	<path fill="#000000" d="M40,55H15c-2.762,0-5,2.238-5,5s2.238,5,5,5h12.93L8.965,83.965c-1.953,1.952-1.953,5.118,0,7.07   C9.94,92.012,11.221,92.5,12.5,92.5s2.56-0.488,3.535-1.465L35,72.07V85c0,2.762,2.238,5,5,5s5-2.238,5-5V60   C45,57.238,42.762,55,40,55z"/>
	<path fill="#000000" d="M40,10c-2.762,0-5,2.238-5,5v12.93L16.035,8.965c-1.951-1.953-5.119-1.953-7.07,0   c-1.953,1.952-1.953,5.118,0,7.07L27.93,35H15c-2.762,0-5,2.238-5,5s2.238,5,5,5h25c2.762,0,5-2.238,5-5V15   C45,12.238,42.762,10,40,10z"/>
	<path fill="#000000" d="M60,45h25c2.762,0,5-2.238,5-5s-2.238-5-5-5H72.07l18.965-18.965c1.953-1.952,1.953-5.118,0-7.07   c-1.951-1.953-5.119-1.953-7.07,0L65,27.93V15c0-2.762-2.238-5-5-5s-5,2.238-5,5v25C55,42.762,57.238,45,60,45z"/>
</g>
</svg>