<svg width="100" height="100" xmlns="http://www.w3.org/2000/svg">
 <g>
  <title>Layer 1</title>
  <path d="m100,43.493c0,0 -13.761,-0.924 -19.84,-0.312c-0.468,0 -2.315,0.979 -2.783,0.979c-5.611,0.289 -8.907,-0.367 -14.05,0.534c-7.949,1.202 -15.899,-0.612 -24.316,0.29c-7.459,0.623 -15.431,0 -23.358,0.322c-3.763,-2.737 -10.376,-1.512 -15.653,-1.39l0,7.771l100,0l0,-8.194z" id="svg_1"/>
  <path fill-rule="evenodd" clip-rule="evenodd" d="m79.381,57.532c-0.111,-0.145 -0.312,-0.189 -0.46799,-0.1c-22.912,13.131 -49.41,2.538 -54.486,0.277c-0.022,-0.011 -0.045,-0.011 -0.067,-0.011c-0.022,-0.011 -0.022,-0.022 -0.044,-0.033c0,0 0,0.011 0,0.022c-0.156,-0.033 -0.356,0.011 -0.423,0.145c-0.089,0.156 -0.134,0.322 0.022,0.423c32.955,21.839 55.2,-0.033 55.422,-0.256c0.133,-0.133 0.155,-0.322 0.044,-0.467l-0.00002,0z" id="svg_2"/>
  <path fill-rule="evenodd" clip-rule="evenodd" d="m70.452,70.586c-0.111,-0.134 -0.289,-0.178 -0.445,-0.089c-15.877,8.617 -33.111,1.781 -36.40599,0.312c-0.022,0 -0.022,0 -0.045,0c0,-0.022 -0.022,-0.022 -0.022,-0.022l0,0c-0.156,-0.04401 -0.378,0 -0.445,0.156c-0.089,0.156 -0.111,0.334 0.044,0.445c22.089,14.719 37.14199,-0.178 37.297,-0.334c0.11099,-0.134 0.133,-0.334 0.022,-0.468l-0.00001,0z" id="svg_3"/>
 </g>
</svg>