<svg width="100" height="100" xmlns="http://www.w3.org/2000/svg">
 <g>
  <title>Layer 1</title>
  <g>
   <path d="m57.88,50c0,4.34 -3.53,7.88 -7.88,7.88c-4.34,0 -7.88,-3.54 -7.88,-7.88c0,-4.35 3.54,-7.88 7.88,-7.88c4.35,0 7.88,3.53 7.88,7.88z"/>
  </g>
  <path d="m83,47h-2.44c-1.41,-14.54 -13.02,-26.15 -27.56,-27.56v-2.44c0,-1.66 -1.34,-3 -3,-3s-3,1.34 -3,3v2.44c-14.54,1.41 -26.14,13.02 -27.55,27.56h-2.45c-1.66,0 -3,1.34 -3,3s1.34,3 3,3h2.45c1.41,14.54 13.01,26.15 27.55,27.56v2.44c0,1.66 1.34,3 3,3s3,-1.34 3,-3v-2.44c14.54,-1.41 26.15,-13.02 27.56,-27.56h2.44c1.66,0 3,-1.34 3,-3s-1.34,-3 -3,-3zm-10.59,6h2.10899c-1.35899,11.23 -10.28899,20.16 -21.519,21.52v-2.10999c0,-1.66 -1.34,-3 -3,-3s-3,1.34 -3,3v2.10899c-11.23,-1.35899 -20.15,-10.28899 -21.51,-21.519h2.1c1.66,0 3,-1.34 3,-3s-1.34,-3 -3,-3h-2.1c1.36,-11.23 10.28,-20.16 21.51,-21.52v2.11c0,1.66 1.34,3 3,3s3,-1.34 3,-3v-2.11c11.23,1.36 20.16,10.29 21.52,21.52h-2.10999c-1.66,0 -3,1.34 -3,3s1.34,3 3,3z"/>
 </g>
</svg>