<svg width="100" height="100" xmlns="http://www.w3.org/2000/svg">
  <g>
    <title>Layer 1</title>
    <g id="Captions"/>
    <g id="Your_Icon">
      <polygon fill="#000000" points="85.6709976196289,25.191999435424805 63,25.191999435424805 63,3.134000062942505 " id="svg_1"/>
      <g id="svg_2">
        <rect x="43" y="61" width="6" height="6" id="svg_3"/>
        <rect x="25" y="43" width="6" height="6" id="svg_4"/>
        <path d="m60,28l0,-28l-46,0l0,100l74,0l0,-72l-28,0zm-19,13l10,0l0,10l-10,0l0,-10zm-18,0l10,0l0,10l-10,0l0,-10zm10,46l-10,0l0,-10l10,0l0,10zm0,-18l-10,0l0,-10l10,0l0,10zm18,18l-10,0l0,-10l10,0l0,10zm0,-18l-10,0l0,-10l10,0l0,10zm31,15l-22,0l0,-4l22,0l0,4zm0,-18l-22,0l0,-4l22,0l0,4zm0,-18l-22,0l0,-4l22,0l0,4z" id="svg_5"/>
        <rect x="25" y="79" width="6" height="6" id="svg_6"/>
      </g>
    </g>
    <g id="Layer_3"/>
    <g id="Layer_4"/>
  </g>
</svg>