<svg width="64" height="64" xmlns="http://www.w3.org/2000/svg" xmlns:svg="http://www.w3.org/2000/svg">
 <g>
  <title>Layer 2</title>
  <g id="svg_5" >
   <path fill="#010101" d="m29.40866,47.01295c0.14986,-0.40554 0.30176,-0.83631 0.45075,-1.27132c-0.75163,-0.2202 -1.46032,-0.61922 -2.05479,-1.19566c-1.43666,-1.39403 -1.80181,-3.43364 -1.09575,-5.15613c-0.9529,-0.9046 -1.50852,-1.79561 -1.50852,-1.79561c-1.80678,-2.89916 -3.901,-5.68722 -6.46847,-2.80733c-3.80139,4.26371 -1.83365,12.39524 0.53458,14.69303s6.1778,2.56446 8.54633,0.26639c0.80772,-0.78303 1.33909,-1.73184 1.59586,-2.73337l0,0l0.00001,0z" id="svg_1" />
   <path fill="#010101" d="m37.43122,39.96117c-0.41832,0.07368 -0.85855,0.157 -1.30198,0.24514c0.31724,1.51958 -0.13058,3.16045 -1.34581,4.33938c-0.77997,0.75695 -1.75682,1.20728 -2.7699,1.35181c-0.32864,1.3263 -0.88572,2.30856 -0.88572,2.30856c-1.68496,2.96746 -3.12629,6.12138 0.72768,6.83838c5.70719,1.06132 11.98257,-4.65792 12.84871,-7.79626c0.86731,-3.13806 -0.79983,-6.4728 -4.03479,-7.31307c-1.10247,-0.28765 -2.21575,-0.25931 -3.23818,0.02607l0,0l0,0l-0.00001,-0.00001z" id="svg_2" />
   <path fill="#010101" d="m30.00109,26.9929c-3.23496,0.84112 -5.37797,3.90833 -4.51125,7.04611c0.29534,1.06954 0.87695,1.99058 1.64231,2.70758c0.25619,0.2936 0.52933,0.59797 0.8083,0.90404c1.93531,-1.74204 4.96053,-1.7018 6.84297,0.12469c0.17118,0.16607 0.3263,0.3415 0.4674,0.52485c1.30082,-0.35793 2.39394,-0.37919 2.39394,-0.37919c3.49086,-0.06887 7.02759,-0.43417 5.73991,-4.03105c-1.90522,-5.32532 -10.14862,-7.73845 -13.38359,-6.89704l0.00001,0.00001z" id="svg_3" />
   <circle fill="#010101" cx="31.29402" cy="41.16079" r="2.94932" id="svg_4" />
  </g>
 </g>
</svg>