<svg width="100" height="100" xmlns="http://www.w3.org/2000/svg" xmlns:svg="http://www.w3.org/2000/svg">
    <g>
        <title>Layer 1</title>
        <path d="m65.76329,75.68148c0,0.95353 -0.77298,1.72651 -1.7265,1.72651c-0.95353,0 -1.72651,-0.77298 -1.72651,-1.72651c0,-0.95352 0.77298,-1.7265 1.72651,-1.7265c0.95352,0 1.7265,0.77298 1.7265,1.7265z" id="svg_1"/>
        <path d="m50.92352,79.55872c0,0.95352 -0.77298,1.72651 -1.72651,1.72651c-0.95352,0 -1.72651,-0.77299 -1.72651,-1.72651c0,-0.95353 0.77299,-1.72651 1.72651,-1.72651c0.95353,0 1.72651,0.77299 1.72651,1.72651z" id="svg_2"/>
        <path d="m60.64782,62.03757c0,0.95352 -0.77298,1.72651 -1.72651,1.72651c-0.95352,0 -1.7265,-0.77299 -1.7265,-1.72651c0,-0.95352 0.77298,-1.72651 1.7265,-1.72651c0.95353,0 1.72651,0.77299 1.72651,1.72651z" id="svg_3"/>
        <path d="m44.15184,58.7753c0,0.95353 -0.77299,1.72651 -1.72651,1.72651c-0.95352,0 -1.72651,-0.77298 -1.72651,-1.72651c0,-0.95352 0.77298,-1.7265 1.72651,-1.7265c0.95352,0 1.72651,0.77298 1.72651,1.7265z" id="svg_4"/>
        <path d="m38.58313,29.97723c0,0.95352 -0.77298,1.72651 -1.7265,1.72651c-0.95353,0 -1.72651,-0.77299 -1.72651,-1.72651c0,-0.95353 0.77298,-1.72651 1.72651,-1.72651c0.95352,0 1.7265,0.77298 1.7265,1.72651z" id="svg_5"/>
        <path d="m59.18396,22.60514c0,0.95352 -0.77299,1.7265 -1.72651,1.7265c-0.95353,0 -1.72651,-0.77298 -1.72651,-1.7265c0,-0.95353 0.77298,-1.72651 1.72651,-1.72651c0.95352,0 1.72651,0.77298 1.72651,1.72651z" id="svg_6"/>
        <path d="m81.68043,18.71926c0,0.95352 -0.77299,1.7265 -1.72651,1.7265c-0.95353,0 -1.72651,-0.77298 -1.72651,-1.7265c0,-0.95353 0.77298,-1.72651 1.72651,-1.72651c0.95352,0 1.72651,0.77298 1.72651,1.72651z" id="svg_7"/>
        <path d="m46.53219,19.46805c0,0.95352 -0.77299,1.72651 -1.72651,1.72651c-0.95353,0 -1.72651,-0.77299 -1.72651,-1.72651c0,-0.95353 0.77298,-1.72651 1.72651,-1.72651c0.95352,0 1.72651,0.77299 1.72651,1.72651z" id="svg_8"/>
        <path d="m24.91388,76.4452c0,0.95353 -0.77298,1.72651 -1.72651,1.72651c-0.95352,0 -1.7265,-0.77298 -1.7265,-1.72651c0,-0.95352 0.77298,-1.7265 1.7265,-1.7265c0.95353,0 1.72651,0.77298 1.72651,1.7265z" id="svg_9"/>
        <path d="m74.92212,59.95796c0,0.95352 -0.77298,1.7265 -1.72651,1.7265c-0.95352,0 -1.7265,-0.77298 -1.7265,-1.7265c0,-0.95353 0.77298,-1.72651 1.7265,-1.72651c0.95353,0 1.72651,0.77298 1.72651,1.72651z" id="svg_10"/>
        <path d="m19.61012,67.90059c0,0.95352 -0.77298,1.7265 -1.72651,1.7265c-0.95352,0 -1.72651,-0.77298 -1.72651,-1.7265c0,-0.95353 0.77299,-1.72651 1.72651,-1.72651c0.95353,0 1.72651,0.77298 1.72651,1.72651z" id="svg_11"/>
        <path d="m50.16044,66.60152c0,0.95352 -0.77298,1.7265 -1.7265,1.7265c-0.95353,0 -1.72651,-0.77298 -1.72651,-1.7265c0,-0.95353 0.77298,-1.72651 1.72651,-1.72651c0.95352,0 1.7265,0.77298 1.7265,1.72651z" id="svg_12"/>
        <path d="m15.35987,47.01352c0,0.95352 -0.77298,1.72651 -1.72651,1.72651c-0.95352,0 -1.72651,-0.77299 -1.72651,-1.72651c0,-0.95353 0.77299,-1.72651 1.72651,-1.72651c0.95353,0 1.72651,0.77298 1.72651,1.72651z" id="svg_13"/>
        <path d="m22.1976,41.55332c0,0.95353 -0.77298,1.72651 -1.72651,1.72651c-0.95352,0 -1.7265,-0.77298 -1.7265,-1.72651c0,-0.95352 0.77298,-1.72651 1.7265,-1.72651c0.95353,0 1.72651,0.77299 1.72651,1.72651z" id="svg_14"/>
        <path d="m59.5287,49.88214c0,0.95353 -0.77298,1.72651 -1.72651,1.72651c-0.95352,0 -1.72651,-0.77298 -1.72651,-1.72651c0,-0.95352 0.77299,-1.72651 1.72651,-1.72651c0.95353,0 1.72651,0.77299 1.72651,1.72651z" id="svg_15"/>
        <path d="m87.29349,52.71037c0,0.95353 -0.77299,1.72651 -1.72651,1.72651c-0.95353,0 -1.72651,-0.77298 -1.72651,-1.72651c0,-0.95352 0.77298,-1.7265 1.72651,-1.7265c0.95352,0 1.72651,0.77298 1.72651,1.7265z" id="svg_16"/>
        <path d="m68.63499,46.51065c0,0.95352 -0.77298,1.72651 -1.72651,1.72651c-0.95352,0 -1.72651,-0.77299 -1.72651,-1.72651c0,-0.95353 0.77299,-1.72651 1.72651,-1.72651c0.95353,0 1.72651,0.77298 1.72651,1.72651z" id="svg_17"/>
        <path d="m28.58124,47.25877c0,0.95353 -0.77299,1.72651 -1.72651,1.72651c-0.95352,0 -1.72651,-0.77298 -1.72651,-1.72651c0,-0.95352 0.77299,-1.7265 1.72651,-1.7265c0.95352,0 1.72651,0.77298 1.72651,1.7265z" id="svg_18"/>
        <path d="m53.62683,43.59295c0,0.95352 -0.77298,1.72651 -1.72651,1.72651c-0.95352,0 -1.7265,-0.77299 -1.7265,-1.72651c0,-0.95353 0.77298,-1.72651 1.7265,-1.72651c0.95353,0 1.72651,0.77298 1.72651,1.72651z" id="svg_19"/>
        <path d="m87.94185,31.46518c0,0.95352 -0.77298,1.72651 -1.72651,1.72651c-0.95352,0 -1.72651,-0.77299 -1.72651,-1.72651c0,-0.95352 0.77299,-1.72651 1.72651,-1.72651c0.95353,0 1.72651,0.77299 1.72651,1.72651z" id="svg_20"/>
        <path d="m81.07911,36.35818c0,0.95353 -0.77298,1.72651 -1.72651,1.72651c-0.95352,0 -1.72651,-0.77298 -1.72651,-1.72651c0,-0.95352 0.77299,-1.7265 1.72651,-1.7265c0.95353,0 1.72651,0.77298 1.72651,1.7265z" id="svg_21"/>
        <path d="m71.11162,36.35385c0,0.95353 -0.77298,1.72651 -1.72651,1.72651c-0.95352,0 -1.7265,-0.77298 -1.7265,-1.72651c0,-0.95352 0.77298,-1.72651 1.7265,-1.72651c0.95353,0 1.72651,0.77299 1.72651,1.72651z" id="svg_22"/>
        <path d="m55.21052,31.71047c0,0.95352 -0.77299,1.72651 -1.72651,1.72651c-0.95353,0 -1.72651,-0.77299 -1.72651,-1.72651c0,-0.95353 0.77298,-1.72651 1.72651,-1.72651c0.95352,0 1.72651,0.77298 1.72651,1.72651z" id="svg_23"/>
        <path d="m28.59555,65.6243c0,1.1919 -0.96623,2.15813 -2.15813,2.15813c-1.19191,0 -2.15814,-0.96623 -2.15814,-2.15813c0,-1.19191 0.96623,-2.15814 2.15814,-2.15814c1.1919,0 2.15813,0.96623 2.15813,2.15814z" id="svg_24"/>
        <path d="m39.2101,68.13642c0,1.1919 -0.96623,2.15813 -2.15813,2.15813c-1.1919,0 -2.15814,-0.96623 -2.15814,-2.15813c0,-1.19191 0.96624,-2.15814 2.15814,-2.15814c1.1919,0 2.15813,0.96623 2.15813,2.15814z" id="svg_25"/>
        <path d="m53.42272,57.36492c0,1.19191 -0.96623,2.15814 -2.15814,2.15814c-1.1919,0 -2.15813,-0.96623 -2.15813,-2.15814c0,-1.1919 0.96623,-2.15813 2.15813,-2.15813c1.19191,0 2.15814,0.96623 2.15814,2.15813z" id="svg_26"/>
        <path d="m58.70214,71.9048c0,1.43028 -1.15947,2.58976 -2.58976,2.58976c-1.43029,0 -2.58976,-1.15948 -2.58976,-2.58976c0,-1.43029 1.15947,-2.58976 2.58976,-2.58976c1.43029,0 2.58976,1.15947 2.58976,2.58976z" id="svg_27"/>
        <path d="m34.02004,55.10212c0,1.43028 -1.15948,2.58976 -2.58976,2.58976c-1.43029,0 -2.58976,-1.15948 -2.58976,-2.58976c0,-1.43029 1.15947,-2.58977 2.58976,-2.58977c1.43028,0 2.58976,1.15948 2.58976,2.58977z" id="svg_28"/>
        <path d="m77.89244,50.9223c0,1.19191 -0.96623,2.15814 -2.15814,2.15814c-1.1919,0 -2.15813,-0.96623 -2.15813,-2.15814c0,-1.1919 0.96623,-2.15813 2.15813,-2.15813c1.19191,0 2.15814,0.96623 2.15814,2.15813z" id="svg_29"/>
        <path d="m38.47312,43.51636c0,1.1919 -0.96623,2.15813 -2.15814,2.15813c-1.1919,0 -2.15813,-0.96623 -2.15813,-2.15813c0,-1.19191 0.96623,-2.15814 2.15813,-2.15814c1.19191,0 2.15814,0.96623 2.15814,2.15814z" id="svg_30"/>
        <path d="m47.61447,48.90756c0,1.43029 -1.15947,2.58977 -2.58976,2.58977c-1.43028,0 -2.58976,-1.15948 -2.58976,-2.58977c0,-1.43028 1.15948,-2.58976 2.58976,-2.58976c1.43029,0 2.58976,1.15948 2.58976,2.58976z" id="svg_31"/>
        <path d="m67.042,55.40699c0,1.43029 -1.15948,2.58976 -2.58976,2.58976c-1.43029,0 -2.58977,-1.15947 -2.58977,-2.58976c0,-1.43028 1.15948,-2.58976 2.58977,-2.58976c1.43028,0 2.58976,1.15948 2.58976,2.58976z" id="svg_32"/>
        <path d="m47.03748,35.68109c0,1.43028 -1.15949,2.58976 -2.58977,2.58976c-1.43028,0 -2.58976,-1.15948 -2.58976,-2.58976c0,-1.43029 1.15948,-2.58977 2.58976,-2.58977c1.43028,0 2.58977,1.15948 2.58977,2.58977z" id="svg_33"/>
        <path d="m63.09266,39.34108c0,1.43028 -1.15947,2.58976 -2.58976,2.58976c-1.43028,0 -2.58976,-1.15948 -2.58976,-2.58976c0,-1.43029 1.15948,-2.58977 2.58976,-2.58977c1.43029,0 2.58976,1.15948 2.58976,2.58977z" id="svg_34"/>
        <path d="m65.23224,30.50807c0,1.1919 -0.96624,2.15813 -2.15814,2.15813c-1.19191,0 -2.15813,-0.96623 -2.15813,-2.15813c0,-1.19191 0.96622,-2.15814 2.15813,-2.15814c1.1919,0 2.15814,0.96623 2.15814,2.15814z" id="svg_35"/>
        <path d="m76.91666,28.29241c0,1.1919 -0.96623,2.15814 -2.15813,2.15814c-1.19191,0 -2.15814,-0.96623 -2.15814,-2.15814c0,-1.1919 0.96623,-2.15814 2.15814,-2.15814c1.1919,0 2.15813,0.96624 2.15813,2.15814z" id="svg_36"/>
        <path d="m20.48565,85.46385c0,0.71515 -0.57974,1.29489 -1.29488,1.29489c-0.71515,0 -1.29488,-0.57974 -1.29488,-1.29489c0,-0.71514 0.57973,-1.29488 1.29488,-1.29488c0.71514,0 1.29488,0.57974 1.29488,1.29488z" id="svg_37"/>
        <path d="m48.64046,26.7912c0,0.47677 -0.38649,0.86326 -0.86325,0.86326c-0.47677,0 -0.86326,-0.38649 -0.86326,-0.86326c0,-0.47676 0.38649,-0.86325 0.86326,-0.86325c0.47676,0 0.86325,0.38649 0.86325,0.86325z" id="svg_38"/>
        <path d="m22.44392,56.26777c0,0.71514 -0.57973,1.29488 -1.29488,1.29488c-0.71514,0 -1.29488,-0.57974 -1.29488,-1.29488c0,-0.71515 0.57974,-1.29489 1.29488,-1.29489c0.71515,0 1.29488,0.57974 1.29488,1.29489z" id="svg_39"/>
        <path d="m13.03547,60.79397c0,0.47676 -0.38649,0.86325 -0.86325,0.86325c-0.47676,0 -0.86325,-0.38649 -0.86325,-0.86325c0,-0.47677 0.38649,-0.86326 0.86325,-0.86326c0.47676,0 0.86325,0.38649 0.86325,0.86326z" id="svg_40"/>
        <path d="m73.6664,80.88391c0,0.71515 -0.57974,1.29489 -1.29488,1.29489c-0.71515,0 -1.29489,-0.57974 -1.29489,-1.29489c0,-0.71514 0.57974,-1.29488 1.29489,-1.29488c0.71514,0 1.29488,0.57974 1.29488,1.29488z" id="svg_41"/>
        <path d="m34.88383,23.10139c0,0.47676 -0.38649,0.86325 -0.86325,0.86325c-0.47676,0 -0.86326,-0.38649 -0.86326,-0.86325c0,-0.47676 0.3865,-0.86326 0.86326,-0.86326c0.47676,0 0.86325,0.3865 0.86325,0.86326z" id="svg_42"/>
        <path d="m38.41746,15.37074c0,0.71514 -0.57974,1.29488 -1.29488,1.29488c-0.71514,0 -1.29488,-0.57974 -1.29488,-1.29488c0,-0.71515 0.57974,-1.29488 1.29488,-1.29488c0.71514,0 1.29488,0.57973 1.29488,1.29488z" id="svg_43"/>
        <path d="m38.62236,52.11945c0,0.47676 -0.3865,0.86325 -0.86326,0.86325c-0.47676,0 -0.86325,-0.38649 -0.86325,-0.86325c0,-0.47676 0.38649,-0.86325 0.86325,-0.86325c0.47676,0 0.86326,0.38649 0.86326,0.86325z" id="svg_44"/>
        <path d="m87.78292,63.11347c0,0.71514 -0.57974,1.29488 -1.29488,1.29488c-0.71514,0 -1.29489,-0.57974 -1.29489,-1.29488c0,-0.71514 0.57975,-1.29488 1.29489,-1.29488c0.71514,0 1.29488,0.57974 1.29488,1.29488z" id="svg_45"/>
        <path d="m83.15295,25.21333c0,0.47677 -0.3865,0.86326 -0.86326,0.86326c-0.47677,0 -0.86325,-0.38649 -0.86325,-0.86326c0,-0.47676 0.38648,-0.86325 0.86325,-0.86325c0.47676,0 0.86326,0.38649 0.86326,0.86325z" id="svg_46"/>
        <path d="m63.18728,13.03206c0,0.71514 -0.57974,1.29488 -1.29488,1.29488c-0.71514,0 -1.29488,-0.57974 -1.29488,-1.29488c0,-0.71514 0.57974,-1.29488 1.29488,-1.29488c0.71514,0 1.29488,0.57974 1.29488,1.29488z" id="svg_47"/>
        <path d="m68.37688,24.85728c0,0.47677 -0.3865,0.86326 -0.86326,0.86326c-0.47676,0 -0.86325,-0.38649 -0.86325,-0.86326c0,-0.47676 0.38649,-0.86325 0.86325,-0.86325c0.47676,0 0.86326,0.38649 0.86326,0.86325z" id="svg_48"/>
        <path d="m13.46962,34.97783c0,0.71515 -0.57975,1.29489 -1.29488,1.29489c-0.71515,0 -1.29488,-0.57974 -1.29488,-1.29489c0,-0.71514 0.57973,-1.29488 1.29488,-1.29488c0.71513,0 1.29488,0.57974 1.29488,1.29488z" id="svg_49"/>
        <path d="m69.54747,67.02232c0,0.71515 -0.57974,1.29488 -1.29488,1.29488c-0.71514,0 -1.29488,-0.57973 -1.29488,-1.29488c0,-0.71514 0.57974,-1.29488 1.29488,-1.29488c0.71514,0 1.29488,0.57974 1.29488,1.29488z" id="svg_51"/>
        <path d="m83.81634,44.48873c0,0.47677 -0.3865,0.86326 -0.86326,0.86326c-0.47676,0 -0.86325,-0.38649 -0.86325,-0.86326c0,-0.47676 0.38649,-0.86325 0.86325,-0.86325c0.47676,0 0.86326,0.38649 0.86326,0.86325z" id="svg_52"/>
        <path d="m54.28099,87.70512c0,0.71514 -0.57973,1.29488 -1.29488,1.29488c-0.71513,0 -1.29488,-0.57974 -1.29488,-1.29488c0,-0.71514 0.57975,-1.29488 1.29488,-1.29488c0.71515,0 1.29489,0.57974 1.29489,1.29488l-0.00001,0z" id="svg_53"/>
        <path d="m20.30511,49.50534c0,0.47676 -0.3865,0.86325 -0.86325,0.86325c-0.47677,0 -0.86326,-0.38649 -0.86326,-0.86325c0,-0.47677 0.38649,-0.86326 0.86326,-0.86326c0.47675,0 0.86325,0.38649 0.86325,0.86326z" id="svg_54"/>
        <path d="m95,47.16414c0,0.71514 -0.57974,1.29488 -1.29488,1.29488c-0.71514,0 -1.29488,-0.57974 -1.29488,-1.29488c0,-0.71514 0.57974,-1.29488 1.29488,-1.29488c0.71514,0 1.29488,0.57974 1.29488,1.29488z" id="svg_55"/>
        <path d="m31.11592,73.76543c0,0.47676 -0.38649,0.86326 -0.86325,0.86326c-0.47676,0 -0.86326,-0.3865 -0.86326,-0.86326c0,-0.47676 0.3865,-0.86325 0.86326,-0.86325c0.47676,0 0.86325,0.38649 0.86325,0.86325z" id="svg_56"/>
        <path d="m38.92215,78.14048c0,0.71514 -0.57974,1.29488 -1.29488,1.29488c-0.71515,0 -1.29488,-0.57974 -1.29488,-1.29488c0,-0.71514 0.57973,-1.29488 1.29488,-1.29488c0.71514,0 1.29488,0.57974 1.29488,1.29488z" id="svg_57"/>
        <path d="m33.96432,62.90591c0,0.47676 -0.3865,0.86326 -0.86325,0.86326c-0.47676,0 -0.86326,-0.3865 -0.86326,-0.86326c0,-0.47676 0.3865,-0.86325 0.86326,-0.86325c0.47675,0 0.86325,0.38649 0.86325,0.86325z" id="svg_58"/>
        <path d="m31.13775,36.96801c0,0.71515 -0.57973,1.29488 -1.29488,1.29488c-0.71513,0 -1.29488,-0.57973 -1.29488,-1.29488c0,-0.71514 0.57975,-1.29488 1.29488,-1.29488c0.71515,0 1.29488,0.57974 1.29488,1.29488z" id="svg_59"/>
        <path d="m75.39942,42.64696c0,0.47677 -0.3865,0.86326 -0.86326,0.86326c-0.47677,0 -0.86325,-0.38649 -0.86325,-0.86326c0,-0.47676 0.38648,-0.86325 0.86325,-0.86325c0.47676,0 0.86326,0.38649 0.86326,0.86325z" id="svg_60"/>
        <path d="m7.58976,66.21281c0,0.71514 -0.57974,1.29488 -1.29488,1.29488c-0.71514,0 -1.29488,-0.57974 -1.29488,-1.29488c0,-0.71515 0.57974,-1.29488 1.29488,-1.29488c0.71514,0 1.29488,0.57973 1.29488,1.29488z" id="svg_61"/>
        <path d="m44.64582,72.87531c0,0.47676 -0.38649,0.86325 -0.86326,0.86325c-0.47676,0 -0.86325,-0.38649 -0.86325,-0.86325c0,-0.47676 0.38649,-0.86326 0.86325,-0.86326c0.47677,0 0.86326,0.3865 0.86326,0.86326z" id="svg_62"/>
        <path d="m92.68568,21.35053c0,0.71514 -0.57974,1.29488 -1.29488,1.29488c-0.71515,0 -1.29488,-0.57974 -1.29488,-1.29488c0,-0.71515 0.57973,-1.29489 1.29488,-1.29489c0.71514,0 1.29488,0.57974 1.29488,1.29489z" id="svg_63"/>
        <path d="m81.60978,58.88712c0,0.47676 -0.3865,0.86325 -0.86325,0.86325c-0.47676,0 -0.86326,-0.38649 -0.86326,-0.86325c0,-0.47676 0.3865,-0.86326 0.86326,-0.86326c0.47675,0 0.86325,0.3865 0.86325,0.86326z" id="svg_64"/>
    </g>
</svg>