<svg width="100" height="100" xmlns="http://www.w3.org/2000/svg" xmlns:svg="http://www.w3.org/2000/svg">
    <g>
        <title>Layer 1</title>
        <g id="svg_1">
            <path d="m69.65625,10a3.0003,3.0003 0 0 0 -1.78125,0.875l-52,52a3.0003,3.0003 0 0 0 -0.8125,1.4375l-5,22a3.0003,3.0003 0 0 0 3.59375,3.59375l22,-5a3.0003,3.0003 0 0 0 1.46875,-0.8125l52,-52a3.0003,3.0003 0 0 0 0,-4.21875l-17,-17a3.0003,3.0003 0 0 0 -2.46875,-0.875zm0.34375,7.21875l12.75,12.78125l-47.75,47.75l-12.75,-12.75l47.75,-47.78125zm-50.28125,53.71875l9.3125,9.3125l-12.03125,2.75l2.71875,-12.0625z" stroke-width="6" fill="#000000" id="svg_2"/>
        </g>
    </g>
</svg>