<?xml version="1.0" encoding="utf-8"?>
<!-- Generator: Adobe Illustrator 15.1.0, SVG Export Plug-In . SVG Version: 6.00 Build 0)  -->
<!DOCTYPE svg PUBLIC "-//W3C//DTD SVG 1.1//EN" "http://www.w3.org/Graphics/SVG/1.1/DTD/svg11.dtd">
<svg version="1.1" id="Layer_1" xmlns="http://www.w3.org/2000/svg" xmlns:xlink="http://www.w3.org/1999/xlink" x="0px" y="0px"
	 width="100px" height="47.262px" viewBox="0 0 100 47.262" enable-background="new 0 0 100 47.262" xml:space="preserve">
<path d="M89.389,13.002h-4.331l-1.188,3.482c-1.242-3.874-4.398-4.73-6.366-4.73c-2.762-0.063-5.787,1.381-7.235,2.43
	c-3.871,2.952-6.365,7.821-6.365,12.486c0,4.859,3.542,9.525,8.344,9.525c0.851,0,1.837-0.131,2.821-0.463
	c2.896-0.984,4.009-2.626,4.799-3.35c0.325,3.414,3.937,3.943,6.239,3.943c6.569,0,14.393-7.227,13.868-17.741
	C99.448,8.009,88.866,0.909,79.011,0.45c-2.003-0.092-3.953,0.044-5.835,0.379V0H0v47.262h73.176v-0.524
	c0.717,0.066,1.437,0.103,2.154,0.103c4.271,0,9.137-1.116,12.29-2.236l-1.515-3.545c-12.878,4.988-27.99-0.392-29.629-14.848
	C55.227,15.499,66.525,3.935,77.171,4.265c12.09,0.39,18.726,8.603,18.726,14.916c0,7.095-5.125,13.466-9.396,13.466
	c-1.571,0-2.428-0.985-2.493-2.437c0-0.717,0.588-2.427,0.852-3.345L89.389,13.002z M79.209,29.229
	c-1.053,1.647-3.023,3.553-5.193,3.553c-1.25,0-2.693-0.397-3.938-2.038c-1.118-1.451-1.381-3.024-1.381-4.402
	c0-2.106,0.983-5.851,3.155-8.151c1.445-1.512,2.826-2.824,5.515-2.824c3.422,0,4.471,2.167,4.599,4.006
	C82.232,22.134,80.655,26.999,79.209,29.229z M61.88,4.573L36.589,20.91L11.296,4.573H61.88z M61.41,42.688H4.574V5.704
	l32.015,20.651l17.862-11.538c-2.006,4.051-2.919,8.658-2.381,13.428C52.788,34.499,56.471,39.462,61.41,42.688z"/>
</svg>
