<svg width="100" height="100" xmlns="http://www.w3.org/2000/svg" xmlns:svg="http://www.w3.org/2000/svg">
    <g>
        <title>Layer 1</title>
        <path d="m79.1,71.4l3.5,2l0.1,-0.2c4.9,-6.8 7.5,-14.9 7.5,-23.4c0.10001,-10.9 -4,-21.1 -11.6,-28.7c-7.6,-7.7 -17.7,-11.9 -28.5,-11.9c-22.3,0 -40.5,18.1 -40.5,40.4s18.2,40.4 40.5,40.4c3.9,0 7.6,-0.5 11.1,-1.6l0.2,-0.1l-0.8,-4l-0.3,0.1c-3.4,1 -6.9,1.6 -10.4,1.6c-20,0 -36.3,-16.29999 -36.3,-36.29999c0,-20 16.3,-36.3 36.3,-36.3s36.3,16.3 36.3,36.3c0,7.7 -2.39999,15.1 -7,21.5l-0.1,0.2l0,-0.00001z" id="svg_1"/>
        <path d="m84.2,15.9c-9.1,-9.1 -21.3,-14.1 -34.1,-14.1c-4.5,0 -8.8,0.6 -12.9,1.8l-0.2,0.1l0.7,3.7l0.3,-0.1c4,-1.1 8.1,-1.7 12.1,-1.7c24.5,0 44.5,19.9 44.5,44.5s-20,44.4 -44.5,44.4c-24.6,-0.1 -44.5,-20.1 -44.5,-44.6c0,-9.3 2.8,-18.1 8.2,-25.7l0.2,-0.2l-3.3,-1.9l-0.1,0.2c-5.8,8.1 -8.8,17.7 -8.8,27.7c0,26.5 21.6,48.1 48.1,48.1c26.6,0 48.3,-21.6 48.3,-48.1c0,-12.8 -4.89999,-24.9 -14,-34.1z" id="svg_2"/>
        <path d="m71,44.6c-1.8,-1.3 -3.6,0 -4.3,0.9l-4.3,6.3c0,0 -0.7,1.2 -2.1,0.9c-1.1,-0.2 -1.2,-2.4 -1.2,-3.1l1.7,-18.3c0,-0.2 0.2,-1.3 -0.4,-2.2c-0.4,-0.6 -1.1,-1 -2.1,-1.1c-0.8,-0.1 -1.5,0.1 -2,0.6c-1.1,1 -1.1,2.7 -1.1,3l-1.7,13c0,0 -0.2,1.6 -1.1,1.6c-0.2,0 -0.4,-0.5 -0.5,-2.1c-0.3,-2.8 -1.5,-17.1 -1.6,-17.1c0,-0.1 -0.2,-1.3 -1.2,-2c-0.7,-0.5 -1.5,-0.6 -2.5,-0.4c-2.6,0.5 -2.8,3.2 -2.5,4.5l1.3,16.2c0,0 0.1,1.1 -0.2,1.5c-0.1,0.1 -0.2,0.2 -0.4,0.2c-0.6,0.1 -0.9,-1.3 -1.2,-2l-4.1,-13.8c0,0 -0.4,-1.2 -1.5,-1.8c-0.6,-0.3 -1.3,-0.3 -2.1,-0.1c-2.6,0.9 -1.3,5.1 -1.3,5.2l3.1,13c0.1,0.4 0.4,1.5 0.1,2.1c-0.1,0.2 -0.2,0.3 -0.4,0.3c-0.7,-0.1 -2.6,-3.8 -4.1,-8c0,0 -0.4,-1.1 -1.4,-1.5c-0.7,-0.3 -1.5,-0.2 -2.4,0.1c-0.8,0.3 -1.3,0.9 -1.5,1.6c-0.4,1.2 0.2,2.4 0.3,2.7l6.6,20.6c0,0.1 2.4,8.3 11.3,10c0.8,0.1 3.1,0.2 3.8,0.2c7.7,0 11.7,-7.7 11.7,-7.8l10.1,-18.7c0.5,-1 0.89999,-3.2 -0.8,-4.5z" id="svg_3"/>
    </g>
</svg>