<svg xmlns="http://www.w3.org/2000/svg" xmlns:xlink="http://www.w3.org/1999/xlink" version="1.1" id="Your_Icon" x="0px" y="0px" viewBox="0 0 100 100" enable-background="new 0 0 100 100" xml:space="preserve" height="100px" width="100px">
<g>
	<g>
		<g>
			<g>
			</g>
		</g>
		<g>
		</g>
	</g>
</g>
<g>
	<path fill="#000000" d="M24.571,17.5H37.5c2.761,0,5-2.239,5-5s-2.239-5-5-5h-25c-2.761,0-5,2.239-5,5v25c0,2.761,2.239,5,5,5   s5-2.239,5-5V24.571l18.964,18.964C37.441,44.512,38.72,45,40,45s2.559-0.488,3.536-1.464c1.953-1.953,1.953-5.119,0-7.071   L24.571,17.5z"/>
	<path fill="#000000" d="M36.464,56.465L17.5,75.429V62.5c0-2.762-2.239-5-5-5s-5,2.238-5,5v25c0,2.762,2.239,5,5,5h25   c2.761,0,5-2.238,5-5s-2.239-5-5-5H24.571l18.965-18.965c1.953-1.952,1.953-5.118,0-7.07   C41.583,54.512,38.417,54.512,36.464,56.465z"/>
	<path fill="#000000" d="M87.5,7.5h-25c-2.762,0-5,2.239-5,5s2.238,5,5,5h12.929L56.465,36.464c-1.953,1.953-1.953,5.119,0,7.071   C57.44,44.512,58.721,45,60,45s2.56-0.488,3.535-1.464L82.5,24.571V37.5c0,2.761,2.238,5,5,5s5-2.239,5-5v-25   C92.5,9.739,90.262,7.5,87.5,7.5z"/>
	<path fill="#000000" d="M87.5,57.5c-2.762,0-5,2.238-5,5v12.93L63.535,56.465c-1.951-1.953-5.119-1.953-7.07,0   c-1.953,1.952-1.953,5.118,0,7.07L75.43,82.5H62.5c-2.762,0-5,2.238-5,5s2.238,5,5,5h25c2.762,0,5-2.238,5-5v-25   C92.5,59.738,90.262,57.5,87.5,57.5z"/>
</g>
</svg>