<svg width="100" height="100" xmlns="http://www.w3.org/2000/svg">
 <g>
  <title>Layer 1</title>
  <g id="svg_1">
   <rect id="svg_2" height="4.907" width="79.149" clip-rule="evenodd" fill-rule="evenodd" y="28.916" x="10.425"/>
   <rect id="svg_3" height="4.907" width="79.149" clip-rule="evenodd" fill-rule="evenodd" y="37.095" x="10.425"/>
   <rect id="svg_4" height="4.907" width="79.149" clip-rule="evenodd" fill-rule="evenodd" y="45.273" x="10.425"/>
   <rect id="svg_5" height="4.907" width="79.149" clip-rule="evenodd" fill-rule="evenodd" y="53.453" x="10.425"/>
   <rect id="svg_6" height="4.906" width="79.149" clip-rule="evenodd" fill-rule="evenodd" y="61.632" x="10.425"/>
   <rect id="svg_7" height="4.907" width="79.149" clip-rule="evenodd" fill-rule="evenodd" y="69.811" x="10.425"/>
   <rect id="svg_8" height="62.073" width="1.381" fill="#000000" clip-rule="evenodd" fill-rule="evenodd" y="27.684" x="83.555"/>
   <path id="svg_9" d="m87.087,82.156c0,1.551 -1.271,2.81001 -2.841,2.81001c-1.57,0 -2.842,-1.259 -2.842,-2.81001c0,-1.549 1.271,-2.808 2.842,-2.808c1.569,0.001 2.841,1.259 2.841,2.808z" clip-rule="evenodd" fill-rule="evenodd"/>
  </g>
  <g transform="rotate(-76.38976287841797 17.346954345703125,13.126205444335938) " id="svg_15">
   <path fill="none" stroke="#000000" stroke-width="2" stroke-miterlimit="10" d="m11.46788,24.05934c0,-3.04605 -2.3322,-5.54815 -5.29603,-5.54815" id="svg_10"/>
   <path fill="none" stroke="#000000" stroke-width="2" stroke-miterlimit="10" d="m17.44413,23.95055c0,-6.0377 -5.05309,-10.87874 -11.27228,-10.87874" id="svg_11"/>
   <path fill="none" stroke="#000000" stroke-width="2" stroke-miterlimit="10" d="m22.9831,23.95055c0,-9.02935 -7.53106,-16.31811 -16.81125,-16.31811" id="svg_12"/>
   <path fill="none" stroke="#000000" stroke-width="2" stroke-miterlimit="10" d="m28.52206,23.95055c0,-12.02101 -10.00901,-21.75748 -22.35022,-21.75748" id="svg_13"/>
   <path d="m6.22044,23.95055c0.24293,0 0.43728,0 0.43728,0c0.04859,0 0.48588,0 0.92316,0c0,-0.10879 0.04858,-0.16318 0.04858,-0.27197c0,-0.76151 -0.53446,-1.35984 -1.21468,-1.35984c-0.09718,0 -0.14577,0 -0.19435,0.05439c0,0.48954 0,1.03348 0,1.57742z" id="svg_14"/>
  </g>
 </g>
</svg>