<svg width="100" height="100" xmlns="http://www.w3.org/2000/svg" xmlns:svg="http://www.w3.org/2000/svg">
 <g>
  <title>Layer 1</title>
  <g id="svg_5">
   <path fill="#010101" d="m47.30893,68.79906c0.47877,-1.29562 0.96407,-2.67181 1.44003,-4.06158c-2.40129,-0.70349 -4.66539,-1.97828 -6.56458,-3.81985c-4.58979,-4.45361 -5.75637,-10.9697 -3.50068,-16.47266c-3.04431,-2.89 -4.81937,-5.73655 -4.81937,-5.73655c-5.77224,-9.26214 -12.46281,-18.16936 -20.66527,-8.96879c-12.14457,13.62159 -5.8581,39.59995 1.70787,46.94085s19.73667,8.19287 27.30358,0.85105c2.58047,-2.50159 4.27808,-5.53284 5.09842,-8.73248l0,0.00001z" id="svg_1"/>
   <path fill="#010101" d="m72.93916,46.27024c-1.33643,0.2354 -2.74286,0.50158 -4.15954,0.78316c1.01352,4.8547 -0.41718,10.09691 -4.29955,13.86333c-2.49181,2.41829 -5.61265,3.85697 -8.84921,4.31871c-1.04992,4.23721 -2.82966,7.37531 -2.82966,7.37531c-5.38307,9.48034 -9.98779,19.55642 2.32476,21.84705c18.23318,3.39069 38.28156,-14.88098 41.04868,-24.90726c2.77086,-10.02538 -2.55527,-20.67911 -12.89024,-23.36359c-3.52214,-0.91897 -7.07882,-0.82843 -10.34525,0.08329l0,-0.00001z" id="svg_2"/>
   <path fill="#010101" d="m49.20159,4.8396c-10.33496,2.6872 -17.18139,12.48623 -14.4124,22.51071c0.94353,3.41694 2.80166,6.35946 5.24681,8.65009c0.81847,0.93798 1.69108,1.91037 2.58234,2.8882c6.18288,-5.56543 15.84776,-5.43687 21.86171,0.39837c0.54689,0.53056 1.04246,1.091 1.49323,1.67678c4.15582,-1.14351 7.64809,-1.21141 7.64809,-1.21141c11.15251,-0.22001 22.45153,-1.38706 18.33771,-12.87827c-6.08675,-17.01318 -32.42252,-24.72258 -42.75749,-22.03447z" id="svg_3"/>
   <circle fill="#010101" cx="53.33222" cy="50.10276" r="9.42239" id="svg_4"/>
  </g>
 </g>
</svg>