<svg width="100" height="100" xmlns="http://www.w3.org/2000/svg" xmlns:svg="http://www.w3.org/2000/svg">
 <g>
  <title>Layer 1</title>
  <g id="Captions"/>
  <g id="Your_Icon">
   <path d="m74.1855,60.36151c0,0 -9.17999,16.617 -9.17999,22.31499c0,5.69701 3.006,11.396 9.021,11.396c7.282,0 9.971,-6.01501 9.971,-11.396s-9.812,-22.31499 -9.812,-22.31499z" id="svg_1"/>
   <path fill="#000000" d="m74.8185,65.42651c0,0 14.87801,20.10001 2.058,25.95499c0,0 -1.89898,-4.43099 0.31601,-6.964c2.215,-2.53201 -0.951,-17.884 -2.37401,-18.991z" id="svg_2"/>
   <path d="m10.3035,32.90651l12.039,0c0,0 2.635,3.876 2.395,3.518c-0.239,-0.359 8.624,-0.338 8.624,-0.338l2.395,-4.121l15.688,-0.385c0,0 2.516,4.84 6.707,4.84c4.19,0 22.036,-3.514 21.67701,21.486l-11.139,0c0,0 1.798,-9.579 -9.34101,-8.739c0,0 -13.054,12.739 -29.222,1.739l-4.192,0l-3.474,2l-12.157,0l0,-20z" id="svg_3"/>
   <rect x="31.3035" y="24.90651" width="25" height="8" id="svg_4"/>
   <path d="m52.7625,25.9285c0,0 -2.636,-5.27 -8.743,-5.149c-6.108,0.12 -8.024,4.909 -8.024,4.909l16.767,0.24z" id="svg_5"/>
   <polyline points="42.30350112915039,22.906505584716797 42.30350112915039,15.906505584716797 39.30350112915039,15.906505584716797 39.30350112915039,8.906505584716797 47.30350112915039,8.906505584716797 47.30350112915039,15.906505584716797 45.30350112915039,15.906505584716797 45.30350112915039,22.906505584716797 " id="svg_6"/>
   <polygon points="22.30350112915039,5.9275054931640625 22.30350112915039,16.706504821777344 39.30350112915039,12.754505157470703 39.30350112915039,9.880505561828613 " id="svg_7"/>
   <polygon points="64.30349731445312,5.9275054931640625 64.30349731445312,16.706504821777344 47.30350112915039,12.754505157470703 47.30350112915039,9.880505561828613 " id="svg_8"/>
   <path fill="#000000" d="m51.5895,33.69651c0,0 2.841,4.972 12.786,4.084c9.944,-0.888 12.60699,11.542 12.60699,11.542s-3.90499,-7.458 -10.832,-7.458c-6.925,0.001 -13.84999,-2.663 -14.561,-8.168z" id="svg_9"/>
   <polygon fill="#000000" points="33.83150100708008,25.906505584716797 54.30350112915039,25.906505584716797 54.30350112915039,30.677505493164062 " id="svg_10"/>
  </g>
 </g>
</svg>