<svg xmlns="http://www.w3.org/2000/svg" xmlns:xlink="http://www.w3.org/1999/xlink" version="1.1" id="&#1064;&#1072;&#1088;_1" x="0px" y="0px" width="100px" height="100px" viewBox="0 0 100 100" style="enable-background:new 0 0 100 100;" xml:space="preserve">
<g>
	<path d="M96.072,25.354L78.259,4.572c-1.127-1.315-2.773-2.073-4.507-2.073H32.188c-4.911,0-8.907,3.995-8.907,8.906H11.407   c-4.911,0-8.907,3.994-8.907,8.906v68.283c0,4.911,3.996,8.906,8.907,8.906h59.375c3.28,0,5.938-2.662,5.938-5.938v-2.969h14.845   c3.279,0,5.937-2.661,5.937-5.938v-2.971V29.218C97.5,27.8,96.993,26.43,96.072,25.354z M70.781,82.657v2.969v2.969   c0,1.641,0,2.969,0,2.969H11.407c-1.64,0-2.969-1.328-2.969-2.969V20.312c0-1.641,1.329-2.97,2.969-2.97h11.874h2.97h2.97h23.748   c0,3.31,0,8.559,0,11.389c0,4.331,2.613,9.394,8.907,9.394c3.471,0,6.686,0,8.906,0V82.657z M91.563,79.687   c0,1.641,0,2.971,0,2.971H76.719V38.124c0-1.419-0.506-2.789-1.428-3.864L57.477,13.478c-1.125-1.314-2.775-2.072-4.508-2.072   H29.221c0-1.643,1.327-2.969,2.967-2.969h41.564c0,3.307,0,8.558,0,11.387c0,4.331,2.611,9.395,8.905,9.395   c3.471,0,6.686,0,8.907,0V79.687z"/>
	<path d="M49.231,67.897H26.762l7.356-7.356c1.172-1.171,1.172-3.07,0-4.242c-1.171-1.171-3.071-1.172-4.243,0L17.401,68.773   c-0.139,0.139-0.265,0.292-0.375,0.456c-0.029,0.043-0.047,0.092-0.074,0.136c-0.073,0.123-0.146,0.245-0.202,0.378   c-0.027,0.066-0.041,0.137-0.063,0.204c-0.04,0.117-0.084,0.233-0.108,0.356c-0.04,0.194-0.06,0.393-0.06,0.594   s0.021,0.399,0.06,0.594c0.024,0.121,0.068,0.235,0.106,0.351c0.023,0.069,0.037,0.143,0.065,0.21   c0.052,0.125,0.122,0.24,0.19,0.355c0.031,0.053,0.053,0.109,0.086,0.159c0.109,0.162,0.232,0.313,0.37,0.451   c0,0.001,0,0.001,0,0.001s0,0,0,0.001l12.478,12.478c0.586,0.586,1.354,0.879,2.122,0.879c0.768,0,1.536-0.293,2.121-0.879   c1.172-1.171,1.172-3.07,0-4.242l-7.357-7.357h22.469c1.657,0,3-1.343,3-3S50.888,67.897,49.231,67.897z"/>
	<path d="M55.975,48.343c-0.03-0.105-0.055-0.213-0.098-0.315c-0.04-0.097-0.096-0.184-0.145-0.275   c-0.043-0.08-0.079-0.163-0.131-0.24c-0.109-0.164-0.234-0.317-0.373-0.457c0,0,0,0,0,0l0-0.001L42.75,34.576   c-1.171-1.171-3.071-1.172-4.243,0c-1.172,1.171-1.172,3.07,0,4.242l7.357,7.357H23.395c-1.657,0-3,1.343-3,3s1.343,3,3,3h22.469   l-7.357,7.357c-1.171,1.172-1.171,3.071,0,4.242c0.585,0.586,1.354,0.879,2.121,0.879s1.536-0.293,2.122-0.879l12.478-12.478   l0-0.001c0,0,0,0,0,0c0.139-0.14,0.263-0.293,0.373-0.457c0.051-0.076,0.087-0.159,0.13-0.239c0.05-0.092,0.105-0.18,0.146-0.276   c0.042-0.103,0.067-0.21,0.098-0.315c0.024-0.082,0.056-0.16,0.072-0.245c0.078-0.388,0.078-0.788,0-1.176   C56.03,48.503,55.999,48.425,55.975,48.343z"/>
</g>
</svg>