<svg width="100" height="100" xmlns="http://www.w3.org/2000/svg">
  <!-- Created with SVG-edit - http://svg-edit.googlecode.com/ -->
  <g>
    <title>Layer 1</title>
    <rect stroke="#000000" id="svg_12" height="94" width="92.5" y="3.25" x="3.5" fill="none"/>
    <rect id="svg_13" height="22" width="89.25" y="4.75" x="5" stroke-width="0" fill="#000000" stroke="#000000"/>
    <rect height="22" width="89.25" y="27.75" x="5" stroke-width="0" fill="#000000" stroke="#000000" id="svg_4"/>
    <rect height="22" width="89.25" y="50.75" x="5"  stroke-width="0" fill="#000000" stroke="#000000" id="svg_5"/>
    <path fill="black" id="svg_1" d="m39.38346,63.33872c-3.0144,0.012 -4.35275,1.19101 -5.08276,2.71901l-4.3838,9.09399l-0.19367,0.438l-0.58228,0.063c-0.56861,0.061 -1.64873,0.43 -2.48303,1.125c-0.8343,0.69701 -1.47616,1.68401 -1.47492,3.03101l0,10.781l3.29747,0l0.96962,0l0,0.813l0,3.688c-0.00248,0.955 0.38115,1.555 0.93114,1.969c0.54875,0.41599 1.32222,0.629 2.09568,0.625c0.77098,-0.00201 1.50099,-0.205 2.05595,-0.625c0.55247,-0.41801 0.96962,-1.02901 0.96962,-1.969l0,-3.688l0,-0.813l0.96963,0l14.39414,0l14.39414,0l0.96963,0l0,0.813l0,3.688c0.00249,0.939 0.41219,1.55099 0.96963,1.969c0.5562,0.42 1.31973,0.62299 2.09567,0.625c0.77347,0.004 1.50349,-0.20901 2.05596,-0.625c0.55247,-0.414 0.96714,-1.014 0.96962,-1.969l0,-3.688l0,-0.813l0.96962,0l3.29747,0l0,-10.782c-0.00745,-1.348 -0.67414,-2.332 -1.5134,-3.03101c-0.83926,-0.697 -1.90573,-1.064 -2.48303,-1.125l-0.58228,-0.063l-0.19367,-0.438l-4.3838,-9.09399c-0.71635,-1.523 -2.05347,-2.707 -5.08276,-2.71901l-6.16909,0l-10.55289,0l-6.24359,0l0,0.001zm-0.07697,1.75l0.03849,0l11.48403,0l0.03849,0l11.56224,0c0.91873,0.012 1.73316,0.273 2.28936,0.719c0.5413,0.438 0.85541,0.98 1.08633,1.53099c0.00248,0.01001 -0.00497,0.02301 0,0.03101c0.00124,0.006 0.036,-0.004 0.03848,0l3.25898,7.156l0.50406,1.03101l-1.39671,0l-17.34275,0l-0.03849,0l-17.26453,0l-1.39671,0l0.46557,-1.03101l3.29747,-7.188l0.03849,0c0.21975,-0.545 0.51027,-1.09801 1.04784,-1.531c0.55744,-0.44601 1.3607,-0.706 2.28935,-0.718zm-6.71288,13.188c2.03857,-0.014 3.68855,1.361 3.68606,3.063c0.00249,1.691 -1.64873,3.068 -3.68606,3.063c-2.04602,0.012 -3.696,-1.37099 -3.68607,-3.063c-0.00869,-1.702 1.64005,-3.077 3.68607,-3.063zm36.54777,0c2.02367,-0.014 3.7109,1.361 3.72455,3.063c-0.01365,1.691 -1.70087,3.068 -3.72455,3.063c-2.06091,0.012 -3.71461,-1.37099 -3.72456,-3.063c0.00994,-1.702 1.66364,-3.077 3.72456,-3.063z"/>
  </g>
</svg>