<svg width="100" height="100" xmlns="http://www.w3.org/2000/svg">
  <g>
    <title>Layer 1</title>
    <path fill="black" d="m49.938,13.883l-49.938,20l6,0l0,48l38.438,0l0,-1.5l-2.188,0l-1.25,0l0,-1.25l0,-1.25l-29,0l0,-5.62501l29,0l0,-2.375l-29,0l0,-5.625l30.781,0c0.716,-0.66 1.462,-1.033 2.188,-1.188l0.469,-1.188l-33.438,0l0,-5.625l35.625,0l0.813,-2.094c0.036,-0.094 0.085,-0.188 0.125,-0.281l-36.563,0l0,-5.625l76,0l0,5.625l-10.687,0c0.03899,0.092 0.09,0.189 0.125,0.281l0.813,2.094l9.749,0l0,5.625l-7.563,0l0.469,1.188c0.72701,0.154 1.447,0.531 2.156,1.188l4.938,0l0,5.625l-3.125,0l0,2.375l3.125,0l0,5.62501l-3.125,0l0,1.25l0,1.25l-1.219,0l-2.219,0l0,1.5l12.563,0l0,-48l6,0l-50.062,-20zm-37.938,26.375l76.031,0l0,5.625l-76.031,0l0,-5.625zm41.625,14.625c-0.475,0.008 -0.771,0.146 -0.969,0.344c-0.217,0.217 -0.408,0.557 -0.563,1.031l21.688,0c-0.152,-0.447 -0.326,-0.795 -0.563,-1.031c-0.18401,-0.184 -0.525,-0.328 -0.969,-0.344l-0.031,0l-9.281,0l-0.031,0l-9.25,0l-0.031,0zm-3.625,7l-0.375,1l13.281,0l0.031,0l13.313,0l-0.375,-1l-25.875,0zm1.781,18.5l0,1.5l22.281,0l0,-1.5l-11.124,0l-11.157,0z" id="svg_1"/>
    <path d="m53.621,51.939c-2.428,0.012 -3.506,1.191 -4.094,2.719l-3.531,9.094l-0.156,0.438l-0.469,0.063c-0.458,0.061 -1.328,0.43 -2,1.125c-0.672,0.69701 -1.189,1.68401 -1.188,3.031l0,10.78101l2.656,0l0.781,0l0,0.813l0,3.688c-0.002,0.955 0.307,1.555 0.75,1.969c0.442,0.41599 1.065,0.629 1.688,0.625c0.621,-0.00201 1.209,-0.205 1.656,-0.625c0.445,-0.41801 0.781,-1.02901 0.781,-1.969l0,-3.688l0,-0.813l0.781,0l11.594,0l11.594,0l0.78101,0l0,0.813l0,3.688c0.002,0.939 0.332,1.55099 0.781,1.969c0.448,0.42 1.063,0.62299 1.688,0.625c0.623,0.004 1.21101,-0.20901 1.65601,-0.625c0.445,-0.414 0.779,-1.014 0.781,-1.969l0,-3.688l0,-0.813l0.78101,0l2.656,0l0,-10.78201c-0.006,-1.34799 -0.543,-2.33199 -1.21899,-3.031c-0.676,-0.697 -1.535,-1.064 -2,-1.125l-0.469,-0.063l-0.156,-0.438l-3.53101,-9.094c-0.577,-1.523 -1.654,-2.707 -4.09399,-2.719l-4.969,0l-8.5,0l-5.029,0l0,0.001l-0.00003,0zm-0.062,1.75l0.031,0l9.25,0l0.031,0l9.313,0c0.74001,0.012 1.396,0.273 1.844,0.719c0.436,0.438 0.689,0.98 0.875,1.531c0.002,0.01 -0.004,0.023 0,0.031c0.001,0.006 0.029,-0.004 0.031,0l2.625,7.156l0.406,1.031l-1.125,0l-13.969,0l-0.031,0l-13.906,0l-1.125,0l0.375,-1.031l2.656,-7.188l0.031,0c0.177,-0.545 0.411,-1.098 0.844,-1.531c0.449,-0.446 1.096,-0.706 1.844,-0.718zm-5.407,13.188c1.642,-0.014 2.971,1.361 2.969,3.063c0.002,1.69099 -1.328,3.06799 -2.969,3.063c-1.648,0.012 -2.977,-1.37099 -2.969,-3.063c-0.007,-1.702 1.321,-3.077 2.969,-3.063zm29.438,0c1.63,-0.014 2.98901,1.361 3,3.063c-0.01099,1.69099 -1.37,3.06799 -3,3.063c-1.66,0.012 -2.992,-1.37099 -3,-3.063c0.008,-1.702 1.34,-3.077 3,-3.063z" id="svg_2"/>
  </g>
</svg>