<svg xmlns="http://www.w3.org/2000/svg" xmlns:xlink="http://www.w3.org/1999/xlink" version="1.1" x="0px" y="0px" width="100px" height="100px" viewBox="0 0 100 100" enable-background="new 0 0 100 100" xml:space="preserve">
<g id="Your_Icon">
	<g>
		<path d="M96.38,24.607c-0.681,0.215-1.405,0.334-2.157,0.334c-0.751,0-1.475-0.119-2.155-0.334l-0.236,1.561h-0.868v65.215h6.521    V26.168h-0.868L96.38,24.607z"/>
		<path d="M81.792,26.02l-0.633-0.115c-2.739-0.531-5.723-1.509-8.092-3.3c-5.755-4.353-9.679-12.48-22.802-12.585v-0.008    c-0.076,0-0.152-0.001-0.226-0.001h-0.021c-0.076,0-0.151,0.001-0.228,0.001v0.008c-13.123,0.105-17.047,8.232-22.801,12.585    c-2.368,1.792-5.351,2.77-8.092,3.3l-0.632,0.115c-2.39,0.41-4.538,0.493-5.842,0.493c-0.643,0-1.073-0.019-1.236-0.027v64.898    h77.652V26.486c-0.183,0.009-0.602,0.026-1.206,0.026C86.33,26.512,84.181,26.429,81.792,26.02z M18.265,88.957h-4.731v-5.721    h4.731V88.957z M18.265,80.809h-4.731V44.064h4.731V80.809z M18.265,41.637h-4.731V28.921c1.259-0.039,2.915-0.159,4.731-0.451    V41.637z M25.876,88.957h-6.397v-5.721h6.397V88.957z M25.876,80.809h-6.397V44.064h6.397V80.809z M25.876,41.637h-6.397V28.255    c2.095-0.415,4.331-1.081,6.397-2.127V41.637z M42.286,13.729c1.612-0.603,3.428-1.033,5.553-1.207v29.115h-5.553V13.729z     M33.487,88.957h-6.398v-5.721h6.398V88.957z M33.487,80.809h-6.398V44.064h6.398V80.809z M33.487,41.637h-6.398V25.453    c0.467-0.285,0.926-0.583,1.364-0.914c1.548-1.17,2.898-2.517,4.327-3.941c0.234-0.234,0.471-0.468,0.707-0.703V41.637z     M41.072,88.957h-6.372v-5.721h6.372V88.957z M41.072,80.809h-6.372V44.064h6.372V80.809z M41.072,41.637h-6.372V18.732    c1.826-1.721,3.817-3.345,6.372-4.509V41.637z M47.839,88.957h-5.553v-5.721h5.553V88.957z M57.772,88.957h-5.556v-5.721h5.556    V88.957z M57.772,80.809h-5.556V66.055h-4.378v14.754h-5.553V44.064h5.553v4.159h4.378v-4.159h5.556V80.809z M57.772,41.637    h-5.556V12.522c2.126,0.173,3.941,0.606,5.556,1.207V41.637z M65.355,88.957h-6.37v-5.721h6.37V88.957z M65.355,80.809h-6.37    V44.064h6.37V80.809z M65.355,41.637h-6.37V14.223c2.556,1.165,4.546,2.788,6.37,4.511V41.637z M72.967,88.957h-6.397v-5.721    h6.397V88.957z M72.967,80.809h-6.397V44.064h6.397V80.809z M72.967,41.637h-6.397V19.896c0.236,0.234,0.473,0.468,0.707,0.703    c1.43,1.424,2.779,2.771,4.327,3.941c0.437,0.331,0.896,0.629,1.363,0.914V41.637z M80.579,88.957H74.18v-5.721h6.399V88.957z     M80.579,80.809H74.18V44.064h6.399V80.809z M80.579,41.637H74.18V26.128c2.067,1.046,4.305,1.712,6.399,2.127V41.637z     M86.521,88.957h-4.729v-5.721h4.729V88.957z M86.521,80.809h-4.729V44.064h4.729V80.809z M86.521,41.637h-4.729V28.471    c1.816,0.292,3.472,0.412,4.729,0.451V41.637z"/>
		<path d="M44.712,64.641h10.157V49.623H44.712V64.641z M49.791,53.434c0.967,0,1.75,0.783,1.75,1.75    c0,0.621-0.325,1.164-0.812,1.475v4.172h-1.875v-4.172c-0.487-0.311-0.812-0.854-0.812-1.475    C48.041,54.217,48.824,53.434,49.791,53.434z"/>
		<circle cx="94.223" cy="19.241" r="4.772"/>
		<path d="M7.482,24.607c-0.682,0.215-1.405,0.334-2.157,0.334c-0.751,0-1.476-0.119-2.156-0.334l-0.236,1.561H2.065v65.215h6.521    V26.168H7.718L7.482,24.607z"/>
		<circle cx="5.326" cy="19.241" r="4.772"/>
	</g>
</g>
</svg>