<svg xmlns="http://www.w3.org/2000/svg" xmlns:xlink="http://www.w3.org/1999/xlink" version="1.1" x="0px" y="0px" width="100px" height="100px" viewBox="0 0 100 100" enable-background="new 0 0 100 100" xml:space="preserve">
<g id="Your_Icon">
	<path fill="#000000" d="M49.999,80.495c4.419,0,8.001-3.583,8.001-8.001c0-1.338-0.33-2.598-0.909-3.705L71.01,39.633l-1.968-5.681   l-5.88,1.935L49.498,64.51c-4.186,0.259-7.5,3.733-7.5,7.984C41.998,76.912,45.581,80.495,49.999,80.495z"/>
	<path fill="#000000" d="M49.999,0C22.385,0,0,22.386,0,50s22.385,50,49.999,50S100,77.614,100,50S77.613,0,49.999,0z    M49.999,93.478c-23.213,0-42.177-18.192-43.412-41.098h11.745c1.312,0,2.381-1.067,2.381-2.38s-1.068-2.381-2.381-2.381H6.587   c0.551-10.214,4.627-19.488,11.033-26.633l8.304,8.305c0.449,0.449,1.048,0.696,1.684,0.696l0,0c0.636,0,1.233-0.247,1.683-0.696   c0.45-0.449,0.697-1.048,0.697-1.684s-0.247-1.233-0.697-1.683l-8.304-8.305c7.145-6.405,16.419-10.482,26.633-11.033v11.745   c0,1.312,1.067,2.381,2.38,2.381c1.313,0,2.381-1.068,2.381-2.381V6.587c10.213,0.551,19.488,4.628,26.633,11.033l-8.304,8.305   c-0.929,0.928-0.929,2.438,0,3.366c0.449,0.449,1.047,0.696,1.684,0.696c0.635,0,1.232-0.247,1.683-0.696l8.304-8.305   c6.406,7.146,10.482,16.42,11.033,26.634l-11.744-0.001c-1.313,0.001-2.381,1.068-2.381,2.381c0,0.636,0.247,1.232,0.697,1.683   c0.449,0.45,1.047,0.697,1.683,0.697l11.745,0.001C92.176,75.285,73.213,93.478,49.999,93.478z"/>
	<path fill="#000000" d="M49.999,83.515c-5.251,0-9.652-3.693-10.753-8.617c-4.816,1.227-9.313,3.252-13.337,5.934   c6.642,5.198,15.003,8.299,24.09,8.299s17.449-3.101,24.091-8.299c-4.023-2.682-8.521-4.707-13.338-5.934   C59.652,79.821,55.25,83.515,49.999,83.515z"/>
</g>
</svg>