<svg xmlns="http://www.w3.org/2000/svg" xmlns:xlink="http://www.w3.org/1999/xlink" version="1.1" x="0px" y="0px" width="100px" height="100px" viewBox="0 0 100 100" enable-background="new 0 0 100 100" xml:space="preserve">
<g id="Your_Icon">
	<path d="M21.414,1.78c-1.421,0.159-1.383,1.251-1.331,3.279c0.054,2.021-0.342,3.841-2.051,4.843   c-0.325,0.167-0.648,0.333-0.964,0.516c-0.019,0.009-0.03,0.008-0.051,0.017c-1.769,0.922-3.522,0.286-5.208-0.847   c-1.685-1.131-2.59-1.749-3.484-0.631c-0.886,1.108-0.284,0.356-1.723,2.151c-0.014,0.019-0.023,0.03-0.04,0.051   c-1.44,1.799-0.835,1.048-1.721,2.152c-0.895,1.119-0.092,1.867,1.379,3.263c1.458,1.38,2.455,2.937,1.983,4.834   c-0.118,0.35-0.219,0.706-0.314,1.065c-0.008,0.029-0.025,0.037-0.036,0.07c-0.598,1.902-2.292,2.689-4.281,3.082   c-1.992,0.391-3.067,0.593-2.909,2.017c0.156,1.408,0.048,0.451,0.303,2.739c0.003,0.023,0.004,0.037,0.009,0.066   c0.254,2.287,0.146,1.329,0.302,2.737c0.158,1.423,1.253,1.383,3.281,1.332c2.016-0.055,3.833,0.341,4.838,2.046   c0.165,0.324,0.335,0.652,0.52,0.966c0.007,0.024,0.004,0.036,0.017,0.057c0.918,1.765,0.28,3.523-0.848,5.203   c-1.129,1.688-1.746,2.591-0.635,3.487c1.115,0.884,0.36,0.283,2.153,1.724c0.014,0.009,0.02,0.017,0.034,0.027   c0.006,0.004,0.01,0.008,0.015,0.014c1.798,1.436,1.047,0.831,2.159,1.718c1.116,0.892,1.867,0.095,3.26-1.378   c1.381-1.464,2.948-2.467,4.852-1.977c0.341,0.11,0.687,0.211,1.036,0.302c0.036,0.014,0.046,0.033,0.083,0.044   c1.897,0.597,2.689,2.292,3.077,4.28c0.398,1.99,0.6,3.063,2.021,2.911c1.411-0.161,0.452-0.052,2.741-0.302   c0.016,0,0.022-0.002,0.038-0.004c0.009,0,0.014,0,0.025-0.002c2.288-0.258,1.327-0.156,2.74-0.31   c1.419-0.16,1.388-1.254,1.33-3.28c-0.057-2.028,0.342-3.854,2.064-4.852l0,0c0.319-0.163,0.633-0.325,0.939-0.504   c0.023-0.011,0.038-0.006,0.062-0.021c1.769-0.917,3.524-0.279,5.207,0.85c1.688,1.128,2.59,1.744,3.484,0.633   c0.884-1.111,0.284-0.358,1.723-2.154c0.013-0.013,0.016-0.02,0.029-0.032c0.005-0.007,0.005-0.012,0.013-0.017   c1.437-1.799,0.832-1.05,1.722-2.156c0.889-1.116,0.092-1.864-1.379-3.262c-1.468-1.387-2.476-2.954-1.976-4.867   c0.107-0.334,0.205-0.672,0.295-1.013c0.014-0.037,0.034-0.047,0.046-0.092c0.599-1.896,2.293-2.686,4.28-3.077   c1.989-0.396,3.067-0.598,2.912-2.017c-0.159-1.411-0.054-0.454-0.302-2.742c-0.004-0.015-0.002-0.024-0.004-0.04   c0-0.01-0.002-0.015-0.004-0.024c-0.256-2.29-0.152-1.328-0.309-2.741c-0.157-1.421-1.25-1.384-3.28-1.329   c-2.029,0.056-3.854-0.343-4.852-2.067c-0.002-0.001-0.002-0.001-0.002-0.003c-0.165-0.315-0.323-0.628-0.5-0.933   c-0.01-0.023-0.008-0.039-0.022-0.064c-0.916-1.768-0.282-3.523,0.85-5.208c1.126-1.686,1.746-2.589,0.632-3.485   c-1.11-0.885-0.358-0.283-2.151-1.721c-0.019-0.014-0.026-0.022-0.044-0.033c0-0.005-0.004-0.003-0.007-0.008   c-1.796-1.438-1.048-0.834-2.157-1.719c-1.116-0.894-1.862-0.095-3.262,1.377c-1.383,1.468-2.95,2.469-4.859,1.973   c-0.338-0.106-0.681-0.205-1.022-0.296c-0.036-0.014-0.047-0.033-0.086-0.044c-1.901-0.6-2.691-2.292-3.081-4.283   c-0.391-1.991-0.596-3.064-2.016-2.909c-1.425,0.158-0.42,0.047-2.802,0.312C21.867,1.729,22.825,1.625,21.414,1.78z    M36.881,26.459c0.602,5.431-3.314,10.323-8.743,10.926c-5.431,0.603-10.325-3.312-10.927-8.741   c-0.602-5.436,3.312-10.326,8.742-10.928C31.386,17.111,36.276,21.024,36.881,26.459z"/>
	<path d="M54.857,38.588c-1.588,0.606-1.217,1.854-0.556,4.168c0.67,2.306,0.756,4.517-0.909,6.178   c-0.327,0.291-0.645,0.577-0.953,0.88c-0.022,0.02-0.033,0.02-0.055,0.035c-1.763,1.588-3.967,1.375-6.24,0.582   c-2.273-0.799-3.499-1.239-4.192,0.311c-0.692,1.54-0.227,0.494-1.338,2.988c-0.013,0.025-0.02,0.041-0.033,0.072   c-1.118,2.492-0.653,1.448-1.337,2.983c-0.694,1.553,0.449,2.175,2.559,3.341c2.09,1.154,3.7,2.644,3.717,4.967   c-0.028,0.437-0.04,0.877-0.041,1.317c-0.004,0.035-0.021,0.052-0.021,0.089c-0.119,2.367-1.831,3.776-4.002,4.822   c-2.17,1.043-3.352,1.601-2.744,3.186c0.6,1.572,0.191,0.502,1.168,3.059c0.007,0.027,0.014,0.045,0.026,0.071   c0.97,2.559,0.564,1.486,1.165,3.055c0.607,1.593,1.856,1.224,4.171,0.556c2.304-0.665,4.507-0.752,6.172,0.904   c0.288,0.329,0.575,0.652,0.885,0.96c0.02,0.023,0.018,0.04,0.04,0.062c1.577,1.756,1.372,3.967,0.575,6.233   c-0.796,2.276-1.233,3.5,0.31,4.196c1.543,0.685,0.497,0.218,2.991,1.341c0.018,0.008,0.027,0.014,0.045,0.023   c0.008,0.002,0.014,0.004,0.025,0.008c2.492,1.117,1.448,0.644,2.989,1.337c1.549,0.688,2.169-0.452,3.337-2.562   c1.152-2.093,2.653-3.713,4.989-3.721c0.424,0.027,0.852,0.043,1.276,0.039c0.046,0.006,0.062,0.027,0.111,0.027   c2.358,0.124,3.774,1.835,4.816,4.002c1.045,2.169,1.601,3.348,3.188,2.746c1.572-0.604,0.506-0.196,3.061-1.17   c0.016-0.004,0.025-0.008,0.041-0.014c0.012-0.004,0.02-0.006,0.028-0.012c2.553-0.974,1.485-0.573,3.061-1.168   c1.585-0.604,1.22-1.854,0.55-4.17c-0.671-2.312-0.758-4.53,0.928-6.192l0,0c0.315-0.283,0.629-0.562,0.927-0.858   c0.023-0.025,0.041-0.02,0.069-0.045c1.757-1.58,3.965-1.37,6.239-0.575c2.272,0.794,3.498,1.234,4.19-0.314   c0.686-1.538,0.22-0.49,1.345-2.985c0.006-0.018,0.01-0.031,0.016-0.044c0.006-0.011,0.008-0.021,0.012-0.026   c1.115-2.497,0.644-1.451,1.335-2.991c0.69-1.549-0.448-2.171-2.559-3.338c-2.101-1.158-3.725-2.658-3.723-5.006   c0.025-0.418,0.039-0.832,0.039-1.252c0.006-0.046,0.025-0.067,0.027-0.117c0.124-2.362,1.833-3.771,4.005-4.813   c2.164-1.05,3.345-1.605,2.745-3.191c-0.603-1.572-0.198-0.504-1.168-3.062c-0.006-0.016-0.01-0.025-0.018-0.043   c-0.002-0.009-0.006-0.019-0.012-0.026c-0.977-2.555-0.569-1.481-1.167-3.062c-0.606-1.582-1.854-1.215-4.173-0.548   c-2.311,0.673-4.534,0.755-6.187-0.928c-0.004-0.002-0.007-0.002-0.007-0.002c-0.282-0.315-0.559-0.626-0.854-0.922   c-0.021-0.024-0.021-0.044-0.043-0.07c-1.584-1.755-1.374-3.964-0.577-6.238c0.795-2.274,1.232-3.497-0.312-4.192   c-1.538-0.691-0.498-0.223-2.987-1.342c-0.022-0.006-0.038-0.014-0.062-0.024c0-0.005-0.004-0.004-0.008-0.004   c-2.497-1.122-1.454-0.646-2.991-1.337c-1.551-0.694-2.173,0.45-3.338,2.557c-1.152,2.098-2.656,3.722-5.002,3.722   c-0.417-0.026-0.84-0.038-1.266-0.037c-0.044-0.006-0.058-0.026-0.104-0.027c-2.368-0.123-3.78-1.83-4.823-4.003   c-1.044-2.173-1.602-3.343-3.186-2.744c-1.592,0.609-0.469,0.181-3.131,1.196C55.364,38.397,56.432,37.992,54.857,38.588z    M79.996,62.347c2.316,6.065-0.728,12.857-6.793,15.17c-6.061,2.312-12.854-0.729-15.166-6.791   c-2.315-6.066,0.727-12.859,6.789-15.172C70.892,53.242,77.685,56.281,79.996,62.347z"/>
</g>
</svg>