<svg xmlns="http://www.w3.org/2000/svg" xmlns:xlink="http://www.w3.org/1999/xlink" version="1.1" id="Your_Icon" x="0px" y="0px" width="100px" height="100px" viewBox="0 0 100 100" enable-background="new 0 0 100 100" xml:space="preserve">
<g>
	<path fill="#000000" d="M18.504,84h0.003c0,0,0-0.015,0.001-0.027C18.506,83.995,18.504,84,18.504,84z"/>
	<path fill="#000000" d="M18.508,83.973c0-0.008,0.001-0.01,0.002-0.025C18.51,83.933,18.509,83.952,18.508,83.973z"/>
	<path fill="#000000" d="M62.631,74.766c-6.501,0-7.931-3.643-7.991-6.689c1.356-0.82,2.742-1.844,4.053-3.068   c1.692,2.22,3.819,3.006,3.819,3.006c-1.196-1.596-1.515-3.693-1.515-5.494c1.48-1.841,2.733-3.982,3.557-6.404   c0.254,0.155,0.543,0.174,0.87-0.018c1.766-1.033,2.449-9.41,1.426-11.701c-0.507-1.134-1.04-0.986-1.449-0.547   c-0.066-0.86-0.154-1.699-0.263-2.519l0.39,0.715c0,0,0.123-5.061-0.74-8.887c-0.894-3.957-3.531-6.439-6.401-8   c0.351-1.995-0.052-3.773-0.052-3.773c3.49-5.26-3.647-8.552-3.647-8.552c0,3.267-2.338,4.414-2.338,4.414   c-5.767,1.259-7.619,3.679-7.995,5.851c-1.873,0.387-4.09,1.04-6.228,2.16c-5.184,2.716-9.381,16.046-9.381,16.046   s-0.823,1.893-1.646,2.222c0,0,1.858-0.438,3.792-2.113c-0.124,0.884-0.22,1.794-0.292,2.726c-0.432-0.617-1.085-1.106-1.681,0.268   c-0.999,2.302-0.228,10.671,1.55,11.685c0.346,0.197,0.646,0.16,0.908-0.02c0.895,2.797,2.342,5.223,4.062,7.243   c-0.09,1.601-0.469,3.333-1.492,4.698c0,0,1.875-0.694,3.505-2.614c1.325,1.208,2.729,2.21,4.115,2.992   c-0.027,3.023-1.512,6.497-8.196,6.497C25.52,74.889,18.7,78,18.513,84h0.004c0.05,1,0.298,1,1.073,1h56.733   c1.098,0,1.163,0,1.163-1h0.01C77.496,78,70.591,74.766,62.631,74.766z"/>
</g>
</svg>