<svg xmlns="http://www.w3.org/2000/svg" xmlns:xlink="http://www.w3.org/1999/xlink" version="1.1" id="Layer_1" x="0px" y="0px" width="100px" height="100px" viewBox="0 0 100 100" enable-background="new 0 0 100 100" xml:space="preserve">
<path fill="none" d="M51.15,57.239c0.021,0,0.043,0,0.064,0c-0.11,0-0.222-0.001-0.333-0.003  C50.973,57.239,51.063,57.239,51.15,57.239z"/>
<path fill="none" d="M75.233,85.507c0.054,0.712,1.653,1.047,2.368,1.052c0.694,0.005,2.102-0.144,2.102-0.927  c0-0.824,0-2.152,0-3.091c-3.357-0.458-4.263-0.582-4.47-0.61C75.233,81.931,75.151,84.415,75.233,85.507z"/>
<path fill="#000000" d="M75.233,81.931C75.234,81.931,75.109,81.914,75.233,81.931L75.233,81.931z"/>
<path fill="#000000" d="M7.894,39.835c-0.048-0.103-0.069-0.159-0.069-0.159S7.827,39.754,7.894,39.835z"/>
<path fill="#000000" d="M86.018,80.974c-1.22-1.307-8.452-6.186-16.903-9.584c-5.041-2.027-10.244-2.875-13.626-3.229  c-0.04-0.29-0.078-0.818,0.035-1.496c0.175-1.047-1.83-1.222-1.83-1.222l0.611-10.279l-1.221-0.697V2.277h-2.677v52.189l-1.22,0.697  l0.61,10.279c0,0-2.003,0.175-1.83,1.222c0.113,0.678,0.075,1.206,0.034,1.496c-3.381,0.354-8.586,1.203-13.625,3.229  c-8.452,3.398-15.564,8.396-16.902,9.584c-0.983,0.871-0.692,1.453-0.406,1.716c-0.66-0.289,2.296,1.959,7.899,2.553  c5.618,0.596,9.562,0.776,9.741,0.783c-0.049,0.023-0.232,0.241-0.854,1.831c-0.784,2.005-0.436,2.525-0.436,2.525  s1.917,1.482,4.966,1.831c3.05,0.35,5.403,0.87,5.403,0.87s0.087,1.133,0.522,2.614c0.436,1.481,1.307,1.568,1.307,1.568  s3.284,0.697,6.129,0.784c2.845-0.087,6.13-0.784,6.13-0.784s0.87-0.087,1.307-1.568c0.435-1.481,0.522-2.614,0.522-2.614  s2.353-0.521,5.403-0.87c3.048-0.349,4.965-1.831,4.965-1.831s0.349-0.521-0.436-2.525c-0.622-1.59-0.805-1.808-0.854-1.831  c0.179-0.007,4.123-0.188,9.741-0.783c5.751-0.609,5.803-0.913,7.388-1.852C86.75,82.896,87.236,82.28,86.018,80.974z   M49.316,55.207l1.222-0.654c0,0,0.759,0.213,1.207,0.213c0.449,0,1.254-0.213,1.254-0.213l1.176,0.654c0,0-0.827,0.218-2.43,0.218  C50.342,55.425,49.316,55.207,49.316,55.207z M49.601,65.657c0,0,1.418-0.127,2.145-0.127c0.729,0,2.104,0.175,2.104,0.175  s1.789,0.839,1.394,0.785c-0.394-0.057-1.917-0.272-3.498-0.317c-1.58-0.042-3.12,0.185-3.398,0.206  C47.966,66.41,49.601,65.657,49.601,65.657z M24.269,84.438c-1.569-0.322-7.057-0.655-6.404-2.745  c0.653-2.093,11.833-8.2,18.1-10.193c3.406-1.085,6.273-2.542,12.325-2.741c3.798-0.125,20.022,16.724,20.022,16.724  s-20.315,0.646-24.636,0.523C36.983,85.818,26.016,84.794,24.269,84.438z M57.932,96.886c-0.997,0.847-13.459-3.628-13.459-3.628  s5.287,0.523,7.323,0.523s7.293-0.523,7.293-0.523S58.92,96.047,57.932,96.886z M61.059,87.346  c-4.466,0.447-9.142,0.444-9.313,0.447c-0.172-0.003-3.081,0-7.676-0.447c-5.348-0.521-9.223-1.242-8.876-1.324  c0,0,15.056,0.742,16.552,0.742c2.109,0,16.61-0.583,16.61-0.583C68.742,86.288,66.552,86.797,61.059,87.346z"/>
</svg>