<svg width="90" height="90" xmlns="http://www.w3.org/2000/svg" xmlns:svg="http://www.w3.org/2000/svg">
    <g>
        <title>Layer 1</title>
        <path fill="#000000" d="m41.282,6.263c-0.973,-0.973 -2.559,-0.973 -3.532,0l-8.128,8.131l-11.354,-1.789c-1.385,-0.226 -2.643,0.712 -2.857,2.075l-1.796,11.354l-10.237,5.224c-1.231,0.624 -1.717,2.13 -1.091,3.357l5.219,10.243l-5.213,10.246c-0.625,1.228 -0.137,2.731 1.094,3.355l10.243,5.218l1.803,11.354c0.217,1.359 1.485,2.285 2.859,2.074l11.354,-1.803l8.127,8.125c0.481,0.479 1.122,0.732 1.769,0.732c0.326,0 0.647,-0.063 0.956,-0.191c0.934,-0.386 1.54,-1.297 1.54,-2.308l0,-72.443c0,-0.223 -0.028,-0.441 -0.08,-0.645c0.177,-0.806 -0.052,-1.681 -0.676,-2.309zm-9.007,64.609c-0.471,-0.474 -1.107,-0.731 -1.765,-0.731c-0.128,0 -0.26,0.01 -0.395,0.03l-10.141,1.608l-1.611,-10.144c-0.127,-0.788 -0.622,-1.472 -1.334,-1.831l-9.15,-4.664l4.656,-9.156c0.361,-0.709 0.361,-1.552 -0.005,-2.266l-4.659,-9.146l9.147,-4.668c0.713,-0.361 1.205,-1.044 1.33,-1.835l1.607,-10.14l10.146,1.597c0.801,0.129 1.591,-0.137 2.152,-0.698l4.792,-4.792l0,10.799c-10.56,0.69 -18.908,9.445 -18.908,20.172c0,10.729 8.349,19.487 18.908,20.175l0,10.452l-4.77,-4.762z" id="svg_1"/>
        <path fill="#000000" d="m85.49,42.509l-8.764,0l5.352,-5.35c0.975,-0.976 0.975,-2.556 0,-3.532c-0.973,-0.976 -2.557,-0.976 -3.531,0l-8.885,8.883l-15.105,0l10.996,-10.992l10.646,0c1.381,0 2.496,-1.12 2.496,-2.5c0,-1.382 -1.115,-2.499 -2.496,-2.499l-5.654,0l5.729,-5.729c0.979,-0.974 0.979,-2.556 0,-3.532c-0.973,-0.976 -2.553,-0.976 -3.53,0l-5.695,5.695l0,-5.584c0,-1.379 -1.116,-2.499 -2.496,-2.499c-1.383,0 -2.497,1.119 -2.497,2.499l0,10.581l-11.031,11.027l0,-15.93l8.883,-8.887c0.977,-0.976 0.977,-2.555 0,-3.528c-0.973,-0.976 -2.559,-0.976 -3.531,0l-5.352,5.352l0,-7.937c0,-1.38 -1.117,-2.499 -2.496,-2.499s-2.496,1.119 -2.496,2.499l0,73.924c0,1.381 1.117,2.496 2.496,2.496s2.496,-1.115 2.496,-2.496l0,-9.588l5.352,5.35c0.486,0.49 1.127,0.729 1.766,0.729c0.64,0 1.279,-0.239 1.767,-0.729c0.978,-0.977 0.978,-2.557 0,-3.531l-8.884,-8.885l0,-14.279l11.15,11.149l0,10.584c0,1.381 1.115,2.496 2.496,2.496c1.385,0 2.5,-1.115 2.5,-2.496l0,-5.588l5.816,5.817c0.486,0.486 1.127,0.73 1.764,0.73c0.643,0 1.279,-0.244 1.768,-0.73c0.978,-0.977 0.978,-2.557 0,-3.532l-5.844,-5.847l5.645,0c1.38,0 2.496,-1.119 2.496,-2.499c0,-1.379 -1.116,-2.498 -2.496,-2.498l-10.643,0l-11.121,-11.118l15.105,0l8.885,8.885c0.486,0.486 1.127,0.731 1.77,0.731c0.636,0 1.275,-0.245 1.763,-0.731c0.976,-0.977 0.976,-2.56 0,-3.533l-5.353,-5.352l8.765,0c1.379,0 2.495,-1.119 2.495,-2.498c-0.001,-1.382 -1.118,-2.499 -2.497,-2.499z" id="svg_2"/>
    </g>
</svg>