<svg width="40" height="40" xmlns="http://www.w3.org/2000/svg">
 <g>
  <title>Layer 1</title>
  <path id="Heat" fill-rule="evenodd" clip-rule="evenodd" d="m32.8,25.5h-2c0.1,0.6 0.2,1.3 0.2,2h1.2l0.8,3l-26.1,0l0.9,-3h0.2c0,-0.9 0.1,-1.3 -0.4,-2c0,0 0,0 0,-0.1h-0.4l-3.2,7h32l-3.2,-6.9zm-20,0c0.1,0.6 0.2,1.2 0.2,2h4c0,-0.9 0.1,-1.3 -0.4,-1.9c0,0 0,0 0,-0.1h-3.8l0,0zm9,0c0.1,0.6 0.2,1.2 0.2,2h4c0,-0.9 0,-1.3 -0.4,-1.9c0,0 0,0 0,-0.1h-3.8l0,0zm-12.8,-10.8c0,1.2 -0.1,1.7 -0.6,2.4c-0.5,0.9 -1,2 -1,4c0,2 0.6,3.1 1.1,4c0.5,0.7 0.5,1.3 0.5,2.5v2h3v-2c0,-2 -0.5,-3.1 -1,-4c-0.4,-0.7 -0.6,-1.3 -0.6,-2.4c0,-1.2 0.2,-1.7 0.7,-2.4c0.5,-0.9 1,-2 1,-4v-1h3l-4,-6.2l-4,6.2h2v0.9l-0.1,0zm9,0c0,1.2 -0.1,1.7 -0.6,2.4c-0.5,0.9 -1,2 -1,4c0,2 0.6,3.1 1.1,4c0.4,0.7 0.5,1.3 0.5,2.4v2h3v-2c0,-2 -0.5,-3.1 -1,-4c-0.4,-0.7 -0.6,-1.3 -0.6,-2.4c0,-1.2 0.2,-1.7 0.7,-2.4c0.5,-0.9 1,-2 1,-4v-1h3l-4,-6.2l-4,6.2h2v1l-0.1,0zm9,0c0,1.2 -0.1,1.7 -0.6,2.4c-0.5,0.9 -1,2 -1,4c0,2 0.6,3.1 1.1,4c0.4,0.7 0.5,1.3 0.5,2.4v2h3v-2c0,-2 -0.5,-3.1 -1,-4c-0.4,-0.7 -0.6,-1.3 -0.6,-2.4c0,-1.2 0.2,-1.7 0.7,-2.4c0.5,-0.9 1,-2 1,-4v-1h3l-4,-6.2l-4,6.2h2v1l-0.1,0z"/>
 </g>
</svg>