<svg width="90" height="90" xmlns="http://www.w3.org/2000/svg" xmlns:svg="http://www.w3.org/2000/svg">
    <g>
        <title>Layer 1</title>
        <path fill="#000000" d="m41.282,6.263c-0.973,-0.973 -2.559,-0.973 -3.532,0l-8.128,8.131l-11.354,-1.789c-1.385,-0.226 -2.643,0.712 -2.857,2.075l-1.796,11.354l-10.237,5.224c-1.231,0.624 -1.717,2.13 -1.091,3.357l5.219,10.243l-5.213,10.246c-0.625,1.228 -0.137,2.731 1.094,3.355l10.243,5.218l1.803,11.354c0.217,1.359 1.485,2.285 2.859,2.074l11.354,-1.803l8.127,8.125c0.481,0.479 1.122,0.732 1.769,0.732c0.326,0 0.647,-0.063 0.956,-0.191c0.934,-0.386 1.54,-1.297 1.54,-2.308l0,-72.443c0,-0.223 -0.028,-0.441 -0.08,-0.645c0.177,-0.806 -0.052,-1.681 -0.676,-2.309zm-9.007,64.609c-0.471,-0.474 -1.107,-0.731 -1.765,-0.731c-0.128,0 -0.26,0.01 -0.395,0.03l-10.141,1.608l-1.611,-10.144c-0.127,-0.788 -0.622,-1.472 -1.334,-1.831l-9.15,-4.664l4.656,-9.156c0.361,-0.709 0.361,-1.552 -0.005,-2.266l-4.659,-9.146l9.147,-4.668c0.713,-0.361 1.205,-1.044 1.33,-1.835l1.607,-10.14l10.146,1.597c0.801,0.129 1.591,-0.137 2.152,-0.698l4.792,-4.792l0,10.799c-10.56,0.69 -18.908,9.445 -18.908,20.172c0,10.729 8.349,19.487 18.908,20.175l0,10.452l-4.77,-4.762z" id="svg_1"/>
    </g>
</svg>