<svg width="100" height="100" xmlns="http://www.w3.org/2000/svg" xmlns:svg="http://www.w3.org/2000/svg">
    <g>
        <title>Layer 1</title>
        <g id="svg_1">
            <path d="m57.119,84.46l-14.471,0c-1.1,0 -1.991,-0.902 -1.991,-2.016l0,-10.815l-10.684,0c-1.1,0 -1.991,-0.902 -1.991,-2.016l0,-14.649c0,-1.112 0.892,-2.016 1.991,-2.016l10.684,0l0,-10.814c0,-1.112 0.892,-2.016 1.991,-2.016l14.471,0c1.099,0 1.991,0.903 1.991,2.016l0,10.815l10.684,0c1.099,0 1.991,0.903 1.991,2.016l0,14.649c0,1.113 -0.892,2.016 -1.991,2.016l-10.684,0l0,10.815c0,1.113 -0.892,2.015 -1.991,2.015zm-12.48,-4.031l10.489,0l0,-10.815c0,-1.113 0.892,-2.015 1.991,-2.015l10.684,0l0,-10.619l-10.684,0c-1.099,0 -1.991,-0.903 -1.991,-2.016l0,-10.815l-10.489,0l0,10.815c0,1.113 -0.892,2.016 -1.991,2.016l-10.684,0l0,10.618l10.684,0c1.099,0 1.991,0.902 1.991,2.015l0,10.816z" id="svg_2"/>
        </g>
        <g id="svg_3">
            <path d="m80.138,95l-60.512,0c-1.099,0 -1.991,-0.903 -1.991,-2.016l0,-39.723l-8.76,0c-0.793,0 -1.511,-0.478 -1.828,-1.215c-0.313,-0.738 -0.166,-1.593 0.376,-2.179l41.006,-44.257c0.752,-0.814 2.151,-0.814 2.903,0l41.012,44.257c0.544,0.585 0.692,1.441 0.376,2.179c-0.317,0.737 -1.035,1.215 -1.828,1.215l-8.763,0l0,39.723c0,1.113 -0.892,2.016 -1.991,2.016zm-58.521,-4.031l56.53,0l0,-39.723c0,-1.112 0.892,-2.016 1.991,-2.016l6.157,0l-36.414,-39.295l-36.407,39.295l6.152,0c1.1,0 1.991,0.903 1.991,2.016l0,39.723z" id="svg_4"/>
        </g>
    </g>
</svg>