<svg width="100" height="100" xmlns="http://www.w3.org/2000/svg" xmlns:svg="http://www.w3.org/2000/svg">
    <g>
        <title>Layer 1</title>
        <path fill="#000000" d="m69.002,21.345l0,7.924l-11.863,14.673c-0.524,0.648 -1.303,1.021 -2.137,1.021s-1.613,-0.372 -2.138,-1.021l-11.862,-14.673l0,-7.924l28,0z" id="svg_1"/>
        <path d="m78.502,31.731l0,-17.886c0,-1.105 -0.895,-2 -2,-2l-43,0c-1.105,0 -2,0.895 -2,2l0,17.886c0,0.46 0.158,0.906 0.449,1.262l12.234,15.038l-3.576,4.345c-2.169,-0.89 -4.539,-1.389 -7.025,-1.389c-10.248,0 -18.584,8.337 -18.584,18.584s8.336,18.584 18.583,18.584c4.515,0 8.657,-1.622 11.881,-4.31l31.038,0c1.105,0 2,-0.895 2,-2l0,-17.688c0,-0.464 -0.161,-0.913 -0.456,-1.271l-12.226,-14.855l12.234,-15.038c0.289,-0.356 0.448,-0.802 0.448,-1.262zm-58.502,37.84c0,-7.49 6.094,-13.584 13.583,-13.584s13.583,6.094 13.583,13.584s-6.094,13.584 -13.583,13.584s-13.583,-6.094 -13.583,-13.584zm53.502,-38.906l-13.627,16.749c-0.3,0.369 -0.299,0.899 0.004,1.267l13.623,16.553l0,13.612l-23.839,0c1.583,-2.733 2.504,-5.895 2.504,-9.274c0,-5.949 -2.821,-11.24 -7.183,-14.644l5.141,-6.246c0.302,-0.367 0.304,-0.897 0.004,-1.267l-13.627,-16.75l0,-13.82l37,0l0,13.82z" id="svg_2"/>
        <path d="m38.833,74.37l-7.331,0c-1.381,0 -2.5,-1.119 -2.5,-2.5l0,-8.332c0,-1.381 1.119,-2.5 2.5,-2.5s2.5,1.119 2.5,2.5l0,5.832l4.831,0c1.381,0 2.5,1.119 2.5,2.5s-1.119,2.5 -2.5,2.5z" id="svg_3"/>
    </g>
</svg>