<svg width="64" height="64" xmlns="http://www.w3.org/2000/svg" xmlns:svg="http://www.w3.org/2000/svg">
 <g>
  <title>Layer 1</title>
  <path fill="#000000" d="m32.358,62.374c-0.001,0 -0.001,0 -0.001,0c-11.28,-0.001 -20.51,-7.695 -22.447,-18.711c-1.055,-6.01 0.109,-11.506 3.46,-16.334c2.397,-3.462 4.958,-6.867 7.436,-10.16c1.22,-1.622 2.44,-3.244 3.645,-4.877l0.167,-0.227c1.897,-2.57 3.689,-4.997 4.233,-7.925c0.266,-1.229 1.321,-2.266 2.468,-2.476l0.435,-0.039c1.124,0 2.551,0.887 2.883,2.208c1.016,4.227 3.674,7.495 6.488,10.954c1.012,1.244 2.058,2.529 3.03,3.869c2.572,3.518 5.293,7.32 7.735,11.249c1.87,3.043 2.77,6.506 2.541,9.771c-0.105,11.905 -9.014,21.84 -20.313,22.635c-0.591,0.043 -1.178,0.063 -1.76,0.063zm-0.528,-53.392c-1,2.07 -2.352,3.901 -3.676,5.694l-0.167,0.226c-1.212,1.643 -2.441,3.276 -3.669,4.909c-2.452,3.26 -4.987,6.63 -7.337,10.022c-2.668,3.845 -3.59,8.242 -2.743,13.07c1.561,8.876 9.012,15.075 18.119,15.077l0.001,0c0.48,0 0.963,-0.017 1.452,-0.052c8.893,-0.626 16.173,-8.858 16.227,-18.352l0.006,-0.152c0.177,-2.338 -0.513,-4.964 -1.893,-7.207c-2.358,-3.797 -5.022,-7.518 -7.548,-10.973c-0.905,-1.248 -1.867,-2.431 -2.886,-3.683c-2.149,-2.643 -4.353,-5.351 -5.886,-8.579z" id="svg_2"/>
 </g>
</svg>