<svg width="100" height="100" xmlns="http://www.w3.org/2000/svg" xmlns:svg="http://www.w3.org/2000/svg">
 <g>
  <title>Layer 1</title>
  <g id="svg_1">
   <path id="svg_2" fill="#000000" d="m50,15.99998c-7.158,0 -14.3549,2.72997 -19.8125,8.1875c-4.0587,4.05867 -6.5192,9.0935 -7.5625,14.34375c-10.5909,2.05454 -18.625,11.30389 -18.625,22.46879c0,12.6669 10.333,23 23,23l49,0c11.0281,0 20,-8.9719 20,-20c0,-10.4082 -8.0182,-18.88114 -18.1875,-19.81254c0.047,-7.23903 -2.5243,-14.49301 -8.0313,-20c-5.4529,-5.45308 -12.6232,-8.1875 -19.7812,-8.1875zm0,6c5.6382,0 11.2214,2.09633 15.5312,6.40625c4.9804,4.98032 7.08801,11.74679 6.31261,18.21875a3.0003,3.0003 0 0 0 2.9687,3.37504l1.1875,0c7.8079,0 14,6.1921 14,14c0,7.8079 -6.1921,14 -14,14l-49,0c-9.4242,0 -17,-7.57581 -17,-17c0,-8.8999 6.7685,-16.15049 15.4375,-16.93754a3.0003,3.0003 0 0 0 2.6875,-2.625c0.552,-4.75509 2.6561,-9.37488 6.3125,-13.03125c4.3056,-4.30547 9.9243,-6.40625 15.5625,-6.40625l-0.00001,0z"/>
  </g>
  <g id="svg_5" stroke="#000000">
   <path fill="#000000" d="m47.50095,39.03917c8.7531,0.11894 16.06984,3.09895 22.13539,9.09385c1.25657,1.24226 1.54366,2.73495 0.73963,3.76434c-0.82012,1.04998 -2.44965,1.16715 -3.91998,0.24686a7.47058,7.47058 0 0 1 -1.16985,-0.93104c-9.66353,-9.21368 -24.48486,-9.51329 -34.55444,-0.6815c-0.97485,0.85501 -2.04003,1.43902 -3.37531,1.3478c-0.93371,-0.0635 -1.68497,-0.46417 -2.10532,-1.33348c-0.43108,-0.89436 -0.17351,-1.70912 0.38905,-2.44696a6.50467,6.50467 0 0 1 0.84427,-0.87379c6.04676,-5.42518 13.17123,-8.05102 21.01654,-8.18606l0,0l0.00001,-0.00002z" id="svg_1" stroke="#000000"/>
   <path fill="#000000" d="m47.70333,49.21697c6.02976,0.12163 11.0167,2.40493 15.45184,6.0575c0.55629,0.4579 0.9507,1.07949 1.21453,1.75741c0.3354,0.86037 0.39085,1.72612 -0.25668,2.47202c-0.66361,0.76288 -1.55171,0.88988 -2.48899,0.67971c-1.00705,-0.22538 -1.78246,-0.84785 -2.5364,-1.5204c-6.01278,-5.38226 -14.93043,-5.75431 -21.28575,-0.89436c-0.56971,0.43555 -1.09202,0.93282 -1.63221,1.40594c-0.82907,0.72531 -1.76099,1.17786 -2.89414,1.08752c-1.47569,-0.11715 -2.33249,-1.363 -1.92735,-2.77966a4.04071,4.04071 0 0 1 1.18592,-1.87815c4.34211,-3.98884 9.3863,-6.30255 15.16923,-6.38751l0,0l0,-0.00002z" id="svg_2" stroke="#000000"/>
   <path fill="#000000" d="m48.95411,59.82138a11.6535,11.6535 0 0 1 8.24152,3.62931c0.75932,0.7933 1.28342,1.68764 0.98379,2.86195c-0.3792,1.49626 -2.17865,2.19746 -3.43166,1.03658c-3.89941,-3.61321 -9.32368,-3.64005 -13.45832,-0.2066c-1.15371,0.95785 -1.89425,1.03657 -2.81633,0.29783s-1.14566,-1.98906 -0.53215,-3.13026c0.33093,-0.61531 0.81477,-1.10006 1.35138,-1.5383c2.36826,-1.92824 5.42249,-2.95674 9.66175,-2.95048l0.00002,-0.00002z" id="svg_3" stroke="#000000"/>
   <path fill="#000000" d="m51.74593,73.17863a3.77598,3.77598 0 0 1 -3.81266,3.7724c-2.17329,-0.01073 -3.85289,-1.71268 -3.81711,-3.87077c0.03666,-2.24216 1.73684,-3.93517 3.91549,-3.89046c2.09995,0.03934 3.73216,1.79051 3.71428,3.98885l0,-0.00002z" id="svg_4" stroke="#000000"/>
  </g>
 </g>
</svg>