<svg width="48" height="36" xmlns="http://www.w3.org/2000/svg" xmlns:svg="http://www.w3.org/2000/svg">
    <g>
        <title>Layer 1</title>
        <g id="svg_2">
            <g id="svg_3">
                <g id="svg_4">
                    <path fill="#000000" d="m15.9,17.3c-2.6,0 -4.3,-4.1 -4.3,-6.2c0,-2.4 1.9,-4.3 4.3,-4.3c2.4,0 4.3,1.9 4.3,4.3c0.1,2.1 -1.6,6.2 -4.3,6.2zm0,-8.6c-1.3,0 -2.3,1 -2.3,2.3c0,1.6 1.3,4.2 2.3,4.2c1,0 2.3,-2.7 2.3,-4.2c0.1,-1.2 -1,-2.3 -2.3,-2.3z" id="svg_5"/>
                    <path fill="#000000" d="m15.9,29.3c-3.1,0 -6.2,-0.3 -9.1,-0.9l-0.8,-0.2l0,-2.2c0,-1.6 0.5,-3.2 1.5,-4.6c1,-1.5 2.5,-2.4 4.2,-2.8c0.7,-0.1 1.5,0.1 2.4,0.4c0.6,0.2 1.3,0.4 1.9,0.4c0.6,0 1.3,-0.2 1.9,-0.4c0.8,-0.3 1.6,-0.5 2.4,-0.4c1.7,0.3 3.2,1.3 4.2,2.8c0.9,1.3 1.5,2.9 1.5,4.6l0,2.3l-1,0.1c-2.9,0.6 -6,0.9 -9.1,0.9zm-7.9,-2.7c5.1,0.9 10.7,0.9 15.8,0l0,-0.6c0,-1.2 -0.4,-2.4 -1.1,-3.4c-0.5,-0.7 -1.5,-1.7 -2.9,-2c0,0 0,0 0,0c-0.4,0 -0.8,0.2 -1.3,0.3c-0.8,0.3 -1.6,0.5 -2.5,0.5c-0.9,0 -1.8,-0.3 -2.5,-0.5c-0.5,-0.2 -1,-0.3 -1.3,-0.3c-1.6,0.3 -2.5,1.2 -3,2c-0.8,0.9 -1.2,2.2 -1.2,3.4l0,0.6z" id="svg_6"/>
                </g>
            </g>
        </g>
    </g>
</svg>