<svg width="48" height="36" xmlns="http://www.w3.org/2000/svg" xmlns:svg="http://www.w3.org/2000/svg">
    <g>
        <title>Layer 1</title>
        <path fill="#000000" d="m41.6,35l-35.2,0c-3.3,0 -5.9,-2.6 -5.9,-5.9l0,-22.2c0,-3.3 2.6,-5.9 5.9,-5.9l35.2,0c3.3,0 5.9,2.6 5.9,5.9l0,22.2c0,3.3 -2.6,5.9 -5.9,5.9zm-35.2,-32c-2.2,0 -3.9,1.8 -3.9,3.9l0,22.2c0,2.2 1.8,3.9 3.9,3.9l35.2,0c2.2,0 3.9,-1.8 3.9,-3.9l0,-22.2c0,-2.2 -1.8,-3.9 -3.9,-3.9l-35.2,0z" id="svg_7"/>
        <g id="svg_8">
            <rect x="29.5" y="13.4" fill="#000000" width="12" height="2" id="svg_9"/>
            <rect x="29.5" y="21.4" fill="#000000" width="12" height="2" id="svg_10"/>
        </g>
    </g>
</svg>