<svg width="100" height="100" xmlns="http://www.w3.org/2000/svg">
 <g>
  <title>Layer 1</title>
  <g id="svg_19">
   <g id="svg_20">
    <path d="m49.5,13.5c20.4,0 36.9,16.5 36.9,36.9s-16.5,36.8 -36.9,36.8s-36.8,-16.5 -36.8,-36.9s16.5,-36.8 36.8,-36.8m0,-3.2c-22.1,0 -40,18 -40,40s18,40 40,40s40,-18 40,-40s-17.9,-40 -40,-40l0,0z" id="svg_21"/>
   </g>
   <g id="svg_22">
    <path d="m62.5,53.6c0.7,0 1.2,0.5 1.2,1.2c0,15 -12.2,27.2 -27.1,27.2c-0.7,0 -1.2,-0.5 -1.2,-1.2s0.5,-1.2 1.2,-1.2c13.6,0 24.7,-11.1 24.7,-24.7c-0.1,-0.7 0.5,-1.3 1.2,-1.3z" id="svg_23"/>
   </g>
   <g id="svg_24">
    <path d="m58.9,40.8c0.3,-0.6 1.1,-0.8 1.7,-0.4c13,7.5 17.4,24.1 10,37c-0.3,0.6 -1.1,0.8 -1.7,0.4c-0.6,-0.3 -0.8,-1.10001 -0.4,-1.7c6.8,-11.8 2.7,-26.9 -9.1,-33.7c-0.7,-0.3 -0.9,-1.1 -0.5,-1.6z" id="svg_25"/>
   </g>
   <g id="svg_26">
    <path d="m45.9,37.4c-0.3,-0.6 -0.1,-1.3 0.4,-1.7c12.9,-7.5 29.6,-3.1 37.1,9.9c0.3,0.6 0.1,1.3 -0.4,1.7s-1.3,0.1 -1.7,-0.4c-6.8,-11.8 -21.9,-15.8 -33.7,-9c-0.6,0.3 -1.3,0.1 -1.7,-0.5z" id="svg_27"/>
   </g>
   <g id="svg_28">
    <path d="m36.6,47c-0.7,0 -1.2,-0.5 -1.2,-1.2c0,-14.9 12.1,-27.1 27,-27.2c0.7,0 1.2,0.5 1.2,1.2s-0.5,1.2 -1.2,1.2c-13.6,0 -24.6,11.1 -24.6,24.7c0,0.8 -0.6,1.3 -1.2,1.3z" id="svg_29"/>
   </g>
   <g id="svg_30">
    <path d="m40.2,59.9c-0.3,0.6 -1.1,0.8 -1.7,0.5c-13,-7.4 -17.5,-24 -10,-37c0.3,-0.6 1.1,-0.8 1.7,-0.5c0.6,0.3 0.8,1.1 0.5,1.7c-6.8,11.8 -2.7,26.9 9.1,33.7c0.5,0.2 0.7,1 0.4,1.6z" id="svg_31"/>
   </g>
   <g id="svg_32">
    <path d="m53.2,63.2c0.3,0.6 0.1,1.3 -0.4,1.7c-12.9,7.5 -29.5,3.1 -37.1,-9.8c-0.3,-0.6 -0.1,-1.3 0.4,-1.7s1.3,-0.1 1.7,0.4c6.8,11.8 22,15.7 33.7,8.9c0.6,-0.3 1.3,-0.1 1.7,0.5z" id="svg_33"/>
   </g>
   <g id="svg_34">
    <path d="m49.5,61.1c-5.9,0 -10.8,-4.8 -10.8,-10.8c0,-5.9 4.8,-10.8 10.8,-10.8c5.9,0 10.8,4.8 10.8,10.8c0,6 -4.8,10.8 -10.8,10.8zm0,-18.4c-4.2,0 -7.6,3.4 -7.6,7.6s3.4,7.6 7.6,7.6s7.6,-3.4 7.6,-7.6s-3.4,-7.6 -7.6,-7.6z" id="svg_35"/>
   </g>
  </g>
 </g>
</svg>