<?xml version="1.0" encoding="utf-8"?>
<!-- Generator: Adobe Illustrator 16.0.0, SVG Export Plug-In . SVG Version: 6.00 Build 0)  -->
<!DOCTYPE svg PUBLIC "-//W3C//DTD SVG 1.1//EN" "http://www.w3.org/Graphics/SVG/1.1/DTD/svg11.dtd">
<svg version="1.1" id="Layer_1" xmlns="http://www.w3.org/2000/svg" xmlns:xlink="http://www.w3.org/1999/xlink" x="0px" y="0px"
	 width="96.034px" height="100px" viewBox="0 0 96.034 100" enable-background="new 0 0 96.034 100" xml:space="preserve">
<g>
	<path fill="#010101" d="M95.387,91.615c0,0-2.225-12.569-10.768-17.093c-7.74-4.103-4.76-2.225-14.266-6.422
		c-0.422-0.188-0.83-0.333-1.223-0.505c-0.855,2.591-5.427,14.268-20.26,14.268c-0.584,0-3.021,0-3.603,0
		c-14.587,0-19.249-11.211-20.214-14.053c-9.19,4.048-6.336,2.223-14.005,6.287C2.616,78.562,0,92.953,0,92.953L0.098,100h47.808
		h48.128L95.387,91.615z M72.701,91.923c-2.289,0-4.145-1.856-4.145-4.146s1.855-4.146,4.145-4.146c2.291,0,4.148,1.854,4.148,4.146
		C76.849,90.067,74.992,91.923,72.701,91.923z"/>
	<path fill="#010101" d="M29.618,44.35c1.536,9.011,6.808,14.381,6.808,14.381s-0.53,4.572-1.019,5.261c0,0-1.58,0.087-4.895,1.343
		c0.5,1.551,3.944,11.194,16.403,10.127h0.31c13.195,1.067,16.276-9.735,16.461-10.31c-2.91-1.18-3.951-1.357-3.951-1.357
		c-0.487-0.689-0.963-5.132-0.963-5.132s6.033-5.288,7.383-15.491c0,0,2.222,1.424,2.792-4.179c0.481-4.753,1.321-7.003-1.934-8.404
		c0,0,0.487-3.304,0.341-6.237c-0.199-4.017-0.118-10.676-6.571-15.375c-1.032-0.752-6.593-3.772-6.627-3.756
		c-1.973-1.19-4.469-1.953-4.469-1.953l0.075,1.795c-0.132-0.135-0.268-0.274-0.392-0.399c-0.497-0.51-0.782-2.489-0.728-3.273
		C48.738,0,48.738,0,48.738,0c-3.57,2.666-6.027,6.104-6.027,6.104l0.314-3.33c0,0-0.999,0.518-8.822,6.117
		c-6.688,4.786-6.263,12.731-6.462,16.748c-0.145,2.932,0.441,4.957,0.441,4.957c-3.254,1.401-1.949,3.423-1.467,8.176
		C27.287,44.376,29.618,44.35,29.618,44.35z"/>
</g>
</svg>
