<svg xmlns="http://www.w3.org/2000/svg" xmlns:xlink="http://www.w3.org/1999/xlink" version="1.1" x="0px" y="0px" width="100px" height="100px" viewBox="0 0 100 100" enable-background="new 0 0 100 100" xml:space="preserve">
                                          <g id="Captions">
                                          </g>
                                          <g id="Your_Icon">
                                          	<path d="M37.867,58.713c-0.169,0.408-0.328,0.82-0.468,1.238c-0.739,2.203-0.999,4.332-0.829,6.299   c0.172,1.996,0.788,3.832,1.797,5.408c1.026,1.603,2.459,2.939,4.246,3.904c1.814,0.981,3.989,1.578,6.46,1.679   c2.502,0.103,5.059-0.312,7.53-1.155c2.488-0.848,4.873-2.123,7.016-3.728s4.029-3.525,5.527-5.659   c1.49-2.119,2.584-4.436,3.162-6.84c0.57-2.373,0.58-4.598,0.119-6.586c-0.453-1.957-1.361-3.68-2.637-5.089   c-1.256-1.387-2.869-2.472-4.762-3.181c-1.861-0.698-3.998-1.034-6.34-0.937c-1.072,0.044-2.141,0.181-3.199,0.395l-0.387,12.15   l-0.188,5.928l-5.786-1.299L37.867,58.713z M34.152,52.854l6.237,1.4l9.814,2.203l0.53-16.708l0.205-6.413l0.51-16.063   l-10.123,7.843l-9.414-10.552L13.733,28.634l7.979,11.674l-9.761,7.561l15.817,3.55L34.152,52.854z M89.933,46.939   c-1.143-3.703-3.152-6.896-5.834-9.445c-2.6-2.473-5.83-4.342-9.527-5.499c-3.596-1.125-7.646-1.58-12.02-1.258   c-2.244,0.165-4.471,0.532-6.66,1.067l-0.203,6.4c1.615-0.365,3.256-0.604,4.9-0.698c3.334-0.191,6.4,0.222,9.096,1.15   c2.754,0.948,5.131,2.435,7.014,4.367c1.924,1.978,3.332,4.422,4.082,7.227c0.768,2.87,0.848,6.109,0.094,9.587   c-0.77,3.545-2.328,6.977-4.492,10.126c-2.186,3.181-4.971,6.046-8.15,8.428c-3.182,2.384-6.727,4.262-10.422,5.484   c-3.66,1.212-7.434,1.768-11.106,1.54c-3.604-0.223-6.748-1.181-9.341-2.695c-2.537-1.48-4.541-3.492-5.944-5.871   c-1.372-2.325-2.17-5.002-2.336-7.891c-0.164-2.826,0.278-5.863,1.385-8.99c0.321-0.906,0.695-1.796,1.108-2.668l-6.438-1.445   c-0.689,1.344-1.306,2.721-1.833,4.133c-1.526,4.084-2.203,8.077-2.097,11.82c0.109,3.851,1.045,7.453,2.749,10.615   c1.756,3.262,4.328,6.057,7.64,8.156c3.413,2.164,7.601,3.582,12.452,3.998c4.974,0.428,10.121-0.244,15.134-1.846   c5.078-1.621,9.953-4.174,14.32-7.449c4.361-3.272,8.156-7.223,11.098-11.61c2.9-4.328,4.934-9.029,5.857-13.86   C91.356,55.105,91.108,50.756,89.933,46.939z M29.958,12.29l-3.298-3.628L9.285,22.106l2.805,4.022L29.958,12.29z M21.843,3.031   L5.231,15.902l2.805,4.022L25.142,6.659L21.843,3.031z"/>
                                          </g>
                                          </svg>