<svg xmlns="http://www.w3.org/2000/svg" xmlns:xlink="http://www.w3.org/1999/xlink" version="1.1" x="0px" y="0px" width="100px" height="100px" viewBox="0 0 100 100" enable-background="new 0 0 100 100" xml:space="preserve">
<g id="Your_Icon">
	<path fill="#000000" d="M93.129,43.129H32.437c-0.274-8.375-7.139-15.077-15.58-15.08l-1.263,0.001   C6.979,28.052,0.004,35.029,0,43.643v12.715c0.004,8.614,6.979,15.59,15.594,15.594l1.263-0.001   c8.441-0.003,15.306-6.703,15.58-15.078h36.258V69.47h6.872v-9.162h6.871v9.162h6.872V56.872h3.819   c3.795,0,6.871-3.076,6.871-6.872C100,46.205,96.924,43.129,93.129,43.129z M22.906,56.357c-0.006,3.34-2.711,6.044-6.05,6.05   h-1.263c-3.339-0.006-6.043-2.71-6.049-6.05V43.643c0.006-3.34,2.71-6.044,6.049-6.05h1.263c3.339,0.006,6.044,2.71,6.05,6.05   V56.357z"/>
</g>
</svg>