<svg width="100.00000000000001" height="100.00000000000001" xmlns="http://www.w3.org/2000/svg" xmlns:svg="http://www.w3.org/2000/svg">
 <g>
  <title>Layer 1</title>
  <path d="m48.798,31.108c0.702,-0.108 1.185,-0.765 1.075,-1.467c-0.107,-0.701 -0.766,-1.185 -1.466,-1.075c-7.2,1.108 -12.458,5.901 -13.724,12.51c-0.133,0.698 0.323,1.372 1.021,1.505c0.082,0.015 0.163,0.023 0.243,0.023c0.605,0 1.144,-0.429 1.262,-1.045c1.056,-5.508 5.497,-9.513 11.589,-10.451z" id="svg_2"/>
  <path d="m57.266,81.612c-5.381,1.351 -10.746,2.753 -16.105,4.165c-1.242,0.327 -1.759,1.23 -1.289,2.507c0.435,1.187 1.45,1.501 2.525,1.224c5.37,-1.386 10.725,-2.82 16.088,-4.224c0.984,-0.257 1.583,-0.813 1.637,-1.934c-0.35,-1.601 -1.442,-2.093 -2.856,-1.738z" id="svg_3"/>
  <path d="m54.053,87.471c-3.301,0.832 -6.599,1.677 -9.886,2.551c-1.129,0.301 -2.08,0.938 -1.683,2.303c0.416,1.438 1.573,1.799 2.878,1.46c3.293,-0.854 6.571,-1.764 9.871,-2.604c0.984,-0.252 1.616,-0.756 1.811,-1.833c-0.351,-1.686 -1.393,-2.28 -2.991,-1.877z" id="svg_4"/>
  <path fill="black" d="m60.302,48.345l-3.478,0l0.47,-1.261c0.362,-0.976 -0.133,-2.062 -1.109,-2.425c-0.978,-0.362 -2.062,0.133 -2.426,1.109l-0.96,2.577l-0.146,0l0.457,-1.227c0.363,-0.976 -0.133,-2.062 -1.109,-2.425c-0.977,-0.361 -2.063,0.133 -2.426,1.109l-0.947,2.542l-0.146,0l0.444,-1.192c0.362,-0.976 -0.133,-2.062 -1.109,-2.425c-0.978,-0.363 -2.062,0.133 -2.426,1.109l-0.934,2.508l-4.938,0c-0.443,0 -0.851,0.244 -1.061,0.635c-0.209,0.391 -0.187,0.866 0.059,1.234c0.069,0.105 6.958,10.63 6.501,24.578l2.405,0.08c0.371,-11.339 -3.75,-20.368 -5.798,-24.121l1.935,0l-0.254,0.684c-0.362,0.975 0.133,2.061 1.11,2.425c0.217,0.08 0.439,0.119 0.658,0.119c0.764,0 1.484,-0.469 1.768,-1.228l0.745,-2l0.146,0l-0.242,0.649c-0.362,0.976 0.133,2.061 1.11,2.425c0.217,0.08 0.44,0.119 0.658,0.119c0.765,0 1.484,-0.469 1.768,-1.228l0.732,-1.966l0.146,0l-0.229,0.615c-0.362,0.976 0.133,2.061 1.109,2.425c0.218,0.08 0.439,0.119 0.658,0.119c0.764,0 1.484,-0.469 1.768,-1.228l0.719,-1.932l2.269,0c-2.048,3.753 -6.169,12.782 -5.798,24.121l2.405,-0.08c-0.455,-13.914 6.431,-24.473 6.501,-24.578c0.244,-0.37 0.267,-0.845 0.057,-1.235c-0.212,-0.387 -0.618,-0.631 -1.062,-0.631z" id="svg_6"/>
  <path d="m49.896,21.193c-11.924,0.067 -22.872,10.228 -23.432,21.744c-0.26,5.351 1.074,10.43 4.077,15.531c0.894,1.519 1.843,3.018 2.761,4.468c0.578,0.913 1.155,1.824 1.721,2.744c2.064,3.355 3.441,6.369 3.452,10.173c0.007,2.237 1.227,3.861 3.437,4.573l0.14,0.045c-0.296,0.078 -0.594,0.155 -0.892,0.233c-1.242,0.328 -1.759,1.232 -1.289,2.507c0.435,1.187 1.45,1.502 2.525,1.226c4.945,-1.276 9.878,-2.595 14.816,-3.892l0.322,0l0.373,-0.119c0.166,-0.054 0.314,-0.122 0.47,-0.186c0.036,-0.01 0.071,-0.02 0.106,-0.028c0.545,-0.143 0.957,-0.392 1.238,-0.763c1.045,-0.859 1.618,-2.083 1.623,-3.597c0.01,-3.801 1.387,-6.816 3.451,-10.173c0.568,-0.923 1.148,-1.84 1.729,-2.757c0.915,-1.445 1.862,-2.94 2.755,-4.455c3.001,-5.101 4.336,-10.18 4.075,-15.53c-0.555,-11.515 -11.504,-21.677 -23.458,-21.744zm15.075,34.736c-0.857,1.457 -1.764,2.889 -2.67,4.32c-0.592,0.934 -1.184,1.867 -1.762,2.81c-2.119,3.445 -4.085,7.329 -4.193,12.488l-6.436,0.011l-6.437,-0.011c-0.086,-5.122 -2.062,-9.028 -4.192,-12.488c-0.576,-0.938 -1.166,-1.867 -1.754,-2.799c-0.897,-1.417 -1.824,-2.881 -2.677,-4.331c-2.494,-4.232 -3.602,-8.403 -3.391,-12.75c0.429,-8.838 9.23,-16.935 18.437,-16.986c9.237,0.052 18.038,8.148 18.466,16.987c0.211,4.346 -0.898,8.517 -3.391,12.749z" id="svg_5"/>
  <path d="m19.496,20.848c0.247,0.269 0.583,0.406 0.921,0.406c0.302,0 0.604,-0.109 0.845,-0.329c0.509,-0.466 0.543,-1.256 0.077,-1.766l-0.605,-0.661c-0.468,-0.509 -1.256,-0.543 -1.767,-0.077c-0.509,0.466 -0.543,1.257 -0.077,1.766l0.606,0.661z" id="svg_7"/>
  <path d="m28.021,28.295c0.509,-0.466 0.543,-1.257 0.077,-1.766l-0.845,-0.921c-0.467,-0.511 -1.261,-0.543 -1.766,-0.076c-0.509,0.466 -0.543,1.257 -0.077,1.766l0.845,0.921c0.247,0.269 0.583,0.405 0.922,0.405c0.302,0 0.605,-0.109 0.844,-0.329z" id="svg_8"/>
  <path d="m23.874,21.923c-0.467,-0.511 -1.261,-0.543 -1.766,-0.076c-0.509,0.466 -0.543,1.257 -0.077,1.766l0.845,0.921c0.247,0.269 0.583,0.405 0.922,0.405c0.303,0 0.605,-0.108 0.845,-0.329c0.509,-0.467 0.543,-1.258 0.077,-1.766l-0.846,-0.921z" id="svg_9"/>
  <path d="m41.085,18.816c0.173,0.525 0.662,0.858 1.187,0.858c0.129,0 0.262,-0.021 0.392,-0.063c0.656,-0.217 1.012,-0.924 0.795,-1.58l-3.684,-11.143c-0.216,-0.655 -0.923,-1.012 -1.578,-0.795c-0.656,0.217 -1.012,0.924 -0.795,1.58l3.683,11.143z" id="svg_10"/>
  <path d="m56.689,19.566c0.13,0.042 0.261,0.063 0.391,0.063c0.524,0 1.015,-0.334 1.188,-0.86l0.391,-1.187c0.215,-0.656 -0.143,-1.362 -0.798,-1.578c-0.655,-0.218 -1.362,0.14 -1.578,0.796l-0.391,1.187c-0.215,0.657 0.142,1.363 0.797,1.579z" id="svg_11"/>
  <path d="m59.819,10.068c0.129,0.043 0.262,0.063 0.391,0.063c0.525,0 1.015,-0.334 1.188,-0.86l0.391,-1.187c0.215,-0.656 -0.141,-1.362 -0.797,-1.578c-0.655,-0.216 -1.362,0.141 -1.578,0.797l-0.392,1.187c-0.215,0.656 0.142,1.363 0.797,1.578z" id="svg_12"/>
  <path d="m58.255,14.817c0.129,0.043 0.261,0.063 0.391,0.063c0.524,0 1.014,-0.333 1.188,-0.86l0.391,-1.188c0.215,-0.656 -0.142,-1.362 -0.797,-1.578c-0.656,-0.216 -1.363,0.14 -1.578,0.796l-0.391,1.188c-0.216,0.658 0.139,1.364 0.796,1.579z" id="svg_13"/>
  <path d="m79.157,18.811l-7.938,7.436c-0.504,0.473 -0.529,1.264 -0.058,1.767c0.245,0.263 0.579,0.396 0.912,0.396c0.306,0 0.614,-0.112 0.854,-0.337l7.938,-7.436c0.504,-0.473 0.529,-1.264 0.057,-1.767c-0.469,-0.504 -1.264,-0.529 -1.765,-0.059z" id="svg_14"/>
  <path d="m79.081,39.721l-1.172,0.437c-0.646,0.24 -0.977,0.96 -0.736,1.607c0.188,0.503 0.666,0.814 1.172,0.814c0.146,0 0.293,-0.026 0.436,-0.08l1.172,-0.437c0.647,-0.24 0.977,-0.96 0.736,-1.607c-0.243,-0.647 -0.969,-0.976 -1.608,-0.734z" id="svg_15"/>
  <path d="m83.766,37.976l-1.172,0.437c-0.647,0.241 -0.977,0.96 -0.736,1.608c0.188,0.503 0.665,0.814 1.172,0.814c0.145,0 0.293,-0.026 0.436,-0.08l1.172,-0.436c0.646,-0.241 0.977,-0.961 0.736,-1.608c-0.243,-0.648 -0.967,-0.977 -1.608,-0.735z" id="svg_16"/>
  <path d="m89.497,37.174c-0.24,-0.647 -0.961,-0.977 -1.607,-0.734l-0.61,0.228c-0.647,0.241 -0.976,0.961 -0.733,1.608c0.187,0.503 0.664,0.813 1.17,0.813c0.146,0 0.293,-0.025 0.438,-0.079l0.61,-0.228c0.646,-0.241 0.974,-0.961 0.732,-1.608z" id="svg_17"/>
  <path d="m22.091,40.157l-9.982,-3.717c-0.642,-0.242 -1.366,0.087 -1.607,0.735c-0.241,0.647 0.089,1.367 0.736,1.607l9.982,3.718c0.143,0.054 0.291,0.08 0.436,0.08c0.507,0 0.984,-0.312 1.172,-0.814c0.24,-0.648 -0.09,-1.368 -0.737,-1.609z" id="svg_18"/>
 </g>
</svg>