<svg width="100.00000000000001" height="100.00000000000001" xmlns="http://www.w3.org/2000/svg" xmlns:svg="http://www.w3.org/2000/svg">
 <g>
  <title>Layer 1</title>
  <path id="svg_3" d="m57.266,81.612c-5.381,1.351 -10.746,2.753 -16.105,4.165c-1.242,0.327 -1.759,1.23 -1.289,2.507c0.435,1.187 1.45,1.501 2.525,1.224c5.37,-1.386 10.725,-2.82 16.088,-4.224c0.984,-0.257 1.583,-0.813 1.637,-1.934c-0.35,-1.601 -1.442,-2.093 -2.856,-1.738z"/>
  <path id="svg_4" d="m54.053,87.471c-3.301,0.832 -6.599,1.677 -9.886,2.551c-1.129,0.301 -2.08,0.938 -1.683,2.303c0.416,1.438 1.573,1.799 2.878,1.46c3.293,-0.854 6.571,-1.764 9.871,-2.604c0.984,-0.252 1.616,-0.756 1.811,-1.833c-0.351,-1.686 -1.393,-2.28 -2.991,-1.877z"/>
  <path fill="black" id="svg_5" d="m49.896,21.193c-11.924,0.067 -22.872,10.228 -23.432,21.744c-0.26,5.351 1.074,10.43 4.077,15.531c0.894,1.519 1.843,3.018 2.761,4.468c0.578,0.913 1.155,1.824 1.721,2.744c2.064,3.355 3.441,6.369 3.452,10.173c0.007,2.237 1.227,3.861 3.437,4.573l0.14,0.045c-0.296,0.078 -0.594,0.155 -0.892,0.233c-1.242,0.328 -1.759,1.232 -1.289,2.507c0.435,1.187 1.45,1.502 2.525,1.226c4.945,-1.276 9.878,-2.595 14.816,-3.892l0.322,0l0.373,-0.119c0.166,-0.054 0.314,-0.122 0.47,-0.186c0.036,-0.01 0.071,-0.02 0.106,-0.028c0.545,-0.143 0.957,-0.392 1.238,-0.763c1.045,-0.859 1.618,-2.083 1.623,-3.597c0.01,-3.801 1.387,-6.816 3.451,-10.173c0.568,-0.923 1.148,-1.84 1.729,-2.757c0.915,-1.445 1.862,-2.94 2.755,-4.455c3.001,-5.101 4.336,-10.18 4.075,-15.53c-0.555,-11.515 -11.504,-21.677 -23.458,-21.744zm15.075,34.736c-0.857,1.457 -1.764,2.889 -2.67,4.32c-0.592,0.934 -1.184,1.867 -1.762,2.81c-2.119,3.445 -4.085,7.329 -4.193,12.488l-6.436,0.011l-6.437,-0.011c-0.086,-5.122 -2.062,-9.028 -4.192,-12.488c-0.576,-0.938 -1.166,-1.867 -1.754,-2.799c-0.897,-1.417 -1.824,-2.881 -2.677,-4.331c-2.494,-4.232 -3.602,-8.403 -3.391,-12.75c0.429,-8.838 9.23,-16.935 18.437,-16.986c9.237,0.052 18.038,8.148 18.466,16.987c0.211,4.346 -0.898,8.517 -3.391,12.749z"/>
 </g>
</svg>