<svg width="100" height="100" xmlns="http://www.w3.org/2000/svg" xmlns:svg="http://www.w3.org/2000/svg">
    <g>
        <title>Layer 1</title>
        <path d="m85,5l-70,0c-5.523,0 -10,4.477 -10,10l0,70c0,5.523 4.477,10 10,10l70,0c5.523,0 10,-4.477 10,-10l0,-70c0,-5.523 -4.477,-10 -10,-10zm5,80c0,2.757 -2.243,5 -5,5l-70,0c-2.757,0 -5,-2.243 -5,-5l0,-70c0,-2.757 2.243,-5 5,-5l70,0c2.757,0 5,2.243 5,5l0,70z" id="svg_1"/>
        <path d="m15,85l33.75,0l0,-70l-33.75,0l0,70zm31.25,-67.5l-2.5,5l-23.75,0l-2.5,-5l28.75,0zm-26.25,7.5l23.75,0l2.5,57.5l-28.75,0l2.5,-57.5z" id="svg_2"/>
        <path d="m51.25,85l33.75,0l0,-70l-33.75,0l0,70zm31.25,-67.5l-2.5,5l-23.75,0l-2.5,-5l28.75,0zm-26.25,7.5l23.75,0l2.5,57.5l-28.75,0l2.5,-57.5z" id="svg_3"/>
    </g>
</svg>