<svg width="100" height="100" xmlns="http://www.w3.org/2000/svg" xmlns:svg="http://www.w3.org/2000/svg">
 <g>
  <title>Layer 1</title>
  <path d="m49.00001,11.3125c15.2828,0 27.67442,10.40717 27.67442,23.24217c0,12.63794 -9.06831,14.11133 -10.77325,27.89063c0,1.28662 -1.23547,2.32422 -2.76746,2.32422l-28.26743,0c-1.53197,0 -2.76743,-1.0376 -2.76743,-2.32422l-0.00615,0c-1.69881,-13.7793 -10.76711,-15.25269 -10.76711,-27.89063c0,-12.835 12.39182,-23.24217 27.6744,-23.24217m13.8372,55.78122c1.53197,0 2.76746,1.0376 2.76746,2.32422s-1.23548,2.32422 -2.76746,2.32422l-27.67439,0c-1.53198,0 -2.76744,-1.0376 -2.76744,-2.32422s1.23546,-2.32422 2.76744,-2.32422l27.67439,0m0,6.97266c1.53197,0 2.76746,1.0376 2.76746,2.32422s-1.23548,2.32422 -2.76746,2.32422l-27.67439,0c-1.53198,0 -2.76744,-1.0376 -2.76744,-2.32422s1.23546,-2.32422 2.76744,-2.32422l27.67439,0m-2.76743,6.97266c0,2.5681 -2.47707,4.64844 -5.5349,4.64844l-11.06974,0c-3.05784,0 -5.5349,-2.08034 -5.5349,-4.64844l22.13954,0m-11.06978,-75.03903c-18.74823,0 -33.99998,12.8091 -33.99998,28.55467c0,7.90649 3.07641,12.44603 5.78197,16.4563c2.29796,3.39304 4.28716,6.33449 4.99741,11.8027c0.06801,1.21408 0.48194,2.35543 1.15521,3.35667c-0.55585,0.98563 -0.86483,2.08549 -0.86483,3.2476c0,1.25558 0.3584,2.43845 1.00083,3.48633c-0.64245,1.04807 -1.00083,2.23093 -1.00083,3.48633c0,3.27367 2.4648,6.07001 5.91798,7.15428c1.32185,4.28519 5.96719,7.45509 11.47738,7.45509l11.06974,0c5.51017,0 10.15553,-3.16991 11.47757,-7.45509c3.45298,-1.08427 5.91779,-3.88062 5.91779,-7.15428c0,-1.25556 -0.36452,-2.43842 -1.00696,-3.48633c0.64244,-1.04804 1.00696,-2.2309 1.00696,-3.48633c0,-1.16211 -0.30898,-2.26196 -0.86483,-3.24245c0.67328,-1.00654 1.08109,-2.15304 1.14908,-3.36696c0.71656,-5.46289 2.69945,-8.39938 4.99741,-11.79756c2.71189,-4.00513 5.7881,-8.5498 5.7881,-16.4563c0,-15.74557 -15.25176,-28.55467 -33.99999,-28.55467l0,0l0,0z" id="svg_1" fill="black"/>
 </g>
</svg>