<svg width="100" height="100" xmlns="http://www.w3.org/2000/svg" xmlns:svg="http://www.w3.org/2000/svg">
 <g>
  <title>Layer 1</title>
  <g id="svg_1">
   <path fill="black" d="m68.57339,40.85386l-1.56483,0l0,-6.44892c0,-10.42265 -7.62994,-18.90444 -17.00936,-18.90444c-9.37783,0 -17.00776,8.48002 -17.00776,18.90444l0,6.44892l-1.56323,0c-3.11056,0 -5.63211,2.80072 -5.63211,6.25783l0,6.48608l48.40941,0l0,-6.48608c-0.00159,-3.45535 -2.52474,-6.25783 -5.63211,-6.25783zm-8.44817,0l-20.25204,0l0,-6.44892c0,-6.20653 4.54325,-11.2542 10.12601,-11.2542c5.58436,0 10.12762,5.04944 10.12762,11.2542l0,6.44892l-0.00159,0z" id="svg_4"/>
   <rect fill="black" x="25.7945" y="56.37903" width="48.40941" height="13.77362" id="svg_5"/>
   <path stroke="null" d="m25.7945,78.23989c0,3.45712 2.52155,6.25961 5.63211,6.25961l37.14678,0c3.10737,0 5.63052,-2.80249 5.63052,-6.25961l0,-5.30598l-48.4094,0l0,5.30598z" id="svg_6"/>
  </g>
 </g>
</svg>