<svg width="512" height="512" xmlns="http://www.w3.org/2000/svg" xmlns:svg="http://www.w3.org/2000/svg">
 <g>
  <title>Layer 1</title>
  <path d="m459.2,230.6l-50.8,0l0,-76.2c0,-84 -68.4,-152.4 -152.4,-152.4c-84,0 -152.4,68.4 -152.4,152.4l0,76.2l-50.8,0c-14,0 -25.4,11.4 -25.4,25.4l0,228.6c0,14 11.4,25.4 25.4,25.4l406.4,0c14,0 25.4,-11.4 25.4,-25.4l0,-228.6c0,-14 -11.4,-25.4 -25.4,-25.4zm-304.8,-76.2c0,-56 45.6,-101.6 101.6,-101.6c56,0 101.6,45.6 101.6,101.6l0,76.2l-203.2,0l0,-76.2z" id="svg_1"/>
 </g>
</svg>
