<svg width="100" height="100" xmlns="http://www.w3.org/2000/svg">
  <g>
    <title>Layer 1</title>
    <path d="m25.449,77.075l0,17.11501l51.849,0l0,-17.11501l-51.849,0zm22.578,5.686l0,-1.357l7.554,0l0,1.357l-7.554,0z" id="svg_1"/>
    <path d="m53.549,5.901l0,70.188l23.749,0l0,-70.188l-23.749,0zm4.695,39.441l-1.447,0l0,-8.695l1.447,0l0,8.695zm12.354,-25.154l-10.348,0c-0.635,0 -1.149,-0.418 -1.149,-0.932c0,-0.514 0.515,-0.933 1.149,-0.933l10.349,0c0.636,0 1.151,0.418 1.151,0.933c0,0.513 -0.516,0.932 -1.152,0.932zm0,-3.262l-10.348,0c-0.635,0 -1.149,-0.417 -1.149,-0.932c0,-0.514 0.515,-0.931 1.149,-0.931l10.349,0c0.636,0 1.151,0.417 1.151,0.931c0,0.515 -0.516,0.932 -1.152,0.932zm0,-3.26l-10.348,0c-0.636,0 -1.149,-0.417 -1.149,-0.933c0,-0.513 0.514,-0.93 1.149,-0.93l10.349,0c0.634,0 1.151,0.417 1.151,0.93c0,0.516 -0.518,0.933 -1.152,0.933z" id="svg_2"/>
    <rect x="25.449" y="95.178" width="51.849" height="4.822" id="svg_3"/>
    <polygon points="78.88999938964844,0 78.30599975585938,0 24.44700050354004,0 23.28499984741211,0 23,0 23,100 24.44700050354004,100 24.44700050354004,4.822999954223633 78.30599975585938,4.822999954223633 78.30599975585938,100 79.75299835205078,100 79.75299835205078,0 " id="svg_4"/>
    <path d="m40.61,26.661l2.507,-2.505l-6.987,0l2.492,2.491c0.551,0.552 1.444,0.558 1.988,0.014z" id="svg_5"/>
    <path d="m46.968,24.155l-2.894,0l-2.985,2.984c-0.402,0.401 -0.93,0.602 -1.461,0.602c-0.537,0 -1.076,-0.206 -1.486,-0.617l-2.971,-2.97l-2.967,0l-6.009,4.387l3.019,4.134l2.99,-2.182l0,16.068l14.764,0l0,-16.067l2.99,2.182l3.019,-4.134l-6.009,-4.387z" id="svg_6"/>
    <path d="m52.362,19.292l-11.254,0c-0.043,-0.052 -0.084,-0.107 -0.134,-0.154c-0.165,-0.149 -0.36,-0.264 -0.586,-0.342c-0.225,-0.08 -0.477,-0.119 -0.752,-0.119c-0.304,0 -0.58,0.053 -0.827,0.158c-0.246,0.105 -0.455,0.254 -0.624,0.444c-0.003,0.004 -0.006,0.009 -0.009,0.013l-12.569,0l0,1.583l15.026,0c-0.005,0.014 -0.006,0.032 -0.012,0.045c-0.064,0.152 -0.15,0.292 -0.259,0.417c-0.109,0.126 -0.226,0.247 -0.352,0.361c-0.126,0.114 -0.246,0.239 -0.36,0.374s-0.211,0.289 -0.291,0.462c-0.079,0.172 -0.125,0.382 -0.136,0.629l0,0.413l0.747,0l0,-0.343c0,-0.153 0.022,-0.289 0.066,-0.409c0.044,-0.121 0.103,-0.232 0.176,-0.334c0.074,-0.103 0.155,-0.2 0.247,-0.291c0.09,-0.091 0.184,-0.18 0.277,-0.269c0.094,-0.093 0.186,-0.19 0.277,-0.29c0.09,-0.099 0.171,-0.208 0.242,-0.326c0.071,-0.117 0.128,-0.248 0.172,-0.391c0.005,-0.016 0.006,-0.034 0.011,-0.049l10.925,0l0,-1.582l-0.001,0z" id="svg_7"/>
    <path d="m44.59,74.512c-0.074,1.041 0.396,1.358 0.396,1.358l0.908,0.061l0.874,0.253c0,0 0.55,-0.14 0.835,-1.143c0.285,-1.006 2.208,-12.729 2.208,-12.729l1.828,-17.605c0.517,0.017 0.942,-0.191 1,-0.521c0.067,-0.383 -0.389,-0.784 -1.019,-0.895c-0.63,-0.11 -1.196,0.111 -1.263,0.494c-0.058,0.33 0.271,0.67 0.764,0.83l-4.274,17.176c0,0 -2.183,11.679 -2.257,12.721z" id="svg_8"/>
    <path d="m41.553,71.772l-3.849,-1.741c0,0 -9.163,-1.64899 -10.446,0.825c-1.283,2.475 -2.382,3.02299 -0.091,4.032c2.291,1.007 3.757,1.19 5.956,1.282s7.514,-0.366 7.514,-0.366l2.108,-2.291l-1.192,-1.741zm-4.307,3.117c-1.1,-1.101 -0.092,-3.116 -0.092,-3.116c1.466,-1.375 1.924,0.184 1.924,0.184l0.366,2.199c0.001,-0.001 -1.098,1.831 -2.198,0.733z" id="svg_9"/>
  </g>
</svg>