<svg width="200" height="100" xmlns="http://www.w3.org/2000/svg" xmlns:svg="http://www.w3.org/2000/svg">
 <g>
  <title>Layer 1</title>
  <path id="svg_2" d="m186.72485,79.40156c0,3.66961 -2.62996,6.63768 -5.8819,6.63768l-69.93504,0c-1.65818,0 -3.15446,-0.77003 -4.22556,-2.0237l-46.15714,-53.75939l-47.71223,53.84034c-1.06743,1.20383 -2.53605,1.94483 -4.16111,1.94483c-3.25015,0 -5.88007,-2.97015 -5.88007,-6.6377c0,-1.83272 0.65886,-3.4911 1.72077,-4.68873l51.94146,-58.6121c1.06557,-1.1976 2.5379,-1.94481 4.16115,-1.94481c1.65818,0 3.15631,0.77419 4.22372,2.01952l13.52321,15.75774l36.25579,0l0,-18.46429l15.60471,0l0,18.46429l18.93213,0c1.76126,0 3.34584,0.87798 4.42615,2.2603l31.70816,40.83275c0.90732,1.17062 1.45575,2.70656 1.45575,4.37324l-0.00002,0l0,0.00002l0.00002,0l0,-0.00001l0.00003,0l0.00003,0.00002zm-142.4208,-2.30596l12.83495,0l0,-14.48334l-12.83495,0l0,14.48334zm19.35177,0l12.83302,0l0,-14.48334l-12.83302,0l0,14.48334zm-19.35177,20.72666l12.83495,0l0,-14.48335l-12.83495,0l0,14.48335zm19.35177,0.07472l12.83302,0l0,-14.48543l-12.83302,0l0,14.48543z" fill="#a7a7a7"/>
 </g>

</svg>