<svg width="100" height="50" xmlns="http://www.w3.org/2000/svg" xmlns:svg="http://www.w3.org/2000/svg">
    <g>
        <title>Layer 1</title>
        <g id="svg_1">
            <path id="svg_2" fill="#000000" stroke-width="2" d="m7.85226,12.95792a1.0001,1.0001 0 0 0 -0.9375,1l0,22a1.0001,1.0001 0 0 0 1,1l20,0a1.0001,1.0001 0 0 0 1,-1l0,-22a1.0001,1.0001 0 0 0 -0.8125,-1a1.0001,1.0001 0 0 0 -0.1875,0l-20,0a1.0001,1.0001 0 0 0 -0.0625,0zm1.0625,2l18,0l0,20l-18,0l0,-20zm30.8125,20a1.00438,1.00438 0 0 0 0.1875,2l20,0a1.0001,1.0001 0 1 0 0,-2l-20,0a1.0001,1.0001 0 0 0 -0.1875,0zm32,0a1.00438,1.00438 0 0 0 0.1875,2l20,0a1.0001,1.0001 0 1 0 0,-2l-20,0a1.0001,1.0001 0 0 0 -0.1875,0z"/>
        </g>
    </g>
</svg>