<svg xmlns="http://www.w3.org/2000/svg" xmlns:xlink="http://www.w3.org/1999/xlink" version="1.1" id="Your_Icon" x="0px" y="0px" width="100px" height="100px" viewBox="0 0 100 100" enable-background="new 0 0 100 100" xml:space="preserve">
<g>
	<path fill="#000000" d="M17.264,84.971c0.001-0.009,0.002-0.012,0.002-0.03C17.266,84.923,17.265,84.947,17.264,84.971z"/>
	<path fill="#000000" d="M17.259,85h0.004c0,0,0-0.016,0.001-0.029C17.262,84.994,17.259,85,17.259,85z"/>
	<path fill="#000000" d="M67.736,74.876c-7.649,0-9.163-4.251-9.146-7.667c4.462-2.695,9.194-7.354,11.347-13.685   c0.29,0.176,0.619,0.197,0.993-0.021c2.021-1.182,2.802-10.764,1.632-13.385c-0.579-1.297-1.188-1.127-1.657-0.627   c-0.126-1.638-0.314-3.214-0.586-4.716l1.769,0.612c0,0,0.846-6.639-1.695-12.729l3.071,0.03c-1.737-2.611-4.104-4.149-6.29-5.068   c-2.512-2.64-6.24-4.583-11.765-4.856c0,0-7.285,0.049-8.818,4.601c0,0-4.937-2.826-9.395,1.15c0,0-8.243,5.368-7.668,16.679   l2.246-0.588c-0.322,1.651-0.539,3.398-0.68,5.216c-0.494-0.706-1.241-1.264-1.923,0.307c-1.143,2.633-0.26,12.206,1.773,13.366   c0.396,0.226,0.739,0.184,1.038-0.022c2.126,6.644,6.981,11.454,11.653,14.091c0.062,3.398-1.509,7.451-9.372,7.451   c-8.979,0-16.78,3.983-16.994,9.983h0.005c0.057,1,0.341,2,1.227,2h64.898c1.256,0,1.331-1,1.331-2h0.011   C84.741,79,76.843,74.876,67.736,74.876z"/>
</g>
</svg>