<svg width="100" height="100" xmlns="http://www.w3.org/2000/svg">
 <g>
  <title>Layer 1</title>
  <g fill="#FFFFFF" id="svg_8">
   <circle id="svg_1" r="3.02362" cy="26.525" cx="40.48679"/>
   <circle id="svg_2" r="3.02362" cy="26.525" cx="59.51321"/>
   <path id="svg_3" d="m23.6935,12.5l0,29.4188l23.1108,0l0,2.5049l-23.1108,0.0015l0,43.0748l13.4364,0l10.2265,-10.5855l-5.877,-6.0825l5.877,-6.0832l-1.7179,-1.7775l-7.5935,7.8607l3.3316,3.4493l-6.7233,6.96l-4.9126,0l0,-30.5573l40.5186,0l0,30.5565l-4.9112,0l-6.724,-6.96l3.3323,-3.4492l-7.5956,-7.8608l-1.718,1.7775l5.8777,6.0833l-5.8777,6.0825l10.2273,10.5862l13.4364,0l0,-43.0747l-23.1108,-0.0008l0,-2.505l23.1108,0l0,-29.4195l-52.613,0l0,0l0,0l0,0zm46.5658,23.1593l-40.5186,0l0,-17.3468l40.5186,0l0,17.3468z"/>
   <rect id="svg_4" height="9.642" width="9.641" transform="matrix(0.5123414915263652,-0.5303249999999999,0.5123414915263652,0.5303249999999999,-28.28697557066083,36.33915) " y="104.09882" x="39.06036"/>
   <path d="m56.30818,59.69822c11.67484,6.42709 23.34967,12.95008 35.02452,19.37716c4.14268,2.30225 -2.63625,5.65967 -6.59064,3.35743c-11.67484,-6.42708 -23.16137,-12.85416 -34.83621,-19.28123c-11.48653,6.52301 -23.16138,12.85416 -34.64791,19.28123c-4.14269,2.30224 -10.73332,-1.15112 -6.59064,-3.35743c11.67484,-6.42708 23.34968,-12.95007 35.02452,-19.37716c-11.67484,-6.42707 -23.34968,-12.95008 -35.02452,-19.37716c-4.14269,-2.30224 2.63625,-5.65966 6.59064,-3.35743c11.48653,6.33115 23.16138,12.75823 34.64791,19.18531c11.67484,-6.42708 23.16137,-12.85416 34.83621,-19.28123c4.14268,-2.30224 10.73332,1.15112 6.59064,3.35743c-11.67484,6.523 -23.34969,12.95008 -35.02452,19.47308z" id="svg_7"/>
  </g>
 </g>
</svg>