<svg width="100" height="100" xmlns="http://www.w3.org/2000/svg" xmlns:svg="http://www.w3.org/2000/svg">
 <g>
  <title>Layer 1</title>
  <path d="m41.45163,65.75633l2.15698,6.22916c-2.08887,0.96393 -4.1721,1.6983 -6.20411,2.19012l-1.1863,-6.57014c1.70269,-0.41314 3.46243,-1.03609 5.23343,-1.84915zm-17.29563,8.04539c2.12864,0.70815 4.37081,1.08855 6.66402,1.12779l0.09082,-6.71429c-1.78243,-0.03274 -3.51365,-0.32124 -5.14841,-0.86551l-1.60643,6.452l0,0zm45.7678,-11.71727c1.67455,0.38041 3.30931,1.04261 4.85889,1.96708l2.66794,-5.9669c-2.04346,-1.21297 -4.19481,-2.0852 -6.40283,-2.58353l-1.12399,6.58336zm-12.12452,-5.5078l1.73703,6.39955c1.77664,-0.64269 3.53074,-1.04911 5.22217,-1.20647l-0.46555,-6.68806c-2.12301,0.19661 -4.30832,0.70164 -6.49366,1.49499zm-9.33178,5.04872c-0.65281,0.4721 -1.29419,0.90496 -1.9243,1.31139l2.82686,5.86198c0.7095,-0.4591 1.43606,-0.9442 2.16262,-1.46874c0.99902,-0.71465 1.97534,-1.35084 2.93458,-1.91462l-2.63942,-5.97992c-1.08984,0.64247 -2.21384,1.37034 -3.36035,2.1899zm16.06374,-41.83965c0,2.74089 -0.56762,5.33743 -1.57809,7.61924l-12.95316,29.30932c0,0 -13.05541,-29.55209 -13.10645,-29.67673c-0.91384,-2.18991 -1.42479,-4.6553 -1.42479,-7.25184c0,-9.27159 6.50508,-16.78572 14.53124,-16.78572s14.53125,7.51433 14.53125,16.78572zm-5.8125,0c0,-5.56027 -3.90527,-10.07143 -8.71875,-10.07143s-8.71874,4.51116 -8.71874,10.07143s3.90527,10.07142 8.71874,10.07142s8.71875,-4.51115 8.71875,-10.07142zm20.34375,16.78571l-13.63448,0l-2.96874,6.71428l12.41405,0l6.27223,21.74274l-2.00368,2.5573c2.13428,2.22935 3.2412,4.28162 3.24683,4.28833l0.61304,-0.42615l5.43231,18.83776l-76.87374,0l5.82394,-20.16257c0.20435,0.16388 0.36328,0.32124 0.59033,0.48531l3.08789,-5.67839c-0.69258,-0.50483 -1.26021,-1.00315 -1.75972,-1.46875l5.82394,-20.17559l12.41967,0c-1.23171,-2.78013 -2.20239,-4.97675 -2.96873,-6.71428l-13.64012,0l-17.4375,60.42856l92.99999,0l-17.4375,-60.42856z" id="svg_1" fill="black"/>
 </g>
</svg>