<svg width="50" height="50" xmlns="http://www.w3.org/2000/svg" xmlns:svg="http://www.w3.org/2000/svg">
 <g>
  <title>Layer 1</title>
  <path fill="#000000" d="m25.707,0.804c-10.747,0 -19.489,8.741 -19.489,19.488c0,4.877 1.824,9.555 5.136,13.166l0.006,0.006l-0.004,0.003l14.351,15.109l14.343,-15.109l0,-0.003l0.006,-0.006c3.312,-3.611 5.14,-8.289 5.14,-13.166c-0.001,-10.747 -8.743,-19.488 -19.489,-19.488zm12.752,30.402l-0.514,0.562c-0.095,0.134 -0.231,0.263 -0.368,0.394l0.005,0.002l-11.875,12.509l-11.875,-12.511l0,-0.003c-0.131,-0.128 -0.268,-0.255 -0.359,-0.386l-0.428,-0.567l-0.095,0c-2.612,-3.053 -4.044,-6.903 -4.044,-10.914c0,-9.261 7.535,-16.8 16.802,-16.8c9.261,0 16.8,7.539 16.8,16.8c-0.001,4.008 -1.435,7.861 -4.049,10.914z" id="svg_4"/>
  <g id="svg_3">
   <path id="svg_1" d="m28.9017,5.5c-1.30374,0 -2.35379,1.22411 -2.35379,2.74501s1.05005,2.74501 2.35379,2.74501c1.30402,0 2.35407,-1.22411 2.35407,-2.74501s-1.05005,-2.74501 -2.35407,-2.74501z"/>
   <path id="svg_2" d="m18.13987,8.63702c-1.30402,0 -2.35407,1.22411 -2.35407,2.74501c0,1.52091 1.05005,2.74501 2.35407,2.74501c1.3043,0 2.35435,-1.22411 2.35435,-2.74501s-1.05033,-2.74501 -2.35435,-2.74501z"/>
   <path id="svg_5" d="m30.58343,11.77436c-0.50144,0 -1.32718,0.21115 -2.0179,0.78434l-4.37225,3.62752c-1.18622,0.98429 -0.09775,2.71668 1.00881,1.86284l2.85918,-2.20576c0,0 1.88427,4.71228 1.17661,6.91178c-0.02345,0.07379 -0.0435,0.14 -0.04153,0.196l-2.94309,9.11754c-0.3373,1.05017 0.31188,1.67738 0.96672,1.66717c0.42968,-0.00692 0.84072,-0.30306 1.05147,-0.8825l3.65724,-10.09854c0,0 0.67291,4.70536 3.36288,4.70602c1.61675,0.00033 2.80296,0 3.69962,0c1.00881,0 1.00881,-1.17667 1.00881,-1.17667s0,-1.17634 -1.00881,-1.17634c-0.67292,0 -2.35407,-0.00033 -3.02699,0c-1.43566,0 -1.34498,-2.51343 -1.34498,-3.92168c0,-2.35301 -1.34583,-6.27403 -1.34583,-6.27403l4.03579,3.13702c1.21927,0.94805 2.27582,-0.73064 1.09328,-1.76468l-4.45616,-3.72568c-0.8119,-0.67431 -1.07209,-0.78401 -2.01789,-0.78434c0.00028,0 -0.67263,0 -1.34498,0l0,0z"/>
   <path id="svg_6" d="m16.45843,14.91171c-0.67263,0 -0.99073,0.37092 -1.34527,0.78401l-2.85862,3.33368c-0.3681,0.42923 -0.50455,0.81332 -0.50455,1.37267c0,0.78401 1.0283,1.15394 1.59754,0.48984l2.43826,-2.84285c1.34526,0 1.84953,3.92168 1.34526,5.49036l-2.0179,6.27469c-0.55907,1.73767 1.53934,2.2723 2.0179,0.78434l2.0179,-6.27436c0,0 0.67263,1.56834 2.0179,1.56834l4.0358,0c1.34555,0 1.34555,-2.35301 0,-2.35301l-3.36344,0c-0.67263,0 -0.67263,-1.56867 -0.67263,-2.35334c0,-3.13701 -1.34526,-6.27403 -2.69025,-6.27403l-2.0179,0l0,-0.00033z"/>
  </g>
 </g>
</svg>