<svg width="50" height="50" xmlns="http://www.w3.org/2000/svg" xmlns:svg="http://www.w3.org/2000/svg">
 <g>
  <title>Layer 1</title>
  <path fill="#000000" d="m25.707,0.804c-10.747,0 -19.489,8.741 -19.489,19.488c0,4.877 1.824,9.555 5.136,13.166l0.006,0.006l-0.004,0.003l14.351,15.109l14.343,-15.109l0,-0.003l0.006,-0.006c3.312,-3.611 5.14,-8.289 5.14,-13.166c-0.001,-10.747 -8.743,-19.488 -19.489,-19.488zm12.752,30.402l-0.514,0.562c-0.095,0.134 -0.231,0.263 -0.368,0.394l0.005,0.002l-11.875,12.509l-11.875,-12.511l0,-0.003c-0.131,-0.128 -0.268,-0.255 -0.359,-0.386l-0.428,-0.567l-0.095,0c-2.612,-3.053 -4.044,-6.903 -4.044,-10.914c0,-9.261 7.535,-16.8 16.802,-16.8c9.261,0 16.8,7.539 16.8,16.8c-0.001,4.008 -1.435,7.861 -4.049,10.914z" id="svg_4"/>
  <path fill="black" id="svg_1" d="m36.37903,29.1377l0,-20.1377l-3.65865,0l0,9.94334l-5.92866,-4.14773l0,4.14375l-5.92246,-4.14375l0,4.1567l-5.99901,-4.1567l0,14.34209l-1.00725,0l0,1.1123l23.523,0l0,-1.1123l-1.00697,0zm-17.49058,-1.99053l-1.88889,0l0,-2.3272l1.88889,0l0,2.3272zm0,-4.74174l-1.88889,0l0,-2.32721l1.88889,0l0,2.32721zm5.82732,4.74174l-1.88889,0l0,-2.3272l1.88889,0l0,2.3272zm0,-4.74174l-1.88889,0l0,-2.32721l1.88889,0l0,2.32721zm5.82732,4.74174l-1.88916,0l0,-2.3272l1.88916,0l0,2.3272zm0,-4.74174l-1.88916,0l0,-2.32721l1.88916,0l0,2.32721z"/>
 </g>
</svg>