<svg width="50" height="50" xmlns="http://www.w3.org/2000/svg" xmlns:svg="http://www.w3.org/2000/svg">
 <g>
  <title>Layer 1</title>
  <path fill="#000000" d="m25.707,0.804c-10.747,0 -19.489,8.741 -19.489,19.488c0,4.877 1.824,9.555 5.136,13.166l0.006,0.006l-0.004,0.003l14.351,15.109l14.343,-15.109l0,-0.003l0.006,-0.006c3.312,-3.611 5.14,-8.289 5.14,-13.166c-0.001,-10.747 -8.743,-19.488 -19.489,-19.488zm12.752,30.402l-0.514,0.562c-0.095,0.134 -0.231,0.263 -0.368,0.394l0.005,0.002l-11.875,12.509l-11.875,-12.511l0,-0.003c-0.131,-0.128 -0.268,-0.255 -0.359,-0.386l-0.428,-0.567l-0.095,0c-2.612,-3.053 -4.044,-6.903 -4.044,-10.914c0,-9.261 7.535,-16.8 16.802,-16.8c9.261,0 16.8,7.539 16.8,16.8c-0.001,4.008 -1.435,7.861 -4.049,10.914z" id="svg_4"/>
  <g id="svg_3">
   <path id="svg_1" d="m41.703,17.93836l-0.04563,-0.0181l0.00472,-0.0017l-15.70652,-6.22157l-10.53416,4.17316c-0.20171,-0.1547 -0.46006,-0.25199 -0.74673,-0.25199c-0.62369,0 -1.12938,0.44656 -1.14983,1.00313l-3.27485,1.29725l3.26982,1.29528l0,4.20654l-0.62495,0l-0.65075,7.08103l3.63044,0l-0.65075,-7.08103l-0.61331,0l0,-3.77412l0.85655,0.33937l-0.00441,0.00113l1.90128,0.75313c0,1.43216 0,4.35982 0,5.48286c0,1.91774 8.21152,4.40224 8.59291,4.40224s8.59323,-2.4845 8.59323,-4.40224c0,-1.11541 0,-4.008 0,-5.4509l7.15294,-2.83349zm-8.77889,8.05532c-0.72218,0.62671 -3.82113,2.17821 -6.9676,2.77636c-3.09454,-0.58825 -6.24604,-2.15644 -6.9676,-2.77664l0,-4.60983l7.00788,2.77579l6.92732,-2.74384l0,4.57815z" fill="#000000"/>
  </g>
 </g>
</svg>