<svg width="50" height="50" xmlns="http://www.w3.org/2000/svg" xmlns:svg="http://www.w3.org/2000/svg">
 <g>
  <title>Layer 1</title>
  <path id="svg_4" d="m25.707,0.804c-10.747,0 -19.489,8.741 -19.489,19.488c0,4.877 1.824,9.555 5.136,13.166l0.006,0.006l-0.004,0.003l14.351,15.109l14.343,-15.109l0,-0.003l0.006,-0.006c3.312,-3.611 5.14,-8.289 5.14,-13.166c-0.001,-10.747 -8.743,-19.488 -19.489,-19.488zm12.752,30.402l-0.514,0.562c-0.095,0.134 -0.231,0.263 -0.368,0.394l0.005,0.002l-11.875,12.509l-11.875,-12.511l0,-0.003c-0.131,-0.128 -0.268,-0.255 -0.359,-0.386l-0.428,-0.567l-0.095,0c-2.612,-3.053 -4.044,-6.903 -4.044,-10.914c0,-9.261 7.535,-16.8 16.802,-16.8c9.261,0 16.8,7.539 16.8,16.8c-0.001,4.008 -1.435,7.861 -4.049,10.914z" fill="#000000"/>
  <g id="svg_3">
   <path id="svg_1" d="m25.11956,24.88194l-5.13587,0l0,6.63778l-2.03804,0l0,-22.145l0.70652,-1.11583l13.77717,0l0.70652,1.11583l0,7.9825c0.43478,0.14305 0.84239,0.37194 1.19565,0.65805l0,-9.0125l-1.25,-2.00278l-15.08152,0l-1.25,2.00278l0,23.74722l11.68478,0l0,-1.25889l-3.31522,0l0,-6.60917zm-1.19565,6.60917l-2.77174,0l0,-5.37889l2.77174,0l0,5.37889zm9.21196,0l-0.86957,0l0,1.25889l2.06522,0l0,-5.95111c-0.35326,0.28611 -0.76087,0.45778 -1.19565,0.54361l0,4.14861zm-2.03804,-20.02778l-11.11413,0l0,1.03l11.08696,0l0,-1.03l0.02718,0zm0,2.28889l-11.11413,0l0,1.03l11.08696,0l0,-1.03l0.02718,0zm-2.17392,2.28889l-8.94022,0l0,1.03l7.85326,0c0.27174,-0.40056 0.65217,-0.7725 1.08696,-1.03zm-8.94022,3.3475l5.59783,0c0.1087,-0.37194 0.32609,-0.74389 0.57065,-1.03l-6.16848,0l0,1.03zm15.08152,2.86111c-0.16304,-0.34333 -0.43478,-0.62944 -0.7337,-0.80111c-0.02717,0 -0.05435,-0.02861 -0.05435,-0.02861c0.02718,-0.08583 0.05435,-0.14305 0.05435,-0.22889c0.08152,-0.34333 0.08152,-0.68667 0,-1.03c-0.02717,-0.17167 -0.08152,-0.34333 -0.16304,-0.515c-0.21739,-0.48639 -0.59782,-0.82972 -1.00543,-1.03c-0.27174,-0.14306 -0.59783,-0.20028 -0.89674,-0.20028c-0.05435,0 -0.13587,0 -0.19022,0c-0.02718,-0.17167 -0.08152,-0.37195 -0.16304,-0.54361c-0.29892,-0.62944 -0.86957,-1.00139 -1.49457,-1.03c-0.02717,0 -0.08152,0 -0.1087,0c-0.27174,0 -0.54348,0.05722 -0.81522,0.20028c-0.02717,0.02861 -0.08152,0.02861 -0.1087,0.05722c-0.46196,0.28611 -0.7337,0.74389 -0.84239,1.25889c0,0.02861 -0.02717,0.08583 -0.02717,0.11444c-0.08152,0 -0.13587,0 -0.21739,0c-0.27174,0 -0.54348,0.05722 -0.78804,0.20028c-0.32609,0.17167 -0.57065,0.42917 -0.73369,0.71528c-0.19022,0.34333 -0.27174,0.74389 -0.24457,1.17306c-0.5163,0.2575 -0.89674,0.7725 -0.97826,1.43056c-0.08152,0.57222 0.08152,1.08722 0.40761,1.48778c-0.19022,0.2575 -0.29891,0.54361 -0.35326,0.85833c-0.13587,1.03 0.54348,2.00278 1.52174,2.14583c0.08152,0 0.16304,0.02861 0.24457,0.02861c0.29891,0 0.59783,-0.08583 0.86956,-0.22889c0.29891,0.42917 0.7337,0.74389 1.27717,0.88694l0,5.57917l1.65761,0l0,-5.9225c0.16304,-0.11444 0.32609,-0.2575 0.46196,-0.42917l0.02718,0c0.24456,0 0.48913,-0.05722 0.73369,-0.17167c0.08152,0 0.13587,0 0.21739,0c0.19022,0 0.35326,-0.02861 0.51631,-0.08583c0.57065,-0.17167 1.00543,-0.65806 1.19565,-1.2875c0.02718,-0.05722 0.02718,-0.11444 0.02718,-0.14306c0.81522,-0.48639 1.1413,-1.57361 0.70652,-2.46056z"/>
  </g>
 </g>
</svg>