<svg width="50" height="50" xmlns="http://www.w3.org/2000/svg" xmlns:svg="http://www.w3.org/2000/svg">
 <g>
  <title>Layer 1</title>
  <path id="svg_4" d="m25.707,0.804c-10.747,0 -19.489,8.741 -19.489,19.488c0,4.877 1.824,9.555 5.136,13.166l0.006,0.006l-0.004,0.003l14.351,15.109l14.343,-15.109l0,-0.003l0.006,-0.006c3.312,-3.611 5.14,-8.289 5.14,-13.166c-0.001,-10.747 -8.743,-19.488 -19.489,-19.488zm12.752,30.402l-0.514,0.562c-0.095,0.134 -0.231,0.263 -0.368,0.394l0.005,0.002l-11.875,12.509l-11.875,-12.511l0,-0.003c-0.131,-0.128 -0.268,-0.255 -0.359,-0.386l-0.428,-0.567l-0.095,0c-2.612,-3.053 -4.044,-6.903 -4.044,-10.914c0,-9.261 7.535,-16.8 16.802,-16.8c9.261,0 16.8,7.539 16.8,16.8c-0.001,4.008 -1.435,7.861 -4.049,10.914z" fill="#000000"/>
  <g id="svg_3">
   <polygon fill="black" id="svg_1" points="36.307735443115234,8.605912208557129 33.15921211242676,8.605912208557129 33.15921211242676,11.652135848999023 36.307735443115234,15.307049751281738 " clip-rule="evenodd" fill-rule="evenodd"/>
   <path fill="black" id="svg_2" d="m38.23024,19.66328l-12.28481,-14.26392c-0.36229,-0.42036 -1.02857,-0.42036 -1.39087,0l-12.28454,14.26392c-0.36203,0.42036 -0.36203,1.1943 0,1.61466s1.02857,0.42036 1.39086,0l0,8.34288c0,0.33666 0.40549,0.80718 0.69543,0.80718l21.55573,0c0.28994,0 0.69543,-0.47052 0.69543,-0.80718l0,-8.61215l0.2319,0.26926c0.36176,0.41974 1.02884,0.41974 1.39087,0c0.36176,-0.41974 0.36176,-1.19461 0,-1.61466zm-3.01363,0.26896l0,8.34288c0,0.33666 -0.17386,0.53822 -0.46354,0.53822l-5.79455,0l0,-8.34288c0,-1.00905 -0.75294,-1.61466 -1.62276,-1.61466l-4.17179,0c-0.86955,0 -1.6225,0.60561 -1.6225,1.61466l0,8.34288l-6.02619,0c-0.28994,0 -0.46353,-0.47083 -0.46353,-0.80718l0,-7.80466c0,-0.15294 0.16299,-0.54776 0.34082,-0.93396l9.74558,-11.31587l3.37194,3.65522l6.51808,7.56863c0.10071,0.30558 0.18843,0.61331 0.18843,0.75671z" clip-rule="evenodd" fill-rule="evenodd"/>
  </g>
 </g>
</svg>