<svg width="50" height="50" xmlns="http://www.w3.org/2000/svg" xmlns:svg="http://www.w3.org/2000/svg">
 <g>
  <title>Layer 1</title>
  <path id="svg_4" d="m25.957,0.804c-10.747,0 -19.489,8.741 -19.489,19.488c0,4.877 1.824,9.555 5.136,13.166l0.006,0.006l-0.004,0.003l14.351,15.109l14.343,-15.109l0,-0.003l0.006,-0.006c3.312,-3.611 5.14,-8.289 5.14,-13.166c-0.001,-10.747 -8.743,-19.488 -19.489,-19.488zm12.752,30.402l-0.514,0.562c-0.095,0.134 -0.231,0.263 -0.368,0.394l0.005,0.002l-11.875,12.509l-11.875,-12.511l0,-0.003c-0.131,-0.128 -0.268,-0.255 -0.359,-0.386l-0.428,-0.567l-0.095,0c-2.612,-3.053 -4.044,-6.903 -4.044,-10.914c0,-9.261 7.535,-16.8 16.802,-16.8c9.261,0 16.8,7.539 16.8,16.8c-0.001,4.008 -1.435,7.861 -4.049,10.914z" fill="#000000"/>
  <rect id="svg_1" height="4.21086" width="2.15988" fill="#000000" y="24.47964" x="24.843"/>
  <rect id="svg_2" height="2.6826" width="2.11536" fill="#000000" y="20.48343" x="22.55669"/>
  <rect id="svg_5" height="2.6826" width="2.11536" fill="#000000" y="20.48343" x="27.00288"/>
  <path id="svg_7" d="m39.96602,23.08305c1.22003,0 2.20962,-1.22413 2.20962,-2.73379c0,-1.51049 -0.98959,-2.73378 -2.20962,-2.73378c-0.09091,0 -0.18014,0.00865 -0.26838,0.02183c0.02962,-0.12319 0.05094,-0.25092 0.05094,-0.38648c0,-0.74247 -0.48648,-1.34403 -1.08651,-1.34403c-0.31267,0 -0.59202,0.16522 -0.79014,0.42686c0,-0.00412 0,-0.00783 0,-0.01153c0,-1.96865 -1.28961,-3.56442 -2.88057,-3.56442c-0.55539,0 -1.0725,0.19777 -1.51237,0.53439c-0.40424,-0.64151 -1.03356,-1.05603 -1.74179,-1.05603c-1.1734,0 -2.13071,1.13307 -2.20263,2.56279l-0.10388,-0.06798l-3.14562,-2.04652l-3.05338,1.88913l0,-1.04901l-1.8277,0l0,2.18002l-3.25283,2.01274l0.54075,1.33785l1.19904,-0.74206l0,1.44373l-7.45896,0l0,8.93186l1.22202,0l-0.01332,-1.95752l0,-5.47828l6.2496,0l0,7.43621l1.2087,0l0,-1.49606l0,-1.01646l0,-8.6109l5.1721,-3.20019l4.80016,3.12355l0,9.704l-0.004,0l0,1.49606l1.21303,0l0,-4.37364c0.23075,-0.04861 0.45385,-0.12444 0.66562,-0.2295l1.81737,4.61508l1.27697,0l-1.23167,-3.1285l1.62325,-1.75976c0.21544,0.06345 0.43853,0.10094 0.66961,0.10094c0.79215,0 1.50804,-0.39555 2.02882,-1.035c0.25805,0.13144 0.53975,0.20437 0.83577,0.20437l0.00001,0.00002zm-5.67922,1.16562l-0.36328,-0.92252c0.28869,-0.32468 0.53011,-0.71156 0.70991,-1.14543c0.17814,0.36752 0.40789,0.69302 0.6776,0.95878l-1.02423,1.10917l0,-0.00001z" fill="#000000"/>
 </g>
</svg>