<svg xmlns="http://www.w3.org/2000/svg" xmlns:xlink="http://www.w3.org/1999/xlink" version="1.1" id="Your_Icon" x="0px" y="0px" viewBox="0 0 612 792" enable-background="new 0 0 612 792" xml:space="preserve" height="100px" width="100px">
<g>
	<path d="M386.454,372.365H54.266c-13.072,0-23.666,10.594-23.666,23.66v72.289c0,13.066,10.594,23.666,23.666,23.666h45.747   l65.71,69.407V491.98H386.46c13.066,0,23.666-10.594,23.666-23.666v-72.289C410.12,382.958,399.526,372.365,386.454,372.365z    M82.547,407.163h236.25c3.684,0,6.671,2.987,6.671,6.671c0,3.684-2.987,6.671-6.671,6.671H82.547   c-3.684,0-6.671-2.987-6.671-6.671C75.876,410.149,78.862,407.163,82.547,407.163z M348.326,451.429H82.547   c-3.641,0-6.591-2.95-6.591-6.591c0-3.641,2.95-6.591,6.591-6.591h265.779c3.641,0,6.591,2.95,6.591,6.591   C354.917,448.479,351.967,451.429,348.326,451.429z"/>
	<path d="M557.734,230.613H225.54c-13.066,0-23.666,10.594-23.666,23.666v72.289c0,13.066,10.594,23.666,23.666,23.666h220.736   v69.407l65.71-69.407h45.747c13.066,0,23.666-10.594,23.666-23.666v-72.289C581.4,241.207,570.806,230.613,557.734,230.613z    M499.924,310.094h-236.25c-3.868,0-7.001-3.133-7.001-7.001c0-3.868,3.133-7.001,7.001-7.001h236.25   c3.868,0,7.001,3.133,7.001,7.001C506.926,306.96,503.792,310.094,499.924,310.094z M529.453,278.729H263.674   c-3.672,0-6.646-2.974-6.646-6.646c0-3.672,2.974-6.646,6.646-6.646h265.779c3.672,0,6.646,2.974,6.646,6.646   C536.1,275.754,533.125,278.729,529.453,278.729z"/>
</g>
</svg>