<svg width="100" height="100" xmlns="http://www.w3.org/2000/svg" xmlns:svg="http://www.w3.org/2000/svg">
 <g>
  <title>Layer 1</title>
  <g id="svg_4">
   <path fill="black" d="m88.046,46l0,-14l-71.692,0l-2.288,-4l73.98,0l0,-10c0,-1.1 -0.896,-2 -2,-2l-80,0c-0.712,0 -1.372,0.38 -1.732,0.996c-0.36,0.616 -0.36,1.38 -0.004,1.996l16,28c0.356,0.624 1.02,1.008 1.736,1.008l64,0c1.104,0 2,-0.9 2,-2z" id="svg_1"/>
   <path d="m4.046,42c0,1.1 0.896,2 2,2l7.944,0l-9.944,-17.408l0,15.408z" id="svg_2"/>
   <path d="m92.046,64l-2,0c-1.1,0 -2,0.9 -2,2l0,2l-24,0l0,-16l-12,0l0,26c0,1.1 0.9,2 2,2l34,0l0,2c0,1.1 0.9,2 2,2l6,0l0,-20l-4,0z" id="svg_3"/>
  </g>
 </g>
</svg>