<svg width="100" height="100" xmlns="http://www.w3.org/2000/svg" xmlns:svg="http://www.w3.org/2000/svg">
    <g>
        <title>Layer 1</title>
        <g id="svg_1">
            <path  d="m89.50002,84.4375c0,5.24663 -4.25333,9.5 -9.50003,9.5c-5.24672,0 -9.5,-4.25337 -9.5,-9.5c0,-5.24677 4.25328,-9.5 9.5,-9.5c5.2467,0 9.50003,4.25323 9.50003,9.5zm0,-34.4375c0,5.24662 -4.25333,9.5 -9.50003,9.5c-5.24672,0 -9.5,-4.25338 -9.5,-9.5c0,-5.24677 4.25328,-9.5 9.5,-9.5c5.2467,0 9.50003,4.25323 9.50003,9.5zm0,-34.4375c0,5.24662 -4.25333,9.5 -9.50003,9.5c-5.24672,0 -9.5,-4.25338 -9.5,-9.5c0,-5.24677 4.25328,-9.5 9.5,-9.5c5.2467,0 9.50003,4.25323 9.50003,9.5z" fill="#000000" id="svg_2"/>
        </g>
    </g>
</svg>