<svg width="100" height="100" xmlns="http://www.w3.org/2000/svg" xmlns:svg="http://www.w3.org/2000/svg">
    <title>ic_more_filled</title>
    <desc>Created with Sketch.</desc>
    <g>
        <title>Layer 1</title>
        <g fill="none" fill-rule="evenodd" id="svg_1">
            <g fill="#000000" id="svg_2">
                <path d="m17.14286,63.14286c7.25858,0 13.14286,-5.88428 13.14286,-13.14286c0,-7.25858 -5.88428,-13.14286 -13.14286,-13.14286c-7.25858,0 -13.14286,5.88428 -13.14286,13.14286c0,7.25858 5.88428,13.14286 13.14286,13.14286zm0,-6.57143c3.62931,0 6.57143,-2.94212 6.57143,-6.57143c0,-3.62931 -2.94212,-6.57143 -6.57143,-6.57143c-3.62931,0 -6.57143,2.94212 -6.57143,6.57143c0,3.62931 2.94212,6.57143 6.57143,6.57143z" id="svg_3"/>
                <path d="m50,63.14286c7.25858,0 13.14286,-5.88428 13.14286,-13.14286c0,-7.25858 -5.88428,-13.14286 -13.14286,-13.14286c-7.25858,0 -13.14286,5.88428 -13.14286,13.14286c0,7.25858 5.88428,13.14286 13.14286,13.14286zm0,-6.57143c3.62931,0 6.57143,-2.94212 6.57143,-6.57143c0,-3.62931 -2.94211,-6.57143 -6.57143,-6.57143c-3.62931,0 -6.57143,2.94212 -6.57143,6.57143c0,3.62931 2.94212,6.57143 6.57143,6.57143z" id="svg_4"/>
                <path d="m82.85714,63.14286c7.25859,0 13.14286,-5.88428 13.14286,-13.14286c0,-7.25858 -5.88427,-13.14286 -13.14286,-13.14286c-7.25858,0 -13.14285,5.88428 -13.14285,13.14286c0,7.25858 5.88427,13.14286 13.14285,13.14286zm0,-6.57143c3.62932,0 6.57143,-2.94212 6.57143,-6.57143c0,-3.62931 -2.94212,-6.57143 -6.57143,-6.57143c-3.62931,0 -6.57143,2.94212 -6.57143,6.57143c0,3.62931 2.94212,6.57143 6.57143,6.57143z" id="svg_5"/>
            </g>
        </g>
    </g>
</svg>