<svg width="100" height="100" xmlns="http://www.w3.org/2000/svg">
 <g>
  <title>Layer 1</title>
  <path fill="black" id="svg_7" d="m22.624,33.001c0,3.105 -2.516,5.623 -5.626,5.623c-3.106,0 -5.623,-2.518 -5.623,-5.623c0,-3.106 2.517,-5.626 5.623,-5.626c3.11,0 5.626,2.52 5.626,5.626z"/>
  <g id="svg_8">
   <rect id="svg_9" height="11.249" width="45.004" y="27.5" x="27.498"/>
   <rect id="svg_10" height="11.246" width="45.004" y="44.378" x="27.498"/>
   <rect id="svg_11" height="11.247" width="45.004" y="61.253" x="27.498"/>
  </g>
  <path id="svg_12" fill="black" d="m22.624,67.001c0,3.105 -2.516,5.623 -5.626,5.623c-3.106,0 -5.623,-2.518 -5.623,-5.623c0,-3.106 2.517,-5.626 5.623,-5.626c3.11,0 5.626,2.52 5.626,5.626z"/>
  <path id="svg_13" fill="black" d="m22.624,50.001c0,3.105 -2.516,5.623 -5.626,5.623c-3.106,0 -5.623,-2.518 -5.623,-5.623c0,-3.106 2.517,-5.626 5.623,-5.626c3.11,0 5.626,2.52 5.626,5.626z"/>
 </g>
</svg>