<svg width="100" height="100" xmlns="http://www.w3.org/2000/svg" xmlns:svg="http://www.w3.org/2000/svg">
 <g>
  <title>Layer 1</title>
  <g id="svg_1">
   <g id="svg_2">
    <g id="svg_3">
     <path id="svg_4" d="m49.945,75.364c-2.673,0 -4.8,-2.127 -4.8,-4.8c0,-2.618 2.127,-4.745 4.8,-4.745c2.618,0 4.745,2.127 4.745,4.745c0.001,2.672 -2.126,4.8 -4.745,4.8z"/>
     <path id="svg_5" d="m49.945,35.109c-2.782,0 -5.455,0.327 -8.018,1.036l3.655,3.655c1.418,-0.218 2.836,-0.327 4.364,-0.327c7.036,0 13.636,2.509 18.927,6.709c1.745,1.364 2.018,3.982 0.655,5.727c-1.418,1.745 -3.982,2.073 -5.782,0.655c-2.945,-2.345 -6.327,-3.927 -9.982,-4.582l24.982,24.982c5.018,-6.273 8.073,-14.236 8.073,-22.964c0,-10.2 -4.145,-19.364 -10.8,-26.018c-6.655,-6.709 -15.873,-10.8 -26.018,-10.8c-8.727,0 -16.636,3 -22.964,8.073l8.345,8.345c4.527,-1.8 9.491,-2.673 14.564,-2.673c10.036,0 19.309,3.6 26.618,9.655c1.745,1.418 2.018,4.036 0.545,5.782c-1.418,1.745 -3.982,1.964 -5.727,0.545c-5.946,-4.909 -13.364,-7.745 -21.437,-7.8zm-28.69,-8.018c-5.073,6.273 -8.073,14.182 -8.073,22.909c0,10.2 4.091,19.364 10.745,26.018c6.709,6.709 15.873,10.8 26.073,10.8c8.673,0 16.691,-3 22.964,-8.073l-16.473,-16.418l-0.164,-0.109c-1.8,-1.309 -3.982,-2.073 -6.382,-2.073c-2.4,0 -4.527,0.709 -6.436,2.073c-1.855,1.309 -4.418,0.873 -5.727,-0.982c-1.309,-1.8 -0.873,-4.364 0.982,-5.673c2.236,-1.636 4.855,-2.782 7.691,-3.273l-3.491,-3.49c-2.509,0.818 -4.8,2.073 -6.927,3.764c-1.8,1.364 -4.364,1.036 -5.782,-0.709c-1.364,-1.8 -1.036,-4.364 0.764,-5.782c1.745,-1.364 3.655,-2.564 5.673,-3.545l-3.109,-3.109c-1.8,0.982 -3.545,2.127 -5.127,3.491c-1.745,1.418 -4.309,1.2 -5.782,-0.545c-1.418,-1.745 -1.2,-4.309 0.545,-5.782c1.364,-1.145 2.836,-2.236 4.364,-3.164l-6.328,-6.328zm-16.255,22.909c0,-24.873 20.127,-45 45,-45c24.818,0 45,20.127 45,45s-20.182,45 -45,45c-24.873,0 -45,-20.127 -45,-45z"/>
    </g>
   </g>
  </g>
 </g>
</svg>