<svg xmlns="http://www.w3.org/2000/svg" xmlns:xlink="http://www.w3.org/1999/xlink" version="1.1" id="Layer_1" x="0px" y="0px" width="100px" height="100px" viewBox="0 0 100 100" enable-background="new 0 0 100 100" xml:space="preserve">
<path d="M50,11.026c-21.525,0-38.974,17.449-38.974,38.974c0,12.283,5.688,23.232,14.567,30.376l-14.567,8.599H50  c21.525,0,38.975-17.449,38.975-38.975C88.975,28.475,71.523,11.026,50,11.026z M49.999,85.507H23.961l8.242-4.786  C21.617,74.574,14.493,63.123,14.493,50c0-19.61,15.896-35.506,35.506-35.506c19.61,0,35.507,15.896,35.507,35.506  C85.506,69.609,69.609,85.507,49.999,85.507z M46.501,69.061L32.377,55.213l4.9-4.998l8.083,7.924l16.762-25.193l5.828,3.878  L46.501,69.061z"/>
</svg>