<svg width="100" height="100" xmlns="http://www.w3.org/2000/svg">
 <metadata/>
 <g>
  <title>Plug</title>
  <path id="svg_1" d="m50.497,1.724c-17.727,0 -40.22,11.276 -37.021,65.276l74.075,0c3.069,-51 -19.372,-65.276 -37.054,-65.276zm27.886,58.276l-56.28,0c-2.43,-40 14.659,-49.596 28.12701,-49.596c13.43499,0 30.48599,10.596 28.15299,49.596z"/>
  <rect id="svg_2" height="35" width="10" y="63" x="60"/>
  <rect id="svg_3" height="35" width="10" y="63" x="32"/>
 </g>
 <g>
  <title>Power</title>
  <g id="svg_4">
   <path id="svg_5" d="m29.99094,37.82164c-0.00694,-4.76264 2.30949,-8.3657 4.54866,-10.65304l0,0c2.25133,-2.30621 4.43755,-3.41732 4.63373,-3.52092l0,0c1.46182,-0.73741 3.34074,-0.31413 4.19579,0.94535l0,0c0.85332,1.25504 0.36937,2.86639 -1.08031,3.6075l0,0l0.00043,0.00037c0,0 -0.00172,0.00037 -0.0065,0.00296l0,0c-0.00391,0.00148 -0.00998,0.00518 -0.01823,0.00962l0,0c-0.02951,0.01554 -0.0842,0.04625 -0.15929,0.09028l0,0c-0.15234,0.08658 -0.38933,0.23125 -0.6823,0.42994l0,0c-0.58551,0.39701 -1.3902,1.0138 -2.18275,1.82965l0,0c-1.59245,1.65279 -3.11028,3.99526 -3.11678,7.25792l0,0c0.0013,3.28893 1.53951,6.24634 4.04257,8.40714l0,0c2.5087,2.1571 5.9406,3.48392 9.75705,3.48466l0,0c3.81644,-0.00074 7.24789,-1.32756 9.75616,-3.48466l0,0c2.50394,-2.1608 4.04214,-5.11821 4.04344,-8.40714l0,0c-0.00694,-3.16276 -1.4297,-5.45491 -2.96747,-7.10215l0,0c-1.46399,-1.56177 -3.03041,-2.43164 -3.18623,-2.51267l0,0c-0.00174,-0.00111 -0.00391,-0.00148 -0.0052,-0.00222l0,0c-0.00218,-0.00111 -0.00348,-0.00185 -0.00478,-0.00222l0,0c-0.00131,-0.00111 -0.00304,-0.00111 -0.00304,-0.00111l0,0l0,0c-1.44794,-0.74185 -1.93231,-2.3532 -1.07988,-3.60824l0,0c0.85591,-1.25948 2.73441,-1.68276 4.19579,-0.94535l0,0c0.19705,0.10323 2.38327,1.21434 4.6346,3.52092l0,0c2.24048,2.28771 4.5556,5.8904 4.54909,10.65304l0,0c-0.00172,9.48569 -8.92543,17.1754 -19.93205,17.17873l0,0c-11.00662,-0.00333 -19.92989,-7.69304 -19.9325,-17.17836l0,0z"/>
   <path id="svg_6" d="m46.85699,36.50037l0,-7.9291l0,-7.92836c0,-1.45928 1.37285,-2.64291 3.06688,-2.64291l0,0c1.69229,0 3.06512,1.18363 3.06512,2.64291l0,0l0,7.92836l0,7.9291l0.00087,0c0,1.45817 -1.3737,2.64217 -3.06599,2.64217l0,0c-1.69403,0 -3.06688,-1.184 -3.06688,-2.64217l0,0z"/>
  </g>
 </g>
</svg>