<svg width="400" height="400" xmlns="http://www.w3.org/2000/svg" xmlns:svg="http://www.w3.org/2000/svg">
 <g>
  <title>Layer 1</title>
  <g id="svg_2">
   <path id="svg_4" d="m351.45456,321.71103c-5.90035,0 -11.44528,1.76907 -16.06607,4.81185l-49.12231,-48.89672c18.69632,-20.5918 30.21272,-47.76453 30.21272,-77.62618s-11.5164,-57.03437 -30.21272,-77.62618l24.31235,-24.2007c7.32215,5.59022 16.49256,8.91607 26.3739,8.91607c24.02799,0 43.64848,-19.45961 43.64848,-43.37726c0,-23.91765 -19.54939,-43.44803 -43.64848,-43.44803c-24.02799,0 -43.57738,19.45961 -43.57738,43.37726c0,9.90672 3.34116,18.96427 8.95719,26.2528l-24.31235,24.2007c-20.68681,-18.61049 -47.98489,-30.07395 -77.98433,-30.07395c-35.89981,0 -68.03193,16.2753 -89.35857,41.74972l-36.96614,-33.89514c2.48809,-4.24573 3.98097,-9.12831 3.98097,-14.36476c0,-15.9923 -13.00924,-29.01252 -29.14637,-29.01252c-16.06607,0 -29.14637,12.9495 -29.14637,29.01252c0,15.9923 13.00924,29.01252 29.14637,29.01252c6.61128,0 12.58269,-2.26438 17.48781,-5.94404l37.53485,34.46121c-12.58269,18.53972 -19.97594,40.9006 -19.97594,64.95972c0,63.8983 52.25021,115.90858 116.44334,115.90858c29.99944,0 57.29753,-11.4635 77.98433,-30.07395l49.12231,48.89672c-3.05684,4.59957 -4.83406,10.04826 -4.83406,15.9923c0,15.9923 13.08034,29.01252 29.14637,29.01252s29.14637,-13.02027 29.14637,-29.01252s-13.08034,-29.01252 -29.14637,-29.01252l0.00008,-0.00004l0.00004,0zm-14.50211,-289.84217c17.63001,0 31.98992,14.29399 31.98992,31.843s-14.35991,31.843 -31.98992,31.843s-31.98992,-14.29399 -31.98992,-31.843s14.43101,-31.843 31.98992,-31.843zm-288.33591,63.04918c-9.66808,0 -17.48781,-7.78384 -17.48781,-17.40753s7.81975,-17.40753 17.48781,-17.40753s17.48781,7.78384 17.48781,17.40753s-7.89085,17.40753 -17.48781,17.40753zm151.41899,209.45627c-57.79513,0 -104.85588,-46.77383 -104.85588,-104.37432s47.06076,-104.37432 104.85588,-104.37432s104.85588,46.8446 104.85588,104.37432s-46.98964,104.37432 -104.85588,104.37432zm151.41899,63.75679c-9.66808,0 -17.48781,-7.78384 -17.48781,-17.40753s7.81975,-17.40753 17.48781,-17.40753s17.48781,7.78384 17.48781,17.40753s-7.81975,17.40753 -17.48781,17.40753z" fill="black"/>
   <path fill="black" id="svg_1" d="m261.85052,186.90891l-49.58775,0l0,-52.93679c0,-6.91367 -5.47994,-12.51828 -12.2628,-12.51828c-6.78286,0 -12.2628,5.6046 -12.2628,12.51828l0,52.93679l-49.58775,0c-6.47631,0 -11.72634,5.85003 -11.72634,13.09103c0,7.24096 5.25002,13.09103 11.72634,13.09103l49.58775,0l0,52.93679c0,6.91367 5.47994,12.51828 12.2628,12.51828c6.78286,0 12.2628,-5.6046 12.2628,-12.51828l0,-52.93679l49.58775,0c6.47631,0 11.72634,-5.85003 11.72634,-13.09103c0,-7.24096 -5.25002,-13.09103 -11.72634,-13.09103z"/>
  </g>
 </g>
</svg>