<svg width="100" height="100" xmlns="http://www.w3.org/2000/svg">
  <g>
    <title>Layer 1</title>
    <path d="m100,18.755l0.004,58.516c0,2.205 -1.78799,3.993 -3.993,3.993s-3.992,-1.788 -3.992,-3.993l2.21201,-23.69699c0,-1.043 -0.4,-1.993 -1.056,-2.705c-0.687,-0.744 -1.152,-1.711 -1.152,-2.805l0,-16.421c0,0 -0.361,-15.541 5.324,-15.541c1.465,0 2.653,1.188 2.653,2.653l-0.00001,0z" id="svg_1"/>
    <path d="m13.44,36.036l-1.755,-19.484c-0.031,-0.296 -0.281,-0.527 -0.585,-0.527c-0.326,0 -0.59,0.264 -0.59,0.59l0.147,18.212c0,0.448 -0.363,0.812 -0.811,0.812s-0.811,-0.363 -0.811,-0.812l-0.295,-18.213c0,-0.326 -0.264,-0.59 -0.59,-0.59s-0.589,0.264 -0.589,0.59l0,18.212c0,0.448 -0.364,0.812 -0.812,0.812s-0.811,-0.363 -0.811,-0.812l0,-18.212c0,-0.326 -0.264,-0.59 -0.59,-0.59s-0.59,0.264 -0.59,0.59l-0.295,18.212c0,0.448 -0.363,0.812 -0.811,0.812c-0.448,0 -0.812,-0.363 -0.812,-0.812l0.148,-18.212c0,-0.326 -0.264,-0.59 -0.59,-0.59c-0.304,0 -0.554,0.231 -0.585,0.527l-1.755,19.485c-0.038,0.288 -0.058,0.583 -0.058,0.883c0,1.317 0.379,2.546 1.031,3.584l0.001,0.003l2.618,4.184c0.562,0.979 0.884,2.114 0.884,3.325l-1.766,29.141c0,2.19901 1.782,3.981 3.981,3.981s3.982,-1.782 3.982,-3.981l-1.77,-29.141c0,-1.211 0.324,-2.346 0.887,-3.325l2.618,-4.18501l0.001,-0.003c0.652,-1.038 1.031,-2.267 1.031,-3.584c0,-0.299 -0.02,-0.594 -0.058,-0.882z" id="svg_2"/>
    <path d="m51.8,16c-18.001,0 -32.594,14.593 -32.594,32.595c0,18.002 14.593,32.595 32.594,32.595c18.002,0 32.595,-14.593 32.595,-32.595c0,-18.002 -14.59299,-32.595 -32.595,-32.595zm12.14,20.455c0.756,-0.613 1.866,-0.499 2.479,0.256c0.614,0.756 0.5,1.866 -0.256,2.48c-0.755,0.613 -1.86501,0.499 -2.479,-0.257c-0.614,-0.754 -0.498,-1.865 0.256,-2.479zm1.182,25.485l-0.01,-0.011c-6.741,6.769 -17.647,7.463 -25.219,1.309c-0.755,-0.614 -0.87,-1.725 -0.256,-2.479c0.614,-0.756 1.725,-0.87 2.48,-0.256c6.156,5.003 15.022,4.438 20.501,-1.066l0.011,0.011c3.851,-3.851 5.521,-9.637 3.854,-15.221c-0.278,-0.93299 0.252,-1.914 1.186,-2.193c0.933,-0.277 1.914,0.253 2.192,1.186c2.049,6.867 -0.004,13.983 -4.739,18.72z" id="svg_3"/>
  </g>
</svg>