<svg xmlns="http://www.w3.org/2000/svg" xmlns:xlink="http://www.w3.org/1999/xlink" version="1.1" id="Layer_1" x="0px" y="0px" width="100px" height="100px" viewBox="0 0 100 100" enable-background="new 0 0 100 100" xml:space="preserve">
<path d="M33.521,56.511h-0.058l-0.036-0.189c0.021,0.065,0.049,0.124,0.088,0.183L33.521,56.511z"/>
<path d="M46.668,37.438c-0.299,0.177-0.49,0.323-0.546,0.366C46.179,37.739,46.356,37.57,46.668,37.438z"/>
<path d="M48.965,50.827c-0.008,0.013-0.015,0.021-0.015,0.028l-0.009,0.013c0,0-0.239,0.142-0.67,0.375  c0-0.007,0.007-0.007,0.007-0.015c0.081-0.123,0.161-0.256,0.241-0.389c0.137-0.007,0.282-0.013,0.431-0.013c0,0,0,0,0.007,0H48.965  z"/>
<path d="M49.613,49.166c-0.016,0.044-0.029,0.086-0.044,0.132h-0.042C49.555,49.252,49.583,49.209,49.613,49.166z"/>
<path d="M77.437,66.029c0,0.005-0.007,0.013-0.007,0.013c-0.038,0.06-0.104,0.142-0.198,0.221c0.074-0.091,0.131-0.161,0.175-0.215  C77.412,66.042,77.421,66.029,77.437,66.029z"/>
<path d="M72.838,35.789c-0.149-0.095-0.256-0.146-0.294-0.161C72.591,35.628,72.712,35.657,72.838,35.789z"/>
<path d="M41.675,54.609c-0.625,0.293-1.267,0.59-1.916,0.873c0.796-0.918,1.283-1.509,1.283-1.509L41.675,54.609z"/>
<path d="M48.95,50.827v0.028l-0.009,0.013c0,0-0.239,0.142-0.67,0.375c0-0.007,0.007-0.007,0.007-0.015  c0.081-0.123,0.161-0.256,0.241-0.389C48.657,50.833,48.802,50.827,48.95,50.827z"/>
<path d="M94.736,72.062c-0.759,0.204-5.654-1.415-7.034-1.602c-1.374-0.199,0,0,0.389,0.823c0.378,0.822-1.254-0.779-2.922-1.773  c-1.669-0.989-2.649-0.115-2.649-0.115s0.542,2.085-0.734,0.083c-0.158-0.267-0.392-0.513-0.668-0.746  c-0.768-0.643-1.867-1.145-2.873-1.507c0.351,0.071,0.715,0.139,1.088,0.181c0.021,0.007,0.049,0.007,0.07,0.007  c0.721,0.096,1.461,0.123,2.107,0.029c0.363-0.051,0.7-0.146,0.982-0.276c2.18-1.036,0.569,0.443,0.569,0.443  s0.343,1.253,2.301,1.274c1.962,0.032,4.222-0.472,3.441,0.023c-0.778,0.503-2.048-0.059-0.778,0.503  c1.276,0.548,6.296,1.733,6.819,2.288l3.564,1.201l0.495,0.109c-2.2-1.208-4.576-4.235-6.047-4.627  c-1.393-0.377,1.558-1.478,1.746-1.605c-0.027,0-0.166,0.047-0.474,0.135c-1.988,0.598-6.003-0.123-6.099-0.656  c-0.095-0.524,1.619-1.246,1.749-1.306c-0.248,0.039-4.708,0.796-5.751,0.081c-0.748-0.524-0.509-1.093-0.31-1.379  c-0.033,0.009-0.055,0.009-0.082,0c-0.962,0.672-2.987,1.4-4.752,1.955c-0.408-1.565-0.669-3.383,0.687-2.587  c0.838,0.488,2.315,0.627,4.065,0.632c0.082-0.049,0.152-0.101,0.212-0.152c-0.037,0.035-0.081,0.09-0.13,0.152  c3.029,0.037,6.847-0.238,9.567,0.453l-0.759-0.48l-5.938-2.878c-1.415,0.13-9.075-4.665-11.377-5.505c-2.288-0.831,0,0,0.248,1.736  c0.233,1.735-1.771-1.938-4.154-4.437c-2.389-2.5-4.532-1.117-4.532-1.117s-0.014,0.389-0.065,0.816v0.009  c-0.111,0.932-0.401,2.017-1.15-0.569c-0.03-0.109-0.067-0.225-0.096-0.343c-0.145-0.568-0.432-1.137-0.781-1.684  c-0.996-1.515-2.65-2.871-4.21-3.928c1.725,0.794,3.736,1.486,5.552,1.54c0.656,0.02,1.276-0.045,1.844-0.213  c4.315-1.283,0.766,1.065,0.766,1.065s-0.052,2.557,3.332,3.271c3.387,0.714,7.555,0.487,5.953,1.202  c-1.605,0.706-3.514-0.803-1.605,0.706c1.926,1.51,10.029,5.515,10.655,6.784l5.561,3.543l0.802,0.387  c-3.198-3.105-5.765-9.829-8.112-11.085c-2.774-1.486,6.728-2.915,2.966-2.441c-2.535,0.327-6.317-0.822-8.501-1.931  c3.365-0.053,7.264-0.459,7.462-2.084c0.114-0.97,0.193-1.611,0.248-2.041c1.419-0.357,4.371-1.042,5.508-0.808  c-0.096-0.022-0.859-0.256-0.495-1.086c0.371-0.859,3.432-1.998,3.629-2.077c-0.147,0.014-1.458,0.152-1.597-0.212  c-0.145-0.386,2.101-2.353,3.577-2.697c1.48-0.348-2.279,0.454-1.369-0.496c0.779-0.8,1.101-3.693,2.019-5.313l-0.271,0.271  l-1.776,2.105c-0.117,0.568-2.812,3.207-3.396,4.043c-0.584,0.839,0,0,0.675,0.045c0.68,0.035-0.931,0.539-2.149,1.282  c-1.216,0.75-0.945,1.698-0.945,1.698s1.582,0.38-0.189,0.51c-0.233,0.015-0.48,0.081-0.721,0.176  c-0.686,0.277-1.393,0.815-1.97,1.354c0.495-0.619,0.998-1.354,1.224-2.069c0.088-0.254,0.14-0.503,0.14-0.737  c0.022-1.8,0.49-0.218,0.49-0.218s0.954,0.218,1.615-1.057c0.664-1.275,1.071-2.936,1.151-2.252c0.08,0.686-0.713,1.326,0.08,0.686  c0.788-0.634,3.244-3.512,3.791-3.66l1.98-1.908l0.242-0.291c-1.545,1.019-4.366,1.507-5.117,2.331  c-0.881,0.978-0.306-2.871-0.561-1.354c-0.264,1.515-2.07,3.893-2.462,3.767c-0.381-0.124-0.301-1.502-0.301-1.604  c-0.05,0.177-1.011,3.367-1.835,3.797c-0.713,0.364-1.015-0.204-1.085-0.393c0.238,1.078-0.155,3.66-0.438,5.188  c-0.22,0.102-0.445,0.394-0.59,1.071v0.008c-0.068,0.307-0.117,0.685-0.147,1.158c-0.107,1.959-4.401,2.193-7.688,2.083  l-0.006-0.007h-0.021c-0.302-0.241-0.46-0.46-0.446-0.634c0.109-1.042,3.447-1.88,3.709-1.946c-0.45-0.006-8.569-0.028-10.012-1.784  c-0.795-0.97-0.576-1.801-0.198-2.347c0.999-0.656,1.765-1.356,1.997-2.07c0.633-1.938-0.115-2.834-0.583-3.177  c0.271,0.284,0.512,0.992,0,2.783c-0.276,0.971-1.333,1.837-2.616,2.559c-0.007,0-0.014,0.008-0.021,0.008  c-3.594,1.179-9.67,1.917-12.396,2.201c-0.277-0.139-0.604-0.264-1.006-0.364c-0.679-0.167-1.438,0.072-2.237,0.598  c1.318-2.908,4.264-8.644,6.646-7.792c0.911,0.329,1.537,0.131,1.976-0.32c2.796-0.182,9.115-0.473,11.5,0.436  c-0.301-0.145-1.654-0.902-0.885-2.368c0.846-1.586,7.171-2.726,7.573-2.804c-0.306-0.021-2.974-0.234-3.213-1.029  c-0.27-0.839,4.464-3.941,7.505-4.082c3.04-0.138-4.67,0.046-2.726-1.516c1.646-1.317,2.566-7.032,4.585-9.932l-0.577,0.429  l-3.796,3.579c-0.291,1.101-6.014,5.393-7.279,6.865c-1.262,1.458,0,0,1.376,0.334c1.378,0.342-1.944,0.745-4.49,1.779  c-2.542,1.042-2.083,3.061-2.083,3.061s3.17,1.363-0.431,0.948c-0.474-0.059-0.975-0.015-1.478,0.086  c-1.422,0.293-2.902,1.123-4.126,1.976c1.071-1.057,2.15-2.354,2.689-3.694c0.188-0.482,0.313-0.963,0.343-1.444  c0.217-3.601,1.013-0.254,1.013-0.254s1.915,0.809,3.381-1.508c1.473-2.319,2.448-5.503,2.544-4.097  c0.103,1.407-1.566,2.389,0.103,1.407c1.654-0.983,6.907-5.846,8.037-5.941l4.197-3.097l0.517-0.487  c-3.221,1.472-9.008,1.378-10.594,2.763c-1.89,1.63-0.358-5.904-1.03-2.945c-0.661,2.959-4.56,7.061-5.341,6.653  c-0.758-0.384-0.474-3.133-0.458-3.344c-0.124,0.334-2.368,6.399-4.089,6.952c-1.647,0.524-2.135-1.087-2.193-1.304  c0.532,2.602-1.041,9.276-1.67,11.762c-0.318,0.042-0.689,0.014-1.121-0.111c-2.966-0.867-7.943,10.231-7.943,10.231l0.051,0.03  c-0.597,0.59-1.194,1.275-1.786,2.027c-0.071,0.094-0.152,0.188-0.224,0.29c0.916-2.973,1.863-6.951,1.071-8.818l0.057-0.006  c0,0-2.39-10.829-5.465-12.279c-0.576-1.902-1.64-5.75-1.414-7.273c-0.05,0.196-0.344,1.108-1.429,0.649  c-1.171-0.489-2.898-4.563-3.016-4.825c0.036,0.204,0.304,1.945-0.184,2.135c-0.509,0.197-3.288-2.77-3.846-4.744  c-0.562-1.968,0.749,3.039-0.585,1.829c-1.123-1.021-5.034-1.42-7.256-2.623l0.371,0.357l2.942,2.338  c0.774,0.152,4.491,3.725,5.648,4.488c1.16,0.774,0,0,0.017-0.91c0.005-0.903,0.786,1.248,1.857,2.856  c1.079,1.625,2.34,1.254,2.34,1.254s0.415-2.113,0.7,0.239c0.028,0.313,0.131,0.642,0.276,0.963  c0.415,0.911,1.188,1.843,1.937,2.609c-0.859-0.656-1.881-1.313-2.85-1.612c-0.348-0.107-0.684-0.174-1.004-0.174  c-2.413-0.016-0.321-0.649-0.321-0.649s0.233-1.276-1.524-2.15c-1.755-0.875-4.009-1.392-3.089-1.5  c0.919-0.117,1.824,0.933,0.919-0.117c-0.912-1.049-4.928-4.292-5.159-5.021l-2.689-2.616l-0.401-0.32  c1.465,2.039,2.29,5.808,3.447,6.791c1.371,1.166-3.84,0.445-1.785,0.773s5.365,2.71,5.218,3.243  c-0.146,0.503-1.998,0.416-2.144,0.408c0.24,0.073,4.585,1.319,5.218,2.419c0.597,1.049-0.393,1.421-0.524,1.465  c1.152-0.306,3.776-0.006,5.844,0.306c-0.423,0.269-0.343,0.488,1.276,0.408c2.9-0.139,4.766,7.127,5.423,10.151  c-1.305-0.626-2.523-0.459-3.412-0.138c-1.814-1.515-9.294-7.856-10.8-11.112c0.138,0.385,0.663,2.214-1.334,2.804  c-2.173,0.641-8.84-3.854-9.278-4.14c0.256,0.285,2.45,2.784,1.969,3.682c-0.509,0.954-7.521-0.459-10.361-2.981  c-2.844-2.508,4.217,4.015,1.085,3.681c-2.655-0.284-8.57,3.854-12.958,4.619l0.889,0.124l6.597,0.197  c1.237-0.692,10.187,0.546,12.628,0.373c2.436-0.168,0,0-0.934-1.487c-0.924-1.488,2.406,1.048,5.603,2.354  c3.208,1.312,4.6-0.838,4.6-0.838s-1.626-3.928,1.232-0.452c0.373,0.467,0.854,0.868,1.398,1.217  c1.531,0.969,3.594,1.538,5.451,1.859c-1.9-0.015-4.03,0.174-5.697,0.867c-0.606,0.255-1.152,0.56-1.596,0.955  c-3.412,2.929-1.139-0.662-1.139-0.662s-0.99-2.355-4.373-1.626c-3.387,0.735-7.099,2.644-5.923,1.349  c1.165-1.312,3.533-0.715,1.165-1.312c-2.367-0.583-11.405-0.933-12.49-1.83l-6.522-0.963l-0.896-0.021  c4.191,1.522,9.285,6.616,11.943,6.799c3.141,0.218-4.948,5.414-1.711,3.439c3.234-1.981,10.375-2.164,10.718-1.129  c0.329,0.991-2.375,3.119-2.587,3.286c0.417-0.182,7.834-3.477,9.869-2.463c1.938,0.971,0.938,2.793,0.793,3.032  c2.172-3.191,11.967-8.737,12.972-9.299c0.023-0.015,0.037-0.021,0.052-0.029c-0.007,0-0.023-0.021-0.044-0.037h-0.007  c-0.016-0.007-0.023-0.022-0.037-0.03c0.65,0.038,1.51,0.271,2.616,0.919c2.377,1.391,0.336,7.855-0.822,10.982  c-0.016,0.044-0.029,0.086-0.044,0.132h-0.042c-9.132,0.305-16.276,2.943-16.276,6.164c0,0.293,0.177,0.86,0.177,0.86  s0.916-4.766,13.809-5.429c-3.279,1.758-9.948,5.116-13.715,5.618h-0.058v0.007c-1.188,0.147-2.082,0.009-2.479-0.576  c-0.908-1.332-1.806-1.9-2.528-2.104c-0.007-0.006-0.014-0.006-0.014-0.006c-1.559-0.891-5.458-3.201-6.378-4.564  c0.066,0.109,0.583,1.042-0.576,1.479c-1.195,0.444-5.239-1.34-5.501-1.449c0.16,0.123,1.545,1.208,1.326,1.675  c-0.233,0.504-4.299,0.238-6.056-0.815c-0.248-0.146-0.371-0.219-0.416-0.234c0.182,0.19,2.682,1.946,1.247,1.967  c-1.523,0.022-4.642,2.414-7.092,3.054l0.52,0.008l3.751-0.315c0.665-0.406,5.817-0.354,7.187-0.596c1.369-0.228,0,0-0.611-0.662  c-0.613-0.672,1.419,0.363,3.314,0.803c1.896,0.441,2.558-0.693,2.558-0.693s-1.144-1.824,0.672-0.294  c0.24,0.198,0.537,0.364,0.866,0.504c0.927,0.38,2.128,0.532,3.2,0.575c-1.079,0.11-2.273,0.328-3.186,0.773  c-0.327,0.159-0.619,0.344-0.852,0.561c-1.764,1.646-0.677-0.249-0.677-0.249s-0.7-1.093-2.581-0.523  c-1.872,0.562-3.876,1.726-3.279,1.021c0.583-0.716,1.958-0.569,0.583-0.716c-1.377-0.14-6.522,0.25-7.194-0.123l-3.751-0.065  l-0.512,0.044c2.464,0.486,5.648,2.659,7.164,2.586c1.793-0.085-2.5,2.952-0.772,1.785c1.721-1.166,5.765-1.69,6.02-1.209  c0.241,0.467-1.166,1.669-1.275,1.764c0.219-0.109,4.242-2.178,5.451-1.807c1.093,0.327,0.743,1.195,0.642,1.398  c0.845-1.312,4.117-3.562,5.82-4.679c0.615,0.569,1.43,1.414,2.384,2.623c0.476,0.604,1.685,0.598,3.272,0.219l0.7,3.396  c-2.651,2.473-5.465,4.533-7.105,4.102c-1.779-0.466-2.82-0.648-3.424-0.699c-0.284-0.021-0.475-0.015-0.597,0.011  c-1.568-0.41-6.181-1.673-7.507-2.765c0.167,0.175,0.728,0.875-0.206,1.545c-1.032,0.744-5.405,0.074-5.683,0.035  c0.182,0.074,1.808,0.767,1.713,1.276c-0.096,0.54-4.082,1.339-6.056,0.781c-0.299-0.081-0.438-0.116-0.467-0.116  c0.189,0.121,3.104,1.172,1.72,1.572c-1.465,0.423-3.855,3.541-6.049,4.794l0.497-0.124l3.542-1.272  c0.53-0.578,5.522-1.869,6.784-2.449c1.266-0.584,0,0-0.768-0.488c-0.763-0.487,1.475-0.025,3.412-0.088  c1.944-0.065,2.288-1.333,2.288-1.333s-1.58-1.465,0.576-0.46c0.285,0.131,0.612,0.219,0.962,0.262c1,0.124,2.195-0.043,3.245-0.277  c-1.015,0.387-2.114,0.914-2.874,1.574c-0.276,0.24-0.509,0.495-0.675,0.768c-1.276,2.047-0.722-0.067-0.722-0.067  s-0.963-0.865-2.625,0.17c-1.67,1.032-3.295,2.673-2.908,1.835c0.385-0.838,1.75-1.057,0.385-0.838  c-1.368,0.226-6.237,1.937-6.98,1.757l-3.643,0.908l-0.48,0.177c2.506-0.177,6.149,1.1,7.592,0.634  c1.414-0.46-0.628,2.223-0.605,2.281c0.03-0.023,0.124-0.131,0.32-0.357c1.365-1.575,5.132-3.14,5.503-2.739  c0.35,0.383-0.7,1.923-0.779,2.037c0.189-0.165,3.535-3.21,4.795-3.166c1.209,0.041,1.013,1.077,0.976,1.216  c0.415-1.368,2.72-4.141,4.132-5.743c0.014-0.014,0.023-0.022,0.03-0.037c0.021-0.021,0.042-0.042,0.057-0.063  c0.029-0.039,0.06-0.067,0.088-0.096c0.021-0.028,0.05-0.067,0.08-0.095c0.094-0.101,0.182-0.213,0.278-0.312  c0.007-0.009,0.014-0.025,0.028-0.033c0.088-0.098,0.166-0.193,0.247-0.282c-0.035,0.036-0.071,0.082-0.117,0.124  c0.053-0.057,0.103-0.116,0.147-0.175c0.007,0,0.007,0.007,0.007,0.007s0,0.005,0.009,0.005h0.008  c0.604,0.236,1.813,0.789,3.744,2.059c0.321,0.211,0.772,0.219,1.325,0.071c-1.361,2.448-4.079,6.787-5.587,5.642  c-0.896-0.677-1.386-0.794-1.654-0.707c0.007-0.035,0.007-0.068,0.007-0.096v-0.028c0,0.007-0.007,0.007-0.023,0.015  c-0.45,0.204-4.546,2.071-6.01,2.019c0.092,0.006,0.895,0.109,0.668,0.989c-0.226,0.905-3.06,2.536-3.242,2.646  c0.145-0.044,1.415-0.395,1.608-0.058c0.212,0.356-1.681,2.669-3.079,3.251c-1.407,0.59,2.17-0.815,1.426,0.26  c-0.634,0.921-0.474,3.826-1.115,5.569l0.226-0.299l1.4-2.375c0.021-0.577,2.252-3.632,2.688-4.549c0.437-0.918,0,0-0.677,0.073  c-0.679,0.074,0.831-0.693,1.909-1.623c1.078-0.94,0.656-1.827,0.656-1.827s-1.617-0.117,0.101-0.534  c0.227-0.052,0.459-0.159,0.686-0.29c0.626-0.387,1.23-1.044,1.722-1.662c-0.396,0.691-0.768,1.499-0.877,2.234  c-0.036,0.271-0.049,0.526-0.007,0.761c0.271,1.771-0.452,0.29-0.452,0.29s-0.976-0.06-1.421,1.312  c-0.443,1.362-0.575,3.068-0.764,2.403c-0.191-0.661,0.488-1.418-0.191-0.661c-0.667,0.757-2.623,3.998-3.139,4.235l-1.633,2.213  l-0.196,0.321c1.355-1.262,4.06-2.203,4.665-3.143c0.707-1.106,0.772,2.786,0.778,1.246c0.009-1.542,1.4-4.184,1.808-4.124  c0.394,0.057,0.539,1.429,0.553,1.538c0.03-0.183,0.452-3.491,1.195-4.045c0.65-0.487,1.036,0.036,1.131,0.213  c-0.438-1.064-0.48-3.453-0.424-5.51c0.248,0.168,0.744,0.496,1.678,1.109c1.638,1.077,5.376-5.095,6.581-7.181  c1.463-0.692,3.323-2.082,5.168-3.737l4.197,20.187c0,2.33,5.508,4.218,12.301,4.218c6.791,0,12.301-1.888,12.301-4.218l4.779-23  c1.414,1.839,2.595,3.724,2.741,3.95c-0.116-0.364-1.094-3.54-0.284-4.16c0.275-0.213,1.063,0.072,2.055,0.677  c0.066,2.111,0.365,5.971,1.72,6.412c0.612,0.191,1.121,0.156,1.546,0.017c1.173,1.268,4.292,4.753,4.766,6.338  c-0.029-0.121-0.241-1.164,0.999-1.223c1.274-0.073,4.583,2.858,4.802,3.038c-0.117-0.151-1.108-1.611-0.76-1.997  c0.382-0.408,4.171,1.072,5.525,2.609c1.356,1.53-1.988-2.419-0.262-1.902c1.457,0.438,5.152-0.895,7.683-0.772l-0.49-0.161  L94.736,72.062z M46.122,37.804c0.057-0.065,0.234-0.234,0.546-0.366C46.37,37.616,46.179,37.761,46.122,37.804z M56.985,44.574  c0.322,0.67,0.761,1.61,1.248,2.675c0.035,0.081,0.072,0.16,0.11,0.248c0.342,0.757,0.699,1.58,1.055,2.433  c-2.441-0.421-5.195-0.663-8.109-0.663c-0.161,0-0.322,0-0.483,0.015C52.729,46.476,55.013,44.093,56.985,44.574z M51.289,61.656  c-5.218,0-9.925-0.766-13.22-1.989c1.641-1.771,3.024-3.542,3.767-4.899l-0.161-0.158c-0.625,0.293-1.267,0.59-1.916,0.873  c-0.814,0.941-1.959,2.216-3.249,3.537c-0.926-0.462-1.675-0.957-2.223-1.487c1.619-0.445,3.549-1.204,5.472-2.05  c0.796-0.918,1.283-1.509,1.283-1.509l0.633,0.636c2.852-1.348,5.423-2.727,6.597-3.366c0-0.007,0.007-0.007,0.007-0.015  c0.081-0.123,0.161-0.256,0.241-0.389c0.137-0.007,0.282-0.013,0.431-0.013c0,0,0,0,0.007,0h0.008  c-0.008,0.013-0.015,0.021-0.015,0.028l-0.009,0.013c0,0-0.239,0.142-0.67,0.375c-1.743,2.812-2.966,5.246-2.966,5.246l1.188,0.532  c0,0,1.283-2.879,3.104-5.874c0.065-0.109,0.131-0.219,0.198-0.329c0.078-0.007,0.16-0.007,0.241-0.007c0.406,0,0.824,0,1.253,0.007  c3.585,0.05,6.457,0.3,8.744,0.68c1.063,2.684,1.946,5.414,1.946,7.031c0.007-0.255,0.182-2.359,2.361-2.079  c0.751,0.106,1.727,0.942,2.703,2.029C63.968,60.374,58.066,61.656,51.289,61.656z M77.231,66.263  c-0.006,0.005-0.014,0.005-0.014,0.005c-0.241,0.198-0.68,0.373-1.475,0.279c-0.201-0.022-0.427-0.067-0.682-0.132  c-1.407-0.373-1.648-3.549-1.662-5.546c1.711,1.139,3.832,3.019,5.048,4.868c-0.364,0.109-0.707,0.213-1.018,0.305  C77.392,66.102,77.326,66.184,77.231,66.263z"/>
<path d="M41.675,54.609c-0.625,0.293-1.267,0.59-1.916,0.873c0.796-0.918,1.283-1.509,1.283-1.509L41.675,54.609z"/>
<path d="M46.668,37.438c-0.299,0.177-0.49,0.323-0.546,0.366C46.179,37.739,46.356,37.57,46.668,37.438z"/>
<path d="M79.332,67.406c0.021,0.007,0.049,0.007,0.07,0.007C79.483,67.682,79.483,67.721,79.332,67.406z"/>
<path d="M83.85,63.499c-0.037,0.035-0.081,0.09-0.13,0.152c-0.033,0.009-0.055,0.009-0.082,0  C83.72,63.603,83.79,63.551,83.85,63.499z"/>
<path d="M77.43,66.042c-0.038,0.06-0.104,0.142-0.198,0.221c-0.006,0.005-0.014,0.005-0.014,0.005  c-0.241,0.198-0.68,0.373-1.475,0.279l-0.005-0.009c0-0.009,0-0.009,0-0.009c-0.017-0.005-0.022-0.013-0.022-0.018  c0.006,0,0.015,0,0.027-0.011c0.185-0.042,0.816-0.208,1.663-0.453C77.412,66.042,77.421,66.042,77.43,66.042z"/>
<path d="M83.85,63.499c-0.037,0.035-0.081,0.09-0.13,0.152c-0.033,0.009-0.055,0.009-0.082,0  C83.72,63.603,83.79,63.551,83.85,63.499z"/>
</svg>