<svg width="110" height="110" xmlns="http://www.w3.org/2000/svg" xmlns:svg="http://www.w3.org/2000/svg">
 <g>
  <title>Layer 1</title>
  <g id="svg_107">
   <path d="m89.55642,66.2971c-3.10324,-1.11551 -7.75676,-1.77561 -11.6556,-2.10425c-3.94446,-0.33288 -7.08459,-0.36617 -7.08459,-0.36617l-0.32468,0l-0.108,-0.29747c0,0 -1.3175,-3.31254 -2.70879,-7.04509c-1.39062,-3.73254 -2.85839,-7.8348 -3.18441,-9.7209c-0.30053,-1.73524 -0.6024,-3.13265 -1.10485,-4.0031c-0.50312,-0.86975 -1.10753,-1.29612 -2.44784,-1.21184c-0.60441,0.03825 -0.94117,0.2911 -1.21352,0.70897c-0.27236,0.41858 -0.44878,1.04823 -0.51989,1.78411c-0.14222,1.47177 0.10599,3.31396 0.28108,4.59733c0.80365,5.87079 2.77923,11.46677 3.85658,17.38359c0.64131,3.52148 0.90561,7.11379 1.51674,10.54532l0.17307,1.02911l-0.86671,-0.48091c-0.41256,-0.22594 -0.70101,-0.62256 -0.99685,-1.09781s-0.57356,-1.05389 -0.86671,-1.64671c-0.58563,-1.18421 -1.20883,-2.46829 -1.77635,-3.17939c-0.88079,-1.10206 -1.96887,-2.32948 -3.11934,-3.06465c-1.13705,-0.72668 -2.25465,-0.96253 -3.46616,-0.32013c-0.53599,0.51491 -0.73187,0.97953 -0.73657,1.50931c-0.00604,0.55315 0.20661,1.19555 0.54136,1.87548c0.66881,1.36128 1.80653,2.8033 2.14463,4.29986c0.84189,3.72546 2.9778,6.63571 4.87489,9.81227c1.48185,2.48458 2.58402,5.22202 4.87422,6.45015c3.02073,1.62121 5.64835,4.18229 8.64493,4.71207c3.63789,0.6431 7.7051,0.83575 11.20011,0.3428c3.46347,-0.48799 6.3118,-1.68354 7.64674,-3.59089c2.86308,-12.26215 1.05454,-20.24427 -3.57349,-26.92106z" id="svg_106"/>
  </g>
 </g>
</svg>