<svg width="100" height="100" xmlns="http://www.w3.org/2000/svg" xmlns:svg="http://www.w3.org/2000/svg">
 <g>
  <title>Layer 1</title>
  <g stroke="null" id="svg_1">
   <path stroke="#000000" stroke-width="6" id="svg_3" d="m85.4686,94.5l0.24177,-1.31819c0.04566,-0.25414 4.65181,-25.53014 5.51825,-38.25517l0.10688,-1.56739l-1.51083,0.62794c-2.69686,1.1214 -6.61816,3.19708 -11.66531,6.17561c-7.12661,-19.86876 -18.70373,-38.51129 -33.53389,-53.98048l-0.65476,-0.68233l-35.3062,28.71041l1.78062,0.4984c16.25694,4.55779 40.98425,22.16495 50.63859,35.93721c-1.94249,1.34983 -6.94398,4.82479 -7.87269,5.45273l-1.3116,0.88703l33.56917,17.51421zm-1.50149,-2.96667l-28.29685,-14.76411c2.44264,-1.68606 7.12142,-4.94049 7.36631,-5.11157l0.76164,-0.52906l-0.50638,-0.75848c-9.14589,-13.70106 -33.63039,-31.50303 -50.53586,-36.96961l31.03833,-25.2404c14.61226,15.43656 25.96731,34.00492 32.86356,53.756l0.40469,1.15601l1.08227,-0.64574c4.56464,-2.72241 8.2369,-4.73579 10.95348,-6.00453c-0.95257,11.23477 -4.2191,29.99597 -5.1312,35.11149l0,0z"/>
  </g>
 </g>
</svg>