<svg width="110" height="110" xmlns="http://www.w3.org/2000/svg" xmlns:svg="http://www.w3.org/2000/svg">
 <g>
  <title>Layer 1</title>
  <g id="svg_104">
   <path d="m61.29,36.824c1.035,0 1.877,0.843 1.877,1.878s-0.842,1.878 -1.877,1.878s-1.878,-0.843 -1.878,-1.878s0.843,-1.878 1.878,-1.878m0,-1.252c-1.729,0 -3.13,1.401 -3.13,3.13c0,1.729 1.401,3.13 3.13,3.13s3.129,-1.4 3.129,-3.13c0,-1.728 -1.4,-3.13 -3.129,-3.13l0,0z" id="svg_105"/>
  </g>
  <g id="svg_1">
   <path d="m35,68.05c-17.948,0 -32.55,-14.602 -32.55,-32.55s14.602,-32.55 32.55,-32.55c17.948,0 32.55,14.602 32.55,32.55s-14.602,32.55 -32.55,32.55zm0,-62.596c-16.567,0 -30.046,13.479 -30.046,30.046c0,16.567 13.479,30.046 30.046,30.046c16.568,0 30.047,-13.479 30.047,-30.046c0,-16.568 -13.479,-30.046 -30.047,-30.046z" id="svg_2"/>
  </g>
  <g id="svg_3">
   <path fill="none" d="m26.346,28.282l-0.882,-0.933c-1.608,1.888 -2.67,4.804 -2.929,6.804l1.259,0c0.25,-2 1.166,-4.217 2.552,-5.871z" id="svg_4"/>
   <path fill="none" d="m53.735,34.153l1.252,0c-0.28,-4 -2.082,-8.574 -4.898,-11.801l-0.885,0.836c2.593,2.997 4.254,6.965 4.531,10.965z" id="svg_5"/>
   <path fill="none" d="m28.188,44.479l-0.828,0.891c1.841,1.479 3.64,2.452 6.64,2.698l0,-1.257c-2,-0.238 -4.206,-1.074 -5.812,-2.332z" id="svg_6"/>
   <path fill="none" d="m36,46.811l0,1.257c3,-0.259 5.092,-1.321 6.979,-2.929l-0.944,-0.882c-1.657,1.385 -4.035,2.303 -6.035,2.554z" id="svg_7"/>
   <path fill="none" d="m23.793,37.153l-1.259,0c0.272,2 1.43,5.04 3.169,6.971l0.882,-0.809c-1.514,-1.701 -2.527,-4.162 -2.792,-6.162z" id="svg_8"/>
   <path fill="none" d="m47.676,21.877l0.818,-0.882c-3.298,-3.092 -7.494,-5.082 -12.494,-5.379l0,1.252c5,0.294 8.604,2.143 11.676,5.009z" id="svg_9"/>
   <path fill="none" d="m44.141,25.412l0.82,-0.883c-2.389,-2.189 -5.961,-3.616 -8.961,-3.899l0,1.252c3,0.278 5.98,1.565 8.141,3.53z" id="svg_10"/>
   <path fill="none" d="m16.264,37.153l-1.251,0c0.297,4 2.287,8.984 5.378,12.282l0.883,-0.808c-2.866,-3.07 -4.715,-7.474 -5.01,-11.474z" id="svg_11"/>
   <path fill="none" d="m45.428,44.749l0.884,0.959c2.053,-2.35 3.388,-5.555 3.662,-8.555l-1.252,0c-0.268,2 -1.464,5.476 -3.294,7.596z" id="svg_12"/>
   <path fill="none" d="m43.655,42.976l0.882,0.956c1.607,-1.888 2.669,-4.779 2.928,-6.779l-1.257,0c-0.251,2 -1.169,4.165 -2.553,5.823z" id="svg_13"/>
   <path fill="none" d="m36,49.325l0,1.252c3,-0.272 6.404,-1.607 8.754,-3.662l-0.947,-0.885c-2.119,1.83 -4.807,3.028 -7.807,3.295z" id="svg_14"/>
   <path fill="none" d="m21.03,22.966l-0.884,-0.935c-2.953,3.266 -4.844,8.122 -5.133,12.122l1.251,0c0.287,-4 2.039,-8.15 4.766,-11.187z" id="svg_15"/>
   <path fill="none" d="m22.859,49.807l-0.821,0.886c3.227,2.815 6.962,4.616 11.962,4.898l0,-1.252c-4,-0.279 -8.143,-1.939 -11.141,-4.532z" id="svg_16"/>
   <path fill="none" d="m34,16.868l0,-1.252c-5,0.29 -9.032,2.18 -12.297,5.133l0.948,0.885c3.037,-2.728 7.349,-4.481 11.349,-4.766z" id="svg_17"/>
   <path fill="none" d="m45.908,23.644l0.819,-0.883c-2.842,-2.64 -6.727,-4.347 -10.727,-4.638l0,1.251c4,0.288 7.293,1.855 9.908,4.27z" id="svg_18"/>
   <path fill="none" d="m34,19.374l0,-1.251c-4,0.282 -7.718,1.895 -10.525,4.397l0.948,0.885c2.578,-2.279 6.577,-3.753 9.577,-4.031z" id="svg_19"/>
   <path fill="none" d="m34,21.882l0,-1.252c-3,0.272 -6.404,1.607 -8.754,3.662l0.947,0.885c2.12,-1.832 4.807,-3.028 7.807,-3.295z" id="svg_20"/>
   <path fill="none" d="m21.278,37.153l-1.251,0c0.283,3 1.709,6.361 3.899,8.749l0.882,-0.81c-1.964,-2.158 -3.251,-5.939 -3.53,-7.939z" id="svg_21"/>
   <path fill="none" d="m26.403,46.263l-0.823,0.887c2.306,1.921 5.42,3.165 8.42,3.427l0,-1.252c-3,-0.256 -5.522,-1.361 -7.597,-3.062z" id="svg_22"/>
   <path fill="none" d="m46.208,34.153l1.257,0c-0.245,-2 -1.221,-4.637 -2.698,-6.479l-0.891,0.842c1.258,1.606 2.094,3.637 2.332,5.637z" id="svg_23"/>
   <path fill="none" d="m22.802,24.737l-0.885,-0.935c-2.503,2.808 -4.115,7.351 -4.398,10.351l1.252,0c0.278,-3 1.752,-6.838 4.031,-9.416z" id="svg_24"/>
   <path fill="none" d="m24.573,26.508l-0.885,-0.935c-2.054,2.351 -3.389,5.58 -3.661,8.58l1.251,0c0.267,-3 1.464,-5.525 3.295,-7.645z" id="svg_25"/>
   <path fill="none" d="m47.198,46.519l0.884,0.96c2.504,-2.808 4.116,-6.326 4.398,-10.326l-1.252,0c-0.277,3 -1.75,6.789 -4.03,9.366z" id="svg_26"/>
   <path fill="none" d="m51.229,34.153l1.252,0c-0.273,-3 -1.794,-7.262 -4.162,-10.029l-0.885,0.835c2.144,2.538 3.527,6.194 3.795,9.194z" id="svg_27"/>
   <path fill="none" d="m42.363,27.19l0.817,-0.883c-1.928,-1.739 -4.18,-2.897 -7.18,-3.169l0,1.259c2,0.264 4.662,1.277 6.363,2.793z" id="svg_28"/>
   <path fill="none" d="m36,51.832l0,1.252c4,-0.282 7.717,-1.895 10.527,-4.397l-0.949,-0.884c-2.578,2.278 -6.578,3.751 -9.578,4.029z" id="svg_29"/>
   <path fill="none" d="m24.631,48.037l-0.821,0.885c2.767,2.368 6.19,3.888 10.19,4.162l0,-1.252c-3,-0.268 -6.832,-1.651 -9.369,-3.795z" id="svg_30"/>
   <path fill="none" d="m18.771,37.153l-1.252,0c0.292,4 2,7.672 4.64,10.516l0.882,-0.809c-2.415,-2.615 -3.982,-6.707 -4.27,-9.707z" id="svg_31"/>
   <path fill="none" d="m34,24.397l0,-1.259c-3,0.259 -5.092,1.321 -6.979,2.929l0.946,0.882c1.656,-1.386 4.033,-2.302 6.033,-2.552z" id="svg_32"/>
   <path fill="none" d="m41.875,41.197l0.891,0.964c1.163,-1.422 1.936,-3.008 2.175,-5.008l-1.261,0c-0.226,1 -0.862,2.856 -1.805,4.044z" id="svg_33"/>
   <path fill="none" d="m26.32,37.153l-1.262,0c0.255,2 1.123,3.731 2.413,5.202l0.883,-0.808c-1.067,-1.238 -1.791,-3.394 -2.034,-4.394z" id="svg_34"/>
   <path fill="none" d="m29.972,42.695l-0.828,0.892c1.368,1.039 2.856,1.735 4.856,1.959l0,-1.263c-2,-0.207 -2.899,-0.764 -4.028,-1.588z" id="svg_35"/>
   <path fill="none" d="m36,44.283l0,1.263c2,-0.24 3.787,-1.014 5.209,-2.177l-0.954,-0.891c-1.188,0.944 -2.255,1.579 -4.255,1.805z" id="svg_36"/>
   <path fill="none" d="m33.748,28.188c-1.226,0.207 -2.35,0.709 -3.299,1.433" id="svg_37"/>
   <path fill="none" d="m43.681,34.153l1.261,0c-0.224,-2 -0.919,-3.326 -1.959,-4.693l-0.891,0.84c0.823,1.129 1.381,2.853 1.589,3.853z" id="svg_38"/>
   <path fill="none" d="m34,26.924l0,-1.262c-2,0.239 -3.786,1.013 -5.209,2.176l0.954,0.89c1.188,-0.942 2.255,-1.58 4.255,-1.804z" id="svg_39"/>
   <path fill="none" d="m48.722,34.153l1.252,0c-0.262,-3 -1.505,-5.953 -3.427,-8.258l-0.887,0.836c1.7,2.075 2.807,5.422 3.062,7.422z" id="svg_40"/>
   <path fill="none" d="m40.596,28.958l0.818,-0.884c-1.47,-1.29 -3.414,-2.157 -5.414,-2.412l0,1.262c2,0.243 3.355,0.965 4.596,2.034z" id="svg_41"/>
   <path fill="none" d="m48.969,48.292l0.885,0.957c2.953,-3.264 4.843,-8.096 5.133,-12.096l-1.252,0c-0.286,4 -2.038,8.102 -4.766,11.139z" id="svg_42"/>
   <path fill="none" d="m28.125,30.059l-0.89,-0.94c-1.163,1.423 -1.937,3.034 -2.176,5.034l1.262,0c0.224,-2 0.861,-2.906 1.804,-4.094z" id="svg_43"/>
   <path fill="none" d="m36,54.339l0,1.252c5,-0.289 9.033,-2.181 12.297,-5.134l-0.948,-0.884c-3.036,2.726 -7.349,4.479 -11.349,4.766z" id="svg_44"/>
   <path d="m15.013,37.153l-1.255,0c0.3,4 2.432,9.643 5.749,13.167l0.885,-0.81c-3.092,-3.298 -5.082,-8.357 -5.379,-12.357z" id="svg_45"/>
   <path d="m48.557,20.995l0.823,-0.885c-3.526,-3.318 -8.38,-5.45 -13.38,-5.75l0,1.256c5,0.297 9.26,2.287 12.557,5.379z" id="svg_46"/>
   <path d="m54.987,34.153l1.256,0c-0.285,-5 -2.227,-9.23 -5.267,-12.687l-0.888,0.837c2.817,3.227 4.619,7.85 4.899,11.85z" id="svg_47"/>
   <path d="m54.987,37.153c-0.29,4 -2.181,8.757 -5.134,12.021l0.887,0.961c3.179,-3.492 5.211,-8.982 5.503,-12.982l-1.256,0z" id="svg_48"/>
   <path d="m21.975,50.693l-0.824,0.886c3.457,3.041 7.849,4.983 12.849,5.267l0,-1.256c-5,-0.281 -8.798,-2.082 -12.025,-4.897z" id="svg_49"/>
   <path d="m34,15.616l0,-1.256c-5,0.293 -9.69,2.324 -13.184,5.502l0.95,0.887c3.265,-2.953 7.234,-4.844 12.234,-5.133z" id="svg_50"/>
   <path d="m36,55.591l0,1.256c5,-0.293 9.689,-2.323 13.184,-5.502l-0.95,-0.888c-3.264,2.953 -7.234,4.844 -12.234,5.134z" id="svg_51"/>
   <path d="m20.146,22.081l-0.887,-0.936c-3.178,3.493 -5.209,8.008 -5.502,13.008l1.255,0c0.29,-4 2.181,-8.809 5.134,-12.072z" id="svg_52"/>
   <path d="m21.917,23.852l-0.887,-0.937c-2.727,3.037 -4.479,7.238 -4.766,11.238l1.255,0c0.283,-3 1.895,-7.492 4.398,-10.301z" id="svg_53"/>
   <path d="m17.519,37.153l-1.255,0c0.294,4 2.144,8.329 5.01,11.4l0.885,-0.811c-2.64,-2.843 -4.348,-6.589 -4.64,-10.589z" id="svg_54"/>
   <path d="m46.791,22.761l0.821,-0.885c-3.071,-2.865 -6.612,-4.714 -11.612,-5.008l0,1.255c4,0.291 7.947,1.998 10.791,4.638z" id="svg_55"/>
   <path d="m48.318,24.124c2.369,2.767 3.889,7.029 4.162,10.029l1.255,0c-0.277,-4 -1.938,-7.968 -4.531,-10.965l-0.886,0.936z" id="svg_56"/>
   <path d="m36,53.084l0,1.255c4,-0.286 8.377,-2.039 11.412,-4.766l-0.949,-0.887c-2.808,2.503 -6.463,4.115 -10.463,4.398z" id="svg_57"/>
   <path d="m48.082,47.404l0.887,0.96c2.728,-3.035 4.48,-7.211 4.766,-11.211l-1.255,0c-0.282,4 -1.894,7.444 -4.398,10.251z" id="svg_58"/>
   <path d="m34,18.123l0,-1.255c-4,0.286 -8.376,2.038 -11.411,4.766l0.949,0.886c2.807,-2.503 6.462,-4.115 10.462,-4.397z" id="svg_59"/>
   <path d="m23.746,48.922l-0.823,0.886c2.997,2.592 7.077,4.252 11.077,4.531l0,-1.255c-4,-0.274 -7.486,-1.794 -10.254,-4.162z" id="svg_60"/>
   <path d="m49.974,34.153l1.255,0c-0.268,-3 -1.65,-6.607 -3.795,-9.145l-0.887,0.837c1.922,2.306 3.165,5.308 3.427,8.308z" id="svg_61"/>
   <path d="m34,20.63l0,-1.256c-3,0.278 -7.062,1.752 -9.641,4.031l0.95,0.887c2.349,-2.055 5.691,-3.389 8.691,-3.662z" id="svg_62"/>
   <path d="m23.688,25.624l-0.887,-0.937c-2.278,2.578 -3.752,6.466 -4.03,9.466l1.255,0c0.273,-3 1.608,-6.18 3.662,-8.529z" id="svg_63"/>
   <path d="m25.518,47.15l-0.824,0.887c2.537,2.144 6.306,3.527 9.306,3.795l0,-1.255c-3,-0.262 -6.177,-1.506 -8.482,-3.427z" id="svg_64"/>
   <path d="m36,20.63c3,0.283 6.635,1.709 9.021,3.899l0.823,-0.885c-2.615,-2.415 -5.844,-3.982 -9.844,-4.27l0,1.256z" id="svg_65"/>
   <path d="m36,50.577l0,1.255c3,-0.277 7.063,-1.751 9.641,-4.029l-0.949,-0.888c-2.35,2.054 -5.692,3.389 -8.692,3.662z" id="svg_66"/>
   <path d="m20.027,37.153l-1.255,0c0.287,3 1.854,7.017 4.27,9.632l0.885,-0.81c-2.191,-2.388 -3.617,-5.822 -3.9,-8.822z" id="svg_67"/>
   <path d="m46.312,45.632l0.887,0.963c2.279,-2.58 3.753,-6.441 4.03,-9.441l-1.255,0c-0.274,2.999 -1.609,6.131 -3.662,8.478z" id="svg_68"/>
   <path d="m25.463,27.399l-0.89,-0.939c-1.831,2.119 -3.028,4.693 -3.295,7.693l1.256,0c0.26,-2 1.322,-4.867 2.929,-6.754z" id="svg_69"/>
   <path d="m27.298,45.37l-0.831,0.894c2.074,1.7 4.533,2.806 7.533,3.062l0,-1.257c-3,-0.247 -4.862,-1.221 -6.702,-2.699z" id="svg_70"/>
   <path d="m27.021,26.067c1.887,-1.607 3.979,-2.67 6.979,-2.929l0,-1.256c-3,0.267 -5.687,1.463 -7.807,3.294l0.828,0.891z" id="svg_71"/>
   <path d="m22.535,37.153l-1.256,0c0.278,2 1.565,5.706 3.53,7.865l0.896,-0.82c-1.741,-1.932 -2.898,-5.045 -3.17,-7.045z" id="svg_72"/>
   <path d="m36,48.068l0,1.257c3,-0.267 5.75,-1.465 7.869,-3.295l-0.952,-0.891c-1.889,1.608 -3.917,2.67 -6.917,2.929z" id="svg_73"/>
   <path d="m43.244,26.307l0.833,-0.896c-2.158,-1.964 -5.077,-3.251 -8.077,-3.529l0,1.256c3,0.272 5.314,1.43 7.244,3.169z" id="svg_74"/>
   <path d="m47.465,34.153l1.257,0c-0.255,-2 -1.361,-5.297 -3.062,-7.373l-0.894,0.846c1.478,1.84 2.454,4.527 2.699,6.527z" id="svg_75"/>
   <path d="m44.537,43.857l0.891,0.966c1.83,-2.119 3.026,-5.67 3.294,-7.67l-1.257,0c-0.259,2 -1.321,4.816 -2.928,6.704z" id="svg_76"/>
   <path d="m42.766,42.087l0.89,0.963c1.383,-1.657 2.301,-3.897 2.552,-5.897l-1.267,0c-0.239,2 -1.012,3.512 -2.175,4.934z" id="svg_77"/>
   <path d="m36,45.546l0,1.266c2,-0.251 4.441,-1.169 6.098,-2.554l-0.951,-0.889c-1.423,1.163 -3.147,1.936 -5.147,2.177z" id="svg_78"/>
   <path d="m29.081,43.587l-0.83,0.893c1.606,1.257 3.749,2.093 5.749,2.331l0,-1.266c-2,-0.223 -3.551,-0.919 -4.919,-1.958z" id="svg_79"/>
   <path d="m25.059,37.153l-1.265,0c0.264,2 1.278,4.387 2.793,6.087l0.885,-0.812c-1.291,-1.468 -2.159,-3.275 -2.413,-5.275z" id="svg_80"/>
   <path d="m41.477,28.074l0.823,-0.884c-1.701,-1.516 -4.3,-2.529 -6.3,-2.793l0,1.265c2,0.255 4.008,1.122 5.477,2.412z" id="svg_81"/>
   <path d="m34,25.662l0,-1.265c-2,0.25 -4.44,1.166 -6.096,2.552l0.951,0.889c1.422,-1.164 3.145,-1.937 5.145,-2.176z" id="svg_82"/>
   <path d="m44.941,34.153l1.267,0c-0.238,-2 -1.074,-3.98 -2.332,-5.588l-0.894,0.845c1.04,1.368 1.736,2.743 1.959,4.743z" id="svg_83"/>
   <path d="m25.059,34.153c0.239,-2 1.013,-3.563 2.176,-4.984l-0.889,-0.938c-1.386,1.657 -2.302,3.922 -2.553,5.922l1.266,0z" id="svg_84"/>
   <path d="m39.711,29.841l0.821,-0.884c-1.238,-1.068 -2.532,-1.79 -4.532,-2.033l0,1.265c2,0.226 2.705,0.808 3.711,1.652z" id="svg_85"/>
   <path d="m40.983,40.304l0.892,0.966c0.943,-1.187 1.579,-3.117 1.806,-4.117l-1.266,0c-0.207,1 -0.709,2.201 -1.432,3.151z" id="svg_86"/>
   <path d="m34,28.188l0,-1.265c-2,0.225 -3.131,0.862 -4.317,1.804l0.955,0.894c0.95,-0.724 1.362,-1.226 3.362,-1.433z" id="svg_87"/>
   <path d="m42.415,34.153l1.266,0c-0.208,-1 -0.766,-2.674 -1.589,-3.805l-0.892,0.845c0.61,0.885 1.029,1.96 1.215,2.96z" id="svg_88"/>
   <path d="m36,43.019l0,1.264c2,-0.226 3.131,-0.861 4.318,-1.805l-0.956,-0.893c-0.949,0.724 -1.362,1.226 -3.362,1.434z" id="svg_89"/>
   <path d="m29.239,40.589c-0.845,-1.005 -1.426,-2.436 -1.654,-3.436l-1.265,0c0.243,1 0.966,3.156 2.034,4.395l0.885,-0.959z" id="svg_90"/>
   <path d="m29.018,30.952l-0.894,-0.941c-0.942,1.186 -1.579,2.142 -1.804,4.142l1.265,0c0.207,-1 0.708,-2.252 1.433,-3.201z" id="svg_91"/>
   <path d="m30.864,41.801l-0.829,0.894c1.129,0.824 1.965,1.381 3.965,1.588l0,-1.264c-2,-0.186 -2.25,-0.606 -3.136,-1.218z" id="svg_92"/>
   <line fill="#000000" x1="34" y1="21.153" x2="34" y2="22.153" id="svg_93"/>
   <line fill="#000000" x1="34" y1="26.153" x2="34" y2="27.153" id="svg_94"/>
   <line fill="#000000" x1="34" y1="15.153" x2="34" y2="16.153" id="svg_95"/>
   <line fill="#000000" x1="34" y1="17.153" x2="34" y2="19.153" id="svg_96"/>
   <line fill="#000000" x1="34" y1="23.153" x2="34" y2="25.153" id="svg_97"/>
   <line fill="#000000" x1="34" y1="14.153" x2="34" y2="15.153" id="svg_98"/>
   <line fill="#000000" x1="34" y1="16.153" x2="34" y2="17.153" id="svg_99"/>
   <line fill="#000000" x1="34" y1="19.153" x2="34" y2="21.153" id="svg_100"/>
   <line fill="#000000" x1="34" y1="22.153" x2="34" y2="23.153" id="svg_101"/>
   <line fill="#000000" x1="34" y1="25.153" x2="34" y2="26.153" id="svg_102"/>
   <line fill="#000000" x1="34" y1="27.153" x2="34" y2="28.153" id="svg_103"/>
  </g>
  <g id="svg_106">
   <path stroke-width="0" fill="#000000" d="m35.0005,7.997c1.035,0 1.877,0.843 1.877,1.878s-0.842,1.878 -1.877,1.878s-1.878,-0.843 -1.878,-1.878s0.843,-1.878 1.878,-1.878m0,-1.252c-1.729,0 -3.13,1.401 -3.13,3.13c0,1.729 1.401,3.13 3.13,3.13s3.129,-1.4 3.129,-3.13c0,-1.728 -1.4,-3.13 -3.129,-3.13l0,0z" id="svg_107" stroke="#000000"/>
  </g>
 </g>
</svg>