<svg width="100" height="100" xmlns="http://www.w3.org/2000/svg">
 <g>
  <title>Layer 1</title>
  <path id="svg_20" d="m241.049,50" stroke-miterlimit="10" stroke="#FFFFFF" fill="none"/>
  <path id="svg_21" d="m242.86,50" stroke-miterlimit="10" stroke="#FFFFFF" fill="none"/>
  <g id="svg_45">
   <path id="svg_46" d="m49.946,84.375c-25.047,0 -47.168,-31.326 -48.098,-32.66l-1.195,-1.715l1.195,-1.716c0.93,-1.333 23.051,-32.659 48.098,-32.659c23.093,0 47.021,31.233 48.028,32.563l1.373,1.812l-1.372,1.812c-1.008,1.329 -24.936,32.563 -48.029,32.563zm-41.903,-34.377c4.883,6.385 23.077,28.377 41.903,28.377c17.226,0 36.448,-21.854 41.798,-28.374c-5.354,-6.519 -24.596,-28.376 -41.798,-28.376c-18.857,0 -37.026,21.987 -41.903,28.373z"/>
   <g id="svg_47">
    <g id="svg_48">
     <path id="svg_49" d="m69.04,50c0,-10.545 -8.549,-19.094 -19.094,-19.094s-19.093,8.549 -19.093,19.094c0,7.224 4.014,13.508 9.931,16.752v-11.523h-3.274l12.059,-14.47l4.632,5.229v-5.229h3.997v9.742l4.188,4.728h-3.274v11.523c5.914,-3.244 9.928,-9.528 9.928,-16.752z"/>
    </g>
    <rect id="svg_50" height="6.375" width="4.25" y="61.037" x="47.875"/>
   </g>
  </g>
 </g>
</svg>