<svg xmlns="http://www.w3.org/2000/svg" xmlns:xlink="http://www.w3.org/1999/xlink" version="1.1" x="0px" y="0px" width="100px" height="100px" viewBox="0 0 100 100" enable-background="new 0 0 100 100" xml:space="preserve">
<g id="Your_Icon">
	<path d="M50.002,0C22.385,0,0,22.388,0,50.002c0,0.942,0.029,1.878,0.085,2.811h28.06L41.042,9.373L52.56,60.292l9.219-26.663   l9.717,19.184h28.423c0.056-0.933,0.085-1.868,0.085-2.811C100.003,22.388,77.618,0,50.002,0z M63.079,52.702L51.059,87.473   L40.065,38.868l-6.352,21.404H1.062c4.736,22.687,24.846,39.73,48.94,39.73c24.092,0,44.203-17.044,48.939-39.73H66.913   L63.079,52.702z"/>
</g>
</svg>