<svg width="100" height="100" xmlns="http://www.w3.org/2000/svg">
 <g>
  <title>Layer 1</title>
  <g id="Captions"/>
  <path d="m38.117,72.158zm-4.215,-18.804l6.237,1.4l9.814,2.203l0.53,-16.708l0.205,-6.413l0.51,-16.063l-10.123,7.843l-9.414,-10.552l-18.178,14.07l7.979,11.674l-9.761,7.561l15.817,3.55l6.384,1.435zm55.781,-5.915c-1.143,-3.703 -3.152,-6.896 -5.834,-9.445c-2.6,-2.473 -5.83,-4.342 -9.527,-5.499c-3.596,-1.125 -7.646,-1.58 -12.02,-1.258c-2.244,0.165 -4.471,0.532 -6.66,1.067l-0.203,6.4c1.615,-0.365 3.256,-0.604 4.9,-0.698c3.334,-0.191 6.4,0.222 9.096,1.15c2.75401,0.948 5.131,2.435 7.014,4.367c1.924,1.978 3.332,4.422 4.082,7.227c0.76801,2.87 0.848,6.109 0.094,9.587c-0.77,3.545 -2.328,6.977 -4.492,10.126c-2.186,3.181 -4.971,6.04601 -8.15,8.428c-3.182,2.384 -6.727,4.262 -10.422,5.484c-3.66,1.212 -7.434,1.768 -11.106,1.54c-3.604,-0.223 -6.748,-1.181 -9.341,-2.695c-2.537,-1.48 -4.541,-3.492 -5.944,-5.871c-1.372,-2.325 -2.17,-5.002 -2.336,-7.891c-0.164,-2.826 0.278,-5.863 1.385,-8.99c0.321,-0.906 0.695,-1.796 1.108,-2.668l-6.438,-1.445c-0.689,1.344 -1.306,2.721 -1.833,4.133c-1.526,4.084 -2.203,8.077 -2.097,11.82c0.109,3.851 1.045,7.453 2.749,10.615c1.756,3.262 4.328,6.05701 7.64,8.15601c3.413,2.16399 7.601,3.582 12.452,3.998c4.974,0.42799 10.121,-0.244 15.134,-1.846c5.078,-1.621 9.953,-4.174 14.32,-7.44901c4.361,-3.272 8.15601,-7.223 11.098,-11.61c2.9,-4.328 4.93401,-9.029 5.857,-13.86c0.897,-4.707 0.649,-9.056 -0.526,-12.873zm-59.975,-34.649l-3.298,-3.628l-17.375,13.444l2.805,4.022l17.868,-13.838zm-8.115,-9.259l-16.612,12.871l2.805,4.022l17.106,-13.265l-3.299,-3.628z" id="svg_1" fill="black"/>
  <path fill="black" id="svg_2" d="m46.249,65.626c0,3.105 -2.516,5.623 -5.626,5.623c-3.106,0 -5.623,-2.518 -5.623,-5.623c0,-3.106 2.517,-5.626 5.623,-5.626c3.11,0 5.626,2.52 5.626,5.626z"/>
  <path id="svg_7" fill="black" d="m60.249,65.62599c0,3.10501 -2.516,5.62302 -5.626,5.62302c-3.106,0 -5.623,-2.51801 -5.623,-5.62302c0,-3.106 2.517,-5.62599 5.623,-5.62599c3.11,0 5.626,2.51999 5.626,5.62599z"/>
  <path id="svg_8" fill="black" d="m74.249,65.62599c0,3.10501 -2.516,5.62301 -5.626,5.62301c-3.106,0 -5.623,-2.518 -5.623,-5.62301c0,-3.10599 2.51701,-5.62599 5.623,-5.62599c3.11,0 5.626,2.52 5.626,5.62599z"/>
 </g>
</svg>