<svg width="80" height="80" xmlns="http://www.w3.org/2000/svg" xmlns:svg="http://www.w3.org/2000/svg">
 <g>
  <title>Layer 1</title>
  <path fill="black" id="svg_2" d="m67.971,40l4.029,-23.4l-8.473,3.123c-5.953,-7.051 -14.744,-11.198 -24.052,-11.198c-17.357,0 -31.475,14.12 -31.475,31.475s14.118,31.475 31.475,31.475c7.105,0 13.81,-2.313 19.392,-6.686l-3.672,-4.686c-4.523,3.543 -9.961,5.416 -15.72,5.416c-14.073,0.001 -25.522,-11.447 -25.522,-25.519s11.449,-25.521 25.522,-25.521c6.81,0 13.281,2.732 18.027,7.467l-7.785,2.869l18.254,15.185z"/>
  <g id="svg_3">
   <path id="svg_4" d="m32.52174,31.06076l0,-3.63576c11.05705,0 20.05326,8.99621 20.05326,20.05407l-3.63413,0c0,-9.054 -7.36594,-16.41831 -16.41912,-16.41831z"/>
   <path id="svg_5" d="m32.52174,34.68513c7.05665,0 12.79476,5.73892 12.79476,12.79394l-3.63413,0c0,-5.05198 -4.10865,-9.15981 -9.16062,-9.15981l0,-3.63413z"/>
   <circle id="svg_6" r="5.09674" cy="47.47826" cx="32.52174"/>
  </g>
 </g>
</svg>