<svg xmlns="http://www.w3.org/2000/svg" xmlns:xlink="http://www.w3.org/1999/xlink" version="1.1" id="Your_Icon" x="0px" y="0px" width="100px" height="100px" viewBox="0 0 100 100" enable-background="new 0 0 100 100" xml:space="preserve">
<path d="M89.793,55.461C89.793,77.267,71.943,95,50,95c-21.94,0-39.793-17.733-39.793-39.539c0-19.689,15.082-36.567,34.592-39.134  c0.167-5.772,0.558-10.678,1.265-11.187L46.556,5c2.528,0,25.359,14.452,25.408,17.162c0.007,0.442-0.316,0.966-1.092,1.749  c-4.021,4.065-21.452,15.421-24.304,15.421l-0.437-0.092c-0.413-0.211-0.836-0.765-1.147-4.922c-0.117-1.598-0.204-3.969-0.247-6.65  c-13.374,2.486-23.255,14.118-23.255,27.793c0,15.626,12.792,28.343,28.518,28.343c15.729,0,28.52-12.717,28.52-28.343  c0-3.083,2.531-5.593,5.635-5.593C87.266,49.868,89.793,52.378,89.793,55.461z"/>
</svg>