<svg width="100" height="100" xmlns="http://www.w3.org/2000/svg" xmlns:svg="http://www.w3.org/2000/svg">
 <g>
  <title>Layer 1</title>
  <path d="m51.50001,30.62501c6.06816,0 10.98837,5.14236 10.98837,11.48436c0,6.24463 -3.60065,6.97265 -4.27761,13.78125c0,0.63574 -0.49055,1.14844 -1.09884,1.14844l-11.22383,0c-0.60828,0 -1.09883,-0.5127 -1.09883,-1.14844l-0.00245,0c-0.67453,-6.80859 -4.27517,-7.53662 -4.27517,-13.78125c0,-6.342 4.92028,-11.48436 10.98836,-11.48436m5.49418,27.56248c0.60828,0 1.09884,0.51269 1.09884,1.14843s-0.49056,1.14844 -1.09884,1.14844l-10.98836,0c-0.60828,0 -1.09883,-0.5127 -1.09883,-1.14844s0.49055,-1.14843 1.09883,-1.14843l10.98836,0m0,3.44531c0.60828,0 1.09884,0.5127 1.09884,1.14843s-0.49056,1.14844 -1.09884,1.14844l-10.98836,0c-0.60828,0 -1.09883,-0.5127 -1.09883,-1.14844s0.49055,-1.14843 1.09883,-1.14843l10.98836,0m-1.09883,3.44531c0,1.26894 -0.98354,2.29688 -2.19768,2.29688l-4.39534,0c-1.21414,0 -2.19768,-1.02793 -2.19768,-2.29688l8.7907,0m-4.39535,-37.07809c-7.44415,0 -13.49998,6.3292 -13.49998,14.10936c0,3.90674 1.22152,6.14981 2.29578,8.13135c0.91243,1.67656 1.70225,3.12998 1.98426,5.83192c0.02701,0.5999 0.19136,1.16386 0.45869,1.65859c-0.2207,0.48702 -0.34339,1.03048 -0.34339,1.6047c0,0.6204 0.1423,1.20488 0.39739,1.72266c-0.25509,0.51786 -0.39739,1.10234 -0.39739,1.72266c0,1.61758 0.97867,2.99929 2.34978,3.53506c0.52485,2.11739 2.36932,3.68369 4.55719,3.68369l4.39534,0c2.18786,0 4.03234,-1.56631 4.55727,-3.68369c1.37104,-0.53577 2.34971,-1.91749 2.34971,-3.53506c0,-0.6204 -0.14473,-1.20487 -0.39982,-1.72266c0.25508,-0.51786 0.39982,-1.10233 0.39982,-1.72266c0,-0.57423 -0.12268,-1.11768 -0.34339,-1.60215c0.26733,-0.49735 0.42926,-1.06385 0.45625,-1.66367c0.28452,-2.69931 1.07184,-4.15028 1.98426,-5.82938c1.07678,-1.979 2.29822,-4.2246 2.29822,-8.13135c0,-7.78016 -6.05584,-14.10936 -13.49999,-14.10936l0,0l0,0l0,0z" id="svg_1" fill="black"/>
  <path d="m97.953,49.129c-0.13499,-7.687 -2.136,-15.261 -5.806,-21.96899l-16.935,9.77799c1.965,3.74002 3.062,7.93599 3.18799,12.19099l19.55299,0l0.00002,0z" id="svg_2"/>
  <path d="m51.229,2.406l0,19.552c4.18199,0.125 8.31099,1.188 12,3.09l9.78,-16.939c-6.65701,-3.604 -14.166,-5.57 -21.78,-5.703z" id="svg_3"/>
  <path d="m48.974,21.982l0,-19.563c-7.55299,0.224 -14.98999,2.256 -21.571,5.895l9.778,16.936c3.616,-1.936 7.673,-3.06 11.793,-3.268z" id="svg_4"/>
  <path d="m74.084,34.985l16.935,-9.777c-3.98,-6.518 -9.515,-12.026 -16.05098,-15.979l-9.776,16.93401c3.577,2.23 6.63701,5.26499 8.892,8.822l-0.00002,0z" id="svg_5"/>
  <path d="m8.64101,27.161c-3.57401,6.533 -5.57001,13.90499 -5.79201,21.383l19.563,0c0.203,-4.10101 1.26599,-8.00101 3.164,-11.60501l-16.935,-9.77799z" id="svg_6"/>
  <path d="m26.403,64.442l-16.935,9.778c3.823,6.43599 9.164,11.933 15.49001,15.94499l9.78999,-16.955c-3.371,-2.27399 -6.242,-5.28999 -8.345,-8.76799z" id="svg_7"/>
  <path d="m2.836,50.8c0.131,7.487 2.036,14.88399 5.52499,21.45398l16.953,-9.78798c-1.82399,-3.647 -2.80699,-7.567 -2.92599,-11.666l-19.552,0z" id="svg_8"/>
  <path d="m48.388,97.489l0,-19.57201c-4.10201,-0.293 -8.134,-1.504 -11.72,-3.52098l-9.776,16.933c6.539,3.72099 13.95,5.845 21.496,6.15999z" id="svg_9"/>
  <path fill="black" d="m50.644,77.989l0,19.54399c7.612,-0.03999 15.14999,-1.91599 21.85001,-5.43599l-9.79001,-16.957c-3.782,1.85501 -7.836,2.812 -12.06,2.849z" id="svg_10"/>
  <path d="m91.86499,73.282c3.75301,-6.66299 5.847,-14.213 6.07402,-21.896l-19.56201,0c-0.214,4.243 -1.40001,8.41299 -3.44699,12.118l16.93498,9.778z" id="svg_11" fill="black"/>
  <path fill="black" d="m74.466,91.002c6.58099,-3.869 12.18201,-9.31099 16.245,-15.782l-16.952,-9.787c-2.33,3.511 -5.451,6.48201 -9.06999,8.634l9.77699,16.935z" id="svg_12"/>
  <path fill="black" d="m25.45399,9.452c-6.37199,3.93201 -11.778,9.36401 -15.683,15.756l16.93401,9.777c2.175,-3.429 5.10899,-6.38499 8.53099,-8.59l-9.782,-16.94301l0,0.00002z" id="svg_13"/>
 </g>
</svg>