<svg width="100" height="100" xmlns="http://www.w3.org/2000/svg" fill="#FFFFFF">
  <g>
    <title>Layer 1</title>
    <circle cx="37.177" cy="18.7" r="4.173" id="svg_1"/>
    <circle cx="63.436" cy="18.7" r="4.173" id="svg_2"/>
    <path d="m14,0l0,39.225l31.896,0l0,3.34l-31.896,0.002l0,57.433l18.544,0l14.114,-14.114l-8.111,-8.11l8.111,-8.111l-2.371,-2.37l-10.48,10.481l4.598,4.599l-9.279,9.28l-6.78,0l0,-40.743l55.921,0l0,40.742l-6.778,0l-9.28,-9.28l4.599,-4.599l-10.483,-10.481l-2.371,2.37l8.112,8.111l-8.112,8.11l14.115,14.115l18.544,0l0,-57.433l-31.896,-0.001l0,-3.34l31.896,0l0,-39.226l-72.613,0zm64.267,30.879l-55.921,0l0,-23.129l55.921,0l0,23.129z" id="svg_3"/>
    <rect x="41.38559" y="82.85359" transform="matrix(0.7071 -0.7071 0.7071 0.7071 -44.3617 48.4522)" width="9.641" height="9.642" id="svg_4"/>
  </g>
</svg>