<svg width="100" height="100" xmlns="http://www.w3.org/2000/svg">
 <g>
  <title>Layer 1</title>
  <path id="svg_2" fill-rule="evenodd" clip-rule="evenodd" d="m48.75131,55.24599c-5.79881,0 -10.50032,-4.82587 -10.50032,-10.77808c0,-2.72821 0.99753,-5.21255 2.62508,-7.11219l0,-22.52217c0,-4.46347 3.52548,-8.08356 7.87524,-8.08356c4.34713,0 7.87262,3.62009 7.87262,8.08356l0,22.52217c1.63017,1.89964 2.62508,4.38398 2.62508,7.11219c0,5.95221 -4.6989,10.77808 -10.49769,10.77808l-0.00001,0zm2.62508,-15.41939l0,-5.78111l0,-13.82424l0,-5.3877c0,-1.48737 -1.17603,-2.69452 -2.62508,-2.69452c-1.45036,0 -2.62508,1.20715 -2.62508,2.69452l0,5.3877l0,13.82424l0,5.78111c-1.56324,0.93365 -2.62508,2.65274 -2.62508,4.64131c0,2.9761 2.35076,5.38904 5.25016,5.38904s5.25014,-2.41294 5.25014,-5.38904c0,-1.98856 -1.06447,-3.70766 -2.62508,-4.64131l0.00001,0l0.00001,0zm-2.62508,8.68309c-2.17357,0 -3.93762,-1.81073 -3.93762,-4.04179c0,-1.75817 1.09991,-3.23612 2.62508,-3.79389l0,-13.80269l2.62508,0l0,13.80269c1.52517,0.55777 2.62508,2.03706 2.62508,3.79389c0,2.23106 -1.76405,4.04179 -3.93761,4.04179l-0.00001,0z" fill="black"/>
  <path stroke="#000000" transform="rotate(-90 67.9625 64.9256)" id="svg_5" d="m47.58755,82.67562l20.37498,-35.50001l20.375,35.50001l-40.74998,0z" stroke-linejoin="round" stroke-width="8" fill="#000000"/>
  <path transform="rotate(90 30.7125 65.6756)" id="svg_8" stroke="#000000" fill-opacity="0" d="m10.33755,83.42562l20.37497,-35.50001l20.375,35.50001l-40.74997,0z" stroke-linejoin="round" stroke-width="8" fill="#000000"/>
 </g>
</svg>