<svg width="100" height="100" xmlns="http://www.w3.org/2000/svg" xmlns:svg="http://www.w3.org/2000/svg">
    <g>
        <title>Layer 1</title>
        <path fill="black" id="svg_1" d="m95.14517,32.28781c-0.54094,-0.71013 -1.33531,-1.12186 -2.174,-1.12186l-13.67357,0l-13.38606,-25.75485c-0.78187,-1.50714 -2.52175,-2.02337 -3.87979,-1.15585c-1.35918,0.86626 -1.82625,2.79142 -1.04325,4.29856l11.753,22.61214l-45.48464,0l11.753,-22.61214c0.783,-1.50714 0.31593,-3.4323 -1.04325,-4.29856c-1.36031,-0.86752 -3.09792,-0.35129 -3.87979,1.15585l-13.38606,25.75485l-13.67244,0c-0.83869,0 -1.63419,0.41047 -2.174,1.12186c-0.53981,0.71013 -0.76823,1.64942 -0.62504,2.56478l2.27287,14.50607c0.23638,1.50714 1.41713,2.60885 2.79904,2.60885l1.81943,0l7.87776,41.69503c0.27615,1.45804 1.43645,2.50309 2.78085,2.50309l56.44213,0c1.34554,0 2.5047,-1.04505 2.78085,-2.50309l7.87776,-41.69503l1.81943,0c1.3819,0 2.56266,-1.10171 2.79904,-2.60885l2.27287,-14.50607c0.14205,-0.91662 -0.08751,-1.85465 -0.62618,-2.56478zm-19.23301,57.58359l-51.82594,0l-7.16181,-37.90389l66.14842,0l-7.16067,37.90389zm12.39509,-44.19812l-76.61611,0l-1.28644,-8.21058l79.189,0l-1.28644,8.21058z"/>
    </g>
</svg>