<svg width="100" height="100" xmlns="http://www.w3.org/2000/svg">
 <g>
  <title>Layer 1</title>
  <polygon points="52.09400177001953,13.161999702453613 47.5,15.690999984741211 49.75600051879883,17.94700050354004 54.183998107910156,15.289999961853027 " id="svg_1"/>
  <polygon points="56.66899871826172,17.812999725341797 52.553001403808594,20.744998931884766 54.891998291015625,23.08300018310547 58.854000091552734,20.03700065612793 " id="svg_2"/>
  <polygon points="60.81700134277344,22.024999618530273 57.345001220703125,25.535999298095703 59.529998779296875,27.722000122070312 63.020999908447266,24.26799964904785 " id="svg_3"/>
  <polygon points="64.98400115966797,26.268999099731445 61.983001708984375,30.174999237060547 64.3219985961914,32.513999938964844 67.177001953125,28.499000549316406 " id="svg_4"/>
  <polygon points="69.68099975585938,31.04199981689453 67.11900329589844,35.31100082397461 69.46399688720703,37.65599822998047 71.90399932861328,33.30400085449219 " id="svg_5"/>
  <polygon points="44.395999908447266,17.404998779296875 39.483001708984375,20.11400032043457 41.98099899291992,22.611000061035156 46.74100112915039,19.75 " id="svg_6"/>
  <polygon points="49.736000061035156,22.7450008392334 45.28200149536133,25.91200065612793 47.84400177001953,28.474000930786133 52.16400146484375,25.17300033569336 " id="svg_7"/>
  <polygon points="54.94200134277344,27.951000213623047 51.150001525878906,31.7810001373291 53.28499984741211,33.91600036621094 57.1150016784668,30.124000549316406 " id="svg_8"/>
  <polygon points="59.89400100708008,32.902000427246094 56.59299850463867,37.222999572753906 59.15399932861328,39.784000396728516 62.32099914550781,35.33000183105469 " id="svg_9"/>
  <polygon points="65.31500244140625,38.32500076293945 62.45500183105469,43.084999084472656 64.99700164794922,45.62699890136719 67.73699951171875,40.74599838256836 " id="svg_10"/>
  <polygon points="36.374000549316406,21.820999145507812 32.53799819946289,23.937000274658203 35.25299835205078,26.6510009765625 38.9739990234375,24.42099952697754 " id="svg_11"/>
  <polygon points="42.472999572753906,27.91900062561035 38.99300003051758,30.392000198364258 41.74599838256836,33.14500045776367 45.11600112915039,30.56399917602539 " id="svg_12"/>
  <polygon points="48.755001068115234,34.20199966430664 45.79199981689453,37.191001892089844 47.875999450683594,39.27399826049805 50.86399841308594,36.3120002746582 " id="svg_13"/>
  <polygon points="54.50199890136719,39.95000076293945 51.922000885009766,43.32099914550781 54.67499923706055,46.073001861572266 57.14699935913086,42.59400177001953 " id="svg_14"/>
  <polygon points="60.645999908447266,46.09199905395508 58.415000915527344,49.81399917602539 61.130001068115234,52.52799987792969 63.270999908447266,48.71799850463867 " id="svg_15"/>
  <path fill="black" d="m86.897,53.8l-0.011,-41.658c0.002,-0.023 0.004,-0.046 0.006,-0.07l0.007,-0.058l0,-0.012c0.172,-1.833 -0.44,-3.728 -1.842,-5.129c-2.497,-2.497 -6.552,-2.497 -9.049,0c-0.104,0.104 -0.203,0.215 -0.299,0.325l-0.013,-0.013l-6.093,6.093c-0.792,-0.788 -1.755,-1.752 -2.828,-2.843c-2.299,-2.336 -3.437,-2.89 -5.882,-2.352c-2.445,0.539 -5.385,3.192 -5.385,3.192l8.456,8.456l1.363,1.363l8.463,8.462c0,0 2.653,-2.939 3.192,-5.385c0.53799,-2.445 -0.021,-3.589 -2.357,-5.888c-0.688,-0.677 -1.326,-1.31 -1.901,-1.884l2.104,-2.105l3.874,-3.874l0.02599,0.025c0.053,-0.068 0.108,-0.135 0.172,-0.198c0.861,-0.861 2.261,-0.861 3.122,0c0.39,0.39 0.60101,0.892 0.63699,1.402l0,0.37l0,41.781l-32.659,0l-50,0c0,0 0.601,2.11 6.407,24.484c2.297,8.85101 4.188,8.58801 9.11,8.633l3.415,0l-0.012,0.027c0.004,0 0.008,0 0.012,0l-1.604,9.462l5.073,0l2.019,-9.489l51.158,0l2.019,9.489l5.07301,0l-1.604,-9.462c0.004,0 0.009,0 0.013,0l-0.013,-0.027l3.416,0c4.922,-0.045 6.813,0.218 9.11,-8.633c5.806,-22.37401 6.408,-24.484 6.408,-24.484l-13.103,0l0.00002,0z" id="svg_16"/>
 </g>
</svg>