<svg xmlns="http://www.w3.org/2000/svg" xmlns:xlink="http://www.w3.org/1999/xlink" version="1.1" id="Layer_1" x="0px" y="0px" width="100px" height="100px" viewBox="0 0 100 100" enable-background="new 0 0 100 100" xml:space="preserve">
<g>
	<g>
		<path d="M53.075,92.004H29.429c-5.299,0-9.609-4.312-9.609-9.609V35.103c0-5.295,4.311-9.607,9.609-9.607h23.646    c5.295,0,9.606,4.312,9.606,9.607v47.292C62.682,87.692,58.37,92.004,53.075,92.004z M29.429,28.948    c-3.395,0-6.158,2.761-6.158,6.155v47.292c0,3.394,2.764,6.158,6.158,6.158h23.646c3.394,0,6.154-2.765,6.154-6.158V35.103    c0-3.395-2.761-6.155-6.154-6.155H29.429z"/>
	</g>
</g>
<g>
	<g>
		<rect x="27.458" y="33.134" width="27.585" height="51.232"/>
	</g>
</g>
<g>
	<path d="M70.182,35.496c-1.381,0-2.5-1.119-2.5-2.5c0-6.893-5.607-12.5-12.5-12.5c-1.381,0-2.5-1.119-2.5-2.5s1.119-2.5,2.5-2.5   c9.649,0,17.5,7.851,17.5,17.5C72.682,34.377,71.563,35.496,70.182,35.496z"/>
</g>
<g>
	<path d="M80.182,35.496c-1.381,0-2.5-1.119-2.5-2.5c0-12.407-10.094-22.5-22.5-22.5c-1.381,0-2.5-1.119-2.5-2.5s1.119-2.5,2.5-2.5   c15.163,0,27.5,12.336,27.5,27.5C82.682,34.377,81.563,35.496,80.182,35.496z"/>
</g>
</svg>