<svg width="100" height="100" xmlns="http://www.w3.org/2000/svg">
 <g>
  <title>Layer 1</title>
  <path fill="black" d="m78.33379,37.3843l12.32997,6.59795c0.37319,0.19949 0.78246,0.29454 1.18497,0.29454c0.82191,0 1.62016,-0.39377 2.05762,-1.09774c0.65732,-1.05492 0.26833,-2.40021 -0.86702,-3.006l-9.95891,-5.32787l9.95891,-5.32787c1.13535,-0.60684 1.52434,-1.95213 0.86702,-3.00287c-0.65054,-1.04865 -2.10723,-1.41004 -3.24259,-0.8032l-9.95441,5.3216v-10.64738c0,-1.21577 -1.06319,-2.19757 -2.37444,-2.19757c-1.31237,0 -2.37444,0.98181 -2.37444,2.19757v13.18964l-23.58208,12.60995v-25.22095l12.32772,-6.60109c1.13535,-0.60579 1.52433,-1.95212 0.86701,-3.00287c-0.65393,-1.05179 -2.10723,-1.41213 -3.24259,-0.8032l-9.95102,5.32474v-10.65261c-0.00113,-1.21264 -1.06432,-2.19758 -2.37669,-2.19758c-1.31237,0 -2.37445,0.98494 -2.37445,2.19758v10.65574l-9.96567,-5.32787c-1.14212,-0.60893 -2.58754,-0.24859 -3.24147,0.80633c-0.65731,1.04865 -0.26834,2.39394 0.86702,3.00078l12.34011,6.60109v25.22722l-23.58434,-12.61413v-13.19277c0,-1.21577 -1.0632,-2.19757 -2.37557,-2.19757s-2.37444,0.98181 -2.37444,2.19757v10.64947l-9.95891,-5.32474c-1.13198,-0.60684 -2.58753,-0.24545 -3.24147,0.8032c-0.65731,1.05179 -0.26834,2.39707 0.86702,3.00287l9.95891,5.32787l-9.95891,5.32787c-1.13536,0.60684 -1.52433,1.95213 -0.86702,3.006c0.43858,0.70293 1.23683,1.09774 2.05763,1.09774c0.4025,0 0.81178,-0.094 1.18384,-0.29454l12.33335,-6.59795l23.58096,12.61414l-23.58096,12.61413l-12.33335,-6.59482c-1.14212,-0.6058 -2.58753,-0.24127 -3.24147,0.80634c-0.65731,1.05178 -0.26834,2.39394 0.86702,3.00287l9.95891,5.32578l-9.95891,5.32787c-1.13536,0.60892 -1.52433,1.95525 -0.86702,3.00391c0.43858,0.70605 1.23683,1.10296 2.05763,1.10296c0.4025,0 0.81178,-0.09713 1.18384,-0.29662l9.95891,-5.32788v10.65575c0,1.21472 1.0632,2.19966 2.37444,2.19966s2.37557,-0.98494 2.37557,-2.19966v-13.19696l23.58434,-12.61412v25.2314l-12.34011,6.59273c-1.13536,0.60579 -1.52433,1.95107 -0.8704,3.006c0.44197,0.70294 1.24022,1.10088 2.061,1.10088c0.40251,0 0.8084,-0.09505 1.18385,-0.29455l9.96567,-5.32787v10.65573c0,1.21159 1.06208,2.19758 2.37445,2.19758c1.31124,0 2.37444,-0.98493 2.37444,-2.19758v-10.65364l9.95102,5.32474c0.37319,0.19949 0.78246,0.29454 1.18497,0.29454c0.82192,0 1.62017,-0.39794 2.05762,-1.10089c0.65731,-1.05492 0.26833,-2.39706 -0.86702,-3.00598l-12.32547,-6.59169v-25.22827l23.58096,12.61413v13.19277c0,1.21473 1.06207,2.19965 2.37444,2.19965c1.31123,0 2.37444,-0.98492 2.37444,-2.19965v-10.6526l9.95441,5.32473c0.37319,0.19949 0.78246,0.29664 1.18497,0.29664c0.82192,0 1.62016,-0.3969 2.05762,-1.10297c0.65732,-1.04865 0.26834,-2.39499 -0.86702,-3.00391l-9.95891,-5.32787l9.95891,-5.32579c1.13536,-0.60893 1.52434,-1.95108 0.86702,-3.00287c-0.65054,-1.04866 -2.10723,-1.41317 -3.24259,-0.80633l-12.33224,6.59481l-23.58095,-12.61308l23.58434,-12.61309l0,0z" id="svg_6"/>
 </g>
</svg>