<svg xmlns:svg="http://www.w3.org/2000/svg"
     height="100"
     width="100"
     xmlns="http://www.w3.org/2000/svg">
    <g>
        <title>Layer 1</title>
        <rect
            fill="#000000"
            fill-opacity="0"
            height="90"
            id="svg_4"
            stroke="#000000"
            stroke-dasharray="null"
            stroke-linecap="null"
            stroke-linejoin="null"
            stroke-width="5"
            width="90"
            x="5"
            y="5"/>
        <path d="m50,34.60277c-2.38835,0 -4.37017,-1.93101 -4.37017,-4.37017s1.93101,-4.37017 4.37017,-4.37017s4.37017,1.93101 4.37017,4.37017s-1.98182,4.37017 -4.37017,4.37017zm-13.82194,-1.88019c-0.10163,2.13427 1.52448,3.91283 3.65875,4.01446c2.13427,0.10163 3.91283,-1.52448 4.01446,-3.65875s-1.52448,-3.91283 -3.65875,-4.01446s-3.91283,1.52448 -4.01446,3.65875zm-6.55526,6.91097c-0.20326,1.82937 1.06714,3.45548 2.89651,3.70956c1.82937,0.20326 3.45548,-1.06714 3.70956,-2.89651s-1.06714,-3.45548 -2.89651,-3.70956s-3.5063,1.06714 -3.70956,2.89651zm-2.18509,9.75666c-0.3049,1.52448 0.66061,3.04896 2.18509,3.35385s3.04896,-0.66061 3.35385,-2.18509s-0.66061,-3.04896 -2.18509,-3.35385s-2.99814,0.66061 -3.35385,2.18509zm3.30304,9.85829c-0.45734,1.21958 0.20326,2.59161 1.47366,2.99814c1.21958,0.45734 2.59161,-0.20326 2.99814,-1.47366c0.45734,-1.21958 -0.20326,-2.59161 -1.47366,-2.99814s-2.59161,0.25408 -2.99814,1.47366zm7.67321,6.91097c-0.55898,0.9655 -0.20326,2.13427 0.71142,2.69325c0.9655,0.55898 2.13427,0.20326 2.69325,-0.71142c0.55898,-0.9655 0.20326,-2.13427 -0.71142,-2.69325c-0.9655,-0.55898 -2.13427,-0.25408 -2.69325,0.71142zm7.21587,3.60793c0,2.38835 1.93101,4.37017 4.37017,4.37017s4.37017,-1.93101 4.37017,-4.37017s-1.93101,-4.37017 -4.37017,-4.37017s-4.37017,1.98182 -4.37017,4.37017zm18.19211,-2.48998c0.10163,-2.13427 -1.52448,-3.91283 -3.65875,-4.01446c-2.13427,-0.10163 -3.91283,1.52448 -4.01446,3.65875s1.52448,3.91283 3.65875,4.01446s3.91283,-1.52448 4.01446,-3.65875zm6.55526,-6.91097c0.20326,-1.82937 -1.06714,-3.45548 -2.89651,-3.70956c-1.82937,-0.20326 -3.45548,1.06714 -3.70956,2.89651c-0.20326,1.82937 1.06714,3.45548 2.89651,3.70956c1.82937,0.25408 3.5063,-1.06714 3.70956,-2.89651zm2.18509,-9.75666c0.3049,-1.52448 -0.66061,-3.04896 -2.18509,-3.35385s-3.04896,0.66061 -3.35385,2.18509s0.66061,3.04896 2.18509,3.35385s2.99814,-0.66061 3.35385,-2.18509zm-3.30304,-9.85829c0.45734,-1.21958 -0.20326,-2.59161 -1.47366,-2.99814s-2.59161,0.20326 -2.99814,1.47366s0.20326,2.59161 1.47366,2.99814s2.59161,-0.25408 2.99814,-1.47366zm-7.67321,-6.91097c0.55898,-0.9655 0.20326,-2.13427 -0.71142,-2.69325c-0.9655,-0.55898 -2.13427,-0.20326 -2.69325,0.71142c-0.55898,0.9655 -0.20326,2.13427 0.71142,2.69325c0.9655,0.55898 2.13427,0.25408 2.69325,-0.71142z" id="svg_1" fill="black"/>
    </g>
</svg>