<svg width="100" height="100" xmlns="http://www.w3.org/2000/svg">
  <defs>
    <style type="text/css">.fil0 {fill:#0A0B0C}</style>
  </defs>
  <g>
    <title>Layer 1</title>
    <g id="Layer_x0020_1">
      <metadata id="CorelCorpID_0Corel-Layer"/>
      <path class="fil0" d="m89.8172,11l-36.84697,0l0,84.68508l36.84697,0l0,-84.68508zm-7.07475,23.79076c2.27747,0 4.1251,2.63252 4.1251,5.88034c0,3.24643 -1.84763,5.87903 -4.1251,5.87903c-2.27746,0 -4.12509,-2.63261 -4.12509,-5.87903c0,-3.24782 1.84763,-5.88034 4.12509,-5.88034zm-17.09434,-16.99091c-4.80951,0 -8.71213,5.5479 -8.71213,12.38797c0,6.84007 3.90262,12.38797 8.71213,12.38797c4.80945,0 8.7112,-5.5479 8.7112,-12.38797c0,-6.84007 -3.90168,-12.38797 -8.7112,-12.38797zm0,2.15405c-3.97431,0 -7.19822,4.58415 -7.19822,10.23391c0,5.64977 3.22391,10.23391 7.19822,10.23391c3.97425,0 7.19632,-4.58424 7.19632,-10.23391c0,-5.64985 -3.22207,-10.23391 -7.19632,-10.23391zm0,6.19398c-1.56764,0 -2.84117,1.80946 -2.84117,4.03993c0,2.23038 1.27353,4.03862 2.84117,4.03862c1.56765,0 2.84025,-1.80824 2.84025,-4.03862c0,-2.23039 -1.2726,-4.03993 -2.84025,-4.03993zm5.74557,35.54602c-3.32857,0 -6.03028,3.83751 -6.03028,8.5745c0,4.7356 2.70171,8.57451 6.03028,8.57451c3.3314,0 6.03022,-3.83891 6.03022,-8.57451c0,-4.73699 -2.69882,-8.5745 -6.03022,-8.5745zm0,-12.00463c-7.99007,0 -14.47276,9.21526 -14.47276,20.57914c0,11.36388 6.48275,20.57914 14.47276,20.57914c7.99191,0 14.47276,-9.21526 14.47276,-20.57914c0,-11.36388 -6.48084,-20.57914 -14.47276,-20.57914zm0,2.74374c-6.92483,0 -12.5431,7.98613 -12.5431,17.8353c0,9.84927 5.61827,17.83531 12.5431,17.83531c6.92673,0 12.54309,-7.98604 12.54309,-17.83531c0,-9.84926 -5.61642,-17.8353 -12.54309,-17.8353zm0,-4.11504c-8.52267,0 -15.4371,9.82645 -15.4371,21.95034c0,12.12391 6.91449,21.95036 15.4371,21.95036c8.52641,0 15.43709,-9.82645 15.43709,-21.95036c0,-12.1239 -6.91068,-21.95034 -15.43709,-21.95034zm-5.74557,-31.59589c-5.22896,0 -9.47003,6.03187 -9.47003,13.46565c0,7.43386 4.24107,13.46565 9.47003,13.46565c5.22804,0 9.46911,-6.03178 9.46911,-13.46565c0,-7.43378 -4.24107,-13.46565 -9.46911,-13.46565z" id="svg_1"/>
      <path class="fil0" d="m11,11l36.84697,0l0,84.68508l-36.84697,0l0,-84.68508zm7.07475,23.79076c-2.27747,0 -4.1251,2.63252 -4.1251,5.88034c0,3.24643 1.84763,5.87903 4.1251,5.87903c2.27746,0 4.12509,-2.63261 4.12509,-5.87903c0,-3.24782 -1.84763,-5.88034 -4.12509,-5.88034zm17.09434,-16.99091c4.80952,0 8.71212,5.5479 8.71212,12.38797c0,6.84007 -3.90261,12.38797 -8.71212,12.38797c-4.80945,0 -8.7112,-5.5479 -8.7112,-12.38797c0,-6.84007 3.90169,-12.38797 8.7112,-12.38797zm0,2.15405c3.97432,0 7.19822,4.58415 7.19822,10.23391c0,5.64977 -3.22391,10.23391 -7.19822,10.23391c-3.97425,0 -7.19632,-4.58424 -7.19632,-10.23391c0,-5.64985 3.22206,-10.23391 7.19632,-10.23391zm0,6.19398c1.56765,0 2.84118,1.80946 2.84118,4.03993c0,2.23038 -1.27353,4.03862 -2.84118,4.03862c-1.56765,0 -2.84025,-1.80824 -2.84025,-4.03862c0,-2.23039 1.2726,-4.03993 2.84025,-4.03993zm-5.74556,35.54602c3.32857,0 6.03028,3.83751 6.03028,8.5745c0,4.7356 -2.70171,8.57451 -6.03028,8.57451c-3.3314,0 -6.03022,-3.83891 -6.03022,-8.57451c0,-4.73699 2.69882,-8.5745 6.03022,-8.5745zm0,-12.00463c7.99007,0 14.47276,9.21526 14.47276,20.57914c0,11.36388 -6.48275,20.57914 -14.47276,20.57914c-7.99192,0 -14.47276,-9.21526 -14.47276,-20.57914c0,-11.36388 6.48084,-20.57914 14.47276,-20.57914zm0,2.74374c6.92482,0 12.54309,7.98613 12.54309,17.8353c0,9.84927 -5.61827,17.83531 -12.54309,17.83531c-6.92673,0 -12.5431,-7.98604 -12.5431,-17.83531c0,-9.84926 5.61643,-17.8353 12.5431,-17.8353zm0,-4.11504c8.52266,0 15.4371,9.82645 15.4371,21.95034c0,12.12391 -6.91449,21.95036 -15.4371,21.95036c-8.52642,0 -15.4371,-9.82645 -15.4371,-21.95036c0,-12.1239 6.91068,-21.95034 15.4371,-21.95034zm5.74556,-31.59589c5.22896,0 9.47003,6.03187 9.47003,13.46565c0,7.43386 -4.24107,13.46565 -9.47003,13.46565c-5.22804,0 -9.46911,-6.03178 -9.46911,-13.46565c0,-7.43378 4.24107,-13.46565 9.46911,-13.46565z" id="svg_2"/>
    </g>
  </g>
</svg>