<svg width="100" height="100" xmlns="http://www.w3.org/2000/svg" xmlns:svg="http://www.w3.org/2000/svg">
    <g>
        <title>Layer 1</title>
        <g id="svg_1">
            <path d="m88.812,46.987l-2.936,0c-0.505,0 -0.978,0.24 -1.278,0.646l-1.891,2.573l-2.602,-13.052c-0.139,-0.705 -0.737,-1.227 -1.454,-1.272c-0.792,-0.043 -1.377,0.399 -1.603,1.08l-5.034,15.114l-2.089,-8.4c-0.167,-0.671 -0.752,-1.157 -1.442,-1.199c-0.758,-0.023 -1.327,0.371 -1.575,1.016l-1.6,4.194l-1.163,2.687l-2.416,0l0.08,-30.927c0,-0.432 -0.173,-0.845 -0.483,-1.143l-0.275,-0.266c-0.585,-0.563 -1.501,-0.597 -2.122,-0.073l-21.714,18.299l-12.874,0c-8.4,0 -14.737,5.905 -14.737,13.735s6.337,13.735 14.737,13.735l12.871,0l21.727,18.3c0.285,0.242 0.646,0.373 1.021,0.373c0.244,0 0.597,-0.083 0.817,-0.193c0.535,-0.268 0.876,-0.814 0.876,-1.412l0.07,-27.257l3.463,0c0.631,0 1.204,-0.374 1.454,-0.955l1.42,-3.283l1.971,7.931c0.087,0.35 0.291,0.658 0.575,0.876l0.263,0.201c0.275,0.212 0.616,0.326 0.962,0.326c0.681,0 1.541,-0.62 1.757,-1.267l4.576,-13.741l2.018,10.11c0.121,0.603 0.578,1.083 1.176,1.23l0.479,0.118c0.634,0.146 1.278,-0.087 1.655,-0.602l3.184,-4.333l2.135,0c0.876,0 1.584,-0.709 1.584,-1.584c0.001,-0.876 -0.707,-1.585 -1.583,-1.585zm-30.319,30.527l-19.681,-16.576c-0.285,-0.241 -0.646,-0.373 -1.021,-0.373l-13.45,0c-6.597,0 -11.569,-4.542 -11.569,-10.566c0,-6.024 4.972,-10.566 11.569,-10.566l13.453,0c0.374,0 0.736,-0.131 1.021,-0.373l19.82,-16.702l-0.142,55.156z" id="svg_2"/>
        </g>
    </g>
</svg>