<svg xmlns="http://www.w3.org/2000/svg" xmlns:xlink="http://www.w3.org/1999/xlink" version="1.1" baseProfile="tiny" x="0px" y="0px" width="100px" height="100px" viewBox="0 0 100 100" xml:space="preserve">
<g id="Captions">
</g>
<g id="Your_Icon">
	<path fill-rule="evenodd" fill="#000000" d="M49,10c2.161,0,10.282,24.631,12.401,26.252s26.922,2.105,27.582,4.273   c0.68,2.174-19.122,17.877-19.923,20.504c-0.818,2.613,6.403,27.537,4.661,28.885c-1.758,1.346-22.1-13.58-24.722-13.58   c-2.621,0-22.962,14.926-24.72,13.58c-1.742-1.348,5.479-26.271,4.659-28.885c-0.799-2.627-20.601-18.33-19.921-20.504   c0.66-2.168,25.463-2.652,27.583-4.273S46.82,10,49,10z"/>
</g>
</svg>