<svg xmlns="http://www.w3.org/2000/svg" xmlns:xlink="http://www.w3.org/1999/xlink" version="1.1" id="Layer_1" x="0px" y="0px" width="100px" height="100px" viewBox="0 0 100 100" enable-background="new 0 0 100 100" xml:space="preserve">
<path fill="#000000" d="M182.009,96.97v7.94"/>
<g>
	<path fill="#000000" d="M99.845,60.704c0-8.314-6.739-15.054-15.054-15.054s-15.055,6.74-15.055,15.054   c0,6.983,4.758,12.855,11.206,14.555C79.464,83.74,74.221,92.57,58.788,92.57c-7.017,0-12.586-2.145-16.553-6.374   c-4.446-4.738-6.252-11.364-6.983-16.145c1.406-2.091,2.552-5.187,2.841-7.672c18.226-9.123,23.57-48.616,23.61-49.009   c0.125-1.255,0.419-4.184-8.186-8.792C52.463,1.833,49.808,0,46.864,0c-3.936,0-7.136,3.201-7.136,7.136s3.201,7.136,7.136,7.136   c1.864,0,3.669-0.746,5.001-2.058c0.959,0.592,1.771,1.15,2.29,1.573c-1.401,9.193-9.157,42.024-23.128,42.996   C17.055,55.812,9.3,22.982,7.899,13.788c0.519-0.423,1.331-0.981,2.29-1.573c1.332,1.311,3.137,2.057,5.001,2.057   c3.935,0,7.136-3.201,7.136-7.136S19.125,0,15.191,0c-2.945,0-5.599,1.833-6.654,4.579c-8.604,4.607-8.311,7.537-8.186,8.792   c0.04,0.393,5.385,39.886,23.61,49.009c0.334,2.856,1.877,6.931,3.978,9.09c0.908,5.704,3.182,13.721,8.849,19.779   c5.43,5.807,12.831,8.751,22,8.751c22.796,0,28.351-15.745,29.662-24.693C94.996,73.671,99.845,67.755,99.845,60.704z    M84.791,68.523c-4.319,0-7.82-3.501-7.82-7.819c0-4.319,3.501-7.82,7.82-7.82c4.318,0,7.819,3.501,7.819,7.82   C92.61,65.022,89.109,68.523,84.791,68.523z"/>
	<circle fill="#000000" cx="84.791" cy="60.704" r="3.839"/>
</g>
</svg>