<svg xmlns="http://www.w3.org/2000/svg" xmlns:xlink="http://www.w3.org/1999/xlink" version="1.1" id="Layer_1" x="0px" y="0px" width="100px" height="100px" viewBox="0 0 100 100" enable-background="new 0 0 100 100" xml:space="preserve">
<polyline points="48.805,81.005 47.93,81.005 47.93,7.239 49.681,7.239 49.681,81.005 48.805,81.005 "/>
<polygon points="59.81,97.126 61.8,97.126 58.378,90.717 48.945,90.717 48.666,90.717 39.233,90.717 35.811,97.126 37.801,97.126   37.641,97.643 39.75,97.643 39.671,98 48.07,98 49.541,98 57.939,98 57.859,97.643 59.969,97.643 "/>
<path d="M48.805,1.739c-0.571,0-1.034,0.463-1.034,1.034v3.38h0.96h0.148h0.96v-3.38C49.839,2.202,49.376,1.739,48.805,1.739z   M48.805,3.584c-0.315,0-0.571-0.256-0.571-0.572S48.49,2.44,48.805,2.44c0.316,0,0.571,0.256,0.571,0.572  S49.121,3.584,48.805,3.584z"/>
<path d="M48.805,90.24H38.538c0,0,0.637-1.95,2.985-2.388c2.348-0.438,5.054-1.313,5.771-3.105C48.01,82.956,47.851,82,47.851,82  h0.954h0.955c0,0-0.159,0.956,0.557,2.747c0.716,1.792,3.422,2.667,5.772,3.105c2.347,0.438,2.984,2.388,2.984,2.388H48.805z"/>
</svg>