<svg width="100" height="100" xmlns="http://www.w3.org/2000/svg" xmlns:svg="http://www.w3.org/2000/svg">
 <g>
  <title>Layer 1</title>
  <path d="m85,5l-70,0c-5.523,0 -10,4.477 -10,10l0,70c0,5.523 4.477,10 10,10l70,0c5.523,0 10,-4.477 10,-10l0,-70c0,-5.523 -4.477,-10 -10,-10zm5,80c0,2.757 -2.243,5 -5,5l-70,0c-2.757,0 -5,-2.243 -5,-5l0,-70c0,-2.757 2.243,-5 5,-5l70,0c2.757,0 5,2.243 5,5l0,70z" id="svg_1"/>
  <path d="m15,85l70,0l0,-70l-70,0l0,70zm67.5,-67.5l-2.5,5l-60,0l-2.5,-5l65,0zm-62.5,7.5l60,0l2.5,57.5l-65,0l2.5,-57.5z" id="svg_2"/>
  <path fill="black" d="m32.60977,72.64265l8.65101,0a8.81037,8.81037 0 0 0 17.47845,0l8.651,0a5.06539,5.06539 0 0 0 3.76774,-8.45181l-3.88725,-4.33689l0,-8.00217a17.30201,17.30201 0 0 0 -10.37551,-15.81654l0,-1.29196a7.00618,7.00618 0 0 0 -6.41994,-7.06309a6.89804,6.89804 0 0 0 -7.36475,6.88096l0,1.47978a17.31339,17.31339 0 0 0 -10.37551,15.82223l0,7.96803l-3.89295,4.33689a5.06539,5.06539 0 0 0 3.76774,8.45181l0,0.02275l0,0l-0.00002,0l0,0.00001zm17.39308,4.26292a5.41257,5.41257 0 0 1 -5.28167,-4.26292l10.56333,0a5.41257,5.41257 0 0 1 -5.28167,4.26292l0.00001,0zm-18.61674,-10.43243l4.3255,-4.82066a1.70744,1.70744 0 0 0 0.43824,-1.13829l0,-8.65101a13.89283,13.89283 0 0 1 9.23723,-13.05619a1.70744,1.70744 0 0 0 1.13829,-1.61068l0,-2.63514a3.48886,3.48886 0 0 1 3.47749,-3.48317l0.24473,0a3.58561,3.58561 0 0 1 3.23844,3.65391l0,2.45302a1.70744,1.70744 0 0 0 1.13829,1.61068a13.88145,13.88145 0 0 1 9.23153,13.05619l0,8.65669a1.70744,1.70744 0 0 0 0.43826,1.13829l4.32549,4.82066a1.65052,1.65052 0 0 1 -1.22935,2.75466l-34.78046,0a1.65052,1.65052 0 0 1 -1.22935,-2.75466l0.00569,0.00569l-0.00001,0.00001l-0.00001,0z" id="svg_1"/>
 </g>
</svg>