<svg width="100" height="100" xmlns="http://www.w3.org/2000/svg" xmlns:svg="http://www.w3.org/2000/svg">
    <g>
        <title>Layer 1</title>
        <path id="svg_1" d="m85,5l-70,0c-5.523,0 -10,4.477 -10,10l0,70c0,5.523 4.477,10 10,10l70,0c5.523,0 10,-4.477 10,-10l0,-70c0,-5.523 -4.477,-10 -10,-10zm5,80c0,2.757 -2.243,5 -5,5l-70,0c-2.757,0 -5,-2.243 -5,-5l0,-70c0,-2.757 2.243,-5 5,-5l70,0c2.757,0 5,2.243 5,5l0,70z"/>
        <path id="svg_2" d="m15,85l70,0l0,-70l-70,0l0,70zm67.5,-67.5l-2.5,5l-60,0l-2.5,-5l65,0zm-62.5,7.5l60,0l2.5,57.5l-65,0l2.5,-57.5z"/>
        <path stroke="black" d="m49.41807,40.85374c0.33986,-0.05229 0.5737,-0.37037 0.52045,-0.71023c-0.05181,-0.33937 -0.37085,-0.5737 -0.70974,-0.52044c-3.48577,0.53642 -6.03135,2.85688 -6.64426,6.05651c-0.06439,0.33793 0.15638,0.66423 0.4943,0.72862c0.0397,0.00726 0.07891,0.01114 0.11765,0.01114c0.2929,0 0.55385,-0.2077 0.61098,-0.50592c0.51125,-2.66661 2.66129,-4.60556 5.61063,-5.05968l-0.00001,0z" id="svg_2"/>
        <path stroke="black" d="m53.51772,65.30445c-2.60513,0.65406 -5.20251,1.33282 -7.79698,2.01642c-0.60129,0.15831 -0.85159,0.59548 -0.62405,1.21372c0.2106,0.57467 0.70199,0.72668 1.22244,0.59258c2.5998,-0.67101 5.19234,-1.36526 7.78875,-2.04499c0.47639,-0.1244 0.76639,-0.39359 0.79253,-0.93631c-0.16945,-0.77509 -0.69812,-1.01328 -1.38269,-0.84142z" id="svg_3"/>
        <path stroke="black" d="m51.96219,68.14099c-1.59813,0.4028 -3.1948,0.81189 -4.78615,1.23502c-0.54659,0.14572 -1.007,0.45412 -0.8148,1.11496c0.2014,0.69618 0.76154,0.87096 1.39334,0.70684c1.59425,-0.41344 3.18124,-0.854 4.77888,-1.26069c0.47639,-0.122 0.78236,-0.366 0.87677,-0.88742c-0.16994,-0.81625 -0.6744,-1.10382 -1.44805,-0.90871l0.00001,0z" id="svg_4"/>
        <path fill="black" d="m54.98755,49.19876l-1.68382,0l0.22754,-0.6105c0.17526,-0.47251 -0.06439,-0.99828 -0.5369,-1.17402c-0.47349,-0.17525 -0.99829,0.06439 -1.17451,0.53691l-0.46477,1.24761l-0.07068,0l0.22125,-0.59403c0.17574,-0.47252 -0.06439,-0.99828 -0.5369,-1.17403c-0.473,-0.17477 -0.99877,0.06439 -1.17451,0.53691l-0.45848,1.23067l-0.07068,0l0.21496,-0.57709c0.17525,-0.47252 -0.06439,-0.99829 -0.5369,-1.17403c-0.47348,-0.17574 -0.99828,0.06439 -1.17451,0.53691l-0.45218,1.21421l-2.39066,0c-0.21447,0 -0.412,0.11813 -0.51367,0.30742c-0.10118,0.1893 -0.09053,0.41927 0.02856,0.59742c0.03341,0.05083 3.3686,5.14635 3.14736,11.89904l1.16434,0.03873c0.17962,-5.48959 -1.8155,-9.86084 -2.80701,-11.6778l0.9368,0l-0.12297,0.33115c-0.17525,0.47203 0.06439,0.9978 0.53739,1.17403c0.10506,0.03873 0.21254,0.05761 0.31856,0.05761c0.36988,0 0.71845,-0.22706 0.85595,-0.59452l0.36068,-0.96827l0.07068,0l-0.11716,0.31421c-0.17526,0.47251 0.06439,0.9978 0.53739,1.17403c0.10506,0.03873 0.21302,0.05761 0.31856,0.05761c0.37037,0 0.71846,-0.22706 0.85595,-0.59452l0.35439,-0.95181l0.07068,0l-0.11087,0.29774c-0.17526,0.47252 0.06439,0.9978 0.5369,1.17403c0.10555,0.03873 0.21254,0.05761 0.31856,0.05761c0.36988,0 0.71846,-0.22706 0.85595,-0.59452l0.34809,-0.93534l1.0985,0c-0.99151,1.81695 -2.98663,6.1882 -2.80701,11.6778l1.16434,-0.03873c-0.22028,-6.73624 3.11346,-11.84821 3.14735,-11.89905c0.11813,-0.17913 0.12927,-0.40909 0.0276,-0.5979c-0.10263,-0.18736 -0.29919,-0.30549 -0.51414,-0.30549z" id="svg_6"/>
        <path fill="black" d="m49.94965,36.05355c-5.77281,0.03244 -11.07311,4.95172 -11.34423,10.52701c-0.12587,2.5906 0.51996,5.04951 1.97381,7.51908c0.43282,0.7354 0.89226,1.46112 1.33669,2.16311c0.27983,0.44201 0.55918,0.88306 0.8332,1.32846c0.99925,1.62427 1.6659,3.08345 1.67123,4.92509c0.00339,1.08301 0.59403,1.86924 1.66397,2.21395l0.06778,0.02178c-0.1433,0.03777 -0.28757,0.07504 -0.43185,0.11281c-0.60129,0.15881 -0.85159,0.59644 -0.62405,1.21372c0.2106,0.57467 0.702,0.72717 1.22244,0.59355c2.39404,-0.61775 4.78228,-1.25632 7.17293,-1.88425l0.1559,0l0.18058,-0.05761c0.08036,-0.02615 0.15202,-0.05907 0.22754,-0.09005c0.01743,-0.00484 0.03438,-0.00967 0.05132,-0.01356c0.26385,-0.06923 0.46331,-0.18978 0.59935,-0.36939c0.50592,-0.41587 0.78333,-1.00845 0.78576,-1.74143c0.00484,-1.84019 0.67149,-3.29985 1.67074,-4.92509c0.27499,-0.44685 0.55579,-0.89081 0.83707,-1.33476c0.44298,-0.69957 0.90145,-1.42335 1.33379,-2.15681c1.45289,-2.46957 2.09921,-4.92849 1.97285,-7.5186c-0.26869,-5.5748 -5.56948,-10.49457 -11.35682,-10.52701l0,0zm7.29832,16.81688c-0.41491,0.70538 -0.85401,1.39866 -1.29264,2.09146c-0.28661,0.45218 -0.57321,0.90388 -0.85304,1.36042c-1.02588,1.66784 -1.97769,3.54822 -2.02998,6.04586l-3.11589,0.00533l-3.11637,-0.00533c-0.04163,-2.47973 -0.99828,-4.37076 -2.02949,-6.04586c-0.27886,-0.45412 -0.5645,-0.90388 -0.84917,-1.35509c-0.43427,-0.68602 -0.88306,-1.39479 -1.29603,-2.09679c-1.20743,-2.04886 -1.74385,-4.06818 -1.6417,-6.17271c0.20769,-4.27878 4.46856,-8.19881 8.92598,-8.2235c4.47195,0.02517 8.73281,3.94472 8.94002,8.22398c0.10216,2.10405 -0.43475,4.12337 -1.64169,6.17223z" id="svg_5"/>
        <path fill="black" d="m35.23197,35.88653c0.11958,0.13023 0.28225,0.19656 0.44589,0.19656c0.14621,0 0.29242,-0.05277 0.40909,-0.15928c0.24643,-0.22561 0.26289,-0.60807 0.03728,-0.85498l-0.2929,-0.32001c-0.22657,-0.24642 -0.60807,-0.26288 -0.85546,-0.03728c-0.24643,0.22561 -0.26289,0.60856 -0.03728,0.85498l0.29338,0.32001z" id="svg_7"/>
        <path stroke="black" d="m39.35921,39.49187c0.24642,-0.22561 0.26288,-0.60856 0.03728,-0.85498l-0.40909,-0.44589c-0.22609,-0.24739 -0.61049,-0.26289 -0.85498,-0.0368c-0.24643,0.22561 -0.26289,0.60855 -0.03728,0.85498l0.40909,0.44588c0.11958,0.13023 0.28225,0.19608 0.44637,0.19608c0.14621,0 0.2929,-0.05277 0.40861,-0.15928l0,0.00001z" id="svg_8"/>
        <path stroke="black" d="m37.35151,36.40697c-0.22609,-0.24739 -0.61049,-0.26289 -0.85498,-0.0368c-0.24643,0.22561 -0.26289,0.60856 -0.03728,0.85498l0.4091,0.44588c0.11958,0.13023 0.28225,0.19608 0.44637,0.19608c0.14669,0 0.2929,-0.05229 0.4091,-0.15928c0.24642,-0.22609 0.26288,-0.60904 0.03727,-0.85498l-0.40957,-0.44588l-0.00001,0z" id="svg_9"/>
        <path stroke="black" d="m45.68394,34.90277c0.08376,0.25417 0.3205,0.41539 0.57467,0.41539c0.06245,0 0.12685,-0.01017 0.18979,-0.0305c0.31759,-0.10506 0.48994,-0.44734 0.38489,-0.76493l-1.78355,-5.3947c-0.10458,-0.31711 -0.44686,-0.48994 -0.76397,-0.38489c-0.31759,0.10506 -0.48994,0.44734 -0.38488,0.76493l1.78306,5.39471l-0.00001,-0.00001z" id="svg_10"/>
        <path stroke="black" d="m53.23837,35.26587c0.06293,0.02034 0.12636,0.0305 0.18929,0.0305c0.25368,0 0.4914,-0.1617 0.57515,-0.41636l0.1893,-0.57467c0.10409,-0.31759 -0.06924,-0.65939 -0.38634,-0.76396c-0.31711,-0.10554 -0.6594,0.06778 -0.76397,0.38537l-0.18929,0.57467c-0.10409,0.31808 0.06875,0.65987 0.38586,0.76445z" id="svg_11"/>
        <path stroke="black" d="m54.75371,30.66756c0.06245,0.02082 0.12684,0.0305 0.1893,0.0305c0.25417,0 0.49139,-0.1617 0.57515,-0.41636l0.1893,-0.57467c0.10409,-0.31759 -0.06826,-0.65939 -0.38585,-0.76396c-0.31711,-0.10457 -0.65939,0.06826 -0.76397,0.38585l-0.18978,0.57467c-0.10409,0.31759 0.06875,0.65987 0.38586,0.76396l-0.00001,0.00001z" id="svg_12"/>
        <path stroke="black" d="m53.99652,32.96671c0.06245,0.02082 0.12635,0.0305 0.18929,0.0305c0.25369,0 0.49091,-0.16122 0.57515,-0.41636l0.18929,-0.57515c0.1041,-0.31759 -0.06874,-0.65939 -0.38585,-0.76396c-0.31759,-0.10457 -0.65987,0.06778 -0.76397,0.38537l-0.18929,0.57515c-0.10458,0.31856 0.06729,0.66036 0.38537,0.76445l0.00001,0z" id="svg_13"/>
        <path stroke="black" d="m64.11589,34.90034l-3.84305,3.60002c-0.24401,0.229 -0.2561,0.61195 -0.02808,0.85546c0.11861,0.12733 0.2803,0.19172 0.44152,0.19172c0.14815,0 0.29726,-0.05423 0.41345,-0.16315l3.84305,-3.60002c0.24401,-0.229 0.25611,-0.61195 0.0276,-0.85546c-0.22705,-0.244 -0.61195,-0.25611 -0.85449,-0.02856l0,0l0,-0.00001z" id="svg_14"/>
        <path stroke="black" d="m64.0791,45.02359l-0.56741,0.21156c-0.31275,0.11619 -0.473,0.46477 -0.35632,0.77801c0.09102,0.24352 0.32243,0.39408 0.5674,0.39408c0.07068,0 0.14186,-0.01258 0.21109,-0.03873l0.56741,-0.21157c0.31323,-0.11619 0.47301,-0.46477 0.35632,-0.778c-0.11765,-0.31324 -0.46913,-0.47252 -0.77849,-0.35535z" id="svg_15"/>
        <path stroke="black" d="m66.34727,44.17878l-0.56741,0.21157c-0.31323,0.11668 -0.47301,0.46477 -0.35632,0.77848c0.09102,0.24352 0.32195,0.39408 0.56741,0.39408c0.0702,0 0.14185,-0.01258 0.21107,-0.03873l0.56741,-0.21108c0.31274,-0.11668 0.473,-0.46525 0.35632,-0.77848c-0.11765,-0.31372 -0.46815,-0.473 -0.7785,-0.35584l0.00002,0z" id="svg_16"/>
        <path stroke="black" d="m69.12184,43.7905c-0.1162,-0.31323 -0.46526,-0.473 -0.77802,-0.35535l-0.29532,0.11039c-0.31322,0.11667 -0.47252,0.46525 -0.35487,0.77849c0.09055,0.24352 0.32146,0.3936 0.56644,0.3936c0.07068,0 0.14185,-0.0121 0.21205,-0.03825l0.29532,-0.11038c0.31275,-0.11667 0.47155,-0.46525 0.35439,-0.77849l0,0l0,-0.00001l0.00001,0z" id="svg_17"/>
        <path stroke="black" d="m36.4883,45.23467l-4.83263,-1.79953c-0.31081,-0.11716 -0.66133,0.04212 -0.778,0.35584c-0.11668,0.31324 0.04309,0.66182 0.35632,0.778l4.83263,1.80001c0.06923,0.02615 0.14088,0.03873 0.21108,0.03873c0.24545,0 0.47639,-0.15105 0.56741,-0.39408c0.11619,-0.31372 -0.04357,-0.6623 -0.35681,-0.77897z" id="svg_18"/>
    </g>
</svg>