<svg width="100" height="100" xmlns="http://www.w3.org/2000/svg">
 <g>
  <title>Layer 1</title>
  <path id="svg_50" d="m38.963,87.871c-1.312,0 -2.568,-0.592 -3.734,-1.762l-21.443,-21.439c-1.21,-1.207 -1.462,-2.49 -1.462,-3.354c0,-2.459 1.975,-4.633 3.996,-6.65l39.173,-39.164c1.679,-1.734 3.264,-3.373 5.521,-3.373c1.312,0 2.568,0.592 3.731,1.758l21.444,21.445c3.735,3.748 -0.498,7.975 -2.53001,10.006l-39.177,39.164c-1.678,1.73 -3.259,3.369 -5.519,3.369zm22.016,-71.244c-0.387,0.078 -1.509,1.236 -2.252,2.004l-0.879,0.898l-38.351,38.321c-2.37,2.364 -2.692,3.188 -2.675,3.469l21.589,21.613c0.315,0.315 0.501,0.409 0.562,0.436c0.457,-0.117 1.547,-1.244 2.273,-1.994l0.879,-0.9l38.35,-38.315c2.371,-2.371 2.692,-3.191 2.672,-3.474l-21.586,-21.617c-0.388,-0.388 -0.579,-0.441 -0.582,-0.441z"/>
  <path id="svg_51" d="m59.768,26.512c-0.602,0 -1.17,-0.24 -1.592,-0.66c-0.419,-0.422 -0.658,-0.99 -0.658,-1.59c0,-0.602 0.239,-1.17 0.629,-1.592c0.871,-0.84 2.342,-0.84 3.211,0c0.42,0.422 0.66,0.99 0.66,1.592c0,0.6 -0.24,1.168 -0.66,1.59c-0.422,0.419 -1.02,0.66 -1.59,0.66z"/>
  <path id="svg_52" d="m65.078,31.82c-0.571,0 -1.172,-0.24 -1.592,-0.631c-0.422,-0.447 -0.658,-1.021 -0.658,-1.619c0,-0.568 0.236,-1.141 0.658,-1.588c0.871,-0.842 2.342,-0.812 3.18,0c0.422,0.447 0.662,1.02 0.662,1.588c0,0.6 -0.24001,1.172 -0.662,1.59c-0.419,0.42 -0.99,0.66 -1.588,0.66z"/>
  <path id="svg_53" d="m70.416,37.16c-0.602,0 -1.169,-0.24 -1.588,-0.658c-0.422,-0.422 -0.662,-1.02 -0.662,-1.592c0,-0.6 0.24,-1.168 0.63,-1.59c0.87,-0.838 2.341,-0.871 3.21101,-0.029c0.419,0.451 0.659,1.02 0.659,1.619c0,0.572 -0.24,1.141 -0.659,1.562c-0.45,0.448 -1.021,0.688 -1.591,0.688z"/>
  <path id="svg_54" d="m75.729,42.473c-0.602,0 -1.172,-0.24 -1.592,-0.662c-0.419,-0.42 -0.658,-0.99 -0.658,-1.588c0,-0.602 0.23901,-1.172 0.658,-1.592c0.809,-0.84 2.342,-0.84 3.18,0c0.422,0.42 0.66199,1.02 0.66199,1.592c0,0.598 -0.24,1.168 -0.66199,1.588c-0.421,0.421 -0.989,0.662 -1.58801,0.662z"/>
  <path id="svg_55" d="m54.036,56.588c-1.242,0 -2.25,-1.008 -2.25,-2.25l0,-5.736l-5.584,0c-1.242,0 -2.25,-1.008 -2.25,-2.25s1.008,-2.25 2.25,-2.25l7.834,0c1.241,0 2.25,1.008 2.25,2.25l0,7.986c0,1.242 -1.009,2.25 -2.25,2.25z"/>
  <path id="svg_56" d="m42.997,59.646c-0.577,0 -1.151,-0.222 -1.591,-0.66c-0.879,-0.879 -0.879,-2.303 0,-3.182l11.039,-11.046c0.879,-0.879 2.303,-0.879 3.182,0c0.879,0.88 0.879,2.304 0,3.183l-11.039,11.045c-0.44,0.44 -1.014,0.66 -1.591,0.66z"/>
 </g>
</svg>