<svg width="100" height="100" xmlns="http://www.w3.org/2000/svg" xmlns:svg="http://www.w3.org/2000/svg">
    <title>tool-2 copy 2</title>
    <desc>Created with Sketch.</desc>
    <g>
        <title>Layer 1</title>
        <g id="svg_1" fill-rule="evenodd" fill="none">
            <path id="svg_2" fill="#000000" d="m87.00079,15.02079l0,5.61553c0,1.99184 -1.61526,3.6071 -3.60711,3.6071l-67.78657,0c-1.99185,0 -3.60711,-1.61526 -3.60711,-3.6071l0,-5.61553c0,-1.99184 1.61526,-3.60711 3.60711,-3.60711l23.35973,0l0,-2.80657c0,-1.99185 1.6129,-3.60711 3.60474,-3.60711l13.85763,0c1.99184,0 3.60711,1.61526 3.60711,3.60711l0,2.80657l23.35736,0c1.99185,0 3.60711,1.61527 3.60711,3.60711l0,0zm-57.55974,66.79184l6.34974,0l0,-38.10079l-6.34974,0l0,38.10079zm17.74658,0l6.34974,0l0,-38.10079l-6.34974,0l0,38.10079zm17.74658,0l6.34974,0l0,-38.10079l-6.34974,0l0,38.10079zm-47.25947,6.55579c0,3.66158 2.97,6.63158 6.63394,6.63158l50.38579,0c3.66158,0 6.63158,-2.97 6.63158,-6.63158l0,-57.01974l-63.65131,0l0,57.01974z"/>
        </g>
    </g>
</svg>