<svg width="100" height="100" xmlns="http://www.w3.org/2000/svg">
  <title>Layer 1</title>
  <g>
    <title>Layer 1</title>
    <path d="m98.576,1.844c0,-0.462 -0.02299,-0.918 -0.06898,-1.367c0.046,0.449 0.06898,0.905 0.06898,1.367l0,0z" id="svg_1" fill="black"/>
    <path d="m98.576,33.67c0,-0.461 -0.02299,-0.917 -0.06898,-1.366c0.046,0.449 0.06898,0.905 0.06898,1.366l0,0z" id="svg_4" fill="black"/>
    <path d="m98.507,33.67c0,-0.461 -0.023,-0.917 -0.069,-1.366c-0.68501,-6.737 -6.373,-11.994 -13.292,-11.994l-1.62801,0c-6.709,0.762 -11.921,6.449 -11.921,13.361c0,6.91 5.21,12.596 11.915,13.36l1.634,0c7.379,0 13.361,-5.981 13.361,-13.361l0.00002,0l-0.00001,0z" id="svg_5" fill="black"/>
    <path d="m68.425,33.671c0,-5.474 2.641,-10.319 6.711,-13.361l-60.194,0c-7.379,0 -13.36,5.981 -13.36,13.36c0,7.38 5.981,13.361 13.36,13.361l60.191,0c-4.069,-3.042 -6.708,-7.887 -6.708,-13.36z" id="svg_6" fill="black"/>
    <path d="m85.229,52.136l-60.193,0c1.169,0.874 2.216,1.901 3.12,3.045l57.035,0c5.699,0 10.316,4.618 10.316,10.316s-4.617,10.317 -10.316,10.317l-57.03402,0c-0.904,1.144 -1.95,2.17 -3.119,3.044l60.19101,0c7.37901,0 13.35999,-5.982 13.35999,-13.361s-5.981,-13.361 -13.35999,-13.361l0.00001,0z" id="svg_7" fill="black"/>
    <circle cx="15.037" cy="65.498" r="13.455" id="svg_8" fill="black"/>
  </g>
</svg>