<svg width="100" height="100" xmlns="http://www.w3.org/2000/svg">
 <g>
  <title>Layer 1</title>
  <path stroke-width="2" stroke="#000000" fill-opacity="0" d="m99.5,22.001l-14.506,-8.377l0,4.376l-4.494,0c-3.86,0 -7,3.141 -7,7l0.001,50.96c-0.029,0.232 -0.314,0.694 -0.471,0.803l-0.634,0.317c-0.37701,0.174 -1.416,0.175 -1.79202,-0.001l-0.59599,-0.29501c-0.195,-0.13 -0.481,-0.592 -0.508,-0.784l0,-48c0,-2.979 -1.799,-6.341 -4.277,-7.992l-1.008,-0.672c-2.731,-1.822 -6.69699,-1.82 -9.429,0l-1.007,0.672c-2.48,1.651 -4.279,5.013 -4.279,7.992l0.001,47.96c-0.029,0.232 -0.314,0.694 -0.471,0.803l-0.634,0.31699c-0.377,0.174 -1.416,0.175 -1.792,-0.001l-0.596,-0.29501c-0.195,-0.13 -0.481,-0.592 -0.508,-0.784l0,-48c0,-2.979 -1.799,-6.341 -4.277,-7.992l-1.008,-0.672c-2.731,-1.822 -6.697,-1.82 -9.429,0l-1.007,0.672c-2.48,1.651 -4.279,5.013 -4.279,7.992l0.001,48.96c-0.029,0.232 -0.314,0.694 -0.471,0.803l-0.634,0.317c-0.377,0.174 -1.416,0.175 -1.792,-0.001l-0.596,-0.29501c-0.195,-0.13 -0.481,-0.592 -0.508,-0.784l0,-52c0,-3.859 -3.14,-7 -7,-7l-9,0c-2.209,0 -4,1.791 -4,4s1.791,4 4,4l8,0l0,51c0,3.17 2.058,6.5 4.896,7.921l0.63,0.314c1.296,0.648 2.886,0.973 4.474,0.973c1.587,0 3.175,-0.323 4.469,-0.971l0.637,-0.318c2.836,-1.419 4.894,-4.749 4.894,-7.919l0,-48.99c0.019,-0.363 0.431,-1.134 0.715,-1.346l0.949,-0.638c0.151,-0.064 0.521,-0.065 0.614,-0.034l1,0.667c0.291,0.217 0.703,0.987 0.722,1.341l0,48c0,3.17 2.058,6.5 4.896,7.921l0.63,0.314c2.592,1.296 6.354,1.297 8.943,0.002l0.637,-0.318c2.836,-1.419 4.894,-4.749 4.894,-7.91901l0,-47.99c0.019,-0.363 0.431,-1.134 0.715,-1.346l0.949,-0.638c0.151,-0.064 0.521,-0.065 0.614,-0.034l1,0.667c0.291,0.217 0.703,0.987 0.722,1.341l0,48c0,3.17 2.058,6.5 4.896,7.921l0.63,0.314c2.592,1.296 6.354,1.297 8.943,0.002l0.637,-0.318c2.836,-1.419 4.894,-4.749 4.894,-7.919l0,-50l3.494,0l0,4.376l14.506,-8.375l0,0.00004z" id="svg_1" fill="#000000"/>
 </g>
</svg>