<svg width="100" height="100" xmlns="http://www.w3.org/2000/svg">
 <g>
  <title>Layer 1</title>
  <g id="svg_6">
   <g id="svg_7">
    <g id="svg_8">
     <polygon fill="#000000" points="19.712,76.382 19.712,65.616 15.772,61.679 2.501,61.679 2.501,80.324 15.772,80.324    " id="svg_9"/>
     <polygon fill="#000000" points="19.712,54.869 19.712,42.314 2.501,42.314 2.501,58.81 15.772,58.81    " id="svg_10"/>
     <polygon fill="#000000" points="22.581,64.429 22.581,77.571 18.394,81.758 22.581,85.942 22.581,98.729 26.406,94.904      74.215,94.904 78.041,98.729 78.041,85.944 82.227,81.758 78.041,77.571 78.041,64.429 82.227,60.245 78.041,56.057      78.041,43.271 74.215,47.096 69.435,42.314 69.435,29.326 64.651,24.548 35.969,24.548 31.187,29.326 31.187,42.314      26.406,47.096 22.581,43.271 22.581,56.055 18.394,60.245    " id="svg_11"/>
     <polygon fill="#000000" points="80.908,87.13 80.908,99.686 98.12,99.686 98.12,83.191 84.848,83.191    " id="svg_12"/>
     <polygon fill="#000000" points="80.908,42.314 80.908,54.869 84.848,58.81 98.12,58.81 98.12,42.314    " id="svg_13"/>
     <polygon fill="#000000" points="80.908,65.616 80.908,76.382 84.848,80.324 98.12,80.324 98.12,61.679 84.848,61.679    " id="svg_14"/>
     <polygon fill="#000000" points="2.501,83.191 2.501,99.686 19.712,99.686 19.712,87.13 15.772,83.191    " id="svg_15"/>
    </g>
    <polygon fill="#000000" points="55.092,12.116 45.529,12.116 40.747,12.116 45.529,16.896 45.529,21.678 55.092,21.678     55.092,16.897 59.869,12.116   " id="svg_16"/>
    <path fill="#000000" d="m86.884,4.465h-31.792c0,-2.639 -2.141,-4.779 -4.782,-4.779c-2.641,0 -4.781,2.141 -4.781,4.779h-31.792c-1.052,0 -1.914,0.862 -1.914,1.913v0.958c0,1.05 0.862,1.913 1.914,1.913h73.147c1.05299,0 1.91299,-0.862 1.91299,-1.913v-0.959c0,-1.05 -0.86,-1.912 -1.91299,-1.912l0,0z" id="svg_17"/>
   </g>
  </g>
 </g>
</svg>