<svg width="100" height="100" xmlns="http://www.w3.org/2000/svg">
  <g>
    <title>Layer 1</title>
    <path fill="black" d="m82,39l0,-24l-14,0l0,10l-18,-18l-50,50l12.001,0l0,34l75.998,0l0,-34l12.001,0l-18,-18zm-32,-10.014l0,-4l10,8.001l-10,8l0,-4.001c-10.509,0 -19.132,8.154 -19.922,18.466l-7.975,-0.516c1.058,-14.48 13.148,-25.95 27.897,-25.95zm0,56.001c-10.361,0 -19.404,-5.67 -24.246,-14.057l-3.355,1.911l2,-12.649l11.906,4.73l-3.605,2.053c3.463,5.975 9.911,10.012 17.3,10.012c3.149,0 6.12,-0.751 8.772,-2.055l3.542,7.164c-3.723,1.833 -7.892,2.891 -12.314,2.891zm27.55,-12.211l-11.894,4.746l-2.02,-12.649l3.658,2.078c1.702,-2.938 2.706,-6.329 2.706,-9.964c0,-6.838 -3.456,-12.883 -8.707,-16.491l4.437,-6.655c7.39999,5.044 12.27,13.534 12.27,23.146c0,5.069 -1.371,9.818 -3.74,13.92001l3.29,1.869z" id="svg_1"/>
  </g>
</svg>