<svg width="560" height="560" xmlns="http://www.w3.org/2000/svg" xmlns:svg="http://www.w3.org/2000/svg">
    <title>5</title>
    <g>
        <title>Layer 1</title>
        <g id="svg_5">
            <path fill="black" d="m274.42001,67.96454c97.87,1.33 179.68,34.65 247.5,101.68c14.05,13.89 17.26,30.58 8.27,42.09c-9.17,11.74 -27.39,13.05 -43.83,2.76a83.53,83.53 0 0 1 -13.08,-10.41c-108.05,-103.02 -273.77,-106.37 -386.36,-7.62c-10.9,9.56 -22.81,16.09 -37.74,15.07c-10.44,-0.71 -18.84,-5.19 -23.54,-14.91c-4.82,-10 -1.94,-19.11 4.35,-27.36a72.73,72.73 0 0 1 9.44,-9.77c67.61,-60.66 147.27,-90.02 234.99,-91.53z" id="svg_1"/>
            <path d="m276.68282,181.76454c67.42,1.36 123.18,26.89 172.77,67.73c6.22,5.12 10.63,12.07 13.58,19.65c3.75,9.62 4.37,19.3 -2.87,27.64c-7.42,8.53 -17.35,9.95 -27.83,7.6c-11.26,-2.52 -19.93,-9.48 -28.36,-17c-67.23,-60.18 -166.94,-64.34 -238,-10c-6.37,4.87 -12.21,10.43 -18.25,15.72c-9.27,8.11 -19.69,13.17 -32.36,12.16c-16.5,-1.31 -26.08,-15.24 -21.55,-31.08a45.18,45.18 0 0 1 13.26,-21c48.55,-44.6 104.95,-70.47 169.61,-71.42z" id="svg_2"/>
            <path d="m290.66806,300.33454a130.3,130.3 0 0 1 92.15,40.58c8.49,8.87 14.35,18.87 11,32c-4.24,16.73 -24.36,24.57 -38.37,11.59c-43.6,-40.4 -104.25,-40.7 -150.48,-2.31c-12.9,10.71 -21.18,11.59 -31.49,3.33s-12.81,-22.24 -5.95,-35c3.7,-6.88 9.11,-12.3 15.11,-17.2c26.48,-21.56 60.63,-33.06 108.03,-32.99z" id="svg_3"/>
            <path d="m321.88395,449.68454a42.22,42.22 0 0 1 -42.63,42.18c-24.3,-0.12 -43.08,-19.15 -42.68,-43.28c0.41,-25.07 19.42,-44 43.78,-43.5c23.48,0.44 41.73,20.02 41.53,44.6z" id="svg_4"/>
        </g>
    </g>
</svg>