<svg xmlns="http://www.w3.org/2000/svg" xmlns:xlink="http://www.w3.org/1999/xlink" version="1.1" id="Your_Icon" x="0px" y="0px" width="100px" height="100px" viewBox="0 0 100 100" enable-background="new 0 0 100 100" xml:space="preserve">
<g>
	<path fill="#000000" d="M14.364,91h0.004c0,0,0-0.016,0.001-0.027C14.366,90.994,14.364,91,14.364,91z"/>
	<path fill="#000000" d="M14.369,90.973c0.001-0.01,0.002-0.014,0.002-0.035C14.371,90.918,14.37,90.947,14.369,90.973z"/>
	<path fill="#000000" d="M67.677,80.426c-7.158,0-9.229-3.883-9.597-7.297c2.687,0.94,5.043,0.901,5.043,0.901   c0.554-0.166,1.234-0.211,1.89-0.261c0.166-0.014-1.119-4.372-1.615-6.358c0.104-0.102,0.209-0.216,0.312-0.319   c0.968,1.785,2.907,6.471,3.287,6.49c3.628,0.186,7.461,1.321,7.461,1.321c-6.362-8.152-2.982-19.091-2.982-19.091   s5.965-10.538-1.591-26.248c-6.61-13.744-17.787-11.658-20.48-10.921c-2.692-0.736-13.869-2.823-20.48,10.92   c-7.556,15.709-1.591,26.247-1.591,26.247s3.381,10.937-2.982,19.089c0,0,3.236-1.14,6.865-1.325   c0.47-0.024,3.322-7.19,3.777-7.178c0.221,0.006-2.008,7.293-1.793,7.311c0.655,0.05,1.932,0.032,2.485,0.198   c0,0,3.3-0.116,6.542-1.635c-0.032,3.631-1.824,8.304-9.902,8.304C22.839,80.574,14.601,85,14.375,92h0.005c0.06,0,0.36,1,1.296,1   h68.543c1.327,0,1.406-1,1.406-1h0.012C85.637,85,77.294,80.426,67.677,80.426z"/>
</g>
</svg>